<svg width="152" height="133" viewBox="0 0 152 133" fill="none" xmlns="http://www.w3.org/2000/svg">
<g clip-path="url(#clip0)">
<path d="M145.077 132.823L144.876 132.748C144.831 132.732 140.434 131.053 138.374 127.248C136.314 123.443 137.323 118.861 137.333 118.815L137.38 118.606L137.581 118.681C137.626 118.698 142.023 120.376 144.083 124.181C146.143 127.987 145.134 132.569 145.124 132.615L145.077 132.823ZM138.704 127.071C140.445 130.288 143.92 131.938 144.801 132.314C144.968 131.374 145.493 127.573 143.753 124.359C142.013 121.145 138.537 119.493 137.656 119.115C137.489 120.056 136.964 123.857 138.704 127.071Z" fill="#3F3D56"/>
<path d="M139.948 125.913C143.65 128.132 145.076 132.538 145.076 132.538C145.076 132.538 140.5 133.348 136.798 131.129C133.095 128.911 131.67 124.504 131.67 124.504C131.67 124.504 136.246 123.695 139.948 125.913Z" fill="#386641"/>
<path d="M80.3481 71.2787C80.5276 71.0023 80.7636 70.7668 81.0408 70.5876C81.318 70.4084 81.6301 70.2896 81.9566 70.2389C82.2831 70.1882 82.6167 70.2068 82.9355 70.2935C83.2543 70.3801 83.5511 70.5329 83.8064 70.7418C83.887 70.8083 83.9628 70.8803 84.0332 70.9574L93.2526 69.6205L93.7657 62.7149C93.805 62.1851 94.054 61.6926 94.4578 61.3456C94.8617 60.9987 95.3874 60.8258 95.9192 60.8649C96.4511 60.904 96.9456 61.152 97.2939 61.5543C97.6422 61.9566 97.8158 62.4802 97.7765 63.01C97.7756 63.0223 97.7746 63.0345 97.7734 63.0468L96.8747 72.7366L96.8704 72.7582C96.7534 73.1307 96.519 73.4557 96.202 73.6849C95.8849 73.9142 95.5021 74.0355 95.1103 74.0309L84.2663 73.8445C84.2242 73.9085 84.1788 73.9703 84.1303 74.0295C83.9205 74.2839 83.6591 74.4912 83.3633 74.6379C83.0675 74.7847 82.7439 74.8675 82.4137 74.8809C82.0835 74.8944 81.7542 74.8382 81.4473 74.716C81.1404 74.5939 80.8629 74.4085 80.633 74.1721C80.5863 74.1245 80.5421 74.0753 80.5003 74.0245C80.1878 73.6411 80.0048 73.1693 79.9775 72.6762C79.9501 72.1831 80.0799 71.694 80.3481 71.2787V71.2787Z" fill="#FFB7B7"/>
<path d="M98.9354 130.157L96.3059 130.157L95.055 120.055L98.9358 120.055L98.9354 130.157Z" fill="#FFB7B7"/>
<path d="M99.606 132.696L91.1274 132.696V132.589C91.1275 131.717 91.4752 130.881 92.0941 130.265C92.7129 129.648 93.5523 129.302 94.4275 129.302H94.4277L99.6061 129.302L99.606 132.696Z" fill="#2F2E41"/>
<path d="M117.309 127.783L114.821 128.628L110.362 119.469L114.036 118.221L117.309 127.783Z" fill="#FFB7B7"/>
<path d="M118.767 129.97L110.742 132.696L110.708 132.595C110.425 131.77 110.483 130.867 110.869 130.084C111.255 129.302 111.937 128.704 112.766 128.423L112.766 128.423L117.667 126.758L118.767 129.97Z" fill="#2F2E41"/>
<path d="M101.831 41.8244C101.831 41.8244 99.2137 40.9635 97.5312 44.4073C95.8488 47.8511 93.2316 51.6392 93.2316 51.6392L94.7271 51.9836C94.7271 51.9836 95.101 49.573 96.0357 49.2286L95.6618 52.328C95.6618 52.328 106.878 55.944 111.926 51.9836L111.739 50.7783C111.739 50.7783 112.487 50.9505 112.487 51.9836L113.047 51.4671C113.047 51.4671 112.487 50.4339 110.804 49.0564C109.7 48.1523 109.32 46.4321 109.19 45.3567C109.087 44.4462 108.695 43.5922 108.071 42.9186C106.953 41.725 104.915 40.4565 101.831 41.8244Z" fill="#2F2E41"/>
<path d="M102.796 53.8565C105.436 53.8565 107.576 51.7247 107.576 49.095C107.576 46.4654 105.436 44.3336 102.796 44.3336C100.156 44.3336 98.0155 46.4654 98.0155 49.095C98.0155 51.7247 100.156 53.8565 102.796 53.8565Z" fill="#FFB7B7"/>
<path d="M96.4221 57.7772L95.553 57.4886C95.553 57.4886 93.8147 58.21 93.8147 59.5086C93.8147 60.8071 93.525 66.0014 93.525 66.0014L97.436 66.4343L96.4221 57.7772Z" fill="#CBCBCB"/>
<path d="M111.978 86.1578C111.617 85.7555 111.414 85.2376 111.404 84.6984C111.395 84.1592 111.58 83.6345 111.926 83.2198L109.486 62.8668C109.462 62.3868 109.63 61.917 109.954 61.5605C110.277 61.2039 110.73 60.9898 111.212 60.9651C111.693 60.9404 112.165 61.107 112.524 61.4286C112.882 61.7501 113.098 62.2002 113.124 62.68C113.124 62.6867 113.125 62.6933 113.125 62.7L115.308 83.0747C115.387 83.1538 115.46 83.2388 115.526 83.3291C115.701 83.5702 115.827 83.8434 115.896 84.1329C115.965 84.4224 115.976 84.7227 115.928 85.0165C115.881 85.3103 115.776 85.592 115.619 85.8454C115.463 86.0988 115.257 86.319 115.015 86.4933C114.99 86.5114 114.965 86.529 114.939 86.546C114.659 86.7308 114.341 86.8514 114.008 86.8993C113.676 86.9473 113.336 86.9212 113.015 86.8231C112.614 86.702 112.254 86.4716 111.978 86.1578Z" fill="#FFB7B7"/>
<path d="M109.743 66.0014L113.654 65.5686C113.654 65.5686 113.364 60.3743 113.364 59.0757C113.364 57.7771 111.626 57.0557 111.626 57.0557L110.757 57.3443L109.743 66.0014Z" fill="#CBCBCB"/>
<path d="M97.0015 73.2084C97.0015 73.2084 93.6699 79.2757 93.6699 86.6343C93.6699 93.9928 93.3802 127.756 93.3802 127.756C93.3802 127.756 97.7257 129.776 100.333 127.323L102.651 89.9528L111.776 126.601C111.776 126.601 116.122 127.467 118.15 126.024L114.239 100.486C114.239 100.486 112.646 76.5343 108.3 74.8029C103.954 73.0715 97.0015 73.2084 97.0015 73.2084Z" fill="#2F2E41"/>
<path d="M97.6302 49.1252C99.3225 47.9054 100.692 46.5003 101.598 44.8289C101.598 44.8289 104.704 48.266 106.602 48.4378C108.5 48.6097 106.774 44.3134 106.774 44.3134L103.324 43.4541L100.046 43.7978L97.4577 45.5163L97.6302 49.1252Z" fill="#2F2E41"/>
<path d="M107.576 56.19C107.576 56.19 107.714 56.1163 99.4644 56.4156L96.0118 57.3627L95.5529 57.4886C95.5529 57.4886 95.9875 66.1457 97.1463 67.7329C98.3051 69.32 98.0154 70.1857 97.7257 70.33C97.436 70.4743 96.7117 70.1857 97.1463 70.9071C97.5808 71.6286 98.1603 71.1957 97.5809 71.6286C97.0015 72.0614 96.7117 73.6486 96.7117 73.6486L109.459 75.38C109.459 75.38 109.893 69.7529 111.052 66.8672C112.211 63.9814 112.501 62.8272 112.501 62.8272L111.632 57.0558L107.576 56.19Z" fill="#CBCBCB"/>
<path d="M83.341 31.579H82.6079V11.5768C82.6079 8.50644 81.3835 5.56185 79.2039 3.39079C77.0243 1.21973 74.0681 3.54668e-05 70.9857 3.05176e-05L28.4416 3.05176e-05C25.3592 2.21039e-05 22.403 1.2197 20.2234 3.39076C18.0438 5.56181 16.8193 8.50639 16.8193 11.5767V121.311C16.8193 124.381 18.0438 127.325 20.2234 129.497C22.4029 131.668 25.3591 132.887 28.4415 132.887H70.9856C72.5119 132.887 74.0232 132.588 75.4333 132.006C76.8434 131.424 78.1246 130.572 79.2038 129.497C80.2831 128.422 81.1392 127.145 81.7232 125.741C82.3073 124.336 82.6079 122.831 82.6079 121.311V121.311V45.8169H83.341L83.341 31.579Z" fill="#3F3D56"/>
<path d="M80.1344 11.6581V121.23C80.1354 122.365 79.9121 123.488 79.4772 124.537C79.0423 125.585 78.4044 126.538 77.5999 127.341C76.7954 128.144 75.8399 128.781 74.7882 129.216C73.7365 129.651 72.609 129.875 71.4702 129.876H28.7063C26.406 129.878 24.1992 128.969 22.5714 127.35C20.9436 125.731 20.0283 123.534 20.0266 121.243V11.6581C20.0258 10.5235 20.2494 9.3999 20.6845 8.35139C21.1197 7.30288 21.7579 6.35001 22.5628 5.54718C23.3676 4.74435 24.3233 4.10729 25.3753 3.67237C26.4274 3.23746 27.5551 3.01319 28.6941 3.01239H33.892C33.6367 3.63605 33.5392 4.3127 33.6082 4.98272C33.6772 5.65275 33.9106 6.29558 34.2878 6.85458C34.6651 7.41357 35.1745 7.87158 35.7713 8.18824C36.3681 8.50491 37.0339 8.6705 37.7101 8.67044H62.0837C62.7599 8.6705 63.4257 8.50491 64.0225 8.18824C64.6193 7.87158 65.1288 7.41357 65.506 6.85458C65.8832 6.29558 66.1166 5.65275 66.1856 4.98272C66.2546 4.3127 66.1572 3.63605 65.9018 3.01239H71.4547C73.7546 3.01034 75.9612 3.91843 77.5889 5.53691C79.2167 7.15538 80.1323 9.35165 80.1344 11.6426V11.6581L80.1344 11.6581Z" fill="white"/>
<path d="M80.1344 27.869V24.1367H74.4634V3.54609C73.5003 3.19177 72.4815 3.01105 71.4547 3.01237H70.7166V24.1367H51.0453V8.67043H47.2984V24.1367H30.8121V3.01239H28.7064C28.1556 3.01153 27.606 3.0634 27.0652 3.16727V24.1367H20.0267V27.869H27.0652V36.5017L20.0268 40.5492V44.86L27.0652 40.8124V66.4974H20.0267V70.2297H27.0652V107.365H20.0267V111.097H27.0652V129.721C27.606 129.825 28.1556 129.877 28.7064 129.876H30.8121V111.097H47.2984V129.876H51.0453V111.097H70.7166V129.876H71.4547C72.4815 129.877 73.5003 129.697 74.4634 129.342V111.097H80.1344V107.365H74.4634V91.1301H80.0838V87.3979H74.4634V70.2297H80.1344V66.4974H74.4634V43.7309H80.1344V39.9987H74.4634V27.869L80.1344 27.869ZM42.0773 27.869L42.0772 27.869L30.8122 34.3482L30.8121 34.3482V27.869H42.0773ZM30.8121 38.657L30.8122 38.657L47.2984 29.1753V66.4974H30.8121V38.657ZM30.8121 107.365V70.2297H47.2984V107.365H30.8121ZM70.7165 107.365H51.0453V91.1301H70.7165V107.365ZM70.7165 87.3979H51.0453V70.2297H70.7165V87.3979ZM70.7165 66.4974H51.0453V43.7309H70.7165V66.4974ZM70.7165 39.9987H51.0453V27.869H70.7165V39.9987Z" fill="#E5E5E5"/>
<path d="M83.2687 40.0677C83.2687 51.9199 61.724 78.323 61.724 78.323C61.724 78.323 40.1794 51.9199 40.1794 40.0677C40.1794 34.3761 42.4492 28.9176 46.4896 24.893C50.53 20.8684 56.01 18.6075 61.724 18.6075C67.438 18.6075 72.918 20.8684 76.9584 24.893C80.9988 28.9176 83.2687 34.3761 83.2687 40.0677V40.0677Z" fill="#386641"/>
<path d="M74.4637 39.1346C74.4637 41.6444 73.7166 44.0978 72.3167 46.1846C70.9169 48.2714 68.9273 49.8978 66.5994 50.8583C64.2716 51.8187 61.7101 52.07 59.2389 51.5804C56.7677 51.0907 54.4978 49.8822 52.7161 48.1075C50.9345 46.3328 49.7211 44.0718 49.2296 41.6102C48.738 39.1487 48.9903 36.5973 49.9545 34.2786C50.9188 31.9599 52.5516 29.978 54.6466 28.5837C56.7416 27.1893 59.2046 26.4451 61.7243 26.4451C63.3965 26.4443 65.0524 26.7716 66.5976 27.4084C68.1429 28.0451 69.547 28.9787 70.73 30.156C71.913 31.3332 72.8516 32.731 73.4922 34.2696C74.1328 35.8082 74.463 37.4573 74.4637 39.123V39.1346Z" fill="white"/>
<path d="M61.6799 44.1439C64.3011 44.1439 66.426 42.0274 66.426 39.4164C66.426 36.8055 64.3011 34.689 61.6799 34.689C59.0588 34.689 56.9339 36.8055 56.9339 39.4164C56.9339 42.0274 59.0588 44.1439 61.6799 44.1439Z" fill="#386641"/>
<path d="M68.5679 50.2138C66.522 51.5097 64.1476 52.1978 61.723 52.1975C59.2985 52.1972 56.9242 51.5084 54.8787 50.2119C55.3041 48.7306 56.2023 47.4277 57.4374 46.5001C58.6725 45.5726 60.1772 45.071 61.724 45.0712C63.2708 45.0714 64.7754 45.5735 66.0102 46.5013C67.2451 47.4292 68.1429 48.7324 68.5679 50.2138V50.2138Z" fill="#386641"/>
<path d="M61.724 93.8117C64.9315 93.8117 67.5317 91.2217 67.5317 88.0268C67.5317 84.8318 64.9315 82.2418 61.724 82.2418C58.5165 82.2418 55.9163 84.8318 55.9163 88.0268C55.9163 91.2217 58.5165 93.8117 61.724 93.8117Z" fill="#386641"/>
<path d="M151.578 133H0.952909C0.903222 133 0.85557 132.98 0.820436 132.945C0.785302 132.91 0.765564 132.863 0.765564 132.813C0.765564 132.764 0.785302 132.716 0.820436 132.681C0.85557 132.646 0.903222 132.627 0.952909 132.627H151.578C151.628 132.627 151.676 132.646 151.711 132.681C151.746 132.716 151.766 132.764 151.766 132.813C151.766 132.863 151.746 132.91 151.711 132.945C151.676 132.98 151.628 133 151.578 133Z" fill="#CBCBCB"/>
</g>
<defs>
<clipPath id="clip0">
<rect width="151" height="133" fill="white" transform="translate(0.765564)"/>
</clipPath>
</defs>
</svg>
