<svg width="146" height="114" viewBox="0 0 146 114" fill="none" xmlns="http://www.w3.org/2000/svg">
<g clip-path="url(#clip0)">
<path d="M132.239 104.07C129.459 107.05 126.274 109.623 122.777 111.714C122.697 111.763 122.616 111.809 122.534 111.857L116.873 106.84C116.933 106.785 116.999 106.723 117.07 106.655C121.287 102.644 142.226 74.6041 143.621 67.7759C143.525 68.3448 144.88 90.6532 132.239 104.07Z" fill="#F0F0F0"/>
<path d="M123.87 112.682C123.763 112.707 123.654 112.731 123.545 112.753L119.298 108.989C119.381 108.96 119.478 108.926 119.589 108.887C121.411 108.241 126.838 106.291 132.238 104.07C138.041 101.682 143.816 98.9836 145.058 97.2553C144.792 97.6568 136.585 109.834 123.87 112.682Z" fill="#F0F0F0"/>
<path d="M132.16 29.8563H131.555V13.2662C131.555 12.0053 131.307 10.7567 130.825 9.59174C130.344 8.42679 129.637 7.36828 128.747 6.47667C127.857 5.58505 126.799 4.87778 125.636 4.39524C124.473 3.9127 123.226 3.66434 121.967 3.66434H86.8669C85.6077 3.66433 84.3608 3.91269 83.1974 4.39523C82.0341 4.87776 80.977 5.58503 80.0867 6.47665C79.1963 7.36826 78.49 8.42676 78.0081 9.59171C77.5262 10.7567 77.2782 12.0053 77.2782 13.2662V104.281C77.2782 105.541 77.5262 106.79 78.0081 107.955C78.49 109.12 79.1963 110.178 80.0866 111.07C80.977 111.962 82.0341 112.669 83.1974 113.152C84.3608 113.634 85.6076 113.882 86.8668 113.882H121.967C123.226 113.882 124.473 113.634 125.636 113.152C126.799 112.669 127.856 111.962 128.747 111.07C129.637 110.179 130.344 109.12 130.825 107.955C131.307 106.79 131.555 105.542 131.555 104.281V41.6654H132.16V29.8563Z" fill="#3F3D56"/>
<path d="M129.514 13.3322V104.214C129.514 105.156 129.329 106.088 128.969 106.958C128.609 107.828 128.082 108.619 127.416 109.284C126.751 109.95 125.962 110.478 125.093 110.838C124.224 111.198 123.293 111.383 122.352 111.383H87.0836C86.1434 111.383 85.2124 111.198 84.3438 110.838C83.4752 110.477 82.6859 109.949 82.0211 109.284C81.3563 108.618 80.8289 107.827 80.4692 106.958C80.1094 106.088 79.9243 105.156 79.9243 104.214V13.3322C79.9243 12.3907 80.1094 11.4584 80.4692 10.5886C80.8289 9.71874 81.3563 8.9284 82.0211 8.26268C82.6859 7.59695 83.4752 7.06888 84.3438 6.70863C85.2124 6.34837 86.1434 6.16298 87.0836 6.16306H91.3636C91.1536 6.68036 91.0736 7.24143 91.1309 7.79693C91.1881 8.35242 91.3808 8.88532 91.692 9.34876C92.0031 9.81219 92.4233 10.192 92.9154 10.4547C93.4075 10.7174 93.9565 10.855 94.5142 10.8553H114.622C115.18 10.8559 115.73 10.7188 116.222 10.4564C116.715 10.1939 117.135 9.8141 117.447 9.3504C117.758 8.88671 117.951 8.35339 118.007 7.79753C118.064 7.24166 117.984 6.68033 117.773 6.16306H122.352C123.293 6.16271 124.224 6.3479 125.093 6.70803C125.962 7.06815 126.751 7.59617 127.416 8.26192C128.082 8.92766 128.609 9.7181 128.969 10.5881C129.329 11.458 129.514 12.3905 129.514 13.3322V13.3322Z" fill="white"/>
<path d="M118.543 60.5593H87.5431C87.0001 60.5587 86.4796 60.3424 86.0956 59.9579C85.7117 59.5735 85.4957 59.0522 85.4951 58.5084V57.4876C85.4957 56.9439 85.7117 56.4226 86.0956 56.0381C86.4796 55.6536 87.0001 55.4374 87.5431 55.4368H118.543C119.086 55.4374 119.607 55.6536 119.991 56.0381C120.375 56.4226 120.591 56.9439 120.591 57.4876V58.5084C120.591 59.0522 120.375 59.5735 119.991 59.9579C119.607 60.3424 119.086 60.5587 118.543 60.5593Z" fill="#F0F0F0"/>
<path d="M118.543 69.3589H87.5431C87.0001 69.3583 86.4796 69.142 86.0956 68.7575C85.7117 68.373 85.4957 67.8518 85.4951 67.308V66.2872C85.4957 65.7435 85.7117 65.2222 86.0956 64.8377C86.4796 64.4532 87.0001 64.237 87.5431 64.2364H118.543C119.086 64.237 119.607 64.4532 119.991 64.8377C120.375 65.2222 120.591 65.7435 120.591 66.2872V67.308C120.591 67.8518 120.375 68.373 119.991 68.7575C119.607 69.142 119.086 69.3583 118.543 69.3589V69.3589Z" fill="#F0F0F0"/>
<path d="M120.094 58.5912H89.0938C88.5237 58.5906 87.9771 58.3635 87.574 57.9598C87.1708 57.5561 86.9441 57.0088 86.9434 56.4378V55.417C86.9441 54.8461 87.1708 54.2988 87.574 53.8951C87.9771 53.4914 88.5237 53.2643 89.0938 53.2636H120.094C120.664 53.2643 121.211 53.4914 121.614 53.8951C122.017 54.2988 122.244 54.8461 122.245 55.417V56.4378C122.244 57.0088 122.017 57.5561 121.614 57.9598C121.211 58.3635 120.664 58.5906 120.094 58.5912V58.5912ZM89.0938 53.6738C88.6323 53.6743 88.1898 53.8582 87.8635 54.185C87.5371 54.5118 87.3535 54.9549 87.353 55.417V56.4378C87.3535 56.9 87.5371 57.3431 87.8635 57.6699C88.1898 57.9967 88.6323 58.1806 89.0938 58.1811H120.094C120.556 58.1806 120.998 57.9967 121.324 57.6699C121.651 57.3431 121.834 56.9 121.835 56.4378V55.417C121.834 54.9549 121.651 54.5118 121.324 54.185C120.998 53.8582 120.556 53.6743 120.094 53.6738H89.0938Z" fill="#3F3D56"/>
<path d="M120.094 67.3909H89.0938C88.5237 67.3902 87.9771 67.1631 87.574 66.7594C87.1708 66.3557 86.9441 65.8084 86.9434 65.2375V64.2167C86.9441 63.6457 87.1708 63.0984 87.574 62.6947C87.9771 62.291 88.5237 62.0639 89.0938 62.0633H120.094C120.664 62.0639 121.211 62.291 121.614 62.6947C122.017 63.0984 122.244 63.6457 122.245 64.2167V65.2375C122.244 65.8084 122.017 66.3557 121.614 66.7594C121.211 67.1631 120.664 67.3902 120.094 67.3909V67.3909ZM89.0938 62.4734C88.6323 62.4739 88.1898 62.6578 87.8635 62.9846C87.5371 63.3114 87.3535 63.7545 87.353 64.2167V65.2375C87.3535 65.6997 87.5371 66.1427 87.8635 66.4696C88.1898 66.7964 88.6323 66.9802 89.0938 66.9807H120.094C120.556 66.9802 120.998 66.7964 121.324 66.4696C121.651 66.1427 121.834 65.6997 121.835 65.2375V64.2167C121.834 63.7545 121.651 63.3114 121.324 62.9846C120.998 62.6578 120.556 62.4739 120.094 62.4734H89.0938Z" fill="#3F3D56"/>
<path d="M129.514 13.3322V33.1002C126.378 33.9266 123.093 34.0214 119.914 33.3774C116.735 32.7333 113.746 31.3676 111.177 29.3852C108.607 27.4028 106.526 24.8567 105.094 21.9427C103.662 19.0286 102.916 15.8244 102.914 12.5764C102.914 11.9967 102.937 11.423 102.984 10.8553H114.622C115.18 10.8559 115.73 10.7188 116.222 10.4564C116.715 10.1939 117.135 9.8141 117.447 9.3504C117.758 8.88671 117.951 8.35339 118.008 7.79753C118.064 7.24166 117.984 6.68033 117.773 6.16306H122.352C123.293 6.16271 124.224 6.3479 125.093 6.70803C125.962 7.06815 126.751 7.59617 127.416 8.26192C128.082 8.92766 128.609 9.7181 128.969 10.5881C129.329 11.458 129.514 12.3905 129.514 13.3322V13.3322Z" fill="#F0F0F0"/>
<path d="M97.7449 110.149C97.7449 110.565 97.7294 110.977 97.6958 111.383H87.0836C86.1434 111.383 85.2124 111.198 84.3438 110.838C83.4752 110.477 82.6859 109.949 82.0211 109.284C81.3563 108.618 80.8289 107.827 80.4692 106.958C80.1094 106.088 79.9243 105.156 79.9243 104.214V94.4931C82.1488 94.2034 84.4094 94.3918 86.5554 95.0457C88.7015 95.6997 90.6837 96.8042 92.3699 98.2855C94.0562 99.7669 95.4077 101.591 96.3346 103.637C97.2614 105.682 97.7422 107.902 97.7449 110.149H97.7449Z" fill="#386641"/>
<path d="M12.1541 93.0919C12.4523 93.2232 12.7903 93.2307 13.094 93.1128C13.3978 92.9949 13.6424 92.7612 13.7743 92.4629L23.3343 70.7662C23.5531 70.2697 23.62 69.7193 23.5264 69.1848C23.4329 68.6502 23.1831 68.1554 22.8087 67.763C22.4343 67.3706 21.9522 67.0981 21.4232 66.9801C20.8942 66.8621 20.3421 66.9039 19.8368 67.1001H19.8368C19.253 67.3233 18.7645 67.7422 18.4543 68.2855C18.405 68.3715 18.3603 68.46 18.3203 68.5507L8.76027 90.2474C8.69512 90.3953 8.65968 90.5545 8.65599 90.7161C8.6523 90.8776 8.68043 91.0384 8.73876 91.189C8.7971 91.3397 8.8845 91.4774 8.99598 91.5942C9.10746 91.7111 9.24083 91.8048 9.38848 91.87L12.1541 93.0919Z" fill="#386641"/>
<path d="M22.9418 79.6736L13.4857 77.5693L15.8262 71.3692C16.2249 69.8538 17.1528 68.5316 18.4416 67.6426C19.7304 66.7536 21.2946 66.3565 22.8507 66.5234L22.9418 66.5336L22.9418 79.6736Z" fill="#2F2E41"/>
<path d="M42.0416 93.4022C41.7635 93.4017 41.4914 93.3206 41.2584 93.1686C41.0253 93.0165 40.8413 92.8002 40.7284 92.5456L31.1684 70.8489C30.8644 70.1585 30.8361 69.3778 31.0895 68.6672C31.3428 67.9566 31.8584 67.3703 32.5303 67.0288C33.2022 66.6874 33.9792 66.6168 34.7015 66.8315C35.4237 67.0463 36.0364 67.5301 36.4133 68.1834V68.1833C36.4663 68.2755 36.5143 68.3706 36.5572 68.468L46.1172 90.1647C46.2707 90.513 46.2797 90.9082 46.1422 91.2632C46.0048 91.6182 45.7322 91.9039 45.3843 92.0576L42.525 93.3209L42.5235 93.3177C42.369 93.3735 42.2059 93.4021 42.0416 93.4022V93.4022Z" fill="#386641"/>
<path d="M28.8176 85.9517C28.4918 85.952 28.1795 86.0818 27.9491 86.3125C27.7187 86.5432 27.5892 86.8559 27.5888 87.1822V112.411C27.5892 112.737 27.7187 113.05 27.9491 113.28C28.1795 113.511 28.4918 113.641 28.8176 113.641H31.8404C32.1662 113.641 32.4785 113.511 32.7089 113.28C32.9393 113.05 33.0689 112.737 33.0692 112.411V87.1822C33.0689 86.8559 32.9393 86.5432 32.7089 86.3125C32.4785 86.0818 32.1662 85.952 31.8404 85.9517H28.8176Z" fill="#386641"/>
<path d="M22.839 85.9517C22.5132 85.952 22.2008 86.0818 21.9704 86.3125C21.7401 86.5432 21.6105 86.8559 21.6101 87.1822V112.411C21.6105 112.737 21.7401 113.05 21.9704 113.28C22.2008 113.511 22.5132 113.641 22.839 113.641H25.8618C26.1876 113.641 26.4999 113.511 26.7303 113.28C26.9607 113.05 27.0902 112.737 27.0906 112.411V87.1822C27.0902 86.8559 26.9607 86.5432 26.7303 86.3125C26.4999 86.0818 26.1876 85.952 25.8618 85.9517H22.839Z" fill="#386641"/>
<path d="M27.2494 59.5206C33.018 59.5206 37.6943 54.8378 37.6943 49.0613C37.6943 43.2847 33.018 38.6019 27.2494 38.6019C21.4808 38.6019 16.8045 43.2847 16.8045 49.0613C16.8045 54.8378 21.4808 59.5206 27.2494 59.5206Z" fill="#386641"/>
<path d="M30.7252 53.4519C31.4023 53.4331 32.2449 53.4095 32.8941 52.9347C33.0874 52.7875 33.2462 52.5997 33.3594 52.3846C33.4726 52.1694 33.5375 51.9321 33.5495 51.6892C33.5612 51.5166 33.5329 51.3436 33.4668 51.1838C33.4007 51.0239 33.2986 50.8815 33.1685 50.7678C32.8294 50.4808 32.3343 50.4136 31.8007 50.5706L32.3536 46.5252L31.9477 46.4695L31.2979 51.2254L31.6367 51.0697C32.0296 50.8892 32.5689 50.7974 32.9041 51.081C32.9863 51.1551 33.0505 51.2473 33.0914 51.3503C33.1324 51.4533 33.149 51.5643 33.1401 51.6748C33.1302 51.8556 33.0815 52.0321 32.9973 52.1923C32.9132 52.3526 32.7956 52.4928 32.6525 52.6034C32.1473 52.9729 31.4756 53.0206 30.7138 53.0419L30.7252 53.4519Z" fill="#2F2E41"/>
<path d="M36.5665 46.8741H34.3605V47.2842H36.5665V46.8741Z" fill="#2F2E41"/>
<path d="M29.6032 46.8741H27.3972V47.2842H29.6032V46.8741Z" fill="#2F2E41"/>
<path d="M37.5988 93.5296L33.8394 66.0482C33.7991 65.7536 33.6536 65.4835 33.4297 65.288C33.2059 65.0924 32.9189 64.9847 32.6219 64.9847H29.7843C29.7961 64.917 29.8023 64.8484 29.8027 64.7796V63.7542C29.8027 63.4279 29.6732 63.1149 29.4428 62.8841C29.2123 62.6534 28.8998 62.5237 28.5739 62.5237H26.1162C25.7903 62.5237 25.4778 62.6534 25.2473 62.8841C25.0169 63.1149 24.8874 63.4279 24.8874 63.7542V64.7796C24.8878 64.8484 24.894 64.917 24.9058 64.9847H22.0682C21.7712 64.9847 21.4842 65.0925 21.2604 65.288C21.0366 65.4835 20.891 65.7536 20.8507 66.0482L17.0913 93.5296C17.0675 93.7037 17.0812 93.8808 17.1315 94.0492C17.1817 94.2175 17.2674 94.3731 17.3828 94.5055C17.4981 94.6379 17.6404 94.744 17.8001 94.8168C17.9599 94.8895 18.1333 94.9271 18.3087 94.9271H36.3813C36.5568 94.9271 36.7302 94.8895 36.8899 94.8168C37.0497 94.744 37.192 94.6379 37.3073 94.5055C37.4227 94.3731 37.5083 94.2175 37.5586 94.0492C37.6089 93.8808 37.6226 93.7037 37.5988 93.5296V93.5296Z" fill="#2F2E41"/>
<path d="M31.7483 79.6736V66.5336L31.8394 66.5235C33.3974 66.3567 34.9634 66.755 36.253 67.6462C37.5426 68.5373 38.4702 69.8621 38.8673 71.3799L41.2043 77.5693L31.7483 79.6736Z" fill="#2F2E41"/>
<path d="M26.7234 59.847L19.4989 57.039C18.3175 56.5798 17.1296 56.1346 15.9545 55.6596C15.4511 55.484 14.9875 55.2103 14.5902 54.8544C14.2443 54.4878 14.0086 54.031 13.91 53.5364C13.6595 52.4758 13.7048 51.3163 13.7226 50.234C13.7365 49.05 13.8338 47.8684 14.0138 46.6982C14.3293 44.499 15.0702 42.3826 16.195 40.4676C18.2211 37.1388 21.7118 34.6342 25.7271 34.8341C27.586 34.9267 29.4556 35.5946 30.8368 36.8673C30.9809 37.0398 31.1425 37.1966 31.3191 37.3354C31.4419 37.3815 31.5754 37.3905 31.7032 37.3613C31.8718 37.3504 32.0405 37.3421 32.2093 37.3364C32.7951 37.3117 33.3819 37.3363 33.9635 37.4101C35.0235 37.5248 36.0281 37.9425 36.8575 38.6134C37.5477 39.208 38.1093 40.0473 38.1671 40.98C38.195 41.4082 38.1243 41.8371 37.9604 42.2336C37.7966 42.6301 37.5439 42.9836 37.222 43.2669C36.3601 43.9943 35.1304 43.7386 34.0965 43.6838L30.3089 43.4828L28.3899 43.381C27.9947 43.36 27.9959 43.9754 28.3899 43.9963L33.4905 44.2669C34.3101 44.3103 35.1549 44.4169 35.9752 44.3677C36.6055 44.3391 37.2074 44.0967 37.6819 43.6802C38.1152 43.2816 38.438 42.7773 38.6188 42.2165C38.7996 41.6558 38.8322 41.0577 38.7134 40.4806C38.4504 39.2219 37.5149 38.1807 36.4182 37.5612C34.926 36.7183 33.1439 36.6376 31.4742 36.7622L31.6914 36.8523C29.8026 34.8223 26.9095 33.9653 24.1935 34.2652C21.3258 34.5819 18.7752 36.1839 16.9427 38.3746C14.8995 40.817 13.7861 43.8626 13.3532 46.9943C13.128 48.6851 13.0538 50.3927 13.1316 52.0967C13.1284 52.8482 13.2568 53.5945 13.511 54.3016C13.801 54.9898 14.3253 55.5527 14.9907 55.8902C15.7536 56.259 16.5379 56.5816 17.3393 56.8563L20.001 57.8909L25.2292 59.923L26.5601 60.4402C26.9289 60.5836 27.0887 59.9889 26.7234 59.847Z" fill="#2F2E41"/>
<path d="M15.3641 38.9389C14.7363 38.9389 14.1225 38.7525 13.6005 38.4032C13.0784 38.0539 12.6716 37.5575 12.4313 36.9766C12.191 36.3958 12.1282 35.7566 12.2507 35.14C12.3731 34.5233 12.6755 33.9569 13.1194 33.5124C13.5634 33.0678 14.129 32.765 14.7448 32.6424C15.3606 32.5197 15.9989 32.5827 16.5789 32.8233C17.159 33.0639 17.6547 33.4713 18.0035 33.9941C18.3524 34.5168 18.5385 35.1314 18.5385 35.7601C18.5376 36.6029 18.2028 37.4109 17.6077 38.0068C17.0126 38.6028 16.2057 38.938 15.3641 38.9389ZM15.3641 33.1966C14.8578 33.1966 14.3628 33.3469 13.9418 33.6286C13.5208 33.9103 13.1927 34.3107 12.9989 34.7791C12.8052 35.2475 12.7545 35.763 12.8533 36.2602C12.952 36.7575 13.1959 37.2143 13.5539 37.5728C13.9119 37.9314 14.3681 38.1755 14.8647 38.2744C15.3613 38.3733 15.876 38.3226 16.3438 38.1285C16.8116 37.9345 17.2114 37.6059 17.4927 37.1844C17.774 36.7628 17.9241 36.2671 17.9241 35.7601C17.9234 35.0805 17.6534 34.4288 17.1735 33.9483C16.6935 33.4677 16.0428 33.1973 15.3641 33.1966V33.1966Z" fill="#2F2E41"/>
<path d="M68.4292 58.6384L61.5583 53.3761L56.3033 60.2564L63.1742 65.5187L68.4292 58.6384Z" fill="#F0F0F0"/>
<path d="M29.5979 11.6626C30.6835 11.6618 31.7542 11.9155 32.7243 12.4035C33.6944 12.8915 34.5369 13.6001 35.1843 14.4728L39.1964 9.21977L27.1584 0L17.9514 12.0547L23.1397 16.0284C23.6589 14.7389 24.5512 13.6343 25.702 12.8564C26.8527 12.0784 28.2094 11.6627 29.5979 11.6626V11.6626Z" fill="#F0F0F0"/>
<path d="M145.046 114H0.455474C0.401157 114 0.349064 113.978 0.310656 113.94C0.272249 113.901 0.250671 113.849 0.250671 113.795C0.250671 113.741 0.272249 113.688 0.310656 113.65C0.349064 113.611 0.401157 113.59 0.455474 113.59H145.046C145.1 113.59 145.152 113.611 145.191 113.65C145.229 113.688 145.251 113.741 145.251 113.795C145.251 113.849 145.229 113.901 145.191 113.94C145.152 113.978 145.1 114 145.046 114Z" fill="#3F3D56"/>
<path d="M109.756 79.9701H95.0383C94.4954 79.9695 93.9748 79.7533 93.5908 79.3688C93.2069 78.9843 92.9909 78.463 92.9903 77.9193V76.8985C92.9909 76.3547 93.2069 75.8335 93.5908 75.449C93.9748 75.0645 94.4954 74.8482 95.0383 74.8476H109.756C110.299 74.8482 110.819 75.0645 111.203 75.449C111.587 75.8335 111.803 76.3547 111.804 76.8985V77.9193C111.803 78.463 111.587 78.9843 111.203 79.3688C110.819 79.7533 110.299 79.9695 109.756 79.9701V79.9701Z" fill="#386641"/>
<path d="M111.307 78.0022H96.589C96.0189 78.0015 95.4723 77.7745 95.0692 77.3708C94.666 76.9671 94.4392 76.4197 94.4386 75.8488V74.828C94.4392 74.2571 94.666 73.7097 95.0692 73.306C95.4723 72.9023 96.0189 72.6752 96.589 72.6746H111.307C111.877 72.6752 112.423 72.9023 112.826 73.306C113.23 73.7097 113.456 74.2571 113.457 74.828V75.8488C113.456 76.4197 113.23 76.9671 112.826 77.3708C112.423 77.7745 111.877 78.0015 111.307 78.0022V78.0022ZM96.589 73.0848C96.1275 73.0853 95.685 73.2691 95.3586 73.5959C95.0323 73.9227 94.8487 74.3658 94.8482 74.828V75.8488C94.8487 76.311 95.0323 76.7541 95.3586 77.0809C95.685 77.4077 96.1275 77.5915 96.589 77.592H111.307C111.768 77.5915 112.211 77.4077 112.537 77.0809C112.863 76.7541 113.047 76.311 113.047 75.8488V74.828C113.047 74.3658 112.863 73.9227 112.537 73.5959C112.211 73.2691 111.768 73.0853 111.307 73.0848H96.589Z" fill="#3F3D56"/>
</g>
<defs>
<clipPath id="clip0">
<rect width="145" height="114" fill="white" transform="translate(0.250671)"/>
</clipPath>
</defs>
</svg>
