<svg width="148" height="102" viewBox="0 0 148 102" fill="none" xmlns="http://www.w3.org/2000/svg">
<g clip-path="url(#clip0)">
<path d="M40.0747 93.0006H3.96753C3.96753 93.0006 3.23563 82.2951 7.56604 82.1734C11.8965 82.0518 11.4085 86.9179 16.8368 80.2269C22.2651 73.536 28.8522 73.901 29.7061 77.8547C30.5599 81.8084 28.0593 84.9714 32.6337 83.9982C37.208 83.025 43.7952 85.5797 40.0747 93.0006Z" fill="#386641"/>
<path d="M21.4116 93.003L21.2897 92.9981C21.5739 85.9497 23.0541 81.421 24.2458 78.8631C25.5396 76.0858 26.7865 74.9614 26.7989 74.9504L26.88 75.0413C26.8677 75.0522 25.6354 76.1654 24.3519 78.924C23.1668 81.471 21.6947 85.9811 21.4116 93.003Z" fill="#F2F2F2"/>
<path d="M34.4797 93.0176L34.3626 92.9836C35.7726 88.1568 39.0932 85.1092 39.1266 85.079L39.2086 85.1691C39.1754 85.1991 35.8797 88.225 34.4797 93.0176Z" fill="#F2F2F2"/>
<path d="M9.65454 93.0089L9.53369 92.9922C10.0121 89.5512 9.14793 86.8815 8.33872 85.2478C7.46253 83.479 6.4628 82.5129 6.4528 82.5033L6.5372 82.4155C6.54735 82.4252 7.56253 83.4061 8.44807 85.1939C9.26485 86.8429 10.1372 89.5373 9.65454 93.0089Z" fill="#F2F2F2"/>
<path d="M44.9751 93.1633H0.0730185L0.0626597 93.0116C0.0368445 92.6343 -0.535954 83.7331 2.356 80.5571C3.0025 79.8471 3.78126 79.4744 4.67061 79.4494C6.55569 79.396 7.74033 80.1001 8.69582 80.6654C10.4968 81.7309 11.6865 82.4348 16.0122 77.1028C20.6984 71.3265 25.7545 70.0838 28.6611 70.7748C30.5391 71.2214 31.8335 72.4834 32.2123 74.2375C32.571 75.8984 32.4568 77.459 32.365 78.713C32.2667 80.0547 32.1891 81.1145 32.7417 81.5947C33.2029 81.9955 34.1236 82.0319 35.6389 81.7094C38.7211 81.0537 43.0216 81.6148 45.1802 84.3962C46.3416 85.8927 47.2565 88.6128 45.0202 93.0734L44.9751 93.1633ZM0.379456 92.8378H44.773C46.4395 89.466 46.4915 86.6176 44.9222 84.5955C42.942 82.0439 38.7875 81.3723 35.707 82.0277C34.0607 82.3781 33.0797 82.3202 32.5273 81.8401C31.8517 81.2531 31.9346 80.1217 32.0394 78.6893C32.1298 77.4561 32.2421 75.9213 31.8933 74.306C31.542 72.6794 30.3363 71.5077 28.5854 71.0914C25.7716 70.4219 20.8567 71.6489 16.2659 77.3075C11.7629 82.858 10.4064 82.0558 8.52938 80.9453C7.5621 80.3732 6.46383 79.7243 4.67987 79.7747C3.88262 79.7972 3.18209 80.134 2.59759 80.7759C-0.00156052 83.6302 0.315793 91.6345 0.379456 92.8378Z" fill="#CFCCE0"/>
<path d="M141.685 93.0006H105.578C105.578 93.0006 104.846 82.2951 109.176 82.1734C113.507 82.0518 113.019 86.9179 118.447 80.2269C123.875 73.536 130.463 73.901 131.316 77.8547C132.17 81.8084 129.67 84.9714 134.244 83.9982C138.818 83.025 145.406 85.5797 141.685 93.0006Z" fill="#386641"/>
<path d="M123.022 93.003L122.9 92.9981C123.184 85.9497 124.665 81.421 125.856 78.8631C127.15 76.0858 128.397 74.9614 128.409 74.9504L128.49 75.0413C128.478 75.0522 127.246 76.1654 125.962 78.924C124.777 81.471 123.305 85.9811 123.022 93.003Z" fill="#F2F2F2"/>
<path d="M136.09 93.0176L135.973 92.9836C137.383 88.1568 140.704 85.1092 140.737 85.079L140.819 85.1691C140.786 85.1991 137.49 88.225 136.09 93.0176Z" fill="#F2F2F2"/>
<path d="M111.265 93.0089L111.144 92.9922C111.622 89.5512 110.758 86.8815 109.949 85.2478C109.073 83.479 108.073 82.5129 108.063 82.5033L108.148 82.4155C108.158 82.4252 109.173 83.4061 110.058 85.1939C110.875 86.8429 111.748 89.5373 111.265 93.0089Z" fill="#F2F2F2"/>
<path d="M146.585 93.1633H101.683L101.673 93.0116C101.647 92.6343 101.074 83.7331 103.966 80.5571C104.613 79.8471 105.392 79.4744 106.281 79.4494C108.166 79.396 109.351 80.1001 110.306 80.6654C112.107 81.7309 113.297 82.4348 117.623 77.1028C122.309 71.3265 127.365 70.0838 130.272 70.7748C132.15 71.2214 133.444 72.4834 133.823 74.2375C134.181 75.8984 134.067 77.459 133.975 78.713C133.877 80.0547 133.8 81.1145 134.352 81.5947C134.813 81.9955 135.734 82.0319 137.249 81.7094C140.331 81.0537 144.632 81.6148 146.791 84.3962C147.952 85.8927 148.867 88.6128 146.631 93.0734L146.585 93.1633ZM101.99 92.8378H146.383C148.05 89.4661 148.102 86.6176 146.533 84.5955C144.552 82.0439 140.398 81.3723 137.317 82.0277C135.671 82.3781 134.69 82.3202 134.138 81.8401C133.462 81.2531 133.545 80.1217 133.65 78.6893C133.74 77.4561 133.853 75.9213 133.504 74.306C133.152 72.6794 131.947 71.5077 130.196 71.0914C127.382 70.4219 122.467 71.6489 117.876 77.3075C113.373 82.858 112.017 82.0558 110.14 80.9453C109.173 80.3732 108.074 79.7243 106.29 79.7748C105.493 79.7972 104.793 80.134 104.208 80.7759C101.609 83.6302 101.926 91.6345 101.99 92.8378V92.8378Z" fill="#CFCCE0"/>
<path d="M69.5877 62.5996C66.4231 62.5996 63.6481 65.896 62.1178 70.8184C62.0096 71.1639 61.9081 71.5187 61.8134 71.879C61.169 74.4024 60.8489 76.9973 60.8609 79.6013C60.8609 88.9765 64.7751 96.603 69.5877 96.603C74.4004 96.603 78.3146 88.9765 78.3146 79.6013C78.3146 70.2261 74.4004 62.5996 69.5877 62.5996ZM69.5877 96.3332C64.9253 96.3332 61.1315 88.8268 61.1315 79.6013C61.1189 76.9863 61.4431 74.3806 62.0962 71.848C62.1855 71.5093 62.2811 71.1774 62.383 70.8522C63.8727 66.066 66.5448 62.8694 69.5877 62.8694C74.2502 62.8694 78.044 70.3758 78.044 79.6013C78.044 88.8268 74.2502 96.3332 69.5877 96.3332Z" fill="#3F3D56"/>
<path d="M71.6849 89.4313C70.0157 89.4313 68.7083 85.1134 68.7083 79.6013C68.7083 74.0891 70.0157 69.7712 71.6849 69.7712C73.3541 69.7712 74.6615 74.0891 74.6615 79.6013C74.6615 85.1134 73.3541 89.4313 71.6849 89.4313ZM71.6849 70.0411C70.2181 70.0411 68.9789 74.4191 68.9789 79.6013C68.9789 84.7835 70.2181 89.1615 71.6849 89.1615C73.1517 89.1615 74.3909 84.7835 74.3909 79.6013C74.3909 74.4191 73.1517 70.0411 71.6849 70.0411V70.0411Z" fill="#3F3D56"/>
<path d="M72.0231 81.859C72.6583 81.859 73.1732 80.8482 73.1732 79.6013C73.1732 78.3544 72.6583 77.3435 72.0231 77.3435C71.388 77.3435 70.8731 78.3544 70.8731 79.6013C70.8731 80.8482 71.388 81.859 72.0231 81.859Z" fill="#CFCCE0"/>
<path d="M69.5201 48.9712L88.0562 48.9037V56.1865L69.5201 56.9323V48.9712Z" fill="#3F3D56"/>
<path d="M53.6897 73.6716L53.4196 73.6569L54.2384 58.8213H71.0084V59.0912H54.4946L53.6897 73.6716Z" fill="#3F3D56"/>
<path d="M53.6619 97.6796L44.1909 96.0604L44.2471 95.7963L53.7181 97.4155L53.6619 97.6796Z" fill="#3F3D56"/>
<path d="M55.5953 100.786L55.5731 101.055L67.0736 102L67.0958 101.731L55.5953 100.786Z" fill="#3F3D56"/>
<path d="M82.2721 73.6858C82.1707 74.0109 82.0751 74.3429 81.9853 74.6816L81.7025 74.7126L72.9026 75.6882L52.7429 73.6642L73.7144 72.5847L82.0069 73.652L82.2721 73.6858Z" fill="#3F3D56"/>
<path d="M77.6623 25.3994C77.6623 25.3994 74.7319 24.3556 72.8481 28.5306C70.9643 32.7055 68.0339 37.2979 68.0339 37.2979L69.7084 37.7154C69.7084 37.7154 70.1271 34.7929 71.1736 34.3755L70.755 38.1329C70.755 38.1329 83.3137 42.5166 88.9651 37.7154L88.7558 36.2542C88.7558 36.2542 89.5931 36.4629 89.5931 37.7154L90.221 37.0892C90.221 37.0892 89.5931 35.8367 87.7093 34.1667C86.4728 33.0706 86.0479 30.9853 85.9019 29.6815C85.7925 28.5929 85.3558 27.5626 84.649 26.7258C83.3971 25.2789 81.1159 23.741 77.6623 25.3994Z" fill="#2F2E41"/>
<path d="M61.4697 29.3383L60.252 16.6544C60.252 16.6544 57.8166 9.77279 61.4697 10.3125C65.1228 10.8523 62.958 16.1147 62.958 16.1147L64.9875 29.3383H61.4697Z" fill="#FFB9B9"/>
<path d="M51.9987 86.9552L50.6457 91.543L53.2164 93.7019L55.1106 87.8997L51.9987 86.9552Z" fill="#FFB9B9"/>
<path d="M62.4168 90.3286L61.0638 95.1862L65.7993 98.1548C65.7993 98.1548 65.9346 92.6225 66.6111 91.543L62.4168 90.3286Z" fill="#FFB9B9"/>
<path d="M68.2347 64.4212L67.5582 65.7705C67.5582 65.7705 59.8461 62.2623 57.8166 67.1199C55.7871 71.9775 51.3222 87.36 51.3222 87.36L55.2459 88.9792L62.4168 72.6522L78.7882 72.2474L79.4647 63.2068L68.2347 64.4212Z" fill="#2F2E41"/>
<path d="M73.9174 66.7151C73.9174 66.7151 62.8227 64.4212 62.0109 69.9535C61.1991 75.4858 62.4168 86.0107 62.5521 86.2806C62.6874 86.5504 62.0109 91.543 62.0109 91.543L66.8817 92.2177C66.8817 92.2177 69.9937 77.5098 68.6407 73.7317L77.795 73.1669C80.9551 72.972 83.5366 70.4825 83.7183 67.3302C83.7879 66.1235 83.485 65.0284 82.4413 64.4212C79.1941 62.5321 73.2409 62.5321 73.2409 62.5321L73.9174 66.7151Z" fill="#2F2E41"/>
<path d="M52.4046 91.4081C52.4046 91.4081 51.4575 89.384 50.1045 90.3286C48.7515 91.2731 45.6396 93.2971 45.6396 93.2971C45.6396 93.2971 40.8258 94.9877 45.0984 96.1308C48.8989 97.1475 49.8339 96.9404 49.8339 96.9404C49.8339 96.9404 52.9458 97.4801 53.3517 97.2102C53.7576 96.9404 54.0282 92.6225 54.0282 92.6225C54.0282 92.6225 52.134 92.2177 52.4046 91.4081Z" fill="#2F2E41"/>
<path d="M62.958 95.591C62.958 95.591 61.605 93.7019 60.6579 94.5115C59.7108 95.3211 56.3283 97.615 56.3283 97.615C56.3283 97.615 50.6457 99.2342 55.6518 100.719C60.6579 102.203 66.2053 101.933 66.3406 101.393C66.4759 100.853 66.07 96.9404 66.07 96.9404C66.07 96.9404 63.2286 96.8054 62.958 95.591Z" fill="#2F2E41"/>
<path d="M79.1941 38.7837C81.8841 38.7837 84.0649 36.6088 84.0649 33.926C84.0649 31.2433 81.8841 29.0684 79.1941 29.0684C76.504 29.0684 74.3233 31.2433 74.3233 33.926C74.3233 36.6088 76.504 38.7837 79.1941 38.7837Z" fill="#FFB9B9"/>
<path d="M75.6763 36.085C75.6763 36.085 75.4057 41.6173 74.0527 42.0221C72.6997 42.4269 68.9112 46.8797 70.6701 48.2291C72.4291 49.5784 82.5766 48.6339 82.5766 48.6339L81.6295 41.6173C81.6295 41.6173 79.4647 40.133 81.2236 37.5693L75.6763 36.085Z" fill="#FFB9B9"/>
<path d="M75.541 45.2606L74.5939 40.8077L71.482 39.5933L68.9112 45.5304C68.9112 45.5304 66.0023 64.7586 66.8141 65.0284C67.2696 65.1888 67.7524 65.2576 68.2347 65.2308C68.2347 65.2308 72.5644 63.8815 73.9174 64.5562C75.2704 65.2308 82.306 65.7706 82.306 65.7706C82.306 65.7706 87.1768 63.2068 86.9062 60.9129C86.6356 58.6191 86.9062 45.8003 86.9062 45.8003L86.2973 40.0656L80.9588 40.8984L75.541 45.2606Z" fill="#CFCCE0"/>
<path d="M71.6172 40.2679L71.4819 39.4583L67.6935 34.8705L65.5287 27.1793L60.252 29.2033L64.0404 38.5137L69.4524 45.3954L71.6172 40.2679Z" fill="#CFCCE0"/>
<path d="M72.7951 34.507C72.7951 34.507 74.4696 32.2108 75.9348 31.7933C77.4 31.3758 77.6093 29.2883 77.6093 29.2883C77.6093 29.2883 81.3769 33.4632 83.6793 33.672C85.9818 33.8807 83.8886 28.6621 83.8886 28.6621L79.7024 27.6183L75.7255 28.0358L72.5858 30.1233L72.7951 34.507Z" fill="#2F2E41"/>
<path d="M88.4622 65.7076L88.3312 60.1707H75.7404L75.338 75.0173L75.0674 75.0098L75.4769 59.9008H88.5929L88.5972 60.0312L88.7325 65.6984L88.4622 65.7076Z" fill="#3F3D56"/>
<path d="M88.1915 58.1467H87.9209V47.847L92.2884 49.1115L92.2127 49.3707L88.1915 48.2064V58.1467Z" fill="#3F3D56"/>
<path d="M89.4769 65.4332C86.3122 65.4332 83.5372 68.7296 82.0069 73.6521C81.8987 73.9975 81.7972 74.3524 81.7025 74.7126C81.0581 77.2361 80.738 79.831 80.75 82.4349C80.75 91.8102 84.6642 99.4366 89.4769 99.4366C94.2895 99.4366 98.2037 91.8102 98.2037 82.4349C98.2037 73.0597 94.2895 65.4332 89.4769 65.4332ZM89.4769 99.1668C84.8144 99.1668 81.0206 91.6604 81.0206 82.4349C81.008 79.82 81.3323 77.2142 81.9853 74.6816C82.0746 74.3429 82.1702 74.011 82.2721 73.6858C83.7618 68.8997 86.434 65.7031 89.4769 65.7031C94.1393 65.7031 97.9331 73.2095 97.9331 82.4349C97.9331 91.6604 94.1393 99.1668 89.4769 99.1668Z" fill="#3F3D56"/>
<path d="M91.574 92.265C89.9048 92.265 88.5974 87.9471 88.5974 82.4349C88.5974 76.9228 89.9048 72.6049 91.574 72.6049C93.2432 72.6049 94.5506 76.9228 94.5506 82.4349C94.5506 87.9471 93.2432 92.265 91.574 92.265ZM91.574 72.8747C90.1073 72.8747 88.868 77.2527 88.868 82.4349C88.868 87.6171 90.1073 91.9951 91.574 91.9951C93.0408 91.9951 94.28 87.6171 94.28 82.4349C94.28 77.2527 93.0408 72.8747 91.574 72.8747V72.8747Z" fill="#3F3D56"/>
<path d="M91.9123 84.6927C92.5474 84.6927 93.0623 83.6819 93.0623 82.4349C93.0623 81.188 92.5474 80.1772 91.9123 80.1772C91.2771 80.1772 90.7622 81.188 90.7622 82.4349C90.7622 83.6819 91.2771 84.6927 91.9123 84.6927Z" fill="#CFCCE0"/>
<path d="M90.0857 47.6218L92.927 48.7013L92.3858 50.1856L90.0857 49.241V47.6218Z" fill="#3F3D56"/>
<path d="M78.8558 59.2261V61.3851H86.9171V59.3696L78.8558 59.2261Z" fill="#3F3D56"/>
<path d="M58.1549 58.1467V60.3056H66.2162V58.2901L58.1549 58.1467Z" fill="#3F3D56"/>
<path d="M85.709 12.4564H30.5574V-1.52588e-05H85.709V12.4564ZM30.8818 12.1329H85.3846V0.323531H30.8818V12.1329Z" fill="#3F3D56"/>
<path d="M41.1011 4.20606H34.9371V10.3534H41.1011V4.20606Z" fill="#386641"/>
<path d="M40.29 9.54455H33.8016V3.07366H40.29V9.54455ZM34.126 9.221H39.9656V3.39721H34.126L34.126 9.221Z" fill="#3F3D56"/>
<path d="M79.3828 4.36784H50.5093V4.69138H79.3828V4.36784Z" fill="#3F3D56"/>
<path d="M79.3828 6.63264H50.5093V6.95618H79.3828V6.63264Z" fill="#3F3D56"/>
<path d="M79.3828 8.8975H50.5093V9.22105H79.3828V8.8975Z" fill="#3F3D56"/>
<path d="M72.9026 52.9082H72.8368V51.1115C72.8368 50.9749 72.8099 50.8397 72.7575 50.7135C72.705 50.5873 72.6282 50.4727 72.5314 50.3761C72.4346 50.2795 72.3196 50.2029 72.1931 50.1507C72.0666 50.0984 71.931 50.0715 71.7941 50.0715H67.977C67.8401 50.0715 67.7045 50.0984 67.578 50.1507C67.4515 50.2029 67.3365 50.2795 67.2397 50.3761C67.1429 50.4727 67.066 50.5873 67.0136 50.7135C66.9612 50.8397 66.9343 50.9749 66.9343 51.1115V60.9688C66.9343 61.1053 66.9612 61.2406 67.0136 61.3667C67.066 61.4929 67.1429 61.6075 67.2397 61.7041C67.3365 61.8007 67.4515 61.8773 67.578 61.9295C67.7045 61.9818 67.8401 62.0087 67.977 62.0087H71.7941C71.931 62.0087 72.0666 61.9818 72.1931 61.9295C72.3196 61.8773 72.4346 61.8007 72.5314 61.7041C72.6282 61.6075 72.7051 61.4929 72.7575 61.3667C72.8099 61.2406 72.8368 61.1053 72.8368 60.9688V54.1872H72.9026V52.9082Z" fill="#3F3D56"/>
<path d="M69.9184 53.7706C70.2712 53.7706 70.5572 53.4854 70.5572 53.1336C70.5572 52.7818 70.2712 52.4966 69.9184 52.4966C69.5657 52.4966 69.2797 52.7818 69.2797 53.1336C69.2797 53.4854 69.5657 53.7706 69.9184 53.7706Z" fill="#D0CDE1"/>
<path d="M86.105 59.3562L73.3309 59.1166C73.3309 59.1166 66.1979 60.745 67.1521 57.1871C68.1062 53.6292 73.1017 56.374 73.1017 56.374L86.5061 55.8708L86.105 59.3562Z" fill="#FFB9B9"/>
<path d="M84.809 41.0101L86.0267 40.0656C86.0267 40.0656 88.0562 38.9861 88.4621 42.7643C88.868 46.5424 91.8446 59.0913 88.868 59.2262C85.8914 59.3612 78.3146 59.4961 78.3146 59.4961L79.1264 55.3131L85.3502 54.9083L84.809 41.0101Z" fill="#CFCCE0"/>
<path opacity="0.15" d="M85.2149 46.8122L84.809 54.5035L78.8558 55.7179L84.2678 53.5589L85.2149 46.8122Z" fill="black"/>
</g>
<defs>
<clipPath id="clip0">
<rect width="148" height="102" fill="white"/>
</clipPath>
</defs>
</svg>
