<svg width="122" height="106" viewBox="0 0 122 106" fill="none" xmlns="http://www.w3.org/2000/svg">
<g clip-path="url(#clip0)">
<path d="M101.639 25.1117H101.059V9.2061C101.059 6.76449 100.09 4.42288 98.366 2.69641C96.6417 0.969927 94.3031 1.61179e-06 91.8645 0H58.2074C56.9999 0 55.8043 0.238122 54.6888 0.700772C53.5732 1.16342 52.5596 1.84154 51.7058 2.6964C50.8521 3.55127 50.1748 4.56614 49.7127 5.68308C49.2506 6.80001 49.0128 7.99714 49.0128 9.2061V96.467C49.0128 98.9086 49.9815 101.25 51.7058 102.977C53.4302 104.703 55.7688 105.673 58.2074 105.673H91.8645C94.303 105.673 96.6417 104.703 98.3659 102.977C100.09 101.25 101.059 98.9086 101.059 96.467V36.4336H101.639L101.639 25.1117Z" fill="#E6E6E6"/>
<path d="M92.2355 2.39418H87.8425C88.0445 2.89016 88.1217 3.42828 88.0671 3.96114C88.0124 4.49399 87.8278 5.00522 87.5294 5.44979C87.2309 5.89435 86.8279 6.2586 86.3557 6.51045C85.8836 6.76231 85.3568 6.89402 84.8218 6.894H65.54C65.0051 6.89398 64.4783 6.76223 64.0062 6.51036C63.5341 6.25849 63.1311 5.89423 62.8327 5.44967C62.5343 5.00511 62.3496 4.4939 62.2951 3.96107C62.2405 3.42823 62.3176 2.89014 62.5196 2.39418H58.4163C56.5952 2.39418 54.8487 3.11851 53.561 4.40782C52.2733 5.69714 51.5499 7.44583 51.5499 9.2692V96.4034C51.5499 98.2268 52.2733 99.9754 53.561 101.265C54.8487 102.554 56.5952 103.278 58.4163 103.278H92.2355C94.0566 103.278 95.8031 102.554 97.0908 101.265C98.3785 99.9754 99.1019 98.2268 99.1019 96.4034V96.4034V9.26906C99.1019 7.44571 98.3784 5.69706 97.0907 4.40777C95.803 3.11849 94.0566 2.39418 92.2355 2.39418V2.39418Z" fill="white"/>
<path d="M65.0961 22.7184C64.9129 22.72 64.7313 22.683 64.5633 22.6097C64.3953 22.5365 64.2445 22.4287 64.1208 22.2932C63.9741 22.1233 63.864 21.9247 63.7976 21.7101C63.7312 21.4955 63.7098 21.2694 63.7349 21.0462C63.7698 20.6209 63.9478 20.2201 64.2398 19.9092C64.3801 19.7574 64.5498 19.6359 64.7386 19.5522C64.9274 19.4684 65.1314 19.4242 65.3379 19.4221C65.5299 19.4213 65.72 19.4609 65.8957 19.5385C66.0714 19.616 66.2288 19.7297 66.3577 19.8722C66.504 20.0377 66.6145 20.2317 66.6821 20.4421C66.7497 20.6524 66.773 20.8745 66.7506 21.0944V21.0944C66.7233 21.5456 66.5289 21.9703 66.2054 22.2856C65.9043 22.5663 65.5075 22.7211 65.0961 22.7184V22.7184ZM65.3379 19.9715C64.8009 19.9715 64.3368 20.4647 64.2815 21.0943C64.2631 21.2417 64.2754 21.3913 64.3174 21.5337C64.3593 21.6762 64.4302 21.8084 64.5255 21.9222C64.5976 22.0016 64.6858 22.0647 64.7842 22.1073C64.8826 22.1499 64.9889 22.1709 65.0961 22.169C65.5983 22.169 66.1356 21.8218 66.204 21.0461C66.2198 20.9022 66.2056 20.7565 66.1625 20.6184C66.1193 20.4802 66.048 20.3525 65.9531 20.2432C65.8753 20.1572 65.7804 20.0886 65.6744 20.0418C65.5684 19.995 65.4537 19.971 65.3379 19.9715Z" fill="#3F3D56"/>
<path d="M65.1139 24.3665C64.6895 24.3735 64.2685 24.2899 63.8788 24.1215C63.489 23.9531 63.1395 23.7036 62.8535 23.3896C62.5674 23.0756 62.3513 22.7043 62.2194 22.3003C62.0876 21.8963 62.0431 21.4689 62.0888 21.0463C62.1787 20.1594 62.5905 19.3364 63.2461 18.7333C63.9018 18.1301 64.7556 17.7888 65.6458 17.774C66.6336 17.774 67.4463 18.0918 67.9961 18.6929C68.5174 19.263 68.7615 20.0654 68.6835 20.9524C68.6096 21.7927 68.2535 22.2304 67.9678 22.4495C67.8417 22.5525 67.696 22.6287 67.5395 22.6736C67.3831 22.7185 67.2191 22.7312 67.0576 22.7108C66.606 22.6306 66.1065 22.2198 66.1851 21.326L66.3305 19.6736C66.3373 19.6013 66.3723 19.5346 66.428 19.4881C66.4837 19.4416 66.5555 19.4191 66.6278 19.4254C66.7 19.4318 66.7668 19.4666 66.8135 19.5221C66.8602 19.5777 66.8831 19.6495 66.8771 19.7218L66.7317 21.3742C66.6926 21.8186 66.8503 22.116 67.1534 22.1698C67.328 22.1834 67.5008 22.1272 67.6341 22.0134C67.8324 21.8614 68.0805 21.5455 68.1369 20.9042C68.2022 20.1619 68.0136 19.5256 67.5914 19.064C67.1483 18.5795 66.4755 18.3234 65.6458 18.3234C64.8927 18.3377 64.1709 18.6273 63.6163 19.1378C63.0618 19.6482 62.7129 20.3441 62.6354 21.0943C62.5963 21.4409 62.6316 21.7919 62.739 22.1237C62.8464 22.4556 63.0233 22.7606 63.258 23.0185C63.4927 23.2763 63.7797 23.4809 64.0998 23.6187C64.4198 23.7564 64.7656 23.8241 65.1139 23.8172C65.5437 23.8404 65.9728 23.7625 66.3671 23.5897C66.4341 23.5618 66.5094 23.5617 66.5765 23.5893C66.6436 23.6169 66.6971 23.67 66.7252 23.737C66.7533 23.8039 66.7538 23.8793 66.7265 23.9467C66.6992 24.014 66.6464 24.0677 66.5796 24.0962C66.1181 24.2973 65.6167 24.3898 65.1139 24.3665Z" fill="#3F3D56"/>
<path d="M62.2173 63.6297C62.163 63.6297 62.11 63.6136 62.0649 63.5834C62.0198 63.5532 61.9846 63.5103 61.9638 63.4601C61.9431 63.41 61.9376 63.3547 61.9482 63.3014C61.9588 63.2482 61.9849 63.1992 62.0233 63.1608L63.8065 61.3753C63.8581 61.3244 63.9277 61.296 64.0001 61.2963C64.0725 61.2966 64.1419 61.3255 64.1931 61.3767C64.2443 61.428 64.2732 61.4975 64.2735 61.57C64.2737 61.6425 64.2454 61.7121 64.1945 61.7638L62.4113 63.5493C62.3858 63.5748 62.3556 63.5951 62.3223 63.6089C62.289 63.6227 62.2533 63.6298 62.2173 63.6297ZM66.744 62.943C66.6897 62.943 66.6367 62.9269 66.5916 62.8967C66.5465 62.8665 66.5113 62.8236 66.4905 62.7734C66.4698 62.7232 66.4643 62.668 66.4749 62.6147C66.4855 62.5614 66.5116 62.5125 66.55 62.4741L68.0589 60.9633C68.1105 60.9124 68.18 60.884 68.2525 60.8843C68.3249 60.8845 68.3942 60.9134 68.4454 60.9647C68.4967 61.016 68.5255 61.0854 68.5258 61.1579C68.5261 61.2304 68.4977 61.3001 68.4469 61.3518L66.938 62.8625C66.9125 62.8881 66.8823 62.9083 66.849 62.9222C66.8157 62.936 66.78 62.943 66.744 62.943V62.943ZM65.9209 62.943C65.8849 62.943 65.8492 62.936 65.8159 62.9222C65.7826 62.9083 65.7524 62.8881 65.727 62.8625L64.6296 61.7638C64.6038 61.7383 64.5833 61.7081 64.5693 61.6746C64.5553 61.6412 64.548 61.6054 64.5479 61.5692C64.5477 61.5329 64.5548 61.497 64.5686 61.4635C64.5823 61.43 64.6026 61.3996 64.6282 61.374C64.6538 61.3483 64.6842 61.328 64.7177 61.3142C64.7511 61.3004 64.787 61.2934 64.8232 61.2935C64.8594 61.2936 64.8952 61.3009 64.9285 61.315C64.9619 61.329 64.9922 61.3495 65.0176 61.3753L66.1149 62.4741C66.1533 62.5125 66.1794 62.5614 66.19 62.6147C66.2006 62.668 66.1952 62.7232 66.1744 62.7734C66.1536 62.8236 66.1185 62.8665 66.0734 62.8967C66.0282 62.9269 65.9752 62.943 65.9209 62.943V62.943Z" fill="#3F3D56"/>
<path d="M68.6644 61.4323C68.5287 61.4323 68.3961 61.392 68.2833 61.3165C68.1705 61.2411 68.0826 61.1338 68.0307 61.0083C67.9788 60.8828 67.9652 60.7448 67.9917 60.6116C68.0182 60.4783 68.0835 60.356 68.1794 60.2599C68.2753 60.1639 68.3975 60.0985 68.5306 60.072C68.6636 60.0455 68.8015 60.0591 68.9268 60.1111C69.0522 60.1631 69.1593 60.2511 69.2346 60.364C69.31 60.4769 69.3502 60.6097 69.3502 60.7455C69.35 60.9276 69.2777 61.1022 69.1491 61.2309C69.0205 61.3596 68.8462 61.4321 68.6644 61.4323V61.4323ZM68.6644 60.6082C68.6372 60.6082 68.6107 60.6162 68.5882 60.6313C68.5656 60.6464 68.548 60.6679 68.5376 60.693C68.5272 60.7181 68.5245 60.7457 68.5298 60.7723C68.5351 60.799 68.5482 60.8234 68.5674 60.8427C68.5866 60.8619 68.611 60.8749 68.6376 60.8802C68.6642 60.8855 68.6918 60.8828 68.7169 60.8724C68.7419 60.862 68.7633 60.8444 68.7784 60.8218C68.7935 60.7993 68.8015 60.7727 68.8015 60.7455C68.8015 60.7091 68.787 60.6742 68.7613 60.6485C68.7356 60.6227 68.7007 60.6082 68.6644 60.6082V60.6082Z" fill="#3F3D56"/>
<path d="M66.3324 63.7671C66.1968 63.7671 66.0642 63.7268 65.9514 63.6514C65.8386 63.5759 65.7507 63.4687 65.6988 63.3432C65.6469 63.2177 65.6333 63.0796 65.6598 62.9464C65.6862 62.8132 65.7515 62.6908 65.8475 62.5948C65.9434 62.4987 66.0656 62.4333 66.1986 62.4068C66.3317 62.3803 66.4696 62.3939 66.5949 62.4459C66.7202 62.4979 66.8273 62.5859 66.9027 62.6988C66.9781 62.8118 67.0183 62.9446 67.0183 63.0804C67.0181 63.2625 66.9457 63.437 66.8172 63.5657C66.6886 63.6945 66.5143 63.7669 66.3324 63.7671ZM66.3324 62.943C66.3053 62.943 66.2788 62.9511 66.2562 62.9662C66.2337 62.9813 66.2161 63.0027 66.2057 63.0278C66.1953 63.0529 66.1926 63.0805 66.1979 63.1072C66.2032 63.1338 66.2163 63.1583 66.2354 63.1775C66.2546 63.1967 66.2791 63.2098 66.3057 63.2151C66.3323 63.2204 66.3599 63.2177 66.3849 63.2073C66.41 63.1969 66.4314 63.1793 66.4465 63.1567C66.4616 63.1341 66.4696 63.1075 66.4696 63.0804C66.4696 63.044 66.4551 63.0091 66.4294 62.9833C66.4037 62.9576 66.3688 62.9431 66.3324 62.943V62.943Z" fill="#3F3D56"/>
<path d="M64.4121 61.8443C64.2764 61.8443 64.1438 61.804 64.031 61.7285C63.9182 61.6531 63.8303 61.5458 63.7784 61.4203C63.7265 61.2949 63.7129 61.1568 63.7394 61.0236C63.7658 60.8904 63.8312 60.768 63.9271 60.672C64.023 60.5759 64.1452 60.5105 64.2782 60.484C64.4113 60.4575 64.5492 60.4711 64.6745 60.5231C64.7998 60.5751 64.907 60.6631 64.9823 60.776C65.0577 60.889 65.0979 61.0217 65.0979 61.1575C65.0977 61.3396 65.0254 61.5142 64.8968 61.6429C64.7682 61.7716 64.5939 61.8441 64.4121 61.8443V61.8443ZM64.4121 61.0202C64.3849 61.0202 64.3584 61.0283 64.3358 61.0433C64.3133 61.0584 64.2957 61.0799 64.2853 61.105C64.2749 61.1301 64.2722 61.1577 64.2775 61.1843C64.2828 61.211 64.2959 61.2355 64.3151 61.2547C64.3342 61.2739 64.3587 61.287 64.3853 61.2923C64.4119 61.2976 64.4395 61.2948 64.4645 61.2844C64.4896 61.274 64.511 61.2564 64.5261 61.2339C64.5412 61.2113 64.5492 61.1847 64.5492 61.1575C64.5492 61.1211 64.5347 61.0862 64.509 61.0605C64.4833 61.0347 64.4484 61.0202 64.4121 61.0202V61.0202Z" fill="#3F3D56"/>
<path d="M61.8058 64.4538C61.6701 64.4538 61.5375 64.4135 61.4247 64.3381C61.3119 64.2626 61.224 64.1554 61.1721 64.0299C61.1202 63.9044 61.1066 63.7663 61.1331 63.6331C61.1595 63.4999 61.2249 63.3775 61.3208 63.2815C61.4167 63.1855 61.5389 63.1201 61.672 63.0936C61.805 63.0671 61.9429 63.0807 62.0682 63.1326C62.1936 63.1846 62.3007 63.2726 62.376 63.3856C62.4514 63.4985 62.4916 63.6313 62.4916 63.7671C62.4914 63.9492 62.4191 64.1237 62.2905 64.2524C62.1619 64.3812 61.9876 64.4536 61.8058 64.4538V64.4538ZM61.8058 63.6297C61.7786 63.6297 61.7521 63.6378 61.7296 63.6529C61.707 63.668 61.6894 63.6894 61.679 63.7145C61.6687 63.7396 61.6659 63.7672 61.6712 63.7939C61.6765 63.8205 61.6896 63.845 61.7088 63.8642C61.728 63.8834 61.7524 63.8965 61.779 63.9018C61.8056 63.9071 61.8332 63.9044 61.8583 63.894C61.8833 63.8836 61.9048 63.866 61.9198 63.8434C61.9349 63.8208 61.9429 63.7942 61.9429 63.7671C61.9429 63.7307 61.9284 63.6958 61.9027 63.67C61.877 63.6443 61.8421 63.6298 61.8058 63.6297V63.6297Z" fill="#3F3D56"/>
<path d="M87.8421 85.6367H82.0808C81.8263 85.6364 81.5822 85.535 81.4022 85.3548C81.2222 85.1745 81.1209 84.9302 81.1206 84.6753V80.555C81.1209 80.3001 81.2222 80.0557 81.4022 79.8755C81.5822 79.6952 81.8263 79.5938 82.0808 79.5935H87.8421C88.0966 79.5938 88.3407 79.6952 88.5207 79.8755C88.7007 80.0557 88.802 80.3001 88.8023 80.555V84.6753C88.802 84.9302 88.7007 85.1745 88.5207 85.3548C88.3407 85.535 88.0966 85.6364 87.8421 85.6367V85.6367ZM82.0808 80.1429C81.9717 80.143 81.8671 80.1865 81.79 80.2637C81.7128 80.341 81.6694 80.4457 81.6693 80.555V84.6753C81.6694 84.7845 81.7128 84.8893 81.79 84.9665C81.8671 85.0438 81.9717 85.0872 82.0808 85.0873H87.8421C87.9512 85.0872 88.0558 85.0438 88.1329 84.9665C88.2101 84.8893 88.2535 84.7845 88.2536 84.6753V80.555C88.2535 80.4457 88.2101 80.341 88.1329 80.2637C88.0558 80.1865 87.9512 80.143 87.8421 80.1429L82.0808 80.1429Z" fill="#3F3D56"/>
<path d="M84.9614 83.1645C84.9004 83.1645 84.8411 83.1442 84.793 83.1066L82.3239 81.1838C82.2955 81.1617 82.2717 81.1341 82.2538 81.1028C82.236 81.0714 82.2246 81.0369 82.2201 81.0011C82.2156 80.9653 82.2183 80.929 82.2278 80.8942C82.2374 80.8594 82.2537 80.8268 82.2758 80.7984C82.2979 80.7699 82.3254 80.7461 82.3567 80.7282C82.388 80.7104 82.4226 80.6989 82.4583 80.6944C82.4941 80.69 82.5303 80.6926 82.5651 80.7022C82.5998 80.7117 82.6323 80.7281 82.6608 80.7502L84.9614 82.5418L87.2621 80.7502C87.2905 80.7281 87.3231 80.7117 87.3578 80.7022C87.3925 80.6926 87.4288 80.69 87.4646 80.6944C87.5003 80.6989 87.5348 80.7104 87.5661 80.7282C87.5975 80.7461 87.625 80.7699 87.6471 80.7984C87.6692 80.8268 87.6855 80.8594 87.6951 80.8942C87.7046 80.929 87.7072 80.9653 87.7028 81.0011C87.6983 81.0369 87.6868 81.0714 87.669 81.1028C87.6512 81.1341 87.6274 81.1617 87.599 81.1838L85.1299 83.1066C85.0817 83.1442 85.0224 83.1645 84.9614 83.1645V83.1645Z" fill="#3F3D56"/>
<path d="M115.905 89.4394L84.1699 89.452C84.1297 89.452 84.0911 89.436 84.0626 89.4075C84.0341 89.379 84.0182 89.3404 84.0182 89.3001C84.0182 89.2598 84.0341 89.2212 84.0626 89.1927C84.0911 89.1642 84.1297 89.1482 84.1699 89.1482L115.905 89.1356C115.946 89.1356 115.984 89.1516 116.013 89.1801C116.041 89.2086 116.057 89.2472 116.057 89.2875C116.057 89.3278 116.041 89.3664 116.013 89.3949C115.984 89.4234 115.946 89.4394 115.905 89.4394Z" fill="#CCCCCC"/>
<path d="M115.483 91.4146C116.656 91.4146 117.607 90.4623 117.607 89.2875C117.607 88.1128 116.656 87.1605 115.483 87.1605C114.31 87.1605 113.359 88.1128 113.359 89.2875C113.359 90.4623 114.31 91.4146 115.483 91.4146Z" fill="#386641"/>
<path d="M115.147 48.7218L83.1077 48.7344C83.0675 48.7344 83.0289 48.7184 83.0004 48.6899C82.9719 48.6614 82.956 48.6228 82.956 48.5825C82.956 48.5422 82.9719 48.5036 83.0004 48.4751C83.0289 48.4466 83.0675 48.4306 83.1077 48.4306L115.147 48.418C115.187 48.418 115.225 48.434 115.254 48.4625C115.282 48.491 115.298 48.5296 115.298 48.5699C115.298 48.6102 115.282 48.6488 115.254 48.6773C115.225 48.7058 115.187 48.7218 115.147 48.7218Z" fill="#CCCCCC"/>
<path d="M115.483 50.8489C116.656 50.8489 117.607 49.8966 117.607 48.7218C117.607 47.5471 116.656 46.5948 115.483 46.5948C114.31 46.5948 113.359 47.5471 113.359 48.7218C113.359 49.8966 114.31 50.8489 115.483 50.8489Z" fill="#386641"/>
<path d="M33.1202 27.9072L65.1591 27.9198C65.1993 27.9198 65.238 27.9038 65.2664 27.8753C65.2949 27.8468 65.3108 27.8082 65.3108 27.7679C65.3108 27.7276 65.2949 27.6889 65.2664 27.6604C65.238 27.6319 65.1993 27.6159 65.1591 27.6159L33.1202 27.6033C33.08 27.6033 33.0414 27.6193 33.0129 27.6478C32.9845 27.6763 32.9685 27.715 32.9685 27.7553C32.9685 27.7956 32.9845 27.8342 33.0129 27.8627C33.0414 27.8912 33.08 27.9072 33.1202 27.9072V27.9072Z" fill="#CCCCCC"/>
<path d="M32.7839 30.0342C33.9571 30.0342 34.9083 29.0819 34.9083 27.9072C34.9083 26.7325 33.9571 25.7802 32.7839 25.7802C31.6106 25.7802 30.6595 26.7325 30.6595 27.9072C30.6595 29.0819 31.6106 30.0342 32.7839 30.0342Z" fill="#386641"/>
<path d="M33.1202 69.0807L65.1591 69.0932C65.1993 69.0932 65.238 69.0772 65.2664 69.0488C65.2949 69.0203 65.3108 68.9816 65.3108 68.9413C65.3108 68.901 65.2949 68.8624 65.2664 68.8339C65.238 68.8054 65.1993 68.7894 65.1591 68.7894L33.1202 68.7768C33.08 68.7768 33.0414 68.7928 33.0129 68.8213C32.9845 68.8498 32.9685 68.8884 32.9685 68.9287C32.9685 68.969 32.9845 69.0077 33.0129 69.0362C33.0414 69.0647 33.08 69.0807 33.1202 69.0807V69.0807Z" fill="#CCCCCC"/>
<path d="M32.7839 71.2077C33.9571 71.2077 34.9083 70.2554 34.9083 69.0806C34.9083 67.9059 33.9571 66.9536 32.7839 66.9536C31.6106 66.9536 30.6595 67.9059 30.6595 69.0806C30.6595 70.2554 31.6106 71.2077 32.7839 71.2077Z" fill="#386641"/>
<path d="M84.9614 89.452C83.6109 89.452 82.2907 89.0511 81.1678 88.2998C80.0449 87.5486 79.1697 86.4808 78.6529 85.2315C78.136 83.9822 78.0008 82.6075 78.2643 81.2813C78.5278 79.9551 79.1781 78.7369 80.1331 77.7807C81.088 76.8245 82.3047 76.1734 83.6293 75.9096C84.9539 75.6458 86.3268 75.7812 87.5746 76.2986C88.8223 76.8161 89.8887 77.6924 90.639 78.8167C91.3893 79.9411 91.7898 81.2629 91.7898 82.6151C91.7878 84.4278 91.0677 86.1656 89.7876 87.4473C88.5074 88.729 86.7718 89.45 84.9614 89.452V89.452ZM84.9614 76.0821C83.6709 76.0821 82.4094 76.4652 81.3364 77.1831C80.2634 77.901 79.4271 78.9213 78.9332 80.115C78.4394 81.3088 78.3102 82.6224 78.5619 83.8897C78.8137 85.157 79.4351 86.321 80.3477 87.2347C81.2602 88.1484 82.4228 88.7706 83.6885 89.0227C84.9542 89.2747 86.2661 89.1454 87.4584 88.6509C88.6507 88.1564 89.6697 87.3191 90.3867 86.2447C91.1037 85.1703 91.4863 83.9072 91.4863 82.6151C91.4844 80.8831 90.7963 79.2225 89.5731 77.9977C88.3499 76.773 86.6914 76.084 84.9614 76.0821V76.0821Z" fill="#CCCCCC"/>
<path d="M65.2351 69.0932C63.8845 69.0932 62.5643 68.6922 61.4414 67.941C60.3185 67.1897 59.4433 66.122 58.9265 64.8727C58.4097 63.6234 58.2744 62.2487 58.5379 60.9225C58.8014 59.5963 59.4517 58.378 60.4067 57.4219C61.3617 56.4657 62.5783 55.8146 63.9029 55.5508C65.2275 55.287 66.6004 55.4224 67.8482 55.9398C69.0959 56.4573 70.1623 57.3336 70.9126 58.4579C71.6629 59.5822 72.0634 60.9041 72.0634 62.2563C72.0614 64.0689 71.3413 65.8067 70.0612 67.0885C68.7811 68.3702 67.0454 69.0912 65.2351 69.0932ZM65.2351 55.7233C63.9446 55.7233 62.683 56.1064 61.61 56.8243C60.537 57.5421 59.7007 58.5625 59.2069 59.7562C58.713 60.95 58.5838 62.2635 58.8356 63.5308C59.0873 64.7981 59.7088 65.9622 60.6213 66.8759C61.5338 67.7895 62.6964 68.4117 63.9621 68.6638C65.2278 68.9159 66.5398 68.7865 67.732 68.292C68.9243 67.7976 69.9433 66.9602 70.6603 65.8859C71.3773 64.8115 71.7599 63.5484 71.7599 62.2563C71.758 60.5242 71.0699 58.8637 69.8467 57.6389C68.6235 56.4141 66.965 55.7252 65.2351 55.7233V55.7233Z" fill="#CCCCCC"/>
<path d="M83.5958 48.7344C82.2453 48.7344 80.9251 48.3334 79.8021 47.5822C78.6792 46.8309 77.804 45.7631 77.2872 44.5139C76.7704 43.2646 76.6352 41.8899 76.8986 40.5637C77.1621 39.2374 77.8124 38.0192 78.7674 37.063C79.7224 36.1069 80.9391 35.4557 82.2636 35.1919C83.5882 34.9281 84.9612 35.0635 86.2089 35.581C87.4566 36.0985 88.523 36.9748 89.2733 38.0991C90.0237 39.2234 90.4241 40.5453 90.4241 41.8975C90.4221 43.7101 89.702 45.4479 88.4219 46.7297C87.1418 48.0114 85.4061 48.7324 83.5958 48.7344V48.7344ZM83.5958 35.3644C82.3053 35.3644 81.0438 35.7476 79.9708 36.4654C78.8977 37.1833 78.0614 38.2036 77.5676 39.3974C77.0737 40.5911 76.9445 41.9047 77.1963 43.172C77.448 44.4393 78.0695 45.6034 78.982 46.5171C79.8945 47.4307 81.0571 48.0529 82.3228 48.305C83.5885 48.5571 84.9005 48.4277 86.0927 47.9332C87.285 47.4388 88.3041 46.6014 89.021 45.5271C89.738 44.4527 90.1207 43.1896 90.1207 41.8975C90.1187 40.1654 89.4306 38.5048 88.2074 37.2801C86.9842 36.0553 85.3257 35.3664 83.5958 35.3644V35.3644Z" fill="#CCCCCC"/>
<path d="M65.3868 27.9072C64.0363 27.9072 62.7161 27.5062 61.5932 26.755C60.4703 26.0037 59.5951 24.9359 59.0782 23.6866C58.5614 22.4373 58.4262 21.0627 58.6897 19.7364C58.9532 18.4102 59.6035 17.192 60.5585 16.2358C61.5134 15.2797 62.7301 14.6285 64.0547 14.3647C65.3793 14.1009 66.7522 14.2363 67.9999 14.7538C69.2476 15.2712 70.3141 16.1475 71.0644 17.2719C71.8147 18.3962 72.2152 19.718 72.2152 21.0703C72.2131 22.8829 71.4931 24.6207 70.2129 25.9024C68.9328 27.1841 67.1972 27.9051 65.3868 27.9072V27.9072ZM65.3868 14.5372C64.0963 14.5372 62.8348 14.9204 61.7618 15.6382C60.6888 16.3561 59.8525 17.3764 59.3586 18.5702C58.8648 19.7639 58.7356 21.0775 58.9873 22.3448C59.2391 23.6121 59.8605 24.7762 60.773 25.6898C61.6856 26.6035 62.8482 27.2257 64.1139 27.4778C65.3796 27.7299 66.6915 27.6005 67.8838 27.106C69.0761 26.6115 70.0951 25.7742 70.8121 24.6998C71.529 23.6255 71.9117 22.3624 71.9117 21.0703C71.9098 19.3382 71.2217 17.6776 69.9985 16.4528C68.7752 15.2281 67.1167 14.5392 65.3868 14.5372Z" fill="#CCCCCC"/>
<path d="M22.5339 74.2307C22.3473 74.0881 22.1927 73.9079 22.0802 73.7016C21.9678 73.4953 21.8999 73.2676 21.8812 73.0333C21.877 72.9787 21.8757 72.9239 21.8773 72.8692L14.811 68.1043C14.5797 67.9468 14.4055 67.7186 14.3143 67.4539C14.223 67.1891 14.2197 66.9019 14.3047 66.6351L17.682 58.2339C17.8273 57.8723 18.1098 57.5831 18.4677 57.4295C18.8256 57.276 19.2296 57.2707 19.5914 57.4148C19.9531 57.559 20.2431 57.8407 20.3978 58.1984C20.5525 58.5561 20.5594 58.9607 20.4169 59.3234L17.6901 66.2652L23.1924 71.2692C23.265 71.2527 23.3387 71.2412 23.4129 71.2351C23.8379 71.2012 24.2597 71.3315 24.5918 71.5991C24.9239 71.8666 25.1412 72.2513 25.1991 72.6742C25.257 73.0971 25.1511 73.5261 24.9032 73.8733C24.6552 74.2205 24.284 74.4596 23.8656 74.5415C23.7583 74.5622 23.6492 74.5727 23.5399 74.5728C23.1761 74.573 22.8224 74.4527 22.5339 74.2307Z" fill="#A0616A"/>
<path d="M14.8139 63.1807C14.7725 63.0841 14.7525 62.9796 14.7551 62.8745C14.7578 62.7693 14.7831 62.666 14.8293 62.5716L16.4414 59.2722C16.6041 58.7594 16.9633 58.3321 17.4401 58.084C17.917 57.8359 18.4726 57.7872 18.9852 57.9487C19.4978 58.1101 19.9256 58.4685 20.1747 58.9453C20.4238 59.4221 20.474 59.9783 20.3141 60.492L19.7255 64.1295C19.7087 64.2333 19.6698 64.3323 19.6113 64.4196C19.5529 64.507 19.4763 64.5808 19.3868 64.6358C19.2974 64.6909 19.1971 64.726 19.0928 64.7388C18.9886 64.7516 18.8828 64.7417 18.7827 64.7099L15.2645 63.5904C15.1644 63.5586 15.0723 63.5056 14.9945 63.4349C14.9167 63.3642 14.8551 63.2775 14.8139 63.1807V63.1807Z" fill="#386641"/>
<path d="M25.9338 103.914H27.7942L28.6791 96.7291L25.9335 96.7292L25.9338 103.914Z" fill="#A0616A"/>
<path d="M25.4593 103.305L29.1229 103.305H29.123C29.4296 103.305 29.7332 103.366 30.0165 103.483C30.2998 103.601 30.5572 103.773 30.774 103.99C30.9908 104.207 31.1627 104.465 31.2801 104.748C31.3974 105.032 31.4578 105.336 31.4578 105.643V105.719L25.4594 105.719L25.4593 103.305Z" fill="#2F2E41"/>
<path d="M7.74258 102.594L9.54436 103.057L12.1877 96.3196L9.52843 95.6355L7.74258 102.594Z" fill="#A0616A"/>
<path d="M7.43419 101.887L10.9825 102.8L10.9827 102.8C11.2796 102.876 11.5586 103.01 11.8038 103.195C12.0489 103.379 12.2554 103.61 12.4114 103.874C12.5674 104.138 12.6699 104.431 12.713 104.735C12.7561 105.039 12.7391 105.348 12.6627 105.646L12.6438 105.719L6.8342 104.224L7.43419 101.887Z" fill="#2F2E41"/>
<path d="M20.7908 54.6257C22.8491 54.6257 24.5177 52.955 24.5177 50.8941C24.5177 48.8332 22.8491 47.1625 20.7908 47.1625C18.7324 47.1625 17.0638 48.8332 17.0638 50.8941C17.0638 52.955 18.7324 54.6257 20.7908 54.6257Z" fill="#A0616A"/>
<path d="M18.9058 66.4155C18.0191 65.5017 17.2662 64.4667 16.6697 63.3413C16.3524 62.7243 16.1677 62.0476 16.1275 61.3547C16.0872 60.6619 16.1923 59.9683 16.436 59.3187C16.6848 58.6545 17.0697 58.0499 17.5661 57.5437C18.0624 57.0375 18.659 56.6409 19.3177 56.3796C20.4727 55.9103 21.7614 55.8908 22.93 56.3252C24.0986 56.7595 25.0625 57.6161 25.632 58.7264C26.5645 60.5537 26.93 62.3402 26.7182 64.0367C26.3134 67.2798 26.0763 68.9561 26.0138 69.0187L25.9929 69.0396L19.06 69.348L18.9058 66.4155Z" fill="#386641"/>
<path d="M19.3176 68.4506L25.5218 68.1414C25.6785 68.1335 25.8321 68.1868 25.9504 68.2899C26.0688 68.3929 26.1426 68.5379 26.1566 68.6943L29.0106 100.726C29.0182 100.811 29.0078 100.897 28.98 100.978C28.9522 101.059 28.9078 101.133 28.8495 101.195C28.7912 101.258 28.7205 101.307 28.6418 101.34C28.5632 101.374 28.4785 101.39 28.3931 101.388L25.9692 101.336C25.8359 101.333 25.7073 101.287 25.6031 101.203C25.499 101.12 25.4252 101.005 25.3931 100.875L20.7625 82.1932C20.7322 82.071 20.6647 81.9612 20.5694 81.8791C20.4741 81.7969 20.3557 81.7464 20.2304 81.7346C20.1052 81.7227 19.9794 81.7501 19.8704 81.813C19.7615 81.8759 19.6747 81.9711 19.6221 82.0854L10.8469 101.168C10.7873 101.298 10.684 101.402 10.5552 101.463C10.4264 101.524 10.2803 101.538 10.1424 101.502L7.70302 100.865C7.55203 100.825 7.42197 100.729 7.33987 100.597C7.25777 100.464 7.22996 100.304 7.26223 100.152C8.06482 96.3581 12.8724 74.6339 18.9253 68.6208C19.0306 68.5176 19.1703 68.457 19.3176 68.4506V68.4506Z" fill="#2F2E41"/>
<path d="M31.0665 72.0471C30.8422 71.9778 30.6349 71.862 30.4582 71.7072C30.2816 71.5524 30.1394 71.3621 30.0411 71.1487C30.0184 71.0989 29.9983 71.048 29.9809 70.9962L21.7063 68.9659C21.4349 68.8979 21.1927 68.744 21.0158 68.527C20.8389 68.31 20.7368 68.0416 20.7246 67.7618L20.9985 58.71C21.0103 58.3204 21.1757 57.9514 21.4587 57.6836C21.7416 57.4159 22.119 57.2713 22.5081 57.2816C22.8973 57.2918 23.2666 57.456 23.5351 57.7382C23.8036 58.0204 23.9495 58.3976 23.9409 58.7873L23.7745 66.2447L30.6637 69.0399C30.7262 68.9994 30.7913 68.9632 30.8587 68.9316H30.8588C31.1048 68.8174 31.3749 68.7649 31.6457 68.7786C31.9166 68.7923 32.18 68.8718 32.4133 69.0103C32.6466 69.1487 32.8427 69.3419 32.9847 69.5732C33.1267 69.8045 33.2104 70.067 33.2284 70.3379C33.2465 70.6088 33.1984 70.88 33.0884 71.1282C32.9783 71.3763 32.8096 71.5939 32.5968 71.7622C32.3839 71.9305 32.1334 72.0443 31.8668 72.094C31.6002 72.1436 31.3255 72.1275 31.0665 72.0471V72.0471Z" fill="#A0616A"/>
<path d="M20.1159 63.2204C20.0445 63.1433 19.9905 63.0516 19.9577 62.9517C19.9249 62.8518 19.914 62.746 19.9258 62.6415L20.3359 58.9915C20.3169 58.4538 20.5116 57.9304 20.8773 57.5362C21.2431 57.142 21.75 56.9091 22.287 56.8886C22.824 56.868 23.3472 57.0615 23.7419 57.4266C24.1366 57.7917 24.3707 58.2986 24.3927 58.8362L25.0602 62.46C25.0792 62.5635 25.0758 62.6698 25.0501 62.7718C25.0244 62.8737 24.977 62.9689 24.9113 63.0509C24.8455 63.1329 24.7629 63.1998 24.669 63.2469C24.5751 63.2941 24.4721 63.3204 24.3672 63.3241L20.6779 63.4545C20.573 63.4583 20.4684 63.4393 20.3714 63.3989C20.2744 63.3585 20.1873 63.2976 20.1159 63.2204V63.2204Z" fill="#386641"/>
<path d="M15.4505 55.8207L15.8399 54.5605L16.1062 55.9748L18.2932 55.9168L18.2831 54.5224L19.1145 55.8985L21.0964 55.4599C20.673 54.895 20.2446 54.3214 19.9738 53.6555C19.703 52.9896 19.6044 52.2088 19.8574 51.5348C20.4829 49.8684 22.8545 50.3347 24.1517 50.3205C24.5301 50.3164 24.9573 50.2891 25.2052 49.9793C25.3918 49.7461 25.4224 49.4124 25.4129 49.1039C25.3642 47.5155 24.4117 46.0001 23.0652 45.3687C22.4061 45.0648 21.6714 44.9651 20.9553 45.0825C20.5818 45.1416 20.2191 45.256 19.8792 45.4219C19.5761 45.5701 19.2578 45.9231 18.9315 45.9135C18.6573 45.9055 18.2943 45.6195 17.9959 45.5707C17.6364 45.5151 17.2697 45.5279 16.915 45.6085C16.2021 45.7676 15.5595 46.1526 15.0825 46.7064C14.0688 47.8857 13.7677 49.6235 13.9443 51.2234C14.121 52.8233 14.7188 54.3279 15.3099 55.8066" fill="#2F2E41"/>
<path d="M121.848 106H0.151741C0.111497 106 0.0729009 105.984 0.0444439 105.955C0.0159869 105.927 0 105.888 0 105.848C0 105.808 0.0159869 105.769 0.0444439 105.741C0.0729009 105.712 0.111497 105.696 0.151741 105.696H121.848C121.889 105.696 121.927 105.712 121.956 105.741C121.984 105.769 122 105.808 122 105.848C122 105.888 121.984 105.927 121.956 105.955C121.927 105.984 121.889 106 121.848 106Z" fill="#E6E6E6"/>
<path d="M119.795 104.117C120.258 103.741 120.596 103.232 120.763 102.659C120.886 102.079 120.639 101.398 120.087 101.173C119.468 100.934 118.805 101.365 118.304 101.799C117.802 102.233 117.226 102.73 116.568 102.636C116.905 102.329 117.156 101.939 117.298 101.506C117.44 101.072 117.467 100.609 117.377 100.162C117.35 99.9758 117.271 99.801 117.15 99.6573C116.807 99.289 116.183 99.4479 115.769 99.738C114.459 100.661 114.094 102.442 114.089 104.046C113.955 103.466 114.066 102.863 114.064 102.281C114.061 101.698 113.897 101.019 113.399 100.712C113.089 100.545 112.742 100.463 112.391 100.472C111.801 100.452 111.146 100.51 110.743 100.941C110.239 101.476 110.373 102.377 110.809 102.959C111.245 103.542 111.905 103.918 112.512 104.326C113.001 104.617 113.418 105.014 113.731 105.489C113.768 105.555 113.799 105.624 113.822 105.696H117.513C118.341 105.276 119.109 104.744 119.795 104.117Z" fill="#F2F2F2"/>
<path d="M81.3948 45.914C81.3262 45.9137 81.2588 45.8963 81.1986 45.8633C81.1384 45.8303 81.0874 45.7828 81.0502 45.7251C81.013 45.6674 80.9907 45.6013 80.9855 45.5328C80.9802 45.4643 80.9921 45.3956 81.02 45.3328L81.4948 44.2722C80.8405 43.6904 80.4238 42.8872 80.3246 42.0167C80.2253 41.1462 80.4505 40.2696 80.957 39.5551C81.4634 38.8406 82.2155 38.3385 83.0689 38.1449C83.9224 37.9514 84.8171 38.0802 85.5816 38.5065C86.3461 38.9328 86.9265 39.6267 87.2115 40.455C87.4965 41.2834 87.4661 42.188 87.126 42.9953C86.786 43.8026 86.1603 44.4558 85.3689 44.8296C84.5774 45.2034 83.676 45.2716 82.8375 45.021L81.6258 45.8424C81.5577 45.8889 81.4773 45.9138 81.3948 45.914V45.914ZM83.8448 38.5808C83.2136 38.5804 82.5979 38.7766 82.0831 39.1423C81.5683 39.508 81.1798 40.025 80.9716 40.6216C80.7634 41.2182 80.7457 41.8649 80.921 42.4721C81.0963 43.0792 81.4559 43.6167 81.9499 44.0101L82.0995 44.1295L81.5886 45.2708L82.761 44.4762L82.8767 44.5151C83.2949 44.6558 83.7386 44.7037 84.1771 44.6556C84.6156 44.6075 85.0384 44.4645 85.4163 44.2365C85.7941 44.0085 86.1179 43.701 86.3652 43.3352C86.6125 42.9695 86.7774 42.5543 86.8486 42.1183C86.9197 41.6824 86.8953 41.2363 86.777 40.8107C86.6588 40.3852 86.4496 39.9905 86.1638 39.654C85.8781 39.3175 85.5227 39.0472 85.1223 38.8619C84.7219 38.6765 84.286 38.5806 83.8448 38.5808V38.5808Z" fill="#3F3D56"/>
<path d="M83.8448 41.9575C84.1174 41.9575 84.3384 41.7363 84.3384 41.4633C84.3384 41.1904 84.1174 40.9692 83.8448 40.9692C83.5723 40.9692 83.3513 41.1904 83.3513 41.4633C83.3513 41.7363 83.5723 41.9575 83.8448 41.9575Z" fill="#3F3D56"/>
<path d="M82.4464 41.9575C82.719 41.9575 82.94 41.7363 82.94 41.4633C82.94 41.1904 82.719 40.9692 82.4464 40.9692C82.1739 40.9692 81.9529 41.1904 81.9529 41.4633C81.9529 41.7363 82.1739 41.9575 82.4464 41.9575Z" fill="#3F3D56"/>
<path d="M85.2432 41.9575C85.5158 41.9575 85.7367 41.7363 85.7367 41.4633C85.7367 41.1904 85.5158 40.9692 85.2432 40.9692C84.9706 40.9692 84.7497 41.1904 84.7497 41.4633C84.7497 41.7363 84.9706 41.9575 85.2432 41.9575Z" fill="#3F3D56"/>
</g>
<defs>
<clipPath id="clip0">
<rect width="122" height="106" fill="white"/>
</clipPath>
</defs>
</svg>
