<svg width="1415" height="778" viewBox="0 0 1415 778" fill="none" xmlns="http://www.w3.org/2000/svg">
<path d="M1075.69 692.216C1252.64 692.216 1396.08 565.659 1396.08 409.542C1396.08 253.426 1252.64 126.869 1075.69 126.869C898.751 126.869 755.309 253.426 755.309 409.542C755.309 565.659 898.751 692.216 1075.69 692.216Z" fill="#F2F2F2"/>
<path d="M173.823 215.9C241.396 215.9 296.175 167.569 296.175 107.95C296.175 48.331 241.396 0 173.823 0C106.25 0 51.4709 48.331 51.4709 107.95C51.4709 167.569 106.25 215.9 173.823 215.9Z" fill="#FF6584"/>
<path d="M402.385 579.347C579.329 579.347 722.77 452.79 722.77 296.674C722.77 140.557 579.329 14 402.385 14C225.441 14 82 140.557 82 296.674C82 452.79 225.441 579.347 402.385 579.347Z" fill="#F2F2F2"/>
<path d="M378.163 595.395C572.523 595.395 730.082 587.921 730.082 578.702C730.082 569.483 572.523 562.009 378.163 562.009C183.803 562.009 26.2438 569.483 26.2438 578.702C26.2438 587.921 183.803 595.395 378.163 595.395Z" fill="#3F3D56"/>
<path opacity="0.1" d="M307.527 590.79C453.122 590.79 571.151 585.636 571.151 579.277C571.151 572.919 453.122 567.765 307.527 567.765C161.931 567.765 43.9028 572.919 43.9028 579.277C43.9028 585.636 161.931 590.79 307.527 590.79Z" fill="black"/>
<path d="M1063.08 713.361C1257.44 713.361 1415 705.14 1415 694.999C1415 684.857 1257.44 676.636 1063.08 676.636C868.721 676.636 711.162 684.857 711.162 694.999C711.162 705.14 868.721 713.361 1063.08 713.361Z" fill="#3F3D56"/>
<path opacity="0.1" d="M992.445 708.296C1138.04 708.296 1256.07 702.626 1256.07 695.632C1256.07 688.638 1138.04 682.968 992.445 682.968C846.849 682.968 728.821 688.638 728.821 695.632C728.821 702.626 846.849 708.296 992.445 708.296Z" fill="black"/>
<path d="M505.683 662.169C629.713 662.169 730.259 657.684 730.259 652.153C730.259 646.621 629.713 642.137 505.683 642.137C381.652 642.137 281.106 646.621 281.106 652.153C281.106 657.684 381.652 662.169 505.683 662.169Z" fill="#3F3D56"/>
<path d="M108.354 623.598C168.197 623.598 216.709 621.435 216.709 618.766C216.709 616.097 168.197 613.933 108.354 613.933C48.512 613.933 0 616.097 0 618.766C0 621.435 48.512 623.598 108.354 623.598Z" fill="#3F3D56"/>
<path d="M1201.98 778C1313.36 778 1403.65 773.973 1403.65 769.006C1403.65 764.039 1313.36 760.012 1201.98 760.012C1090.61 760.012 1000.32 764.039 1000.32 769.006C1000.32 773.973 1090.61 778 1201.98 778Z" fill="#3F3D56"/>
<path d="M1180.39 481.881H776.752V693.329H1180.39V481.881Z" fill="#3F3D56"/>
<path d="M906.672 669.959C956.83 669.959 997.49 634.084 997.49 589.831C997.49 545.577 956.83 509.703 906.672 509.703C856.515 509.703 815.855 545.577 815.855 589.831C815.855 634.084 856.515 669.959 906.672 669.959Z" fill="#386641"/>
<path d="M1055.51 515.267H1025.24V541.977H1055.51V515.267Z" fill="#386641"/>
<path opacity="0.5" d="M1093.35 515.267H1063.08V541.977H1093.35V515.267Z" fill="#386641"/>
<path opacity="0.2" d="M1131.19 515.267H1100.92V541.977H1131.19V515.267Z" fill="#386641"/>
<path d="M1055.51 548.654H1025.24V575.363H1055.51V548.654Z" fill="#2F2E41"/>
<path opacity="0.5" d="M1093.35 548.654H1063.08V575.363H1093.35V548.654Z" fill="#2F2E41"/>
<path opacity="0.2" d="M1131.19 548.654H1100.92V575.363H1131.19V548.654Z" fill="#2F2E41"/>
<path d="M1055.51 582.041H1025.24V608.75H1055.51V582.041Z" fill="#FF6584"/>
<path opacity="0.5" d="M1093.35 582.041H1063.08V608.75H1093.35V582.041Z" fill="#FF6584"/>
<path opacity="0.2" d="M1131.19 582.041H1100.92V608.75H1131.19V582.041Z" fill="#FF6584"/>
<path opacity="0.5" d="M906.672 509.703V669.959C956.83 669.959 1000.01 634.084 1000.01 589.831C1000.01 545.577 956.83 509.703 906.672 509.703Z" fill="#3F3D56"/>
<path d="M1266.79 496.905C1266.79 496.905 1319.77 518.05 1300.85 542.533C1281.93 567.017 1225.17 613.758 1223.9 623.774C1222.64 633.79 1215.07 642.693 1215.07 642.693C1215.07 642.693 1189.85 619.322 1192.37 617.097C1194.89 614.871 1220.12 593.726 1221.38 588.161C1222.64 582.597 1260.48 539.194 1260.48 539.194L1226.43 512.485L1266.79 496.905Z" fill="#FFB9B9"/>
<path opacity="0.1" d="M1266.79 496.905C1266.79 496.905 1319.77 518.05 1300.85 542.533C1281.93 567.017 1225.17 613.758 1223.9 623.774C1222.64 633.79 1215.07 642.693 1215.07 642.693C1215.07 642.693 1189.85 619.322 1192.37 617.097C1194.89 614.871 1220.12 593.726 1221.38 588.161C1222.64 582.597 1260.48 539.194 1260.48 539.194L1226.43 512.485L1266.79 496.905Z" fill="black"/>
<path d="M1199.94 543.646C1199.94 543.646 1236.52 557.001 1233.99 578.146C1231.47 599.29 1278.14 659.386 1278.14 659.386C1278.14 659.386 1283.19 673.854 1281.93 678.305C1280.67 682.757 1314.72 681.644 1314.72 681.644V671.628C1314.72 671.628 1288.23 631.564 1285.71 620.435C1283.19 609.306 1268.05 565.904 1268.05 565.904C1268.05 565.904 1263.01 526.953 1237.78 526.953C1230.44 526.953 1223.19 528.461 1216.63 531.359C1210.06 534.256 1204.34 538.463 1199.94 543.646Z" fill="#FFB9B9"/>
<path d="M1201.83 442.93C1201.83 442.93 1277.51 497.461 1274.99 501.913C1272.47 506.364 1235.89 523.058 1229.58 524.17C1223.27 525.283 1178.65 442.93 1178.65 442.93H1201.83Z" fill="#2F2E41"/>
<path opacity="0.1" d="M1201.83 442.93C1201.83 442.93 1277.51 497.461 1274.99 501.913C1272.47 506.364 1235.89 523.058 1229.58 524.17C1223.27 525.283 1178.65 442.93 1178.65 442.93H1201.83Z" fill="black"/>
<path d="M1119.84 454.058C1119.84 454.058 1112.27 484.106 1132.46 496.348C1152.64 508.59 1186.69 556.444 1190.48 556.444C1194.26 556.444 1248.5 530.848 1245.98 526.396C1243.46 521.945 1215.71 482.994 1215.71 482.994L1206.88 441.817C1206.88 441.817 1129.93 439.591 1119.84 454.058Z" fill="#2F2E41"/>
<path d="M1201.83 356.124L1213.18 420.672L1233.36 466.3C1233.36 466.3 1263.64 494.122 1245.98 496.348C1228.32 498.574 1218.23 466.3 1218.23 466.3L1201.83 439.591V356.124Z" fill="#FFB9B9"/>
<path opacity="0.1" d="M1201.83 356.124L1213.18 420.672L1233.36 466.3C1233.36 466.3 1263.64 494.122 1245.98 496.348C1228.32 498.574 1218.23 466.3 1218.23 466.3L1201.83 439.591V356.124Z" fill="black"/>
<path d="M1159.57 284.343C1159.57 284.343 1159.57 307.714 1150.75 309.939C1141.92 312.165 1186.06 342.213 1186.06 342.213C1186.06 342.213 1181.02 303.262 1198.68 293.246L1159.57 284.343Z" fill="#FFB9B9"/>
<path opacity="0.1" d="M1159.57 284.343C1159.57 284.343 1159.57 307.714 1150.75 309.939C1141.92 312.165 1186.06 342.213 1186.06 342.213C1186.06 342.213 1181.02 303.262 1198.68 293.246L1159.57 284.343Z" fill="black"/>
<path d="M1179.76 303.262C1195.78 303.262 1208.77 291.802 1208.77 277.666C1208.77 263.529 1195.78 252.069 1179.76 252.069C1163.73 252.069 1150.75 263.529 1150.75 277.666C1150.75 291.802 1163.73 303.262 1179.76 303.262Z" fill="#FFB9B9"/>
<path d="M1181.02 331.084C1181.02 331.084 1154.53 302.149 1150.75 303.262C1146.96 304.375 1119.21 328.858 1116.69 336.649C1114.17 344.439 1109.12 400.083 1112.9 411.212C1116.69 422.341 1116.69 451.276 1115.43 453.502C1114.17 455.728 1106.6 461.292 1114.17 461.292C1121.73 461.292 1148.22 444.599 1165.88 447.938C1183.54 451.276 1207.51 446.825 1208.77 444.599C1210.03 442.373 1207.51 384.503 1208.77 380.051C1210.03 375.6 1206.25 353.342 1204.98 348.89C1203.72 344.439 1203.72 326.633 1191.11 322.181L1185.73 321.712L1185.43 332.72L1181.02 331.084Z" fill="#386641"/>
<path d="M1125.52 388.954C1125.52 388.954 1128.04 423.454 1146.96 437.922C1165.88 452.389 1206.25 476.873 1208.77 481.324C1211.29 485.776 1235.26 509.146 1240.3 499.13C1241.77 496.008 1242.12 492.566 1241.31 489.263C1240.58 485.979 1239.09 482.862 1236.95 480.104C1234.8 477.345 1232.03 475.004 1228.82 473.223L1217.6 466.857L1162.1 415.664L1159.57 388.954H1125.52Z" fill="#FFB9B9"/>
<path d="M1198.05 613.202C1198.05 613.202 1183.54 610.419 1178.5 618.21C1173.45 626 1183.54 647.145 1183.54 647.145C1183.54 647.145 1212.55 700.563 1217.6 693.886C1222.64 687.209 1213.81 662.725 1213.81 662.725C1213.81 662.725 1226.43 638.242 1221.38 637.129C1216.34 636.016 1198.05 626.556 1198.05 613.202Z" fill="#2F2E41"/>
<path d="M1286.97 677.193C1286.97 677.193 1279.4 673.854 1278.14 677.193C1276.88 680.531 1269.31 697.225 1278.14 699.45C1286.97 701.676 1374.01 703.902 1371.48 699.45C1368.96 694.999 1355.09 689.434 1346.26 687.209C1337.43 684.983 1314.72 668.289 1314.72 668.289C1314.72 668.289 1302.11 682.757 1286.97 677.193Z" fill="#2F2E41"/>
<path d="M1208.98 257.351C1208.44 255.736 1207.24 254.354 1205.61 253.47C1205.7 251.74 1205.46 250.01 1204.9 248.349C1203.05 243.514 1198.66 243.791 1194.51 241.654C1192.71 240.726 1192.83 239.907 1191.89 238.383C1190.66 236.386 1188.83 234.733 1186.59 233.611C1183.93 232.117 1181.13 230.578 1177.98 230.389C1171.37 229.992 1166.31 235.476 1159.99 237.236C1157.21 238.011 1154.21 238.043 1151.42 238.777C1148.62 239.51 1145.83 241.261 1145.41 243.811C1145.22 244.988 1145.56 246.195 1145.36 247.372C1144.97 249.71 1142.65 251.348 1141.09 253.272C1137.65 257.525 1138.04 263.535 1140.79 268.163C1141.37 269.12 1142.04 270.037 1142.78 270.903C1143.01 273.091 1143.72 275.218 1144.87 277.164C1147.63 281.793 1152.36 285.251 1157.31 288.124C1156.91 286.589 1156.66 285.025 1156.58 283.451C1156.51 282.926 1156.59 282.394 1156.8 281.902C1157.36 280.886 1158.81 280.615 1159.92 280.059C1162.22 278.906 1163.12 276.354 1163.19 274.021C1163.26 271.688 1162.7 269.351 1162.97 267.03C1162.98 266.497 1163.12 265.971 1163.38 265.487C1163.63 265.003 1164 264.571 1164.46 264.22C1165.3 263.793 1166.27 263.589 1167.25 263.633C1171.96 263.463 1176.89 263.387 1181.04 261.421C1182.38 260.635 1183.82 259.992 1185.33 259.505C1188.87 258.692 1192.48 260.876 1194.51 263.55C1196.55 266.223 1197.56 269.404 1199.44 272.166C1201.32 274.927 1204.56 277.39 1208.19 277.063C1208.4 277.063 1208.6 277.026 1208.79 276.952C1208.97 276.879 1209.14 276.772 1209.28 276.637C1209.44 276.389 1209.5 276.105 1209.48 275.822L1209.68 263.575C1209.85 261.48 1209.61 259.376 1208.98 257.351Z" fill="#2F2E41"/>
<path d="M1136.87 332.197C1136.87 332.197 1164.62 343.326 1163.36 366.697C1162.1 390.067 1170.93 392.293 1149.48 394.519C1128.04 396.745 1123 394.519 1121.73 396.745C1120.47 398.971 1112.9 345.552 1117.95 339.987C1123 334.423 1136.87 332.197 1136.87 332.197Z" fill="#386641"/>
<path d="M578.719 143.563C601.011 143.563 619.082 127.618 619.082 107.95C619.082 88.282 601.011 72.3378 578.719 72.3378C556.427 72.3378 538.356 88.282 538.356 107.95C538.356 127.618 556.427 143.563 578.719 143.563Z" fill="#2F2E41"/>
<path d="M605.838 498.018L583.134 552.549C583.134 552.549 564.213 565.904 575.566 570.355C586.918 574.807 609.622 565.904 609.622 565.904L627.281 525.84L624.759 498.018H605.838Z" fill="#2F2E41"/>
<path opacity="0.1" d="M605.838 498.018L583.134 552.549C583.134 552.549 564.213 565.904 575.566 570.355C586.918 574.807 609.622 565.904 609.622 565.904L627.281 525.84L624.759 498.018H605.838Z" fill="black"/>
<path d="M607.73 174.724L626.651 176.949C626.651 176.949 635.48 238.158 631.696 242.61C627.912 247.061 608.992 264.867 601.423 260.416C593.855 255.964 607.73 174.724 607.73 174.724Z" fill="#575A89"/>
<path d="M426.725 286.569C426.725 286.569 400.237 296.585 395.191 297.698C390.146 298.811 382.578 309.94 391.407 312.165C400.237 314.391 434.293 292.133 434.293 292.133L426.725 286.569Z" fill="#A0616A"/>
<path d="M614.668 520.275L628.543 565.904C628.543 565.904 629.804 582.597 636.111 583.71C642.418 584.823 661.338 578.145 661.338 575.92C661.338 573.694 653.77 555.888 653.77 555.888C653.77 555.888 653.77 542.533 646.202 536.969C638.634 531.404 631.815 512.764 631.815 512.764L614.668 520.275Z" fill="#2F2E41"/>
<path d="M632.327 415.664C634.875 420.906 634.559 458.933 631.772 484.24C630.422 496.537 628.492 505.83 626.02 506.921L607.945 502.937L600.793 501.356L600.604 487.512L599.532 411.212L578.088 332.197V312.165L632.327 316.617L640.929 328.536L641.156 328.859C641.156 328.859 628.543 407.874 632.327 415.664Z" fill="#2F2E41"/>
<path opacity="0.1" d="M620.975 440.147C623.674 443.72 628.177 465.11 631.772 484.24C630.422 496.537 628.492 505.83 626.02 506.921L607.945 502.937C607.667 502.425 607.39 501.89 607.1 501.356C604.791 497.083 602.622 492.364 600.604 487.512L599.532 411.212L578.088 332.197V312.165L632.327 316.617L640.929 328.536L590.702 325.52L602.054 368.923L615.929 414.551C615.929 414.551 615.929 433.47 620.975 440.147Z" fill="black"/>
<path d="M531.418 267.65C531.418 267.65 513.759 302.149 538.986 350.003C554.597 379.784 568.489 410.241 580.611 441.26C580.611 441.26 589.441 477.986 602.054 501.356C614.668 524.727 612.145 525.84 612.145 525.84L632.327 515.824C632.327 515.824 620.975 446.825 615.929 440.147C610.884 433.47 610.884 414.551 610.884 414.551L597.009 368.922L585.657 325.52L641.156 328.859C641.156 328.859 641.156 265.424 615.929 253.182L531.418 267.65Z" fill="#2F2E41"/>
<path d="M552.231 124.644C552.231 124.644 552.231 142.45 545.924 143.563C539.617 144.676 527.003 144.676 523.219 150.24C519.435 155.804 552.231 229.255 552.231 229.255L586.287 210.336L597.639 160.256C597.639 160.256 581.242 151.353 581.242 146.901V126.869L552.231 124.644Z" fill="#A0616A"/>
<path opacity="0.1" d="M552.231 124.644C552.231 124.644 552.231 142.45 545.924 143.563C539.617 144.676 527.003 144.676 523.219 150.24C519.435 155.804 552.231 229.255 552.231 229.255L586.287 210.336L597.639 160.256C597.639 160.256 581.242 151.353 581.242 146.901V126.869L552.231 124.644Z" fill="black"/>
<path d="M571.782 144.119C588.501 144.119 602.054 132.161 602.054 117.41C602.054 102.659 588.501 90.7004 571.782 90.7004C555.062 90.7004 541.509 102.659 541.509 117.41C541.509 132.161 555.062 144.119 571.782 144.119Z" fill="#A0616A"/>
<path d="M556.015 206.997C556.015 206.997 544.662 143.563 542.14 143.563C539.617 143.563 504.299 150.24 501.776 151.353C499.253 152.466 490.424 162.482 490.424 162.482L508.083 206.997C508.083 206.997 515.651 238.158 520.697 243.723C525.742 249.287 535.833 264.867 530.787 267.093C525.742 269.319 520.697 272.658 525.742 272.658C530.787 272.658 572.412 265.98 574.935 269.319C577.458 272.658 619.083 257.077 619.083 255.964C619.083 254.851 614.037 202.546 614.037 202.546L626.651 176.949L588.81 153.579L556.015 206.997Z" fill="#575A89"/>
<path d="M503.038 156.917L490.424 162.482C490.424 162.482 455.106 233.707 452.583 234.819C450.06 235.932 437.447 257.077 436.186 261.529C434.924 265.98 432.401 280.448 428.617 282.674C426.588 283.89 424.482 285.004 422.311 286.012C422.311 286.012 429.879 297.141 433.663 297.141C437.447 297.141 450.06 281.561 450.06 281.561C450.06 281.561 477.81 297.141 485.379 284.899C492.947 272.658 511.867 194.755 511.867 194.755L503.038 156.917Z" fill="#575A89"/>
<path d="M602.054 190.86C602.054 190.86 584.395 153.022 574.304 157.474C564.213 161.925 581.872 188.635 593.225 193.086L602.054 190.86Z" fill="#A0616A"/>
<path opacity="0.1" d="M584.395 191.973L602.093 188.443L605.838 205.328C605.838 205.328 622.236 230.924 618.452 242.053C614.668 253.182 591.963 270.988 584.395 260.972C576.827 250.956 570.52 235.376 575.566 226.473C580.611 217.57 588.179 196.425 584.395 191.973Z" fill="black"/>
<path d="M588.179 189.747L605.877 186.218L609.622 203.102C609.622 203.102 626.02 228.699 622.236 239.827C618.452 250.956 595.747 268.763 588.179 258.747C580.611 248.731 574.304 233.15 579.35 224.247C584.395 215.344 591.963 194.199 588.179 189.747Z" fill="#575A89"/>
<path d="M607.394 112.047C610.793 105.646 601.274 95.3846 586.134 89.1269C570.994 82.8692 555.965 82.9851 552.567 89.3858C549.168 95.7865 558.687 106.048 573.827 112.306C588.967 118.564 603.996 118.448 607.394 112.047Z" fill="#2F2E41"/>
<path d="M602.685 93.4827C612.438 93.4827 620.344 86.5071 620.344 77.9022C620.344 69.2974 612.438 62.3218 602.685 62.3218C592.932 62.3218 585.026 69.2974 585.026 77.9022C585.026 86.5071 592.932 93.4827 602.685 93.4827Z" fill="#2F2E41"/>
<path d="M586.287 72.3378C586.288 68.495 587.898 64.788 590.808 61.9291C593.719 59.0702 597.724 57.2611 602.054 56.8494C599.588 56.6118 597.093 56.8353 594.731 57.5053C592.37 58.1753 590.194 59.2768 588.347 60.7381C586.501 62.1993 585.023 63.9875 584.012 65.9862C583.001 67.9848 582.478 70.149 582.478 72.3378C582.478 74.5265 583.001 76.6907 584.012 78.6894C585.023 80.688 586.501 82.4762 588.347 83.9375C590.194 85.3987 592.37 86.5002 594.731 87.1703C597.093 87.8403 599.588 88.0637 602.054 87.8261C597.724 87.4145 593.719 85.6054 590.808 82.7464C587.898 79.8875 586.288 76.1805 586.287 72.3378Z" fill="#2F2E41"/>
<path d="M523.219 308.27H81.7436V578.702H523.219V308.27Z" fill="#3F3D56"/>
<path d="M175.084 334.979H117.062V386.172H175.084V334.979Z" fill="#F2F2F2"/>
<path d="M175.084 418.446H117.062V469.639H175.084V418.446Z" fill="#386641"/>
<path d="M175.084 501.913H117.062V553.105H175.084V501.913Z" fill="#F2F2F2"/>
<path d="M479.072 351.116H202.834V355.568H479.072V351.116Z" fill="#F2F2F2"/>
<path d="M288.606 365.584H202.834V370.035H288.606V365.584Z" fill="#F2F2F2"/>
<path d="M479.072 434.583H202.834V439.034H479.072V434.583Z" fill="#F2F2F2"/>
<path d="M288.606 449.051H202.834V453.502H288.606V449.051Z" fill="#F2F2F2"/>
<path d="M479.072 518.05H202.834V522.501H479.072V518.05Z" fill="#F2F2F2"/>
<path d="M288.606 532.517H202.834V536.969H288.606V532.517Z" fill="#F2F2F2"/>
<path d="M1248.5 744.447C1248.5 767.102 1233.24 775.011 1214.41 775.011C1213.97 775.011 1213.54 775.006 1213.1 774.997C1212.23 774.981 1211.36 774.945 1210.51 774.892C1193.52 773.832 1180.32 765.515 1180.32 744.447C1180.32 722.648 1211.89 695.138 1214.27 693.098L1214.27 693.095C1214.36 693.015 1214.41 692.976 1214.41 692.976C1214.41 692.976 1248.5 721.796 1248.5 744.447Z" fill="#386641"/>
<path d="M1213.17 771.545L1225.64 756.175L1213.13 773.234L1213.1 774.997C1212.23 774.981 1211.36 774.945 1210.51 774.892L1211.85 752.229L1211.84 752.052L1211.87 752.022L1212 749.879L1199.46 732.778L1212.03 748.273L1212.06 748.727L1213.08 731.604L1202.35 713.933L1213.21 728.601L1214.27 693.098L1214.27 692.976V693.095L1214.09 721.09L1224.78 709.991L1214.05 723.501L1213.77 738.833L1223.74 724.118L1213.73 741.089L1213.57 749.613L1228.05 729.132L1213.51 752.587L1213.17 771.545Z" fill="#3F3D56"/>
<path d="M142.289 589.756C142.289 612.41 127.027 620.32 108.197 620.32C107.76 620.32 107.324 620.314 106.891 620.306C106.019 620.289 105.153 620.253 104.299 620.201C87.305 619.14 74.1042 610.824 74.1042 589.756C74.1042 567.957 105.677 540.447 108.055 538.406L108.058 538.403C108.149 538.323 108.197 538.284 108.197 538.284C108.197 538.284 142.289 567.104 142.289 589.756Z" fill="#386641"/>
<path d="M106.954 616.854L119.424 601.483L106.923 618.542L106.891 620.306C106.019 620.289 105.153 620.253 104.299 620.201L105.642 597.538L105.633 597.361L105.655 597.33L105.784 595.188L93.2512 578.087L105.821 593.582L105.853 594.036L106.866 576.913L96.1379 559.242L106.998 573.909L108.055 538.406L108.058 538.285V538.404L107.883 566.398L118.564 555.3L107.839 568.81L107.556 584.141L117.531 569.427L107.516 586.398L107.359 594.922L121.833 574.441L107.302 597.895L106.954 616.854Z" fill="#3F3D56"/>
</svg>
