<svg width="811" height="601" viewBox="0 0 811 601" fill="none" xmlns="http://www.w3.org/2000/svg">
<path d="M691.211 417.039C691.211 420.383 690.648 423.305 689.523 425.805C688.398 428.289 686.805 430.188 684.742 431.5C682.68 432.812 680.273 433.469 677.523 433.469C674.836 433.469 672.453 432.812 670.375 431.5C668.297 430.172 666.68 428.289 665.523 425.852C664.383 423.398 663.797 420.562 663.766 417.344V414.883C663.766 411.602 664.336 408.703 665.477 406.188C666.617 403.672 668.227 401.75 670.305 400.422C672.398 399.078 674.789 398.406 677.477 398.406C680.211 398.406 682.617 399.07 684.695 400.398C686.789 401.711 688.398 403.625 689.523 406.141C690.648 408.641 691.211 411.555 691.211 414.883V417.039ZM686.734 414.836C686.734 410.789 685.922 407.688 684.297 405.531C682.672 403.359 680.398 402.273 677.477 402.273C674.633 402.273 672.391 403.359 670.75 405.531C669.125 407.688 668.289 410.688 668.242 414.531V417.039C668.242 420.961 669.062 424.047 670.703 426.297C672.359 428.531 674.633 429.648 677.523 429.648C680.43 429.648 682.68 428.594 684.273 426.484C685.867 424.359 686.688 421.32 686.734 417.367V414.836ZM712.938 430.492C711.25 432.477 708.773 433.469 705.508 433.469C702.805 433.469 700.742 432.688 699.32 431.125C697.914 429.547 697.203 427.219 697.188 424.141V407.641H701.523V424.023C701.523 427.867 703.086 429.789 706.211 429.789C709.523 429.789 711.727 428.555 712.82 426.086V407.641H717.156V433H713.031L712.938 430.492ZM736.023 411.531C735.367 411.422 734.656 411.367 733.891 411.367C731.047 411.367 729.117 412.578 728.102 415V433H723.766V407.641H727.984L728.055 410.57C729.477 408.305 731.492 407.172 734.102 407.172C734.945 407.172 735.586 407.281 736.023 407.5V411.531ZM766.703 426.273C766.703 425.102 766.258 424.195 765.367 423.555C764.492 422.898 762.953 422.336 760.75 421.867C758.562 421.398 756.82 420.836 755.523 420.18C754.242 419.523 753.289 418.742 752.664 417.836C752.055 416.93 751.75 415.852 751.75 414.602C751.75 412.523 752.625 410.766 754.375 409.328C756.141 407.891 758.391 407.172 761.125 407.172C764 407.172 766.328 407.914 768.109 409.398C769.906 410.883 770.805 412.781 770.805 415.094H766.445C766.445 413.906 765.938 412.883 764.922 412.023C763.922 411.164 762.656 410.734 761.125 410.734C759.547 410.734 758.312 411.078 757.422 411.766C756.531 412.453 756.086 413.352 756.086 414.461C756.086 415.508 756.5 416.297 757.328 416.828C758.156 417.359 759.648 417.867 761.805 418.352C763.977 418.836 765.734 419.414 767.078 420.086C768.422 420.758 769.414 421.57 770.055 422.523C770.711 423.461 771.039 424.609 771.039 425.969C771.039 428.234 770.133 430.055 768.32 431.43C766.508 432.789 764.156 433.469 761.266 433.469C759.234 433.469 757.438 433.109 755.875 432.391C754.312 431.672 753.086 430.672 752.195 429.391C751.32 428.094 750.883 426.695 750.883 425.195H755.219C755.297 426.648 755.875 427.805 756.953 428.664C758.047 429.508 759.484 429.93 761.266 429.93C762.906 429.93 764.219 429.602 765.203 428.945C766.203 428.273 766.703 427.383 766.703 426.273ZM787.211 433.469C783.773 433.469 780.977 432.344 778.82 430.094C776.664 427.828 775.586 424.805 775.586 421.023V420.227C775.586 417.711 776.062 415.469 777.016 413.5C777.984 411.516 779.328 409.969 781.047 408.859C782.781 407.734 784.656 407.172 786.672 407.172C789.969 407.172 792.531 408.258 794.359 410.43C796.188 412.602 797.102 415.711 797.102 419.758V421.562H779.922C779.984 424.062 780.711 426.086 782.102 427.633C783.508 429.164 785.289 429.93 787.445 429.93C788.977 429.93 790.273 429.617 791.336 428.992C792.398 428.367 793.328 427.539 794.125 426.508L796.773 428.57C794.648 431.836 791.461 433.469 787.211 433.469ZM786.672 410.734C784.922 410.734 783.453 411.375 782.266 412.656C781.078 413.922 780.344 415.703 780.062 418H792.766V417.672C792.641 415.469 792.047 413.766 790.984 412.562C789.922 411.344 788.484 410.734 786.672 410.734ZM814.398 411.531C813.742 411.422 813.031 411.367 812.266 411.367C809.422 411.367 807.492 412.578 806.477 415V433H802.141V407.641H806.359L806.43 410.57C807.852 408.305 809.867 407.172 812.477 407.172C813.32 407.172 813.961 407.281 814.398 407.5V411.531ZM827.195 427.117L833.477 407.641H837.906L828.812 433H825.508L816.32 407.641H820.75L827.195 427.117ZM846.789 433H842.453V407.641H846.789V433ZM842.102 400.914C842.102 400.211 842.312 399.617 842.734 399.133C843.172 398.648 843.812 398.406 844.656 398.406C845.5 398.406 846.141 398.648 846.578 399.133C847.016 399.617 847.234 400.211 847.234 400.914C847.234 401.617 847.016 402.203 846.578 402.672C846.141 403.141 845.5 403.375 844.656 403.375C843.812 403.375 843.172 403.141 842.734 402.672C842.312 402.203 842.102 401.617 842.102 400.914ZM863.922 429.93C865.469 429.93 866.82 429.461 867.977 428.523C869.133 427.586 869.773 426.414 869.898 425.008H874C873.922 426.461 873.422 427.844 872.5 429.156C871.578 430.469 870.344 431.516 868.797 432.297C867.266 433.078 865.641 433.469 863.922 433.469C860.469 433.469 857.719 432.32 855.672 430.023C853.641 427.711 852.625 424.555 852.625 420.555V419.828C852.625 417.359 853.078 415.164 853.984 413.242C854.891 411.32 856.188 409.828 857.875 408.766C859.578 407.703 861.586 407.172 863.898 407.172C866.742 407.172 869.102 408.023 870.977 409.727C872.867 411.43 873.875 413.641 874 416.359H869.898C869.773 414.719 869.148 413.375 868.023 412.328C866.914 411.266 865.539 410.734 863.898 410.734C861.695 410.734 859.984 411.531 858.766 413.125C857.562 414.703 856.961 416.992 856.961 419.992V420.812C856.961 423.734 857.562 425.984 858.766 427.562C859.969 429.141 861.688 429.93 863.922 429.93ZM889.398 433.469C885.961 433.469 883.164 432.344 881.008 430.094C878.852 427.828 877.773 424.805 877.773 421.023V420.227C877.773 417.711 878.25 415.469 879.203 413.5C880.172 411.516 881.516 409.969 883.234 408.859C884.969 407.734 886.844 407.172 888.859 407.172C892.156 407.172 894.719 408.258 896.547 410.43C898.375 412.602 899.289 415.711 899.289 419.758V421.562H882.109C882.172 424.062 882.898 426.086 884.289 427.633C885.695 429.164 887.477 429.93 889.633 429.93C891.164 429.93 892.461 429.617 893.523 428.992C894.586 428.367 895.516 427.539 896.312 426.508L898.961 428.57C896.836 431.836 893.648 433.469 889.398 433.469ZM888.859 410.734C887.109 410.734 885.641 411.375 884.453 412.656C883.266 413.922 882.531 415.703 882.25 418H894.953V417.672C894.828 415.469 894.234 413.766 893.172 412.562C892.109 411.344 890.672 410.734 888.859 410.734Z" fill="#FEF9F9"/>
<path d="M809.924 600.866H1.07722C0.792145 600.865 0.519034 600.701 0.317746 600.411C0.116459 600.121 0.00341797 599.728 0.00341797 599.318C0.00341797 598.908 0.116459 598.515 0.317746 598.225C0.519034 597.935 0.792145 597.771 1.07722 597.77H809.924C810.209 597.771 810.482 597.935 810.683 598.225C810.884 598.515 810.997 598.908 810.997 599.318C810.997 599.728 810.884 600.121 810.683 600.411C810.482 600.701 810.209 600.865 809.924 600.866Z" fill="#3F3D56"/>
<path d="M253.566 74.6871C256.796 74.6871 259.415 70.9229 259.415 66.2795C259.415 61.6361 256.796 57.8719 253.566 57.8719C250.336 57.8719 247.717 61.6361 247.717 66.2795C247.717 70.9229 250.336 74.6871 253.566 74.6871Z" fill="#F2F2F2"/>
<path d="M230.255 74.6871C233.486 74.6871 236.104 70.9229 236.104 66.2795C236.104 61.6361 233.486 57.8719 230.255 57.8719C227.025 57.8719 224.406 61.6361 224.406 66.2795C224.406 70.9229 227.025 74.6871 230.255 74.6871Z" fill="#F2F2F2"/>
<path d="M206.945 74.6871C210.175 74.6871 212.794 70.9229 212.794 66.2795C212.794 61.6361 210.175 57.8719 206.945 57.8719C203.714 57.8719 201.096 61.6361 201.096 66.2795C201.096 70.9229 203.714 74.6871 206.945 74.6871Z" fill="#F2F2F2"/>
<path d="M156.849 73.8152C160.079 73.8152 162.698 70.051 162.698 65.4076C162.698 60.7642 160.079 57 156.849 57C153.619 57 151 60.7642 151 65.4076C151 70.051 153.619 73.8152 156.849 73.8152Z" fill="#F2F2F2"/>
<path d="M253.566 109.79C256.796 109.79 259.415 106.026 259.415 101.382C259.415 96.7388 256.796 92.9746 253.566 92.9746C250.336 92.9746 247.717 96.7388 247.717 101.382C247.717 106.026 250.336 109.79 253.566 109.79Z" fill="#F2F2F2"/>
<path d="M230.255 109.79C233.486 109.79 236.104 106.026 236.104 101.382C236.104 96.7388 233.486 92.9746 230.255 92.9746C227.025 92.9746 224.406 96.7388 224.406 101.382C224.406 106.026 227.025 109.79 230.255 109.79Z" fill="#F2F2F2"/>
<path d="M206.945 109.79C210.175 109.79 212.794 106.026 212.794 101.382C212.794 96.7388 210.175 92.9746 206.945 92.9746C203.714 92.9746 201.096 96.7388 201.096 101.382C201.096 106.026 203.714 109.79 206.945 109.79Z" fill="#F2F2F2"/>
<path d="M183.634 109.79C186.864 109.79 189.483 106.026 189.483 101.382C189.483 96.7388 186.864 92.9746 183.634 92.9746C180.404 92.9746 177.785 96.7388 177.785 101.382C177.785 106.026 180.404 109.79 183.634 109.79Z" fill="#F2F2F2"/>
<path d="M253.566 144.893C256.796 144.893 259.415 141.128 259.415 136.485C259.415 131.842 256.796 128.077 253.566 128.077C250.336 128.077 247.717 131.842 247.717 136.485C247.717 141.128 250.336 144.893 253.566 144.893Z" fill="#F2F2F2"/>
<path d="M230.255 144.893C233.486 144.893 236.104 141.128 236.104 136.485C236.104 131.842 233.486 128.077 230.255 128.077C227.025 128.077 224.406 131.842 224.406 136.485C224.406 141.128 227.025 144.893 230.255 144.893Z" fill="#F2F2F2"/>
<path d="M206.945 144.893C210.175 144.893 212.794 141.128 212.794 136.485C212.794 131.842 210.175 128.077 206.945 128.077C203.714 128.077 201.096 131.842 201.096 136.485C201.096 141.128 203.714 144.893 206.945 144.893Z" fill="#F2F2F2"/>
<path d="M183.634 144.893C186.864 144.893 189.483 141.128 189.483 136.485C189.483 131.842 186.864 128.077 183.634 128.077C180.404 128.077 177.785 131.842 177.785 136.485C177.785 141.128 180.404 144.893 183.634 144.893Z" fill="#F2F2F2"/>
<path d="M253.566 179.995C256.796 179.995 259.415 176.231 259.415 171.588C259.415 166.944 256.796 163.18 253.566 163.18C250.336 163.18 247.717 166.944 247.717 171.588C247.717 176.231 250.336 179.995 253.566 179.995Z" fill="#F2F2F2"/>
<path d="M230.255 179.995C233.486 179.995 236.104 176.231 236.104 171.588C236.104 166.944 233.486 163.18 230.255 163.18C227.025 163.18 224.406 166.944 224.406 171.588C224.406 176.231 227.025 179.995 230.255 179.995Z" fill="#F2F2F2"/>
<path d="M206.945 179.995C210.175 179.995 212.794 176.231 212.794 171.588C212.794 166.944 210.175 163.18 206.945 163.18C203.714 163.18 201.096 166.944 201.096 171.588C201.096 176.231 203.714 179.995 206.945 179.995Z" fill="#F2F2F2"/>
<path d="M183.634 179.995C186.864 179.995 189.483 176.231 189.483 171.588C189.483 166.944 186.864 163.18 183.634 163.18C180.404 163.18 177.785 166.944 177.785 171.588C177.785 176.231 180.404 179.995 183.634 179.995Z" fill="#F2F2F2"/>
<path d="M253.566 215.098C256.796 215.098 259.415 211.334 259.415 206.69C259.415 202.047 256.796 198.283 253.566 198.283C250.336 198.283 247.717 202.047 247.717 206.69C247.717 211.334 250.336 215.098 253.566 215.098Z" fill="#F2F2F2"/>
<path d="M230.255 215.098C233.486 215.098 236.104 211.334 236.104 206.69C236.104 202.047 233.486 198.283 230.255 198.283C227.025 198.283 224.406 202.047 224.406 206.69C224.406 211.334 227.025 215.098 230.255 215.098Z" fill="#F2F2F2"/>
<path d="M206.945 215.098C210.175 215.098 212.794 211.334 212.794 206.69C212.794 202.047 210.175 198.283 206.945 198.283C203.714 198.283 201.096 202.047 201.096 206.69C201.096 211.334 203.714 215.098 206.945 215.098Z" fill="#F2F2F2"/>
<path d="M183.634 215.098C186.864 215.098 189.483 211.334 189.483 206.69C189.483 202.047 186.864 198.283 183.634 198.283C180.404 198.283 177.785 202.047 177.785 206.69C177.785 211.334 180.404 215.098 183.634 215.098Z" fill="#F2F2F2"/>
<path d="M253.566 250.201C256.796 250.201 259.415 246.437 259.415 241.793C259.415 237.15 256.796 233.385 253.566 233.385C250.336 233.385 247.717 237.15 247.717 241.793C247.717 246.437 250.336 250.201 253.566 250.201Z" fill="#F2F2F2"/>
<path d="M230.255 250.201C233.486 250.201 236.104 246.437 236.104 241.793C236.104 237.15 233.486 233.385 230.255 233.385C227.025 233.385 224.406 237.15 224.406 241.793C224.406 246.437 227.025 250.201 230.255 250.201Z" fill="#F2F2F2"/>
<path d="M206.945 250.201C210.175 250.201 212.794 246.437 212.794 241.793C212.794 237.15 210.175 233.385 206.945 233.385C203.714 233.385 201.096 237.15 201.096 241.793C201.096 246.437 203.714 250.201 206.945 250.201Z" fill="#F2F2F2"/>
<path d="M183.634 250.201C186.864 250.201 189.483 246.437 189.483 241.793C189.483 237.15 186.864 233.385 183.634 233.385C180.404 233.385 177.785 237.15 177.785 241.793C177.785 246.437 180.404 250.201 183.634 250.201Z" fill="#F2F2F2"/>
<path d="M202.171 471.156V473.757C202.173 478.066 203.365 482.197 205.485 485.244C207.604 488.291 210.479 490.004 213.476 490.008H294.877C297.875 490.006 300.75 488.294 302.87 485.246C304.99 482.199 306.181 478.066 306.183 473.757V471.156C306.188 467.353 305.259 463.67 303.559 460.756C302.994 459.788 302.353 458.916 301.651 458.155C301.651 458.155 256.899 456.699 256.899 454.905H213.476C210.479 454.911 207.606 456.625 205.486 459.672C203.367 462.718 202.175 466.848 202.171 471.156Z" fill="#CCCCCC"/>
<path d="M260.71 489.362H248.952V598.571H260.71V489.362Z" fill="#CCCCCC"/>
<path d="M294.175 597.977C294.175 599.803 276.357 598.683 254.379 598.683C232.4 598.683 214.583 599.803 214.583 597.977C214.583 596.151 232.4 581.669 254.379 581.669C276.357 581.669 294.175 596.151 294.175 597.977Z" fill="#CCCCCC"/>
<path d="M278.009 468.951C278.858 467.314 279.447 465.429 279.734 463.429C280.021 461.43 280 459.364 279.672 457.377C279.343 455.391 278.716 453.532 277.834 451.932C276.952 450.331 275.836 449.028 274.566 448.115L249.646 326.054L230.67 339.414L261.132 455.194C260.206 458.364 260.121 461.911 260.893 465.165C261.664 468.419 263.24 471.153 265.32 472.848C267.4 474.544 269.841 475.084 272.18 474.366C274.519 473.647 276.593 471.721 278.009 468.951L278.009 468.951Z" fill="#A0616A"/>
<path d="M255.291 346.439L234.052 354.703C233.448 354.938 232.816 354.983 232.198 354.835C231.581 354.688 230.992 354.35 230.474 353.846C229.955 353.342 229.518 352.683 229.193 351.914C228.867 351.146 228.661 350.285 228.587 349.391L226.02 318.075C225.201 313.624 225.643 308.888 227.25 304.904C228.856 300.921 231.496 298.016 234.59 296.826C237.684 295.636 240.98 296.258 243.756 298.556C246.531 300.854 248.56 304.64 249.396 309.085L258.146 337.89C258.396 338.714 258.52 339.607 258.509 340.507C258.497 341.407 258.351 342.292 258.08 343.104C257.81 343.915 257.42 344.633 256.939 345.208C256.458 345.784 255.896 346.203 255.291 346.439H255.291Z" fill="#386641"/>
<path d="M283.56 585.177L294.649 585.176L299.924 543.838H283.558L283.56 585.177Z" fill="#A0616A"/>
<path d="M280.732 579.973L302.569 579.972H302.57C304.397 579.972 306.207 580.489 307.895 581.494C309.584 582.499 311.118 583.973 312.41 585.83C313.702 587.688 314.727 589.893 315.427 592.32C316.126 594.747 316.486 597.348 316.486 599.975V600.625L280.732 600.627L280.732 579.973Z" fill="#2F2E41"/>
<path d="M296.431 563.009C296.302 563.009 296.172 563 296.042 562.982L280.696 561.376C280.076 561.294 279.477 561.007 278.945 560.539C278.414 560.071 277.964 559.433 277.632 558.676C277.299 557.918 277.091 557.061 277.025 556.17C276.959 555.28 277.037 554.379 277.251 553.538L297.788 487.213C297.935 486.622 297.995 485.994 297.964 485.367C297.934 484.741 297.813 484.131 297.61 483.575C297.408 483.012 297.126 482.517 296.781 482.123C296.436 481.729 296.037 481.444 295.611 481.287C285.953 477.658 261.176 467.996 239.728 456.692C230.539 451.848 224.751 444.848 222.526 435.887C219.593 424.073 223.932 413.299 224.118 412.847L224.264 412.493L244.446 415.13L266.326 417.805L314.274 454.764C318.292 457.887 321.344 463.071 322.822 469.284C324.3 475.496 324.096 482.281 322.25 488.286L300.145 559.542C299.825 560.574 299.304 561.45 298.645 562.066C297.986 562.681 297.217 563.009 296.431 563.009Z" fill="#2F2E41"/>
<path d="M247.956 283.912C260.224 283.912 270.17 269.616 270.17 251.98C270.17 234.345 260.224 220.048 247.956 220.048C235.687 220.048 225.742 234.345 225.742 251.98C225.742 269.616 235.687 283.912 247.956 283.912Z" fill="#A0616A"/>
<path d="M277.229 583.877L288.318 583.875L293.593 542.537H277.227L277.229 583.877Z" fill="#A0616A"/>
<path d="M274.401 578.673L296.237 578.671H296.238C298.066 578.671 299.875 579.189 301.564 580.194C303.252 581.199 304.786 582.673 306.079 584.53C307.371 586.388 308.396 588.593 309.095 591.02C309.795 593.447 310.155 596.048 310.155 598.675V599.325L274.401 599.327L274.401 578.673Z" fill="#2F2E41"/>
<path d="M290.1 566.909C289.971 566.909 289.841 566.901 289.711 566.883L274.365 565.277C273.745 565.194 273.146 564.907 272.614 564.439C272.083 563.971 271.633 563.334 271.3 562.576C270.968 561.819 270.76 560.962 270.694 560.071C270.628 559.18 270.705 558.279 270.92 557.438L291.457 491.114C291.604 490.522 291.664 489.894 291.633 489.268C291.602 488.641 291.482 488.031 291.279 487.475C291.077 486.912 290.794 486.418 290.45 486.023C290.105 485.629 289.706 485.344 289.279 485.187C279.622 481.559 254.845 471.897 233.397 460.592C224.207 455.748 218.42 448.749 216.195 439.788C213.262 427.974 217.601 417.2 217.787 416.748L217.933 416.393L238.115 419.03L259.995 421.706L307.943 458.664C311.961 461.788 315.013 466.972 316.491 473.184C317.969 479.396 317.765 486.181 315.919 492.187L293.814 563.442C293.494 564.474 292.973 565.351 292.314 565.966C291.655 566.581 290.886 566.909 290.1 566.909Z" fill="#2F2E41"/>
<path d="M254.807 302.019L231.291 290.318C231.291 290.318 216.529 306.621 223.621 347.066C227.323 367.936 226.244 389.967 220.545 409.887C219.859 412.351 219.068 414.753 218.177 417.078C218.177 417.078 244.406 462.581 268.826 428.779L259.329 363.124C259.329 363.124 274.253 319.57 254.807 302.019Z" fill="#2F2E41"/>
<path d="M250.714 284.998C247.552 278.196 245.057 268.763 248.538 262.291C251.974 255.902 258.751 256.843 264.014 254.016C271.343 250.078 275.594 237.701 274.269 226.615C272.943 215.53 266.752 206.341 259.378 202.581C252.003 198.821 243.687 200.044 236.465 204.374C227.575 209.704 219.949 220.014 216.751 233.075C213.553 246.136 215.263 261.818 221.897 271.857C229.009 282.619 240.172 285.488 250.498 285.314" fill="#2F2E41"/>
<path d="M230.05 226.971C226.066 231.633 219.988 229.563 215.711 225.471C211.435 221.38 207.964 215.554 203.337 212.346C195.18 206.69 185.317 210.45 177.378 216.714C169.439 222.978 162.401 231.633 154.015 236.549C145.629 241.465 134.927 241.708 128.577 232.425C127.015 238.933 126.887 245.976 128.212 252.592C129.536 259.209 132.249 265.076 135.979 269.395C139.709 273.713 144.275 276.272 149.055 276.723C153.834 277.173 158.594 275.493 162.684 271.911C171.873 263.866 176.948 246.997 187.255 242.556C192.958 240.099 199.082 242.078 204.845 244.221C210.609 246.365 216.619 248.681 222.436 246.856C228.253 245.031 233.694 237.518 232.954 229.026L230.05 226.971Z" fill="#2F2E41"/>
<path d="M302.364 527.85C300.012 505.888 300.012 483.538 302.364 461.577C302.513 460.27 302.981 459.081 303.682 458.222C304.384 457.364 305.275 456.891 306.196 456.889H342.259C342.844 456.886 343.421 457.075 343.947 457.442C344.472 457.808 344.933 458.342 345.294 459.003C345.662 459.673 345.92 460.455 346.046 461.29C346.173 462.125 346.165 462.99 346.024 463.819C342.651 484.13 342.651 505.296 346.024 525.607C346.165 526.437 346.173 527.302 346.046 528.136C345.92 528.971 345.662 529.753 345.294 530.423C344.933 531.084 344.472 531.618 343.947 531.985C343.421 532.351 342.844 532.54 342.259 532.538H306.196C305.275 532.535 304.384 532.062 303.682 531.204C302.981 530.345 302.513 529.157 302.364 527.85Z" fill="#386641"/>
<path d="M331.162 488.971H312.237C311.518 488.97 310.828 488.558 310.319 487.827C309.811 487.096 309.525 486.105 309.524 485.07V483.547C309.525 482.513 309.811 481.522 310.319 480.79C310.828 480.059 311.518 479.648 312.237 479.647H331.162C331.881 479.648 332.571 480.059 333.079 480.79C333.588 481.522 333.874 482.513 333.875 483.547V485.07C333.874 486.105 333.588 487.096 333.079 487.827C332.571 488.558 331.881 488.97 331.162 488.971Z" fill="white"/>
<path d="M331.162 505.02H312.237C311.518 505.019 310.828 504.608 310.319 503.877C309.811 503.145 309.525 502.154 309.524 501.12V499.596C309.525 498.562 309.811 497.57 310.319 496.839C310.828 496.108 311.518 495.697 312.237 495.695H331.162C331.881 495.697 332.571 496.108 333.079 496.839C333.588 497.57 333.874 498.562 333.875 499.596V501.12C333.874 502.154 333.588 503.145 333.079 503.877C332.571 504.608 331.881 505.019 331.162 505.02Z" fill="white"/>
<path d="M311.848 463.101C312.385 461.211 312.627 459.175 312.558 457.136C312.489 455.096 312.109 453.103 311.446 451.298C310.783 449.492 309.852 447.917 308.72 446.685C307.587 445.452 306.281 444.591 304.892 444.163L259.547 334.923L243.495 354.674L293.115 455.842C292.769 459.244 293.303 462.709 294.616 465.583C295.929 468.456 297.929 470.537 300.238 471.432C302.547 472.327 305.004 471.973 307.144 470.438C309.284 468.902 310.957 466.292 311.848 463.102L311.848 463.101Z" fill="#A0616A"/>
<path d="M268.556 352.633L249.428 368.263C248.883 368.708 248.279 368.978 247.655 369.057C247.031 369.136 246.403 369.02 245.813 368.718C245.224 368.416 244.686 367.935 244.237 367.308C243.788 366.681 243.439 365.921 243.213 365.082L235.284 335.681C233.717 331.666 233.322 326.921 234.185 322.487C235.048 318.053 237.099 314.292 239.889 312.029C242.678 309.765 245.978 309.184 249.064 310.412C252.151 311.64 254.774 314.578 256.356 318.581L269.835 343.33C270.22 344.039 270.495 344.859 270.641 345.734C270.786 346.609 270.799 347.519 270.677 348.402C270.556 349.285 270.304 350.12 269.938 350.85C269.572 351.58 269.101 352.188 268.556 352.633Z" fill="#2F2E41"/>
<path d="M472.094 391.005H104.887C103.328 391.005 101.832 391.895 100.73 393.48C99.6273 395.065 99.0079 397.214 99.0079 399.456C99.0079 401.697 99.6273 403.846 100.73 405.431C101.832 407.016 103.328 407.906 104.887 407.906H115.288V591.871C115.288 594.112 115.907 596.261 117.01 597.846C118.112 599.431 119.608 600.321 121.167 600.321C122.726 600.321 124.222 599.431 125.324 597.846C126.427 596.261 127.046 594.112 127.046 591.871V424.145L192.954 595.859C193.736 597.795 195.019 599.207 196.524 599.784C198.028 600.361 199.631 600.057 200.979 598.938C202.328 597.818 203.312 595.976 203.717 593.815C204.121 591.653 203.913 589.349 203.137 587.409L134.24 407.906H449.031V408.016L380.176 587.409C379.396 589.349 379.185 591.656 379.589 593.821C379.992 595.986 380.977 597.831 382.328 598.952C383.678 600.073 385.282 600.376 386.788 599.796C388.294 599.216 389.579 597.8 390.358 595.859L449.031 442.996V591.871C449.031 594.112 449.65 596.261 450.753 597.846C451.855 599.431 453.351 600.321 454.91 600.321C456.469 600.321 457.964 599.431 459.067 597.846C460.169 596.261 460.789 594.112 460.789 591.871V412.362L462.499 407.906H472.094C473.654 407.906 475.149 407.016 476.252 405.431C477.354 403.846 477.973 401.697 477.973 399.456C477.973 397.214 477.354 395.065 476.252 393.48C475.149 391.895 473.654 391.005 472.094 391.005Z" fill="#3F3D56"/>
<path d="M320.146 385.804H248.695C246.946 385.804 245.529 387.842 245.529 390.355C245.529 392.868 246.946 394.905 248.695 394.905H320.146C321.895 394.905 323.312 392.868 323.312 390.355C323.312 387.842 321.895 385.804 320.146 385.804Z" fill="#CCCCCC"/>
<path d="M368.082 394.905H287.586C286.028 394.903 284.533 394.012 283.431 392.427C282.329 390.843 281.709 388.695 281.707 386.455V322.75C281.709 320.509 282.329 318.361 283.431 316.777C284.533 315.193 286.028 314.301 287.586 314.299H368.082C369.641 314.301 371.135 315.193 372.238 316.777C373.34 318.361 373.96 320.509 373.961 322.75V386.455C373.96 388.695 373.34 390.843 372.238 392.427C371.135 394.012 369.641 394.903 368.082 394.905Z" fill="#CCCCCC"/>
<path d="M327.834 362.403C330.831 362.403 333.261 358.91 333.261 354.602C333.261 350.294 330.831 346.801 327.834 346.801C324.837 346.801 322.408 350.294 322.408 354.602C322.408 358.91 324.837 362.403 327.834 362.403Z" fill="white"/>
<path d="M429.513 237.946V9.77861C429.516 7.18607 430.233 4.70055 431.508 2.86734C432.784 1.03413 434.513 0.00294894 436.316 0H561.79C563.593 0.00294894 565.322 1.03413 566.598 2.86734C567.873 4.70055 568.59 7.18607 568.592 9.77861V237.946C568.59 240.539 567.873 243.024 566.598 244.858C565.322 246.691 563.593 247.722 561.79 247.725H436.316C434.513 247.722 432.784 246.691 431.508 244.858C430.233 243.024 429.516 240.539 429.513 237.946ZM436.316 2.17303C434.913 2.1753 433.569 2.97732 432.577 4.40316C431.585 5.82899 431.027 7.76218 431.025 9.77861V237.946C431.027 239.963 431.585 241.896 432.577 243.322C433.569 244.748 434.913 245.55 436.316 245.552H561.79C563.192 245.55 564.537 244.748 565.529 243.322C566.521 241.896 567.079 239.963 567.081 237.946V9.77861C567.079 7.76218 566.521 5.82899 565.529 4.40316C564.537 2.97732 563.192 2.1753 561.79 2.17303H436.316Z" fill="#E6E6E6"/>
<path d="M506.089 104.785V57.9351C506.09 56.6389 506.449 55.3961 507.086 54.4794C507.724 53.5628 508.589 53.0473 509.49 53.0458H537.11C538.011 53.0473 538.876 53.5628 539.514 54.4794C540.151 55.3961 540.51 56.6389 540.511 57.9351V104.785C540.51 106.081 540.151 107.324 539.514 108.241C538.876 109.157 538.011 109.673 537.11 109.674H509.49C508.589 109.673 507.724 109.157 507.086 108.241C506.449 107.324 506.09 106.081 506.089 104.785Z" fill="#386641"/>
<path d="M452.423 126.515V79.6654C452.424 78.3691 452.782 77.1263 453.42 76.2097C454.058 75.2931 454.922 74.7775 455.824 74.7761H483.443C484.345 74.7775 485.21 75.2931 485.847 76.2097C486.485 77.1263 486.844 78.3691 486.845 79.6654V126.515C486.844 127.812 486.485 129.055 485.847 129.971C485.21 130.888 484.345 131.403 483.443 131.405H455.824C454.922 131.403 454.058 130.888 453.42 129.971C452.782 129.055 452.424 127.812 452.423 126.515Z" fill="#CCCCCC"/>
<path d="M495.507 192.793V145.943C495.508 144.646 495.867 143.404 496.504 142.487C497.142 141.57 498.007 141.055 498.908 141.053H526.528C527.429 141.055 528.294 141.57 528.932 142.487C529.569 143.404 529.928 144.646 529.929 145.943V192.793C529.928 194.089 529.569 195.332 528.932 196.248C528.294 197.165 527.429 197.681 526.528 197.682H498.908C498.007 197.681 497.142 197.165 496.504 196.248C495.867 195.332 495.508 194.089 495.507 192.793Z" fill="#FF6584"/>
<path d="M706.143 23.7752C709.373 23.7752 711.992 20.011 711.992 15.3676C711.992 10.7242 709.373 6.95995 706.143 6.95995C702.913 6.95995 700.294 10.7242 700.294 15.3676C700.294 20.011 702.913 23.7752 706.143 23.7752Z" fill="#F2F2F2"/>
<path d="M706.143 57.2831C709.373 57.2831 711.992 53.5189 711.992 48.8755C711.992 44.2321 709.373 40.4678 706.143 40.4678C702.913 40.4678 700.294 44.2321 700.294 48.8755C700.294 53.5189 702.913 57.2831 706.143 57.2831Z" fill="#F2F2F2"/>
<path d="M706.143 90.791C709.373 90.791 711.992 87.0268 711.992 82.3834C711.992 77.74 709.373 73.9758 706.143 73.9758C702.913 73.9758 700.294 77.74 700.294 82.3834C700.294 87.0268 702.913 90.791 706.143 90.791Z" fill="#F2F2F2"/>
<path d="M706.143 124.299C709.373 124.299 711.992 120.535 711.992 115.891C711.992 111.248 709.373 107.484 706.143 107.484C702.913 107.484 700.294 111.248 700.294 115.891C700.294 120.535 702.913 124.299 706.143 124.299Z" fill="#F2F2F2"/>
<path d="M681.723 23.7752C684.953 23.7752 687.572 20.011 687.572 15.3676C687.572 10.7242 684.953 6.95995 681.723 6.95995C678.493 6.95995 675.874 10.7242 675.874 15.3676C675.874 20.011 678.493 23.7752 681.723 23.7752Z" fill="#F2F2F2"/>
<path d="M681.723 57.2831C684.953 57.2831 687.572 53.5189 687.572 48.8755C687.572 44.2321 684.953 40.4678 681.723 40.4678C678.493 40.4678 675.874 44.2321 675.874 48.8755C675.874 53.5189 678.493 57.2831 681.723 57.2831Z" fill="#F2F2F2"/>
<path d="M681.723 90.791C684.953 90.791 687.572 87.0268 687.572 82.3834C687.572 77.74 684.953 73.9758 681.723 73.9758C678.493 73.9758 675.874 77.74 675.874 82.3834C675.874 87.0268 678.493 90.791 681.723 90.791Z" fill="#F2F2F2"/>
<path d="M681.723 124.299C684.953 124.299 687.572 120.535 687.572 115.891C687.572 111.248 684.953 107.484 681.723 107.484C678.493 107.484 675.874 111.248 675.874 115.891C675.874 120.535 678.493 124.299 681.723 124.299Z" fill="#F2F2F2"/>
<path d="M657.303 23.7752C660.533 23.7752 663.152 20.011 663.152 15.3676C663.152 10.7242 660.533 6.95995 657.303 6.95995C654.072 6.95995 651.454 10.7242 651.454 15.3676C651.454 20.011 654.072 23.7752 657.303 23.7752Z" fill="#F2F2F2"/>
<path d="M657.303 57.2831C660.533 57.2831 663.152 53.5189 663.152 48.8755C663.152 44.2321 660.533 40.4678 657.303 40.4678C654.072 40.4678 651.454 44.2321 651.454 48.8755C651.454 53.5189 654.072 57.2831 657.303 57.2831Z" fill="#F2F2F2"/>
<path d="M657.303 90.791C660.533 90.791 663.152 87.0268 663.152 82.3834C663.152 77.74 660.533 73.9758 657.303 73.9758C654.072 73.9758 651.454 77.74 651.454 82.3834C651.454 87.0268 654.072 90.791 657.303 90.791Z" fill="#F2F2F2"/>
<path d="M657.303 124.299C660.533 124.299 663.152 120.535 663.152 115.891C663.152 111.248 660.533 107.484 657.303 107.484C654.072 107.484 651.454 111.248 651.454 115.891C651.454 120.535 654.072 124.299 657.303 124.299Z" fill="#F2F2F2"/>
<path d="M632.882 23.7752C636.113 23.7752 638.732 20.011 638.732 15.3676C638.732 10.7242 636.113 6.95995 632.882 6.95995C629.652 6.95995 627.033 10.7242 627.033 15.3676C627.033 20.011 629.652 23.7752 632.882 23.7752Z" fill="#F2F2F2"/>
<path d="M632.882 57.2831C636.113 57.2831 638.732 53.5189 638.732 48.8755C638.732 44.2321 636.113 40.4678 632.882 40.4678C629.652 40.4678 627.033 44.2321 627.033 48.8755C627.033 53.5189 629.652 57.2831 632.882 57.2831Z" fill="#F2F2F2"/>
<path d="M632.882 90.791C636.113 90.791 638.732 87.0268 638.732 82.3834C638.732 77.74 636.113 73.9758 632.882 73.9758C629.652 73.9758 627.033 77.74 627.033 82.3834C627.033 87.0268 629.652 90.791 632.882 90.791Z" fill="#F2F2F2"/>
<path d="M632.882 124.299C636.113 124.299 638.732 120.535 638.732 115.891C638.732 111.248 636.113 107.484 632.882 107.484C629.652 107.484 627.033 111.248 627.033 115.891C627.033 120.535 629.652 124.299 632.882 124.299Z" fill="#F2F2F2"/>
<path d="M608.462 23.7752C611.693 23.7752 614.311 20.011 614.311 15.3676C614.311 10.7242 611.693 6.95995 608.462 6.95995C605.232 6.95995 602.613 10.7242 602.613 15.3676C602.613 20.011 605.232 23.7752 608.462 23.7752Z" fill="#F2F2F2"/>
<path d="M608.462 57.2831C611.693 57.2831 614.311 53.5189 614.311 48.8755C614.311 44.2321 611.693 40.4678 608.462 40.4678C605.232 40.4678 602.613 44.2321 602.613 48.8755C602.613 53.5189 605.232 57.2831 608.462 57.2831Z" fill="#F2F2F2"/>
<path d="M608.462 90.791C611.693 90.791 614.311 87.0268 614.311 82.3834C614.311 77.74 611.693 73.9758 608.462 73.9758C605.232 73.9758 602.613 77.74 602.613 82.3834C602.613 87.0268 605.232 90.791 608.462 90.791Z" fill="#F2F2F2"/>
<path d="M608.462 124.299C611.693 124.299 614.311 120.535 614.311 115.891C614.311 111.248 611.693 107.484 608.462 107.484C605.232 107.484 602.613 111.248 602.613 115.891C602.613 120.535 605.232 124.299 608.462 124.299Z" fill="#F2F2F2"/>
<path d="M584.042 23.7752C587.272 23.7752 589.891 20.011 589.891 15.3676C589.891 10.7242 587.272 6.95995 584.042 6.95995C580.812 6.95995 578.193 10.7242 578.193 15.3676C578.193 20.011 580.812 23.7752 584.042 23.7752Z" fill="#F2F2F2"/>
<path d="M584.042 57.2831C587.272 57.2831 589.891 53.5189 589.891 48.8755C589.891 44.2321 587.272 40.4678 584.042 40.4678C580.812 40.4678 578.193 44.2321 578.193 48.8755C578.193 53.5189 580.812 57.2831 584.042 57.2831Z" fill="#F2F2F2"/>
<path d="M584.042 90.791C587.272 90.791 589.891 87.0268 589.891 82.3834C589.891 77.74 587.272 73.9758 584.042 73.9758C580.812 73.9758 578.193 77.74 578.193 82.3834C578.193 87.0268 580.812 90.791 584.042 90.791Z" fill="#F2F2F2"/>
<path d="M584.042 124.299C587.272 124.299 589.891 120.535 589.891 115.891C589.891 111.248 587.272 107.484 584.042 107.484C580.812 107.484 578.193 111.248 578.193 115.891C578.193 120.535 580.812 124.299 584.042 124.299Z" fill="#F2F2F2"/>
<path d="M607.606 313.653C607.127 311.759 606.931 309.741 607.031 307.731C607.132 305.721 607.526 303.764 608.19 301.989C608.853 300.214 609.77 298.66 610.88 297.429C611.99 296.198 613.269 295.319 614.632 294.848C615.064 294.702 615.502 294.599 615.944 294.541L637.925 239.158L632.375 225.452L646.19 210.131L656.761 231.234C658.021 233.771 658.679 236.824 658.637 239.941C658.594 243.058 657.854 246.072 656.525 248.536L626.349 304.069C626.458 304.51 626.552 304.959 626.629 305.414C626.957 307.374 626.992 309.411 626.734 311.391C626.475 313.372 625.928 315.252 625.129 316.908C624.33 318.564 623.296 319.958 622.096 321C620.895 322.041 619.556 322.707 618.164 322.952C617.76 323.025 617.353 323.062 616.946 323.062C614.907 323.052 612.919 322.146 611.249 320.463C609.58 318.781 608.308 316.404 607.606 313.653Z" fill="#FFB8B8"/>
<path d="M564.722 586.2L553.633 586.199L548.359 524.719L564.724 524.721L564.722 586.2Z" fill="#FFB8B8"/>
<path d="M545.713 581.644H567.098V600.999H532.249C532.249 598.457 532.597 595.94 533.274 593.592C533.95 591.244 534.942 589.11 536.192 587.313C537.443 585.516 538.927 584.09 540.56 583.118C542.194 582.145 543.945 581.644 545.713 581.644Z" fill="#2F2E41"/>
<path d="M656.072 586.2L644.983 586.199L639.708 524.719L656.073 524.721L656.072 586.2Z" fill="#FFB8B8"/>
<path d="M637.063 581.644H658.447V600.999H623.598C623.598 598.457 623.947 595.94 624.623 593.592C625.3 591.244 626.292 589.11 627.542 587.313C628.792 585.516 630.277 584.09 631.91 583.118C633.544 582.145 635.295 581.644 637.063 581.644Z" fill="#2F2E41"/>
<path d="M649.266 213.124L624.371 226.723L618.293 202.454C617.486 199.232 617.498 195.703 618.325 192.491C619.153 189.28 620.744 186.592 622.817 184.903C624.914 183.195 627.367 182.621 629.733 183.285C632.098 183.949 634.221 185.807 635.717 188.523L649.266 213.124Z" fill="#386641"/>
<path d="M565.679 536.407L544.8 529.561C543.69 529.195 542.717 528.238 542.078 526.883C541.438 525.527 541.179 523.875 541.352 522.256C549.73 445.928 557.79 401.228 578.562 344.464C578.852 343.406 582.095 321.923 584.212 307.69C584.188 306.122 584.561 304.595 585.262 303.393C585.964 302.192 586.945 301.397 588.023 301.159L626.955 292.546C627.542 292.253 628.162 292.119 628.783 292.151L629.172 292.257L629.167 292.807C629.163 293.376 628.769 293.463 628.621 293.496L628.103 293.61C628.694 294.005 629.236 294.535 629.708 295.179C646.766 324.67 655.636 421.34 666.902 528.137C666.965 529.004 666.891 529.88 666.687 530.7C666.483 531.521 666.154 532.266 665.723 532.879C665.315 533.519 664.822 534.033 664.272 534.391C663.722 534.749 663.127 534.942 662.524 534.96L637.65 535.831C636.557 535.867 635.493 535.33 634.655 534.321C633.817 533.312 633.263 531.9 633.096 530.347L616.342 391.173C616.226 390.086 615.872 389.08 615.332 388.302C614.791 387.524 614.092 387.014 613.336 386.846C612.58 386.678 611.806 386.862 611.128 387.37C610.449 387.878 609.901 388.684 609.563 389.67C596.047 429.238 583.442 463.457 571.028 531.727C570.781 533.112 570.222 534.339 569.437 535.216C568.652 536.093 567.687 536.57 566.693 536.572C566.352 536.571 566.012 536.516 565.679 536.407Z" fill="#2F2E41"/>
<path d="M585.945 309.28C585.422 308.747 584.983 308.06 584.658 307.265C584.333 306.469 584.129 305.583 584.061 304.666C580.872 261.88 583.093 228.397 590.85 202.303C592.216 197.802 594.274 193.805 596.869 190.612C599.464 187.419 602.529 185.113 605.834 183.868L625.957 182.408L626.062 182.48C630.603 185.677 634.306 190.893 636.622 197.354C638.939 203.814 639.745 211.176 638.922 218.348C632.45 242.872 627.03 268.405 631.163 289.003C631.336 289.864 631.387 290.767 631.312 291.657C631.237 292.547 631.037 293.406 630.726 294.182C630.423 294.933 630.017 295.586 629.533 296.102C629.048 296.619 628.495 296.987 627.908 297.184L589.578 310.291C588.958 310.503 588.312 310.522 587.686 310.348C587.06 310.174 586.466 309.81 585.945 309.28Z" fill="#386641"/>
<path d="M577.283 247.879L538.686 204.11C538.379 204.266 538.066 204.398 537.749 204.508C536.387 204.966 534.973 205.007 533.599 204.628C532.224 204.249 530.921 203.459 529.774 202.309C528.618 201.158 527.647 199.665 526.926 197.931C526.204 196.197 525.748 194.262 525.589 192.254C525.33 189.045 525.834 185.804 527.017 183.058C528.201 180.311 529.995 178.22 532.109 177.124C533.429 176.443 534.834 176.171 536.231 176.325C537.629 176.48 538.989 177.057 540.22 178.019C541.452 178.981 542.529 180.306 543.38 181.908C544.23 183.509 544.836 185.351 545.157 187.313C545.257 187.935 545.326 188.565 545.364 189.201L583.787 221.063L593.348 213.15L603.94 233.083L589.095 248.293C587.357 250.059 585.269 250.973 583.141 250.898C581.013 250.824 578.959 249.765 577.283 247.879H577.283Z" fill="#FFB8B8"/>
<path d="M608.65 239.291L586.628 217.764L596.977 196.694C598.352 193.896 600.37 191.887 602.675 191.021C604.98 190.155 607.424 190.488 609.575 191.961C611.751 193.452 613.484 196.012 614.462 199.179C615.44 202.346 615.597 205.911 614.907 209.23L608.65 239.291Z" fill="#386641"/>
<path d="M619.241 171.604C631.51 171.604 641.456 157.307 641.456 139.672C641.456 122.036 631.51 107.74 619.241 107.74C606.973 107.74 597.027 122.036 597.027 139.672C597.027 157.307 606.973 171.604 619.241 171.604Z" fill="#FFB8B8"/>
<path d="M611.097 134.916C605.387 140.533 597.891 146.307 592.059 140.325C588.23 136.397 587.024 129.124 588.577 122.741C591.369 111.263 599.041 106.21 606.377 102.337C615.914 97.3015 626.298 93.2956 636.143 96.9017C645.989 100.508 654.69 114.21 652.912 128.589C651.483 140.152 643.895 149.774 644.972 161.416C646.056 173.133 655.223 179.3 663.316 181.394C671.408 183.488 680.464 184.161 686.28 192.517C693.7 203.176 691.847 222.228 684.866 233.482C677.884 244.736 667.349 249.838 657.141 253.306C643.615 257.901 628.986 260.315 616.14 252.69C603.294 245.064 593.298 224.537 597.019 205.288C598.591 197.158 602.294 190.286 605.872 183.597C609.451 176.907 613.074 169.912 614.439 161.705C615.577 154.865 614.735 146.924 611.58 141.794C611.006 140.896 610.645 139.759 610.548 138.548C610.451 137.337 610.624 136.112 611.042 135.051L611.097 134.916Z" fill="#2F2E41"/>
</svg>
