<svg width="783" height="552" viewBox="0 0 783 552" fill="none" xmlns="http://www.w3.org/2000/svg">
<g clip-path="url(#clip0)">
<path opacity="0.1" d="M459.202 93.2853C409.658 91.7579 362.464 77.5771 317.406 62.0589C272.347 46.5408 227.718 29.346 179.36 21.1253C148.257 15.8372 112.684 15.0905 87.6286 29.8755C63.5072 44.131 55.7142 68.6708 51.5269 91.466C48.3729 108.613 46.5204 126.657 55.1631 142.711C61.157 153.858 71.8054 163.225 79.162 173.937C104.784 211.083 86.6793 256.891 58.9141 293.161C45.9003 310.179 30.7814 326.424 20.7378 344.521C10.6943 362.619 6.03992 383.385 14.828 401.862C23.5473 420.191 44.3157 433.931 66.8065 443.604C112.5 463.256 166.324 468.877 218.846 472.061C335.074 479.114 451.914 476.059 568.449 473.004C611.578 471.871 654.891 470.723 697.316 464.811C720.878 461.525 745.199 456.318 762.308 443.733C784.018 427.76 789.4 400.708 774.855 380.683C750.443 347.087 682.993 338.745 665.907 302.685C656.521 282.843 666.167 260.74 679.808 242.33C709.082 202.849 758.144 168.208 760.731 123.079C762.507 92.077 738.914 61.0407 702.445 46.3711C664.223 30.9412 611.203 32.8963 583.017 58.3457C553.973 84.5691 502.944 94.6294 459.202 93.2853Z" fill="#386641"/>
<path d="M333.344 468.734L71.3231 467.601L45.2879 413.45L137.349 407.524L121.304 348.153L303.389 327.225L129.028 273.475L144.43 270.23L424.8 310.79L409.359 403.444L387.29 454.363L333.344 468.734Z" fill="#386641"/>
<path d="M75.342 444.921C75.342 444.921 91.4179 442.64 101.063 452.714C101.063 452.714 93.99 457.656 78.7715 450.813L75.342 444.921Z" fill="#386641"/>
<path d="M73.6579 444.697C73.6579 444.697 63.4 455.891 68.4524 468.354C68.4524 468.354 76.8118 465.388 77.7228 450.277L73.6579 444.697Z" fill="#386641"/>
<path d="M64.4411 426.294C64.4411 426.294 70.8714 415.833 96.5928 430.475C96.5928 430.475 93.1633 437.508 81.803 436.938C70.4427 436.368 67.4419 431.806 64.4411 426.294Z" fill="#386641"/>
<path d="M62.7799 425.54C62.7799 425.54 49.437 424.183 48.1433 451.268C48.1433 451.268 56.6022 452.823 62.6115 444.256C68.6208 435.689 66.1559 430.883 62.7799 425.54Z" fill="#386641"/>
<path d="M55.01 403.933C55.01 403.933 62.512 385.496 89.7337 398.611C89.7337 398.611 83.5177 415.527 57.7964 410.205L55.01 403.933Z" fill="#386641"/>
<path d="M46.6505 376.372C46.6505 376.372 60.7972 357.745 85.8755 375.015C85.8755 375.015 77.0874 392.501 48.794 382.998L46.6505 376.372Z" fill="#386641"/>
<path d="M43.6497 350.142C43.6497 350.142 60.1542 333.029 84.9875 350.142C84.9875 350.142 69.3404 365.158 43.6497 354.514V350.142Z" fill="#386641"/>
<path d="M41.0776 324.666C41.0776 324.666 57.7964 306.799 81.5887 323.715C81.5887 323.715 62.7264 339.491 41.0776 328.847V324.666Z" fill="#386641"/>
<path d="M42.578 302.047C42.578 302.047 60.1848 279.048 82.446 294.634C82.446 294.634 63.5837 314.402 42.578 306.419V302.047Z" fill="#386641"/>
<path d="M46.6505 275.627C46.6505 275.627 65.2985 252.818 86.9473 270.305C86.9473 270.305 64.8698 290.072 46.6505 279.808V275.627Z" fill="#386641"/>
<path d="M52.8665 252.01C52.8665 252.01 74.944 230.572 94.2043 239.112C94.2043 239.112 71.2006 261.88 51.902 257.699L52.8665 252.01Z" fill="#386641"/>
<path d="M60.5829 229.622C60.5829 229.622 86.0593 203.365 100.88 212.135C100.88 212.135 82.1092 232.5 58.7763 234.537L60.5829 229.622Z" fill="#386641"/>
<path d="M71.7212 203.657C71.7212 203.657 94.0206 182.219 110.311 187.541C110.311 187.541 91.2342 209.78 68.728 210.35L71.7212 203.657Z" fill="#386641"/>
<path d="M81.803 179.368C81.803 179.368 106.453 158.84 117.17 162.452C117.17 162.452 99.3792 185.26 80.7313 183.93L81.803 179.368Z" fill="#386641"/>
<path d="M91.6628 156.939C91.6628 156.939 112.883 132.413 124.465 134.314C124.465 134.314 111.597 156.179 91.6628 159.431V156.939Z" fill="#386641"/>
<path d="M102.365 126.697C102.365 126.697 121.12 107.9 131.255 107.941C131.255 107.941 116.45 133.058 101.592 132.827L102.365 126.697Z" fill="#386641"/>
<path d="M108.703 106.563L126.823 67.4082C126.823 67.4082 127.726 102.803 106.399 113.827L108.703 106.563Z" fill="#386641"/>
<path d="M116.06 63.3826C116.06 63.3826 119.061 30.6832 117.132 28.0222C117.132 28.0222 130.084 55.2095 115.937 77.8282L116.06 63.3826Z" fill="#386641"/>
<path d="M54.3057 403.499C54.3057 403.499 35.5199 393.173 23.3559 418.433C23.3559 418.433 40.0747 428.276 56.518 409.941L54.3057 403.499Z" fill="#386641"/>
<path d="M46.0458 375.32C46.0458 375.32 23.0037 366 11.8272 392.372C11.8272 392.372 29.6255 403.234 48.1433 381.986L46.0458 375.32Z" fill="#386641"/>
<path d="M42.578 351.71C42.578 351.71 26.0735 334.597 1.24014 351.71C1.24014 351.71 16.8873 366.726 42.578 356.082V351.71Z" fill="#386641"/>
<path d="M40.5111 324.666C40.5111 324.666 23.7922 306.799 0 323.715C0 323.715 18.8623 339.491 40.5111 328.847V324.666Z" fill="#386641"/>
<path d="M42.578 302.699C42.578 302.699 30.8503 276.937 5.35861 288.015C5.35861 288.015 19.1379 310.858 41.5369 306.975L42.578 302.699Z" fill="#386641"/>
<path d="M48.128 275.498C48.128 275.498 36.4692 249.288 10.6177 261.439C10.6177 261.439 26.4486 285.463 46.9797 279.544L48.128 275.498Z" fill="#386641"/>
<path d="M55.3544 252.139C55.3544 252.139 50.7613 223.404 29.3269 220.831C29.3269 220.831 33.8741 251.134 52.4684 257.318L55.3544 252.139Z" fill="#386641"/>
<path d="M61.1264 229.676C61.1264 229.676 59.3351 195.056 41.6134 193.848C41.6134 193.848 42.2105 220.125 59.1284 234.578L61.1264 229.676Z" fill="#386641"/>
<path d="M73.5584 202.686C73.5584 202.686 68.2763 173.897 51.3584 170.38C51.3584 170.38 53.456 198.26 71.8819 209.753L73.5584 202.686Z" fill="#386641"/>
<path d="M83.8087 179.606C83.8087 179.606 83.6326 149.615 73.2981 145.209C73.2981 145.209 66.8907 172.363 80.8155 183.434L83.8087 179.606Z" fill="#386641"/>
<path d="M92.4513 156.6C92.4513 156.6 91.0045 125.72 80.3026 121.369C80.3026 121.369 76.6434 145.807 90.8514 158.623L92.4513 156.6Z" fill="#386641"/>
<path d="M103.857 129.162C103.857 129.162 103.796 104.045 96.1564 98.1525C96.1564 98.1525 88.5625 125.666 99.8692 134.212L103.857 129.162Z" fill="#386641"/>
<path d="M107.808 105.328L100.374 63.5253C100.374 63.5253 90.2773 97.7792 108.16 112.876L107.808 105.328Z" fill="#386641"/>
<path d="M109.254 63.7764C109.254 63.7764 90.1777 35.6727 90.5682 32.55C90.5682 32.55 92.5968 62.0046 116.596 76.6742L109.254 63.7764Z" fill="#386641"/>
<path d="M111.49 55.4743C111.49 55.4743 93.4848 15.5589 85.3397 12.3276C85.3397 12.3276 111.061 23.9221 112.99 54.3338L111.49 55.4743Z" fill="#386641"/>
<path d="M101.5 133.065L100.267 132.732C115.463 88.7914 119.252 60.776 110.946 53.7501L111.827 52.9219C120.638 60.3347 117.063 88.0447 101.5 133.065Z" fill="#444053"/>
<path d="M59.6566 235.949L57.8347 235.372C59.4499 231.346 61.1877 227.26 63.0096 223.234C78.8711 188.179 92.3748 155.568 101.033 130.533L102.617 129.854C93.9441 154.937 80.6777 188.797 64.8009 223.9C62.9866 227.85 61.2565 231.917 59.6566 235.949Z" fill="#444053"/>
<path d="M97.9937 477.804C97.7487 477.566 73.1221 452.972 55.9515 410.986C45.8906 386.405 40.2915 360.564 39.3628 334.427C38.1839 301.755 45.9156 265.274 59.159 232.134L60.5982 233.627C30.8656 308.007 42.6775 371.743 58.3476 410.124C75.3344 451.73 99.6854 476.052 99.9228 476.296L97.9937 477.804Z" fill="#444053"/>
<path d="M482.834 425.588C482.834 425.588 465.479 444.371 479.259 472.767L340.7 526.055L327.403 528.526L321.279 504.767L325.375 474.783V458.396L482.834 425.588Z" fill="#D5D6DB"/>
<path d="M45.2879 413.45L237.065 382.448L491.178 418.345L333.344 468.734L45.2879 413.45Z" fill="#386641"/>
<path d="M45.2879 413.45L237.065 382.448L491.178 418.345L333.344 468.734L45.2879 413.45Z" fill="#386641"/>
<path d="M45.2879 413.443C45.2879 413.443 27.3519 443.577 48.0208 471.409L332.41 526.055C332.41 526.055 314.757 502.051 333.321 468.734L45.2879 413.443Z" fill="#386641"/>
<path opacity="0.1" d="M45.2879 413.443C45.2879 413.443 27.3519 443.577 48.0208 471.409L332.41 526.055C332.41 526.055 314.757 502.051 333.321 468.734L45.2879 413.443Z" fill="black"/>
<path opacity="0.1" d="M53.7622 423.891C53.7622 423.891 43.5119 445.939 53.7622 460.208V423.891Z" fill="black"/>
<path d="M332.41 526.055L491.178 465.978C491.178 465.978 500.058 467.675 494.316 473.445C488.575 479.216 335.472 531.825 335.472 531.825L48.0208 471.409L332.41 526.055Z" fill="#386641"/>
<path opacity="0.1" d="M332.41 526.055L491.178 465.978C491.178 465.978 500.058 467.675 494.316 473.445C488.575 479.216 335.472 531.825 335.472 531.825L48.0208 471.409L332.41 526.055Z" fill="black"/>
<path opacity="0.1" d="M319.396 474.803C319.396 474.803 304.086 491.095 319.396 515.533V474.803Z" fill="black"/>
<path opacity="0.1" d="M393.519 474.528L324.845 494.845L325.087 495.489L393.761 475.172L393.519 474.528Z" fill="black"/>
<path opacity="0.1" d="M407.274 472.506L324.823 500.309L325.096 500.943L407.546 473.14L407.274 472.506Z" fill="black"/>
<path opacity="0.1" d="M419.906 472.408L325.284 506.753L325.574 507.381L420.196 473.037L419.906 472.408Z" fill="black"/>
<path opacity="0.1" d="M433.643 469.467L326.388 512.431L326.703 513.05L433.958 470.086L433.643 469.467Z" fill="black"/>
<path opacity="0.1" d="M445.184 469.482L327.237 515.198L327.544 515.82L445.49 470.104L445.184 469.482Z" fill="black"/>
<path opacity="0.1" d="M470.427 465.68L329.016 519.841L329.319 520.464L470.73 466.303L470.427 465.68Z" fill="black"/>
<path opacity="0.3" d="M116.534 416.763L251.265 391.646L333.344 405.562L222.941 437.128L116.534 416.763Z" fill="white"/>
<path d="M491.178 418.345C491.178 418.345 498.144 420.836 494.056 424.685C489.968 428.534 333.321 468.734 333.321 468.734L491.178 418.345Z" fill="#386641"/>
<path d="M558.842 360.297C558.842 360.297 541.495 379.074 555.274 407.476L416.716 460.765L403.419 463.249L397.295 439.49L401.452 409.513V393.106L558.842 360.297Z" fill="#D5D6DB"/>
<path d="M121.304 348.153L313.073 317.158L567.193 353.054L409.359 403.444L121.304 348.153Z" fill="#3A3768"/>
<path d="M121.273 348.153C121.273 348.153 103.329 378.287 123.998 406.119L408.387 460.765C408.387 460.765 390.742 436.741 409.329 403.437L121.273 348.153Z" fill="#3A3768"/>
<path opacity="0.1" d="M121.273 348.153C121.273 348.153 103.329 378.287 123.998 406.119L408.387 460.765C408.387 460.765 390.742 436.741 409.329 403.437L319.396 386.175L121.273 348.153Z" fill="black"/>
<path opacity="0.1" d="M129.77 358.6C129.77 358.6 119.528 380.642 129.77 394.918V358.6Z" fill="black"/>
<path d="M408.418 460.765L567.194 400.688C567.194 400.688 576.066 402.385 570.324 408.155C564.583 413.925 411.48 466.535 411.48 466.535L124.029 406.119L408.418 460.765Z" fill="#3A3768"/>
<path opacity="0.1" d="M408.418 460.765L567.194 400.688C567.194 400.688 576.066 402.385 570.324 408.155C564.583 413.925 411.48 466.535 411.48 466.535L124.029 406.119L408.418 460.765Z" fill="black"/>
<path opacity="0.1" d="M395.404 409.513C395.404 409.513 380.094 425.805 395.404 450.243V409.513Z" fill="black"/>
<path opacity="0.1" d="M469.533 409.245L400.859 429.562L401.101 430.206L469.775 409.889L469.533 409.245Z" fill="black"/>
<path opacity="0.1" d="M483.297 407.22L400.847 435.022L401.119 435.657L483.569 407.854L483.297 407.22Z" fill="black"/>
<path opacity="0.1" d="M495.919 407.113L401.296 441.458L401.586 442.086L496.208 407.741L495.919 407.113Z" fill="black"/>
<path opacity="0.1" d="M509.664 404.173L402.409 447.137L402.724 447.756L509.979 404.792L509.664 404.173Z" fill="black"/>
<path opacity="0.1" d="M521.194 404.179L403.247 449.895L403.554 450.517L521.5 404.801L521.194 404.179Z" fill="black"/>
<path opacity="0.1" d="M546.443 400.377L405.032 454.538L405.335 455.161L546.746 401L546.443 400.377Z" fill="black"/>
<path opacity="0.45" d="M192.55 351.473L327.281 326.356L409.359 340.272L298.957 371.838L192.55 351.473Z" fill="white"/>
<path d="M567.193 353.054C567.193 353.054 574.152 355.546 570.072 359.388C565.992 363.23 409.359 403.437 409.359 403.437L567.193 353.054Z" fill="#3A3768"/>
<path d="M566.038 285.605C566.038 285.605 548.683 319.323 562.463 347.719L423.904 386.073L410.638 388.564L404.514 364.805L408.609 334.821V318.413L566.038 285.605Z" fill="#D5D6DB"/>
<path d="M128.522 273.468L320.299 242.466L574.42 278.362L416.578 328.752L128.522 273.468Z" fill="#386641"/>
<path d="M128.522 273.461C128.522 273.461 110.556 303.595 131.225 331.427L415.614 386.073C415.614 386.073 397.961 362.049 416.548 328.752L128.522 273.461Z" fill="#386641"/>
<path opacity="0.1" d="M128.522 273.461C128.522 273.461 110.556 303.595 131.225 331.427L415.614 386.073C415.614 386.073 397.961 362.049 416.548 328.752L128.522 273.461Z" fill="black"/>
<path opacity="0.1" d="M136.997 283.908C136.997 283.908 126.746 305.957 136.997 320.226V283.908Z" fill="black"/>
<path d="M415.644 386.073L574.412 340.93C574.412 340.93 583.292 342.628 577.551 348.398C571.81 354.168 418.706 391.843 418.706 391.843L131.255 331.427L415.644 386.073Z" fill="#386641"/>
<path opacity="0.1" d="M415.644 386.073L574.412 340.93C574.412 340.93 583.292 342.628 577.551 348.398C571.81 354.168 418.706 391.843 418.706 391.843L131.255 331.427L415.644 386.073Z" fill="black"/>
<path opacity="0.1" d="M402.631 334.821C402.631 334.821 387.32 351.113 402.631 375.551V334.821Z" fill="black"/>
<path opacity="0.1" d="M476.761 334.551L408.088 354.868L408.33 355.512L477.004 335.195L476.761 334.551Z" fill="black"/>
<path opacity="0.1" d="M490.521 332.53L408.07 360.332L408.342 360.967L490.793 333.164L490.521 332.53Z" fill="black"/>
<path opacity="0.1" d="M503.135 332.426L408.512 366.771L408.802 367.399L503.425 333.054L503.135 332.426Z" fill="black"/>
<path opacity="0.1" d="M516.891 329.481L409.636 372.444L409.951 373.063L517.206 330.099L516.891 329.481Z" fill="black"/>
<path opacity="0.1" d="M528.425 329.492L410.478 375.209L410.785 375.831L528.731 330.114L528.425 329.492Z" fill="black"/>
<path opacity="0.1" d="M553.671 325.695L412.26 379.856L412.564 380.479L553.975 326.318L553.671 325.695Z" fill="black"/>
<path opacity="0.3" d="M199.769 276.781L334.5 251.664L416.578 265.58L306.176 297.146L199.769 276.781Z" fill="white"/>
<path d="M574.412 278.362C574.412 278.362 581.378 280.854 577.291 284.703C573.203 288.552 416.578 328.752 416.578 328.752L574.412 278.362Z" fill="#386641"/>
<path d="M237.631 72.2957C237.631 72.2957 208.542 70.7412 211.941 88.8389C211.941 88.8389 211.259 92.0362 214.528 93.4889C214.528 93.4889 214.582 92.1313 217.514 92.5997C218.56 92.759 219.624 92.8046 220.683 92.7354C222.11 92.6488 223.467 92.1532 224.549 91.3234C224.549 91.3234 232.732 88.323 235.917 76.457C235.917 76.457 238.274 73.8706 238.213 73.2054L233.283 75.0654C233.283 75.0654 234.96 78.2084 233.643 80.8219C233.643 80.8219 233.482 75.1808 232.533 75.3098C232.342 75.3098 229.984 76.4027 229.984 76.4027C229.984 76.4027 232.87 81.8809 230.688 85.8588C230.688 85.8588 231.515 79.1112 229.081 76.7964L225.62 78.5885C225.62 78.5885 228.996 84.2432 226.707 88.8593C226.707 88.8593 227.297 81.7791 224.893 79.023L221.755 81.1953C221.755 81.1953 224.931 86.7685 222.995 90.5971C222.995 90.5971 222.742 82.3561 221.081 81.7315C221.081 81.7315 218.333 83.8766 217.919 84.7591C217.919 84.7591 220.093 88.8321 218.738 90.9433C218.738 90.9433 217.919 85.4515 217.207 85.4244C217.207 85.4244 214.475 89.0629 214.191 91.5339C214.324 89.2303 215.134 86.9975 216.541 85.0578C214.966 85.3221 213.513 85.99 212.362 86.9789C212.362 86.9789 212.783 84.4061 217.223 84.1821C217.223 84.1821 219.481 81.4193 220.086 81.2563C220.086 81.2563 215.669 80.9237 212.997 81.9759C212.997 81.9759 215.355 79.5525 220.89 80.6182L223.952 78.3781C223.952 78.3781 218.149 77.6993 215.684 78.4528C215.684 78.4528 218.524 76.3077 224.786 77.869L228.162 76.0836C228.162 76.0836 223.209 75.1401 220.262 75.4795C220.262 75.4795 223.37 73.9928 229.149 75.6017L231.553 74.6445C231.553 74.6445 227.932 74.0132 226.868 73.9114C225.804 73.8095 225.751 73.5516 225.751 73.5516C228.049 73.2169 230.407 73.4518 232.564 74.2304C232.564 74.2304 237.731 72.5809 237.631 72.2957Z" fill="#386641"/>
<path opacity="0.1" d="M646.876 146.682C646.876 146.682 617.786 145.128 621.185 163.226C621.185 163.226 620.504 166.423 623.773 167.876C623.773 167.876 623.826 166.518 626.758 166.986C627.805 167.142 628.869 167.187 629.927 167.122C631.342 167.03 632.684 166.534 633.755 165.71C633.755 165.71 641.946 162.71 645.123 150.844C645.123 150.844 647.481 148.257 647.419 147.592L642.505 149.452C642.505 149.452 644.181 152.595 642.865 155.208C642.865 155.208 642.704 149.567 641.762 149.696C641.571 149.696 639.206 150.789 639.206 150.789C639.206 150.789 642.092 156.267 639.917 160.245C639.917 160.245 640.744 153.498 638.302 151.183L634.842 152.975C634.842 152.975 638.218 158.63 635.929 163.246C635.929 163.246 636.519 156.166 634.115 153.41L630.984 155.582C630.984 155.582 634.153 161.155 632.216 164.984C632.216 164.984 631.964 156.743 630.303 156.118C630.303 156.118 627.562 158.263 627.141 159.146C627.141 159.146 629.315 163.219 627.968 165.33C627.968 165.33 627.141 159.838 626.437 159.811C626.437 159.811 623.704 163.45 623.421 165.92C623.553 163.616 624.366 161.383 625.778 159.444C624.201 159.709 622.746 160.377 621.591 161.366C621.591 161.366 622.02 158.793 626.452 158.569C626.452 158.569 628.71 155.806 629.315 155.636C629.315 155.636 624.906 155.31 622.226 156.363C622.226 156.363 624.584 153.939 630.119 155.005L633.181 152.765C633.181 152.765 627.371 152.086 624.913 152.839C624.913 152.839 627.746 150.694 634.015 152.256L637.384 150.47C637.384 150.47 632.431 149.527 629.483 149.866C629.483 149.866 632.591 148.379 638.371 149.988L640.782 149.031C640.782 149.031 637.154 148.4 636.09 148.298C635.026 148.196 634.972 147.938 634.972 147.938C637.27 147.599 639.629 147.834 641.785 148.617C641.785 148.617 646.968 146.967 646.876 146.682Z" fill="#386641"/>
<path opacity="0.1" d="M286.624 184.1C286.624 184.1 273.947 160.795 257.81 172.281C257.81 172.281 254.327 173.313 254.496 176.551C254.496 176.551 255.835 175.933 256.792 178.431C257.15 179.314 257.622 180.157 258.201 180.943C258.984 182.008 260.137 182.818 261.485 183.251C261.485 183.251 268.428 188.125 281.664 184.799C281.664 184.799 285.361 185.362 285.966 184.968L281.74 182.07C281.74 182.07 279.444 184.901 276.244 185.152C276.244 185.152 281.725 182.28 281.136 181.615C281.013 181.479 278.839 180.169 278.839 180.169C278.839 180.169 274.851 185.077 269.875 185.328C269.875 185.328 276.918 182.681 278.005 179.66L274.56 177.854C274.56 177.854 270.633 183.231 264.976 183.706C264.976 183.706 272.233 180.712 273.771 177.508L270.112 176.15C270.112 176.15 266.17 181.323 261.454 181.696C261.454 181.696 269.446 177.481 269.247 175.886C269.247 175.886 265.795 174.813 264.723 174.915C264.723 174.915 261.799 178.574 259.043 178.574C259.043 178.574 264.042 175.254 263.735 174.718C263.735 174.718 258.821 174.379 256.233 175.397C258.565 174.369 261.159 173.901 263.758 174.039C262.727 172.949 261.36 172.149 259.824 171.738C259.824 171.738 262.564 170.815 264.945 174.134C264.945 174.134 268.773 174.535 269.224 174.922C269.224 174.922 267.395 171.351 265.06 169.797C265.06 169.797 268.596 170.428 270.212 175.227L273.924 176.531C273.924 176.531 271.789 171.697 269.821 170.17C269.821 170.17 273.312 171.317 274.835 176.958L278.234 178.696C278.234 178.696 276.757 174.399 274.981 172.288C274.981 172.288 277.959 173.971 279.191 179.226L281.312 180.624C281.312 180.624 280.163 177.508 279.781 176.639C279.398 175.77 279.589 175.594 279.589 175.594C281.046 177.205 281.968 179.144 282.253 181.194C282.253 181.194 286.349 184.303 286.624 184.1Z" fill="#386641"/>
<path opacity="0.1" d="M580.414 113.759C580.414 113.759 567.745 90.4545 551.6 101.94C551.6 101.94 548.124 102.972 548.285 106.21C548.285 106.21 549.633 105.599 550.582 108.091C550.939 108.977 551.414 109.823 551.998 110.609C552.778 111.672 553.929 112.48 555.274 112.91C555.274 112.91 562.225 117.784 575.453 114.465C575.453 114.465 579.151 115.021 579.763 114.628L575.561 111.722C575.561 111.722 573.264 114.56 570.072 114.811C570.072 114.811 575.545 111.933 574.956 111.268C574.833 111.132 572.659 109.822 572.659 109.822C572.659 109.822 568.679 114.73 563.695 114.981C563.695 114.981 570.745 112.333 571.832 109.319L568.334 107.527C568.334 107.527 564.415 112.897 558.75 113.379C558.75 113.379 566.007 110.378 567.553 107.174L563.886 105.816C563.886 105.816 559.944 110.996 555.236 111.363C555.236 111.363 563.22 107.147 563.021 105.559C563.021 105.559 559.577 104.479 558.505 104.588C558.505 104.588 555.581 108.24 552.817 108.24C552.817 108.24 557.824 104.92 557.517 104.384C557.517 104.384 552.603 104.045 550.008 105.063C552.339 104.035 554.934 103.567 557.533 103.705C556.505 102.614 555.14 101.814 553.606 101.404C553.606 101.404 556.346 100.481 558.727 103.8C558.727 103.8 562.554 104.208 563.006 104.595C563.006 104.595 561.177 101.017 558.834 99.4626C558.834 99.4626 562.371 100.101 563.986 104.927L567.706 106.231C567.706 106.231 565.571 101.391 563.603 99.8631C563.603 99.8631 567.094 101.01 568.61 106.651L572.016 108.389C572.016 108.389 570.531 104.099 568.755 101.981C568.755 101.981 571.741 103.665 572.965 108.919L575.086 110.317C575.086 110.317 573.945 107.201 573.555 106.332C573.164 105.463 573.364 105.294 573.364 105.294C574.816 106.907 575.735 108.846 576.02 110.894C576.02 110.894 580.177 113.976 580.414 113.759Z" fill="#386641"/>
<path opacity="0.1" d="M620.902 229.032C620.902 229.032 608.233 205.72 592.065 217.206C592.065 217.206 588.59 218.238 588.75 221.476C588.75 221.476 590.098 220.865 591.047 223.357C591.401 224.243 591.874 225.088 592.455 225.875C593.236 226.938 594.386 227.746 595.732 228.176C595.732 228.176 602.683 233.057 615.919 229.731C615.919 229.731 619.608 230.294 620.221 229.894L615.995 226.995C615.995 226.995 613.699 229.833 610.499 230.084C610.499 230.084 615.972 227.205 615.383 226.54C615.26 226.404 613.086 225.094 613.086 225.094C613.086 225.094 609.105 230.002 604.122 230.26C604.122 230.26 611.172 227.606 612.259 224.592L608.807 222.786C608.807 222.786 604.887 228.163 599.223 228.638C599.223 228.638 606.48 225.637 608.026 222.433L604.359 221.076C604.359 221.076 600.417 226.248 595.709 226.622C595.709 226.622 603.701 222.406 603.502 220.811C603.502 220.811 600.049 219.732 598.978 219.84C598.978 219.84 596.053 223.492 593.29 223.492C593.29 223.492 598.296 220.173 597.99 219.636C597.99 219.636 593.076 219.297 590.48 220.315C592.815 219.288 595.412 218.82 598.013 218.958C596.984 217.865 595.616 217.065 594.078 216.656C594.078 216.656 596.819 215.726 599.2 219.053C599.2 219.053 603.027 219.453 603.479 219.84C603.479 219.84 601.649 216.269 599.314 214.708C599.314 214.708 602.851 215.346 604.466 220.173L608.179 221.476C608.179 221.476 606.043 216.636 604.076 215.115C604.076 215.115 607.567 216.256 609.082 221.904L612.489 223.635C612.489 223.635 611.004 219.345 609.228 217.227C609.228 217.227 612.213 218.91 613.446 224.171L615.566 225.529C615.566 225.529 614.418 222.413 614.035 221.544C613.653 220.675 613.844 220.505 613.844 220.505C615.3 222.117 616.22 224.056 616.5 226.106C616.5 226.106 620.665 229.235 620.902 229.032Z" fill="#386641"/>
<path opacity="0.1" d="M154.596 532.314C164.316 532.314 172.195 531.533 172.195 530.569C172.195 529.606 164.316 528.825 154.596 528.825C144.876 528.825 136.997 529.606 136.997 530.569C136.997 531.533 144.876 532.314 154.596 532.314Z" fill="#386641"/>
<path opacity="0.1" d="M39.225 502.662C48.9448 502.662 56.8242 501.881 56.8242 500.918C56.8242 499.954 48.9448 499.173 39.225 499.173C29.5052 499.173 21.6258 499.954 21.6258 500.918C21.6258 501.881 29.5052 502.662 39.225 502.662Z" fill="#386641"/>
<path opacity="0.1" d="M242.538 552.007C252.258 552.007 260.138 551.226 260.138 550.262C260.138 549.299 252.258 548.518 242.538 548.518C232.819 548.518 224.939 549.299 224.939 550.262C224.939 551.226 232.819 552.007 242.538 552.007Z" fill="#386641"/>
<path opacity="0.1" d="M693.197 509.111C702.917 509.111 710.797 508.33 710.797 507.367C710.797 506.403 702.917 505.622 693.197 505.622C683.478 505.622 675.598 506.403 675.598 507.367C675.598 508.33 683.478 509.111 693.197 509.111Z" fill="#386641"/>
<path opacity="0.1" d="M546.747 500.646C556.466 500.646 564.346 499.865 564.346 498.902C564.346 497.938 556.466 497.157 546.747 497.157C537.027 497.157 529.147 497.938 529.147 498.902C529.147 499.865 537.027 500.646 546.747 500.646Z" fill="#386641"/>
<path opacity="0.1" d="M452.006 541.933C463.502 541.933 472.821 540.514 472.821 538.763C472.821 537.012 463.502 535.593 452.006 535.593C440.511 535.593 431.192 537.012 431.192 538.763C431.192 540.514 440.511 541.933 452.006 541.933Z" fill="#386641"/>
<path d="M461.292 506.898C461.292 506.898 432.31 520.176 447.283 535.817C447.283 535.817 448.692 539.211 452.764 538.973C452.764 538.973 451.953 537.656 455.061 536.604C456.167 536.225 457.218 535.73 458.192 535.131C459.508 534.324 460.492 533.159 460.994 531.812C460.994 531.812 466.919 524.779 462.326 511.766C462.326 511.766 462.923 508.086 462.402 507.489L458.881 511.772C458.881 511.772 462.517 513.938 462.938 517.122C462.938 517.122 459.11 511.779 458.345 512.37C458.176 512.492 456.599 514.712 456.599 514.712C456.599 514.712 462.907 518.506 463.374 523.435C463.374 523.435 459.822 516.531 455.987 515.547L453.79 519.022C453.79 519.022 460.68 522.742 461.445 528.336C461.445 528.336 457.441 521.242 453.354 519.81L451.738 523.482C451.738 523.482 458.383 527.229 458.995 531.886C458.995 531.886 453.438 524.1 451.44 524.344C451.44 524.344 450.184 527.793 450.353 528.859C450.353 528.859 455.045 531.642 455.13 534.378C455.13 534.378 450.797 529.524 450.131 529.843C450.131 529.843 449.855 534.724 451.187 537.263C451.187 537.263 448.891 533.638 449.266 529.843C447.923 530.896 446.957 532.274 446.487 533.807C446.487 533.807 445.239 531.126 449.35 528.655C449.35 528.655 449.74 524.86 450.215 524.392C450.215 524.392 445.767 526.32 443.877 528.682C443.877 528.682 444.573 525.159 450.605 523.408L452.136 519.688C452.136 519.688 446.104 521.955 444.244 523.951C444.244 523.951 445.584 520.455 452.611 518.778L454.693 515.384C454.693 515.384 449.335 516.986 446.717 518.778C446.717 518.778 448.745 515.771 455.336 514.386L457.028 512.248C457.028 512.248 453.139 513.476 452.052 513.917C450.965 514.359 450.751 514.141 450.751 514.141C452.738 512.651 455.152 511.678 457.725 511.331C457.725 511.331 461.56 507.129 461.292 506.898Z" fill="#386641"/>
<path d="M547.313 256.117C542.307 244.054 514.748 242.92 502.791 245.996C494.293 248.188 476.38 250.659 466.811 251.901L466.191 251.379C467.432 251.053 467.462 250.252 467.309 249.064C467.22 247.498 467.245 245.929 467.386 244.366C473.249 245.982 478.47 242.16 478.47 242.16C485.36 239.445 483.507 227.823 484.824 224.646C485.812 222.27 486.876 208.273 487.35 201.294H487.45L487.503 198.952C487.572 197.941 487.603 197.35 487.603 197.35C487.603 197.35 488.277 180.285 489.593 176.829C490.818 173.652 491.813 157.645 491.966 155.107C491.966 154.889 491.966 154.774 491.966 154.774L491.867 153.294C491.936 152.215 491.966 151.013 491.959 149.751C491.959 143.947 491.277 136.636 491.193 135.454C491.193 135.285 491.193 135.081 491.193 134.837C491.247 132.359 490.895 119.95 478.991 115.259C474.604 113.521 469.33 111.451 464.224 109.435C462.907 99.354 459.899 89.3277 460.159 79.1723C460.159 77.645 460.312 76.1176 460.481 74.597C460.481 75.0382 460.427 75.4863 460.419 75.9547C460.419 76.939 460.419 77.9301 460.419 78.9144C460.871 66.2134 466.283 53.4445 465.778 41.0151C465.732 42.2302 465.633 43.4521 465.502 44.674C465.767 40.4699 465.271 36.2553 464.033 32.1903C463.573 30.7579 462.953 29.2781 461.629 28.3209C460.377 27.5501 458.941 27.046 457.434 26.8479C453.811 26.0256 450.131 25.4179 446.418 25.0286C445.854 23.497 445.016 22.0554 443.938 20.7587C436.176 11.3094 424.677 2.43023 411.082 0.393735C404.261 -0.624515 396.415 0.224026 391.776 4.54819C391.291 4.92806 390.836 5.33627 390.413 5.77009C387.917 8.41075 386.846 11.8796 384.289 14.5135C384.12 14.69 383.929 14.8529 383.745 15.0226C378.739 18.9938 370.938 19.8219 365.373 23.3858C364.392 24.0256 363.473 24.7363 362.625 25.5106C360.382 27.4812 358.371 29.6487 356.623 31.9798C354.12 35.1025 351.548 38.3541 350.752 42.0809C349.152 49.5481 354.885 56.6283 355.949 64.143C358.323 80.9577 337.34 95.8784 341.313 112.469C342.373 116.545 344.714 120.271 348.065 123.215C339.881 129.786 332.915 136.16 332.915 136.16V136.541H331.621L331.752 137.898H331.621L332.333 145.264L331.621 155.989C331.621 155.989 331.621 156.105 331.621 156.322V156.376V156.668C331.621 156.668 331.621 156.783 331.621 157.001H331.667C331.905 160.931 332.846 175.064 333.964 178.044C335.281 181.5 335.947 198.566 335.947 198.566C335.947 198.566 337.401 222.684 338.733 225.875C340.065 229.065 338.174 240.653 345.087 243.389C347.109 244.764 349.503 245.645 352.03 245.941C351.678 248.48 351.9 250.32 353.041 250.897C353.529 251.151 354.082 251.291 354.648 251.304C354.179 251.921 353.762 252.568 353.4 253.239C350.657 252.985 347.961 252.421 345.378 251.562C337.952 248.847 313.31 242.737 306.153 247.034C298.995 251.331 281.771 255.228 289.725 272.524C297.678 289.821 301.384 290.256 301.384 290.256C303.832 291.832 305.979 293.745 307.745 295.924C310.133 299.108 332.387 306.391 337.952 306.391C340.318 306.359 342.683 306.463 345.033 306.704C345.033 306.704 338.993 311.401 339.797 314.13C340.601 316.859 337.96 338.704 337.96 338.704C337.96 338.704 344.084 344.175 346.702 337L346.794 337.109C347.284 337.699 349.933 340.367 354.916 337C356.956 335.628 359.122 334.411 361.392 333.361L385.521 330.334C388.037 330.194 390.559 330.179 393.077 330.286C396.905 330.565 400.663 328.555 403.029 327.001C408.027 328.684 413.646 330.524 416.318 331.196C421.738 332.554 446.648 338.48 452.473 336.627C453.684 336.2 454.761 335.52 455.612 334.644L461.17 334.801L458.567 335.262C458.567 335.262 463.635 335.337 470.524 335.418L470.233 335.568L478.876 335.5C491.522 335.602 505.73 335.636 507.598 335.262C510.522 334.685 525.718 335.092 530.196 335.262H531.444C531.444 335.262 548.14 332.309 541.25 317.287C535.953 305.746 519.67 302.393 512.444 301.47C514.48 301.11 516.233 300.832 517.397 300.669C522.441 299.99 532.24 295.917 533.036 294.525C533.832 293.134 542.046 289.095 544.167 286.793C546.287 284.492 552.342 268.18 547.313 256.117ZM409.023 289.875L408.204 290.113L407.652 290.276L406.596 291.199C405.754 290.697 404.851 290.167 403.909 289.624C405.57 289.712 407.277 289.801 409.023 289.875Z" fill="url(#paint0_linear)"/>
<path d="M457.832 218.299C457.832 218.299 469.544 245.453 476.204 242.737C482.864 240.022 481.058 228.482 482.328 225.318C483.599 222.155 485.008 198.165 485.008 198.165C485.008 198.165 485.651 181.194 486.922 177.759C488.1 174.603 489.057 158.684 489.218 156.179C489.218 155.962 489.218 155.847 489.218 155.847L487.955 136.16L480.805 134.579L464.224 140.009L461.927 151.638L461.032 156.179L460.649 158.114L457.832 218.299Z" fill="#BE6F72"/>
<path opacity="0.1" d="M461.69 213.751C461.69 213.751 472.867 221.863 476.235 222.576C479.603 223.289 481.67 229.615 481.67 229.615" fill="black"/>
<path d="M366.238 219.487C366.238 219.487 354.526 246.64 347.866 243.925C341.206 241.21 343.012 229.67 341.741 226.506C340.471 223.343 339.062 199.353 339.062 199.353C339.062 199.353 338.419 182.382 337.148 178.947C335.969 175.791 335.013 159.872 334.852 157.367C334.852 157.15 334.852 157.034 334.852 157.034L336.123 137.348L343.273 135.767L359.854 141.197L362.15 152.826L363.046 157.367L363.429 159.302L366.238 219.487Z" fill="#BE6F72"/>
<path d="M442.506 74.1761H416.364V110.31H442.506V74.1761Z" fill="#3E373A"/>
<path opacity="0.1" d="M442.506 74.1761H416.364V110.31H442.506V74.1761Z" fill="black"/>
<path d="M361.645 246.532C361.645 246.532 352.711 255.241 356.026 256.823C359.341 258.405 380.783 288.049 380.783 288.049C380.783 288.049 451.21 295.74 464.492 284.2C477.774 272.66 477.506 252.044 477.506 252.044C477.506 252.044 466.834 254.08 465.671 252.974C464.507 251.867 458.115 246.532 458.115 246.532C458.115 246.532 367.769 241.671 361.645 246.532Z" fill="#4B4B5B"/>
<path opacity="0.02" d="M361.645 246.532C361.645 246.532 352.711 255.241 356.026 256.823C359.341 258.405 380.783 288.049 380.783 288.049C380.783 288.049 451.21 295.74 464.492 284.2C477.774 272.66 477.506 252.044 477.506 252.044C477.506 252.044 466.834 254.08 465.671 252.974C464.507 251.867 458.115 246.532 458.115 246.532C458.115 246.532 367.769 241.671 361.645 246.532Z" fill="black"/>
<path d="M488.43 136.445L465.464 152.737L458.521 153.185L455.972 153.348L413.156 156.132L368.757 153.253L362.15 152.826L353.729 152.283L336.123 137.348C336.123 137.348 348.585 125.509 359.501 117.52C363.804 114.363 367.869 111.811 370.831 110.806L371.336 110.65C373.2 110.005 374.863 108.977 376.19 107.649C384.809 99.7681 392.778 80.3195 392.778 80.3195C392.778 80.3195 430.802 62.9007 426.209 85.7502C421.615 108.6 443.302 102.952 443.302 102.952L450.452 105.844L453.277 106.991L460.481 109.917L476.733 116.528C489.486 121.735 488.43 136.445 488.43 136.445Z" fill="#BE6F72"/>
<path opacity="0.1" d="M411.373 98.9264C430.258 98.9264 445.568 85.3501 445.568 68.6029C445.568 51.8557 430.258 38.2794 411.373 38.2794C392.487 38.2794 377.177 51.8557 377.177 68.6029C377.177 85.3501 392.487 98.9264 411.373 98.9264Z" fill="black"/>
<path opacity="0.1" d="M488.483 158.046H334.852C334.852 157.829 334.852 157.713 334.852 157.713L336.123 138.027C336.123 138.027 348.585 126.188 359.501 118.198L455.956 114.804L460.442 110.609L476.694 117.221C489.455 122.421 488.43 137.131 488.43 137.131C488.43 137.131 490.175 154.177 488.483 158.046Z" fill="black"/>
<path d="M488.483 157.367H334.852C334.852 157.15 334.852 157.035 334.852 157.035L336.123 137.348C336.123 137.348 348.585 125.51 359.501 117.52L455.956 114.125L460.442 109.93L476.694 116.542C489.455 121.742 488.43 136.452 488.43 136.452C488.43 136.452 490.175 153.498 488.483 157.367Z" fill="#E7C7CA"/>
<path opacity="0.1" d="M386.746 102.164C386.746 102.164 410.982 129.549 443.264 101.601C475.546 73.6534 446.839 163.938 446.839 163.938L377.177 171.27L386.746 102.164Z" fill="black"/>
<path d="M386.746 103.522C386.746 103.522 410.982 130.906 443.264 102.959C475.546 75.0111 446.839 165.296 446.839 165.296L377.177 172.627L386.746 103.522Z" fill="#E7C7CA"/>
<path opacity="0.1" d="M453.239 108.328L455.803 143.01L458.552 154.55L460.649 163.375C460.649 163.375 466.008 231.258 464.477 234.652C462.946 238.046 465.242 240.762 465.564 242.568C465.885 244.373 465.242 248.908 465.495 250.944C465.747 252.981 465.495 253.884 459.631 253.157C453.767 252.431 445.591 251.168 445.591 251.168C445.591 251.168 424.922 252.526 417.78 250.265C410.638 248.005 397.111 247.998 397.111 247.998C397.111 247.998 376.695 248.453 370.066 247.774C363.436 247.095 359.854 255.017 355.521 252.75C351.188 250.483 360.619 228.543 363.681 222.202C366.743 215.862 359.601 199.801 359.601 199.801L368.787 154.611L370.831 144.367V112.164L371.336 112.007C373.2 111.363 374.863 110.335 376.19 109.007L378.486 141.415L450.445 143.682V107.208" fill="black"/>
<path d="M453.239 106.971L455.803 141.652L458.552 153.192L460.649 162.017C460.649 162.017 466.008 229.9 464.477 233.295C462.946 236.689 465.242 239.404 465.564 241.21C465.885 243.016 465.242 247.55 465.495 249.587C465.747 251.623 465.495 252.526 459.631 251.8C453.767 251.073 445.591 249.811 445.591 249.811C445.591 249.811 424.922 251.168 417.78 248.908C410.638 246.647 397.111 246.64 397.111 246.64C397.111 246.64 376.695 247.095 370.066 246.416C363.436 245.738 359.854 253.66 355.521 251.392C351.188 249.125 360.619 227.185 363.681 220.845C366.743 214.505 359.601 198.443 359.601 198.443L368.787 153.253L370.831 143.01V110.806L371.336 110.65C373.2 110.005 374.863 108.977 376.19 107.649L378.486 140.057L450.445 142.324V105.85" fill="#E7C7CA"/>
<path opacity="0.1" d="M461.514 34.5933C461.078 33.1746 460.473 31.7015 459.218 30.7511C458.019 29.9878 456.634 29.4855 455.176 29.2849C451.684 28.4707 448.134 27.8674 444.55 27.4792C444.038 25.9718 443.263 24.5448 442.254 23.25C434.752 13.855 423.652 4.9962 410.592 2.99364C403.756 1.94145 395.833 2.88503 391.454 7.66401C389.05 10.2911 388.017 13.7735 385.59 16.3531C380.913 21.3629 372.469 21.9806 366.575 25.8567C363.429 27.8932 361.147 30.8462 358.92 33.7108C356.508 36.8131 354.028 40.0444 353.262 43.7508C351.731 51.1569 357.251 58.2167 358.269 65.6907C360.566 82.4103 340.356 97.2428 344.176 113.738C346.403 123.358 356.424 130.132 366.789 133.567C370.441 134.782 374.613 135.991 376.32 139.1C377.085 140.457 377.216 142.025 377.935 143.397C380.354 147.972 388.308 148.149 392.579 144.815C396.851 141.482 398.198 136.092 398.703 131.062C400.755 109.095 390.834 87.393 391.99 65.3716C392.334 58.7123 394.447 51.1569 401.176 48.1428C410.232 44.0698 421.125 50.8582 431.092 49.5616C435.809 59.7382 436.81 70.9698 433.956 81.6772C432.371 87.5355 429.63 93.2174 429.431 99.259C429.133 108.457 434.729 116.861 439.567 124.994C440.605 126.514 441.299 128.2 441.611 129.956C441.687 131.738 441.313 133.512 440.516 135.149C437.783 141.672 433.068 147.728 432.532 154.672C432.375 155.483 432.581 156.316 433.106 156.994C433.645 157.446 434.341 157.724 435.081 157.781C443.348 159.037 450.498 152.541 454.533 146.017C459.03 138.812 461.651 130.805 462.203 122.584C463.037 108.763 457.449 95.1656 457.794 81.331C458.192 65.6024 466.207 49.7652 461.514 34.5933Z" fill="black"/>
<path d="M462.28 33.9145C461.843 32.4957 461.238 31.0227 459.983 30.0723C458.784 29.309 457.4 28.8066 455.941 28.606C452.449 27.7918 448.899 27.1885 445.316 26.8003C444.804 25.293 444.029 23.866 443.019 22.5712C435.517 13.1761 424.417 4.31737 411.357 2.31481C404.521 1.26262 396.598 2.2062 392.22 6.98518C389.816 9.61227 388.782 13.0947 386.356 15.6742C381.678 20.684 373.235 21.3018 367.34 25.1779C364.194 27.2144 361.913 30.1673 359.685 33.032C357.274 36.1343 354.794 39.3655 354.028 43.072C352.497 50.478 358.016 57.5379 359.034 65.0118C361.331 81.7315 341.121 96.564 344.941 113.06C347.169 122.679 357.19 129.453 367.555 132.888C371.206 134.103 375.378 135.312 377.085 138.421C377.851 139.779 377.981 141.347 378.701 142.718C381.12 147.293 389.073 147.47 393.345 144.137C397.616 140.804 398.964 135.414 399.469 130.383C401.521 108.416 391.6 86.7141 392.755 64.6928C393.1 58.0334 395.213 50.478 401.942 47.464C410.998 43.391 421.891 50.1793 431.858 48.8828C436.574 59.0594 437.576 70.291 434.721 80.9984C433.136 86.8567 430.396 92.5385 430.197 98.5801C429.898 107.778 435.494 116.182 440.332 124.315C441.37 125.835 442.065 127.521 442.376 129.277C442.452 131.059 442.078 132.833 441.281 134.47C438.549 140.994 433.833 147.049 433.297 153.993C433.14 154.804 433.346 155.637 433.871 156.315C434.411 156.767 435.107 157.045 435.846 157.102C444.114 158.358 451.264 151.862 455.298 145.338C459.796 138.133 462.417 130.126 462.969 121.905C463.803 108.084 458.215 94.4868 458.559 80.6522C458.957 64.9236 466.972 49.0864 462.28 33.9145Z" fill="#3E373A"/>
<path d="M445.369 334.481L475.737 335.344L471.382 315.372L448.118 317.334L445.369 334.481Z" fill="#C3C7D9"/>
<path d="M539.467 287.147C537.423 289.407 529.515 293.48 528.749 294.838C527.984 296.195 518.545 300.268 513.692 300.947C508.838 301.626 493.536 304.572 490.726 306.154C488.713 307.294 472.553 310.906 461.935 312.908C459.059 313.512 456.149 313.976 453.216 314.3C448.623 314.524 398.359 299.366 398.359 299.366L408.05 290.541L408.586 290.378C411.327 289.556 423.988 285.762 431.016 283.956C438.931 281.919 448.118 273.549 448.118 273.549C448.118 273.549 461.637 269.476 463.428 269.022C465.219 268.567 458.835 253.184 458.835 253.184C458.835 253.184 488.177 249.573 499.66 246.512C511.142 243.45 537.683 244.584 542.529 256.579C547.374 268.574 541.541 284.886 539.467 287.147Z" fill="#4B4B5B"/>
<path d="M405.754 325.385C405.754 325.385 399.89 330.816 394.019 330.368C388.147 329.92 367.616 331.725 367.616 331.725C363.895 333.042 360.411 334.832 357.274 337.041C352.474 340.394 349.925 337.72 349.45 337.149L349.366 337.041C346.809 344.175 340.945 338.738 340.945 338.738C340.945 338.738 343.495 317.015 342.714 314.3C341.933 311.584 347.758 306.921 347.758 306.921L354.648 305.366L372.102 301.402L397.111 309.093L405.754 325.385Z" fill="#E7C7CA"/>
<path opacity="0.1" d="M354.617 305.366L349.45 337.149L349.366 337.041C346.809 344.175 340.945 338.738 340.945 338.738C340.945 338.738 343.495 317.015 342.714 314.3C341.933 311.584 347.758 306.921 347.758 306.921L354.617 305.366Z" fill="black"/>
<path opacity="0.1" d="M390.734 214.959C390.734 214.959 404.253 219.032 415.996 214.959H390.734Z" fill="black"/>
<path opacity="0.1" d="M436.887 222.657C436.887 222.657 442.499 225.142 446.839 222.657H436.887Z" fill="black"/>
<path opacity="0.1" d="M436.887 228.55C436.887 228.55 446.326 229.67 448.118 227.409L436.887 228.55Z" fill="black"/>
<path opacity="0.1" d="M433.825 241.21C433.825 241.21 451.555 239.173 455.956 236.458L433.825 241.21Z" fill="black"/>
<path opacity="0.1" d="M379.726 236.458C379.726 236.458 389.678 241.434 397.081 241.21L379.726 236.458Z" fill="black"/>
<path opacity="0.1" d="M461.927 312.908C459.052 313.511 456.141 313.976 453.208 314.3C448.615 314.524 398.351 299.365 398.351 299.365L408.043 290.541L408.579 290.378C410.11 291.335 411.365 292.156 412.261 292.781C416.479 295.727 420.551 291.878 422.082 291.878C423.613 291.878 436.88 301.606 436.88 301.606C436.88 301.606 449.128 304.097 451.172 306.357C453.216 308.618 460.358 308.17 461.629 309.752C462.012 310.24 462.058 311.442 461.927 312.908Z" fill="black"/>
<path d="M367.616 254.108C367.616 254.108 355.23 254.739 348.088 252.071C340.945 249.403 317.214 243.246 310.325 247.57C303.435 251.895 286.846 255.716 294.502 272.918C302.157 290.12 305.732 290.568 305.732 290.568C308.1 292.143 310.168 294.045 311.856 296.202C314.152 299.372 335.587 306.609 340.945 306.609C346.304 306.609 355.743 306.609 369.009 314.755C382.276 322.901 394.271 323.81 394.271 323.81C394.271 323.81 411.112 329.92 416.356 331.277C421.6 332.635 445.561 338.514 451.18 336.708C456.798 334.902 460.366 323.579 460.366 323.579C460.366 323.579 462.915 313.397 461.637 311.815C460.358 310.234 453.216 310.682 451.18 308.421C449.143 306.161 436.887 303.669 436.887 303.669C436.887 303.669 423.652 293.935 422.121 293.935C420.59 293.935 416.517 297.777 412.299 294.838C403.897 289.319 395.069 284.329 385.881 279.903C376.19 275.375 367.616 254.108 367.616 254.108Z" fill="#4B4B5B"/>
<path opacity="0.1" d="M342.714 260.672C344.919 260.272 347.199 260.33 349.375 260.84C351.551 261.349 353.565 262.298 355.26 263.611C361.385 268.139 381.992 277.229 381.992 277.229" fill="black"/>
<path opacity="0.1" d="M495.832 260.387C495.832 260.387 468.526 264.053 463.428 269.028L495.832 260.387Z" fill="black"/>
<path d="M527.218 335.344H526.016C521.699 335.208 507.07 334.801 504.253 335.344C500.938 336.022 457.043 335.344 457.043 335.344L465.625 333.762C465.625 333.762 462.44 323.865 464.461 323.043C464.461 323.043 452.979 316.336 461.636 311.808C470.294 307.281 479.626 309.188 479.626 309.188L501.359 302.658L505.531 301.402C505.531 301.402 530.028 302.536 536.657 317.47C543.286 332.404 527.218 335.344 527.218 335.344Z" fill="#E7C7CA"/>
<path opacity="0.1" d="M527.218 335.344H526.016C533.143 330.13 549.265 314.259 501.359 302.692L505.531 301.436C505.531 301.436 530.028 302.569 536.657 317.504C543.286 332.438 527.218 335.344 527.218 335.344Z" fill="black"/>
<path d="M482.183 317.748C482.923 317.748 483.523 317.216 483.523 316.56C483.523 315.904 482.923 315.372 482.183 315.372C481.443 315.372 480.843 315.904 480.843 316.56C480.843 317.216 481.443 317.748 482.183 317.748Z" fill="#4B4B5B"/>
<path d="M474.398 319.71C475.138 319.71 475.737 319.178 475.737 318.522C475.737 317.866 475.138 317.334 474.398 317.334C473.658 317.334 473.058 317.866 473.058 318.522C473.058 319.178 473.658 319.71 474.398 319.71Z" fill="#4B4B5B"/>
<g opacity="0.1">
<path opacity="0.1" d="M436.466 67.4828C436.763 60.0162 435.265 52.579 432.072 45.6651C422.121 46.9821 411.22 40.1734 402.156 44.2464C395.45 47.2604 393.345 54.8158 392.97 61.4751C392.878 63.2333 392.863 64.9915 392.901 66.7497C392.901 66.1252 392.901 65.4938 392.97 64.8693C393.322 58.21 395.427 50.6545 402.156 47.6405C411.22 43.5675 422.105 50.3559 432.072 49.0593C434.777 54.9156 436.265 61.1571 436.466 67.4828Z" fill="black"/>
<path opacity="0.1" d="M359.348 66.2406C359.479 64.7614 359.446 63.2744 359.249 61.801C358.437 55.8273 354.755 50.1183 354.089 44.2939C353.232 51.3198 358.277 58.0674 359.249 65.1952C359.348 65.5617 359.348 65.8876 359.348 66.2406Z" fill="black"/>
<path opacity="0.1" d="M399.683 127.159C399.209 132.196 397.869 137.579 393.559 140.919C389.249 144.259 381.311 144.076 378.915 139.5C378.149 138.143 378.035 136.561 377.292 135.203C375.593 132.094 371.413 130.886 367.761 129.671C357.389 126.229 347.383 119.488 345.156 109.842C344.957 108.968 344.821 108.084 344.75 107.195C344.562 109.215 344.698 111.25 345.156 113.236C347.383 122.855 357.404 129.623 367.761 133.065C371.413 134.28 375.593 135.488 377.292 138.597C378.058 139.955 378.188 141.523 378.915 142.894C381.326 147.47 389.28 147.646 393.559 144.313C397.839 140.98 399.171 135.59 399.683 130.553C399.916 127.902 399.996 125.242 399.921 122.584C399.921 124.125 399.821 125.645 399.683 127.159Z" fill="black"/>
<path opacity="0.1" d="M458.812 77.4345C458.812 78.4188 458.812 79.3964 458.812 80.3739C459.24 67.7476 464.461 55.0534 463.948 42.6918C463.55 54.1234 459.103 65.8129 458.812 77.4345Z" fill="black"/>
<path opacity="0.1" d="M442.384 128.51C442.572 127.704 442.631 126.879 442.56 126.059C442.252 124.302 441.557 122.616 440.516 121.097C436.091 113.63 431.046 105.986 430.449 97.6976C430.449 98.0506 430.396 98.3765 430.388 98.7566C430.082 107.948 435.678 116.359 440.516 124.491C441.338 125.751 441.966 127.102 442.384 128.51Z" fill="black"/>
<path opacity="0.1" d="M463.213 118.687C462.642 126.911 460.003 134.918 455.489 142.121C451.448 148.644 444.305 155.141 436.03 153.885C435.289 153.828 434.592 153.548 434.055 153.091C433.9 152.935 433.778 152.756 433.695 152.561C433.603 153.091 433.527 153.627 433.481 154.17C433.323 154.978 433.529 155.81 434.055 156.485C434.592 156.942 435.289 157.222 436.03 157.279C444.305 158.535 451.448 152.038 455.489 145.515C460.003 138.312 462.642 130.306 463.213 122.081C463.305 120.493 463.313 118.911 463.259 117.33C463.244 117.784 463.244 118.232 463.213 118.687Z" fill="black"/>
</g>
<path opacity="0.1" d="M464.461 323.043C464.461 323.043 483.836 330.252 496.613 314.3" stroke="black" stroke-miterlimit="10"/>
<path opacity="0.1" d="M468.274 335.642C468.274 335.642 484.097 326.519 504.253 335.343" stroke="black" stroke-miterlimit="10"/>
<path opacity="0.1" d="M362.357 333.572C362.357 333.572 369.001 320.28 386.746 330.415" stroke="black" stroke-miterlimit="10"/>
<path opacity="0.1" d="M340.815 137.009L354.365 126.148C354.365 126.148 406.902 123.093 409.076 138.93C409.076 138.93 427.701 120.154 466.873 124.335L483.446 136.038L437.638 153.864L393.123 167.556L360.336 154.543L340.815 137.009Z" fill="black"/>
<path d="M340.815 137.688L354.365 126.826C354.365 126.826 406.902 123.772 409.076 139.609C409.076 139.609 427.701 120.832 466.873 125.014L483.446 136.717L437.638 154.543L393.123 168.235L360.336 155.222L340.815 137.688Z" fill="#D5D6DB"/>
<path opacity="0.1" d="M334.821 139.045L340.815 202.632L404.353 205.462L401.597 142.148L401.544 141.082L334.821 139.045Z" fill="black"/>
<path d="M334.821 137.688L340.815 201.274L404.353 204.105L401.597 140.79L401.544 139.724L334.821 137.688Z" fill="#386641"/>
<path opacity="0.1" d="M486.355 137.688L420.812 146.404V210.275L484.862 202.068L486.355 137.688Z" fill="black"/>
<path d="M486.355 136.33L420.812 145.046V208.918L484.862 200.711L486.355 136.33Z" fill="#386641"/>
<path opacity="0.3" d="M470.899 151.916L435.494 155.405L436.267 166.104L470.876 162.75L470.899 151.916Z" fill="white"/>
<path d="M344.26 235.324L347.866 243.925C347.866 243.925 353.224 247.998 359.088 245.962C364.952 243.925 370.066 242.914 372.615 240.931C375.164 238.949 378.739 228.991 378.739 228.991C378.739 228.991 382.314 218.129 385.881 215.414C389.448 212.699 398.895 175.288 385.881 178.947C372.867 182.606 362.916 216.548 362.916 216.548C362.916 216.548 360.619 219.032 357.304 219.263C353.99 219.494 347.353 218.808 346.074 221.3C344.796 223.791 340.432 230.348 344.26 235.324Z" fill="#BE6F72"/>
<path opacity="0.1" d="M420.812 146.397C417.456 147.068 413.97 147.033 410.632 146.295C407.294 145.557 404.197 144.137 401.589 142.148L404.353 205.456C404.353 205.456 410.86 211.701 420.812 210.275V146.397Z" fill="black"/>
<path d="M420.812 145.04C417.456 145.71 413.97 145.675 410.632 144.937C407.294 144.199 404.197 142.779 401.589 140.79L404.353 204.098C404.353 204.098 410.86 210.343 420.812 208.918V145.04Z" fill="#386641"/>
<path opacity="0.1" d="M420.812 145.04C417.456 145.71 413.97 145.675 410.632 144.937C407.294 144.199 404.197 142.779 401.589 140.79L404.353 204.098C404.353 204.098 410.86 210.343 420.812 208.918V145.04Z" fill="black"/>
<path opacity="0.1" d="M422.343 137.905C422.343 137.905 449.006 130.675 455.956 131.694L422.343 137.905Z" fill="black"/>
<path opacity="0.1" d="M392.518 134.748C392.518 134.748 366.674 129.318 362.357 130.859L392.518 134.748Z" fill="black"/>
<path opacity="0.1" d="M439.153 138.808C439.153 138.808 456.982 133.011 463.428 135.767L439.153 138.808Z" fill="black"/>
<path opacity="0.1" d="M430.174 284.234C432.937 282.394 435.877 280.775 438.962 279.394C443.555 277.432 451.976 272.341 451.976 272.341" fill="black"/>
<path opacity="0.1" d="M362.357 214.959C362.357 214.959 351.173 223.071 347.812 223.784C344.451 224.497 342.377 230.824 342.377 230.824" fill="black"/>
<path d="M479.779 234.116L476.212 242.737C476.212 242.737 470.853 246.81 464.982 244.774C459.11 242.737 454.012 241.726 451.455 239.744C448.898 237.761 445.331 227.803 445.331 227.803C445.331 227.803 441.764 216.942 438.189 214.226C434.614 211.511 425.175 174.1 438.189 177.759C451.203 181.418 461.154 215.36 461.154 215.36C461.154 215.36 463.451 217.844 466.765 218.075C470.08 218.306 476.717 217.62 477.996 220.112C479.274 222.603 483.607 229.161 479.779 234.116Z" fill="#BE6F72"/>
<path opacity="0.1" d="M473.525 218.258C473.525 218.258 480.836 222.426 480.805 227.409L473.525 218.258Z" fill="black"/>
<path d="M411.495 97.4397C430.381 97.4397 445.691 83.8635 445.691 67.1163C445.691 50.3691 430.381 36.7928 411.495 36.7928C392.61 36.7928 377.3 50.3691 377.3 67.1163C377.3 83.8635 392.61 97.4397 411.495 97.4397Z" fill="#BE6F72"/>
<path d="M390.023 58.9771C394.172 58.4 397.808 56.2617 401.773 55.033C410.646 52.2702 420.459 54.1641 429.439 56.6554C432.884 57.6126 436.382 58.6919 439.995 58.6919C443.609 58.6919 447.444 57.3818 449.289 54.6189C450.988 52.0801 450.659 48.781 449.227 46.1132C447.796 43.4453 445.4 41.3002 442.981 39.2773C435.02 32.6112 425.144 26.3795 414.22 27.0583C409.826 27.3366 405.624 28.7282 401.582 30.2692C396.492 32.2141 391.538 34.4265 386.746 36.8946C383.064 38.7886 376.243 41.3206 374.123 44.7826C369.3 52.5824 382.52 60.0225 390.023 58.9771Z" fill="#3E373A"/>
<path opacity="0.1" d="M449.289 51.7678C447.444 54.5307 443.609 55.8408 439.995 55.8408C436.382 55.8408 432.884 54.8022 429.431 53.8451C420.452 51.3537 410.646 49.453 401.766 52.2227C397.808 53.4513 394.164 55.6168 390.015 56.1599C383.967 57.0016 374.23 52.3313 373.174 46.3915C371.987 53.2545 383.278 59.1332 390.015 58.1964C394.164 57.6194 397.808 55.4811 401.766 54.2592C410.646 51.4895 420.452 53.3902 429.431 55.8816C432.884 56.8387 436.374 57.9181 439.995 57.8773C443.616 57.8366 447.444 56.574 449.289 53.8043C450.245 52.2976 450.621 50.5555 450.36 48.8421C450.241 49.8736 449.876 50.8709 449.289 51.7678Z" fill="black"/>
<path d="M726.796 419.661C726.796 419.661 731.335 424.922 724.698 432.872C718.061 440.821 712.596 447.528 714.8 452.483C714.8 452.483 724.813 437.725 732.958 437.515C741.103 437.304 735.745 428.534 726.796 419.661Z" fill="#386641"/>
<path opacity="0.1" d="M726.796 419.661C727.191 420.17 727.503 420.725 727.722 421.311C735.668 429.593 739.909 437.325 732.262 437.515C725.142 437.698 716.607 448.987 714.563 451.831C714.628 452.061 714.707 452.288 714.8 452.51C714.8 452.51 724.813 437.752 732.958 437.542C741.103 437.331 735.745 428.534 726.796 419.661Z" fill="black"/>
<path d="M735.216 426.368C735.216 428.222 734.979 429.722 734.696 429.722C734.413 429.722 734.168 428.222 734.168 426.368C734.168 424.515 734.459 425.391 734.75 425.391C735.04 425.391 735.216 424.515 735.216 426.368Z" fill="#FFD037"/>
<path d="M738.118 428.581C736.288 429.464 734.688 430 734.55 429.776C734.413 429.552 735.783 428.649 737.613 427.74C739.442 426.83 738.723 427.495 738.86 427.74C738.998 427.984 739.955 427.692 738.118 428.581Z" fill="#FFD037"/>
<path d="M702.804 419.661C702.804 419.661 698.265 424.922 704.902 432.872C711.539 440.821 717.005 447.528 714.792 452.483C714.792 452.483 704.787 437.725 696.634 437.515C688.482 437.304 693.879 428.534 702.804 419.661Z" fill="#386641"/>
<path opacity="0.1" d="M702.805 419.661C702.409 420.17 702.097 420.725 701.878 421.311C693.932 429.593 689.691 437.325 697.339 437.515C704.45 437.698 712.994 448.987 715.037 451.831C714.973 452.062 714.891 452.289 714.793 452.51C714.793 452.51 704.787 437.752 696.634 437.542C688.482 437.331 693.879 428.534 702.805 419.661Z" fill="black"/>
<path d="M694.369 426.368C694.369 428.222 694.598 429.722 694.889 429.722C695.18 429.722 695.417 428.222 695.417 426.368C695.417 424.515 695.119 425.391 694.836 425.391C694.552 425.391 694.369 424.515 694.369 426.368Z" fill="#FFD037"/>
<path d="M691.475 428.581C693.304 429.464 694.904 430 695.042 429.776C695.18 429.552 693.81 428.649 691.98 427.74C690.151 426.83 690.87 427.495 690.732 427.74C690.595 427.984 689.638 427.692 691.475 428.581Z" fill="#FFD037"/>
<path opacity="0.1" d="M714.8 492.752C741.013 492.752 762.262 489.861 762.262 486.296C762.262 482.73 741.013 479.84 714.8 479.84C688.588 479.84 667.338 482.73 667.338 486.296C667.338 489.861 688.588 492.752 714.8 492.752Z" fill="#386641"/>
<path d="M739.228 445.389L738.998 447.032L738.677 449.354L738.546 450.324L738.225 452.646L738.087 453.617L737.773 455.932L734.137 482.338C733.816 484.694 729.475 486.533 724.231 486.533H705.361C700.118 486.533 695.785 484.694 695.456 482.338L691.819 455.932L691.498 453.617L691.368 452.646L691.046 450.324L690.908 449.354L690.595 447.032L690.365 445.389C690.189 444.032 692.531 442.932 695.502 442.932H734.099C737.061 442.932 739.411 444.052 739.228 445.389Z" fill="#65617D"/>
<path d="M738.998 447.032L738.684 449.354H690.916L690.595 447.032H738.998Z" fill="#9D9CB5"/>
<path d="M738.547 450.324L738.233 452.646H691.368L691.046 450.324H738.547Z" fill="#9D9CB5"/>
<path d="M738.095 453.617L737.773 455.938H691.819L691.505 453.617H738.095Z" fill="#9D9CB5"/>
</g>
<defs>
<linearGradient id="paint0_linear" x1="418.461" y1="340.72" x2="418.461" y2="9.21301e-06" gradientUnits="userSpaceOnUse">
<stop stop-color="#808080" stop-opacity="0.25"/>
<stop offset="0.54" stop-color="#808080" stop-opacity="0.12"/>
<stop offset="1" stop-color="#808080" stop-opacity="0.1"/>
</linearGradient>
<clipPath id="clip0">
<rect width="783" height="552" fill="white"/>
</clipPath>
</defs>
</svg>
