<svg width="43" height="43" viewBox="0 0 43 43" fill="none" xmlns="http://www.w3.org/2000/svg">
<path fill-rule="evenodd" clip-rule="evenodd" d="M6.25496 21.9598C6.24454 21.1253 6.91217 20.4223 7.74617 20.3898L34.9278 19.3291C35.7618 19.2965 36.4463 19.9467 36.4567 20.7813C36.4671 21.6158 35.7995 22.3188 34.9655 22.3513L7.78393 23.412C6.94993 23.4446 6.26538 22.7944 6.25496 21.9598Z" fill="#9DAFBD"/>
<path fill-rule="evenodd" clip-rule="evenodd" d="M21.5446 36.4817C20.7106 36.5143 20.0261 35.8641 20.0157 35.0295L19.6759 7.82938C19.6655 6.99482 20.3331 6.29188 21.1671 6.25934C22.0011 6.22679 22.6857 6.87696 22.6961 7.71153L23.0358 34.9117C23.0463 35.7462 22.3786 36.4492 21.5446 36.4817Z" fill="#9DAFBD"/>
</svg>
