<svg width="685" height="733" viewBox="0 0 685 733" fill="none" xmlns="http://www.w3.org/2000/svg">
<g filter="url(#filter0_d)">
<path fill-rule="evenodd" clip-rule="evenodd" d="M198 372C198 308.487 249.487 257 313 257C376.513 257 428 308.487 428 372C428 435.513 376.513 487 313 487C249.487 487 198 435.513 198 372Z" fill="#F8F8F6"/>
</g>
<path d="M265.615 380.295C264.917 381.296 263.94 382.047 262.684 382.547C261.438 383.038 259.984 383.283 258.323 383.283C256.642 383.283 255.151 382.891 253.848 382.108C252.545 381.315 251.535 380.192 250.818 378.738C250.11 377.284 249.746 375.599 249.728 373.683V371.884C249.728 368.778 250.45 366.371 251.894 364.663C253.348 362.954 255.387 362.1 258.011 362.1C260.164 362.1 261.896 362.652 263.208 363.756C264.52 364.851 265.323 366.409 265.615 368.429H262.896C262.387 365.701 260.763 364.337 258.025 364.337C256.203 364.337 254.82 364.979 253.876 366.263C252.942 367.537 252.47 369.387 252.46 371.813V373.499C252.46 375.811 252.989 377.652 254.046 379.021C255.104 380.38 256.534 381.06 258.337 381.06C259.356 381.06 260.249 380.947 261.013 380.72C261.778 380.494 262.41 380.111 262.911 379.573V374.943H258.139V372.734H265.615V380.295ZM285.52 373.357C285.52 375.377 285.18 377.142 284.5 378.653C283.821 380.154 282.858 381.301 281.612 382.094C280.366 382.887 278.912 383.283 277.25 383.283C275.627 383.283 274.187 382.887 272.932 382.094C271.676 381.291 270.699 380.154 270 378.681C269.311 377.199 268.957 375.486 268.938 373.541V372.054C268.938 370.072 269.283 368.321 269.972 366.801C270.661 365.281 271.634 364.12 272.889 363.317C274.154 362.506 275.598 362.1 277.222 362.1C278.874 362.1 280.328 362.501 281.583 363.303C282.848 364.096 283.821 365.253 284.5 366.772C285.18 368.283 285.52 370.043 285.52 372.054V373.357ZM282.815 372.026C282.815 369.581 282.325 367.707 281.343 366.404C280.361 365.092 278.987 364.436 277.222 364.436C275.504 364.436 274.149 365.092 273.158 366.404C272.176 367.707 271.671 369.52 271.643 371.842V373.357C271.643 375.726 272.139 377.591 273.13 378.95C274.131 380.3 275.504 380.975 277.25 380.975C279.006 380.975 280.366 380.338 281.329 379.063C282.292 377.78 282.787 375.944 282.815 373.555V372.026ZM307.162 373.895H298.51V383H295.792V362.383H308.564V364.62H298.51V371.672H307.162V373.895ZM327.18 373.357C327.18 375.377 326.84 377.142 326.161 378.653C325.481 380.154 324.518 381.301 323.272 382.094C322.026 382.887 320.572 383.283 318.911 383.283C317.287 383.283 315.847 382.887 314.592 382.094C313.336 381.291 312.359 380.154 311.661 378.681C310.972 377.199 310.618 375.486 310.599 373.541V372.054C310.599 370.072 310.943 368.321 311.632 366.801C312.321 365.281 313.294 364.12 314.549 363.317C315.814 362.506 317.259 362.1 318.882 362.1C320.534 362.1 321.988 362.501 323.244 363.303C324.509 364.096 325.481 365.253 326.161 366.772C326.84 368.283 327.18 370.043 327.18 372.054V373.357ZM324.476 372.026C324.476 369.581 323.985 367.707 323.003 366.404C322.021 365.092 320.648 364.436 318.882 364.436C317.164 364.436 315.81 365.092 314.818 366.404C313.837 367.707 313.332 369.52 313.303 371.842V373.357C313.303 375.726 313.799 377.591 314.79 378.95C315.791 380.3 317.164 380.975 318.911 380.975C320.667 380.975 322.026 380.338 322.989 379.063C323.952 377.78 324.447 375.944 324.476 373.555V372.026ZM338.32 374.66H333.477V383H330.744V362.383H337.569C339.892 362.383 341.676 362.911 342.922 363.969C344.177 365.026 344.805 366.565 344.805 368.585C344.805 369.869 344.456 370.987 343.757 371.941C343.068 372.894 342.105 373.607 340.869 374.079L345.711 382.83V383H342.794L338.32 374.66ZM333.477 372.437H337.654C339.004 372.437 340.076 372.087 340.869 371.389C341.671 370.69 342.072 369.756 342.072 368.585C342.072 367.311 341.69 366.333 340.925 365.654C340.17 364.974 339.075 364.63 337.64 364.62H333.477V372.437ZM357.739 383H355.02V362.383H357.739V383ZM376.043 364.62H369.417V383H366.712V364.62H360.099V362.383H376.043V364.62Z" fill="#666666"/>
<mask id="mask0" mask-type="alpha" maskUnits="userSpaceOnUse" x="361" y="184" width="159" height="361">
<path fill-rule="evenodd" clip-rule="evenodd" d="M411 184L361 242L392 512L442 545L520 433L510 259L411 184Z" fill="white"/>
</mask>
<g mask="url(#mask0)">
<path d="M126 372C126 267.618 210.618 183 315 183C419.382 183 504 267.618 504 372C504 476.382 419.382 561 315 561C210.618 561 126 476.382 126 372Z" stroke="#EEF2F4" stroke-width="2"/>
</g>
<mask id="mask1" mask-type="alpha" maskUnits="userSpaceOnUse" x="59" y="401" width="507" height="223">
<path fill-rule="evenodd" clip-rule="evenodd" d="M541 412L566 420L520 534L387 624L213 615L97 530L59 401L117 407L247 566L433 551L541 412Z" fill="white"/>
</mask>
<g mask="url(#mask1)">
<path d="M76 372C76 240.004 183.004 133 315 133C446.996 133 554 240.004 554 372C554 503.996 446.996 611 315 611C183.004 611 76 503.996 76 372Z" stroke="#EEF2F4" stroke-width="2"/>
</g>
<mask id="mask2" mask-type="alpha" maskUnits="userSpaceOnUse" x="0" y="81" width="235" height="483">
<path fill-rule="evenodd" clip-rule="evenodd" d="M113 547L75 564L0 421L31 232L107 148L215 81L235 141L62 284L47 455L113 547Z" fill="white"/>
</mask>
<g mask="url(#mask2)">
<path d="M26 372C26 212.39 155.39 83 315 83C474.61 83 604 212.39 604 372C604 531.61 474.61 661 315 661C155.39 661 26 531.61 26 372Z" stroke="#EEF2F4" stroke-width="2"/>
</g>
<mask id="mask3" mask-type="alpha" maskUnits="userSpaceOnUse" x="19" y="0" width="666" height="356">
<path fill-rule="evenodd" clip-rule="evenodd" d="M94 102L19 187L56.5 207L195 85L378 76L594 238L634 356L685 331L620 89L315 0L94 102Z" fill="white"/>
</mask>
<g mask="url(#mask3)">
<path d="M-15 374C-15 186.775 136.775 35 324 35C511.224 35 663 186.775 663 374C663 561.224 511.224 713 324 713C136.775 713 -15 561.224 -15 374Z" stroke="#EEF2F4" stroke-width="2"/>
</g>
<mask id="mask4" mask-type="alpha" maskUnits="userSpaceOnUse" x="140" y="536" width="487" height="197">
<path fill-rule="evenodd" clip-rule="evenodd" d="M171 648L140 698L299 733L560 669L627 571L585 536L399 674L171 648Z" fill="white"/>
</mask>
<g mask="url(#mask4)">
<path d="M-24 372C-24 184.775 127.775 33 315 33C502.224 33 654 184.775 654 372C654 559.224 502.224 711 315 711C127.775 711 -24 559.224 -24 372Z" stroke="#EEF2F4" stroke-width="2"/>
</g>
<path d="M410 529C410 524.029 414.029 520 419 520C423.971 520 428 524.029 428 529C428 533.971 423.971 538 419 538C414.029 538 410 533.971 410 529Z" fill="#F8F8F6" stroke="#386641" stroke-width="2"/>
<path d="M595 548C595 543.029 599.029 539 604 539C608.971 539 613 543.029 613 548C613 552.971 608.971 557 604 557C599.029 557 595 552.971 595 548Z" fill="#F8F8F6" stroke="#386641" stroke-width="2"/>
<path d="M142 667C142 662.029 146.029 658 151 658C155.971 658 160 662.029 160 667C160 671.971 155.971 676 151 676C146.029 676 142 671.971 142 667Z" fill="#F8F8F6" stroke="#386641" stroke-width="2"/>
<path d="M385 201C385 196.029 389.029 192 394 192C398.971 192 403 196.029 403 201C403 205.971 398.971 210 394 210C389.029 210 385 205.971 385 201Z" fill="#F8F8F6" stroke="#386641" stroke-width="2"/>
<path d="M541 414C541 409.029 545.029 405 550 405C554.971 405 559 409.029 559 414C559 418.971 554.971 423 550 423C545.029 423 541 418.971 541 414Z" fill="#F8F8F6" stroke="#386641" stroke-width="2"/>
<path d="M69 404C69 399.029 73.0294 395 78 395C82.9706 395 87 399.029 87 404C87 408.971 82.9706 413 78 413C73.0294 413 69 408.971 69 404Z" fill="#F8F8F6" stroke="#386641" stroke-width="2"/>
<path d="M82 555C82 550.029 86.0294 546 91 546C95.9706 546 100 550.029 100 555C100 559.971 95.9706 564 91 564C86.0294 564 82 559.971 82 555Z" fill="#F8F8F6" stroke="#386641" stroke-width="2"/>
<path d="M211 99C211 94.0294 215.029 90 220 90C224.971 90 229 94.0294 229 99C229 103.971 224.971 108 220 108C215.029 108 211 103.971 211 99Z" fill="#F8F8F6" stroke="#386641" stroke-width="2"/>
<path d="M19 191C19 186.029 23.0294 182 28 182C32.9706 182 37 186.029 37 191C37 195.971 32.9706 200 28 200C23.0294 200 19 195.971 19 191Z" fill="#F8F8F6" stroke="#386641" stroke-width="2"/>
<path d="M643 339C643 334.029 647.029 330 652 330C656.971 330 661 334.029 661 339C661 343.971 656.971 348 652 348C647.029 348 643 343.971 643 339Z" fill="#F8F8F6" stroke="#386641" stroke-width="2"/>
<defs>
<filter id="filter0_d" x="118" y="217" width="390" height="390" filterUnits="userSpaceOnUse" color-interpolation-filters="sRGB">
<feFlood flood-opacity="0" result="BackgroundImageFix"/>
<feColorMatrix in="SourceAlpha" type="matrix" values="0 0 0 0 0 0 0 0 0 0 0 0 0 0 0 0 0 0 127 0" result="hardAlpha"/>
<feOffset dy="40"/>
<feGaussianBlur stdDeviation="40"/>
<feColorMatrix type="matrix" values="0 0 0 0 0 0 0 0 0 0 0 0 0 0 0 0 0 0 0.1 0"/>
<feBlend mode="normal" in2="BackgroundImageFix" result="effect1_dropShadow"/>
<feBlend mode="normal" in="SourceGraphic" in2="effect1_dropShadow" result="shape"/>
</filter>
</defs>
</svg>
