<svg width="587" height="337" viewBox="0 0 587 337" fill="none" xmlns="http://www.w3.org/2000/svg">
<g clip-path="url(#clip0)">
<path d="M10.2419 101.154C8.91945 101.568 7.51126 101.626 6.15912 101.323C4.80698 101.02 3.55866 100.365 2.53991 99.4258C1.52116 98.4864 0.767963 97.295 0.356183 95.9718C-0.0555978 94.6486 -0.111417 93.2402 0.194354 91.8885C4.78217 72.8009 22.2272 26.122 85.78 6.48894C113.309 -2.01542 139.709 -2.1606 164.215 6.05422C184.376 12.7844 197.76 23.3162 204.162 28.4066C205.788 29.6935 206.837 31.5739 207.077 33.6342C207.317 35.6944 206.729 37.7657 205.443 39.3923C205.427 39.4125 205.411 39.4325 205.394 39.4525C204.073 41.0842 202.163 42.1313 200.077 42.3681C197.991 42.6049 195.895 42.0126 194.242 40.7186C182.643 31.5792 147.444 3.81373 90.3973 21.437C34.6945 38.645 19.5634 78.8957 15.6388 95.3635C15.3408 96.7238 14.6826 97.9789 13.7331 98.9976C12.7837 100.016 11.5778 100.761 10.2419 101.154L10.2419 101.154Z" fill="#386641"/>
<path d="M183.461 209.267C182.829 209.471 182.175 209.594 181.512 209.633C131.863 212.307 100.274 171.058 98.9769 169.338L98.7365 168.941C97.9449 167.713 78.8311 138.63 87.2456 115.533C91.1106 104.974 99.6584 97.5623 112.724 93.5261C124.875 89.7722 134.819 90.8825 143.282 96.9263C150.222 101.851 154.669 109.194 158.98 116.285C167.945 131.009 173.44 138.5 190.481 134.178C197.963 132.279 201.457 126.429 203.053 121.872C207.35 109.471 203.542 92.5646 193.466 79.7741C180.448 63.1803 144.017 35.619 99.0672 49.505C79.8723 55.4348 64.1633 67.1202 53.6433 83.2105C44.9284 96.5639 39.862 113.149 39.7509 128.615C39.576 157.413 63.1762 195.299 63.4 195.643C63.9434 196.512 64.3103 197.48 64.4797 198.491C64.6492 199.502 64.6178 200.536 64.3875 201.535C64.1571 202.534 63.7323 203.478 63.1373 204.312C62.5422 205.147 61.7886 205.856 60.9195 206.4C60.8954 206.415 60.8712 206.43 60.8469 206.445C59.0661 207.555 56.92 207.921 54.8719 207.462C52.8239 207.004 51.0383 205.759 49.9008 203.995C48.8356 202.262 23.6356 161.866 23.8386 128.583C24.1212 92.5073 46.0428 49.4521 94.4332 34.5031C116.8 27.5933 140.306 28.7546 162.426 37.8245C179.571 44.8972 195.438 56.6055 205.929 69.9748C219.328 87.0398 224.049 109.378 217.949 126.812C213.882 138.435 205.464 146.454 194.275 149.322C165.115 156.74 153.692 138.063 145.361 124.439C136.805 110.472 132.073 103.923 117.287 108.491C109.169 110.999 104.167 115.018 102.063 120.792C99.2006 128.686 101.914 138.803 104.693 145.896C104.722 145.97 104.751 146.044 104.78 146.118C108.344 155.133 113.906 163.223 121.047 169.779C132.487 180.343 153.724 195.405 180.791 193.952C182.861 193.824 184.896 194.522 186.45 195.895C188.004 197.267 188.95 199.201 189.078 201.27C189.08 201.295 189.081 201.32 189.083 201.345C189.146 203.1 188.63 204.827 187.614 206.259C186.597 207.69 185.138 208.748 183.46 209.267L183.461 209.267Z" fill="#386641"/>
<path d="M123.254 224.096C122.219 224.417 121.13 224.524 120.052 224.411C118.975 224.299 117.931 223.969 116.985 223.441C92.4971 209.566 75.3063 190.904 62.9273 164.748L62.8775 164.586C55.0757 147.147 50.3792 120.502 60.7389 97.9821C68.387 81.3654 82.7431 69.6856 103.336 63.3239C127.692 55.7996 150.371 61.3394 168.984 79.2676C177.449 87.542 184.333 97.2921 189.298 108.038C190.089 109.972 190.087 112.139 189.293 114.072C188.499 116.004 186.976 117.546 185.054 118.364C183.132 119.183 180.965 119.211 179.022 118.444C177.079 117.677 175.516 116.176 174.671 114.265C170.467 105.296 164.664 97.1687 157.544 90.2821C143.197 76.6316 126.519 72.5954 107.916 78.3424C91.8396 83.3088 80.7696 92.0887 75.1027 104.441C66.9305 122.221 71.138 144.423 77.2434 158.087C88.1586 181.22 103.299 197.63 124.851 209.82C125.742 210.322 126.524 210.995 127.155 211.799C127.785 212.604 128.251 213.525 128.525 214.51C128.8 215.494 128.878 216.523 128.755 217.538C128.632 218.553 128.31 219.533 127.808 220.424C127.788 220.459 127.768 220.494 127.747 220.529C126.743 222.234 125.142 223.505 123.254 224.096Z" fill="#386641"/>
<path d="M125.832 145.903C131.427 145.903 135.962 141.367 135.962 135.773C135.962 130.178 131.427 125.643 125.832 125.643C120.238 125.643 115.703 130.178 115.703 135.773C115.703 141.367 120.238 145.903 125.832 145.903Z" fill="#E6E6E6"/>
<path d="M308.473 259.468C308.264 259.468 308.055 259.452 307.848 259.42C307.311 259.341 306.796 259.156 306.331 258.876C305.867 258.595 305.463 258.226 305.142 257.789L299.578 250.244C299.256 249.808 299.023 249.312 298.893 248.786C298.763 248.26 298.737 247.713 298.818 247.177C298.899 246.641 299.085 246.126 299.365 245.662C299.645 245.197 300.013 244.793 300.45 244.471L348.019 209.386C348.455 209.064 348.951 208.831 349.477 208.701C350.003 208.57 350.55 208.545 351.086 208.626C351.622 208.707 352.137 208.893 352.601 209.173C353.065 209.453 353.47 209.821 353.792 210.258L359.355 217.802C360.005 218.683 360.278 219.786 360.115 220.869C359.952 221.952 359.365 222.925 358.484 223.575L310.915 258.661C310.209 259.185 309.352 259.468 308.473 259.468Z" fill="#386641"/>
<path d="M342.256 231.219L334.976 221.347C334.376 220.533 334.124 219.515 334.275 218.516C334.426 217.516 334.967 216.618 335.781 216.018L363.637 191.61C364.451 191.01 365.469 190.758 366.468 190.908C367.468 191.059 368.366 191.601 368.966 192.415L382.28 208.321C382.88 209.134 383.132 210.152 382.981 211.152C382.83 212.151 382.288 213.05 381.475 213.649L347.585 232.024C346.772 232.624 345.753 232.876 344.754 232.725C343.755 232.574 342.856 232.032 342.256 231.219Z" fill="#2F2E41"/>
<path d="M387.017 336.784H377.643C376.549 336.783 375.5 336.348 374.726 335.574C373.952 334.8 373.516 333.75 373.515 332.656V254.524C373.516 253.43 373.952 252.38 374.726 251.606C375.5 250.832 376.549 250.397 377.643 250.396H387.017C388.111 250.397 389.16 250.832 389.934 251.606C390.708 252.38 391.144 253.43 391.145 254.524V332.656C391.144 333.75 390.708 334.8 389.934 335.574C389.16 336.348 388.111 336.783 387.017 336.784Z" fill="#386641"/>
<path d="M405.557 336.784H396.183C395.088 336.783 394.039 336.348 393.265 335.574C392.491 334.8 392.056 333.75 392.055 332.656V254.524C392.056 253.43 392.491 252.38 393.265 251.606C394.039 250.832 395.088 250.397 396.183 250.396H405.557C406.651 250.397 407.701 250.832 408.475 251.606C409.248 252.38 409.684 253.43 409.685 254.524V332.656C409.684 333.75 409.248 334.8 408.475 335.574C407.701 336.348 406.651 336.783 405.557 336.784Z" fill="#386641"/>
<path d="M493.449 335.577H287.654V337H493.449V335.577Z" fill="#3F3D56"/>
<path d="M387.552 158.316C406.324 158.316 421.542 143.097 421.542 124.324C421.542 105.551 406.324 90.3318 387.552 90.3318C368.78 90.3318 353.562 105.551 353.562 124.324C353.562 143.097 368.78 158.316 387.552 158.316Z" fill="#386641"/>
<path d="M440.174 296.722L420.49 209.297V188.642C420.49 187.294 419.954 186.002 419.001 185.049C418.049 184.096 416.756 183.561 415.409 183.561H396.552V170.278C396.552 169.611 396.421 168.95 396.166 168.333C395.91 167.717 395.536 167.157 395.064 166.685C394.592 166.213 394.032 165.839 393.416 165.583C392.799 165.328 392.139 165.197 391.471 165.197H381.31C380.643 165.197 379.982 165.328 379.365 165.583C378.749 165.839 378.189 166.213 377.717 166.685C377.245 167.157 376.871 167.717 376.616 168.333C376.36 168.95 376.229 169.611 376.229 170.278V183.561H357.372C356.025 183.561 354.733 184.096 353.78 185.049C352.827 186.002 352.292 187.294 352.292 188.642V297.306C352.292 297.958 352.418 298.603 352.663 299.207C352.892 300.292 353.478 301.27 354.327 301.984C355.176 302.698 356.239 303.108 357.348 303.149L437.006 305.805C441.766 305.93 443.926 299.738 440.174 296.722Z" fill="#2F2E41"/>
<path d="M387.878 136.4C385.779 136.342 383.166 136.268 381.153 134.798C380.554 134.342 380.062 133.761 379.711 133.095C379.359 132.429 379.158 131.694 379.121 130.942C379.084 130.407 379.172 129.871 379.377 129.376C379.582 128.881 379.899 128.44 380.302 128.087C381.355 127.199 382.891 126.991 384.543 127.477L382.829 114.948L384.088 114.775L386.103 129.505L385.052 129.023C383.833 128.463 382.161 128.179 381.122 129.057C380.867 129.287 380.668 129.572 380.541 129.892C380.414 130.211 380.363 130.555 380.391 130.897C380.421 131.457 380.572 132.003 380.833 132.499C381.094 132.995 381.459 133.429 381.903 133.772C383.469 134.916 385.552 135.064 387.914 135.13L387.878 136.4Z" fill="#2F2E41"/>
<path d="M376.606 116.029H369.765V117.299H376.606V116.029Z" fill="#2F2E41"/>
<path d="M398.199 116.029H391.358V117.299H398.199V116.029Z" fill="#2F2E41"/>
<path d="M357.786 102.353C351.749 98.6932 348.905 91.7515 348.9 84.886C348.897 81.2266 349.691 77.6105 351.228 74.2896C352.765 70.9687 355.007 68.0227 357.799 65.657C364.018 60.2783 372.299 57.6461 380.39 56.9772C390.179 56.168 399.904 58.2959 409.253 61.0117C419.263 63.9197 429.071 67.5787 439.318 69.6145C449.262 71.5901 459.231 71.785 469.021 68.9281C478.057 66.2912 487.228 61.6318 496.879 62.4393C505.215 63.1367 511.545 68.6841 515.803 75.5378C524.258 89.1448 524.925 107.408 537.083 118.739C542.34 123.638 549.188 125.857 556.033 127.516C562.596 129.107 569.597 130.126 575.62 133.345C582.078 136.797 585.988 143.285 584.977 150.719C583.83 159.162 577.822 166.429 571.207 171.389C564.244 176.545 556.219 180.083 547.716 181.745C539.213 183.407 530.446 183.151 522.054 180.996C504.504 176.34 490.243 162.739 471.546 161.886C461.115 161.411 450.845 164.252 440.416 163.781C433.188 163.455 425.408 160.782 420.374 155.407C417.957 152.892 416.447 149.643 416.082 146.174C415.969 144.963 414.062 144.951 414.177 146.174C414.892 153.768 420.482 159.377 427.152 162.461C430.664 164.073 434.413 165.105 438.254 165.518C443.358 166.081 448.561 165.548 453.641 164.991C459.011 164.402 464.39 163.677 469.803 163.742C474.745 163.821 479.642 164.692 484.307 166.322C493.266 169.395 501.336 174.493 509.895 178.463C518.178 182.306 526.852 184.689 536.027 184.748C544.87 184.792 553.617 182.916 561.664 179.249C569.589 175.639 577.036 170.25 581.97 162.985C586.596 156.173 589.025 147.238 584.862 139.612C581.599 133.636 575.376 130.611 569.101 128.749C562.145 126.685 554.875 125.742 548.066 123.172C544.508 121.893 541.234 119.929 538.431 117.392C535.423 114.473 532.945 111.053 531.107 107.286C527.209 99.6815 525.217 91.3293 521.935 83.4744C518.894 76.1983 514.732 68.8647 508.03 64.3806C504.428 61.9976 500.242 60.6464 495.926 60.4734C491.152 60.2575 486.407 61.3536 481.869 62.7349C477.067 64.1966 472.381 66.0223 467.543 67.3676C462.446 68.7867 457.163 69.4177 451.875 69.2388C441.001 68.8845 430.497 65.654 420.202 62.3969C402.168 56.6911 382.111 50.5829 363.98 59.378C356.915 62.805 350.931 68.5547 348.408 76.1047C346.175 82.7852 346.484 90.5776 349.925 96.8015C351.557 99.7619 353.936 102.243 356.825 103.998C357.876 104.635 358.835 102.988 357.786 102.352L357.786 102.353Z" fill="#2F2E41"/>
<path d="M410.334 272.218H400.96C399.866 272.216 398.816 271.781 398.043 271.007C397.269 270.233 396.833 269.184 396.832 268.089V213.94C396.833 212.846 397.269 211.796 398.043 211.023C398.816 210.249 399.866 209.813 400.96 209.812H410.334C411.429 209.813 412.478 210.249 413.252 211.023C414.026 211.796 414.461 212.846 414.462 213.94V268.089C414.461 269.184 414.026 270.233 413.252 271.007C412.478 271.781 411.429 272.216 410.334 272.218Z" fill="#386641"/>
<path d="M374.151 93.942C374.36 95.4347 374.982 96.8394 375.946 97.9976C376.911 99.1559 378.18 100.022 379.61 100.497C381.04 100.973 382.575 101.039 384.041 100.689C385.507 100.339 386.846 99.586 387.907 98.5154L386.314 98.095C387.203 100.368 388.692 102.356 390.622 103.848C392.552 105.34 394.852 106.28 397.275 106.566C399.698 106.853 402.153 106.476 404.378 105.476C406.604 104.476 408.516 102.89 409.91 100.888C410.627 99.8908 408.975 98.9385 408.264 99.9259C407.063 101.608 405.432 102.938 403.542 103.776C401.652 104.614 399.572 104.931 397.518 104.692C395.465 104.453 393.513 103.668 391.865 102.419C390.218 101.17 388.936 99.5017 388.152 97.5885C388.104 97.4305 388.016 97.2872 387.898 97.1725C387.779 97.0578 387.633 96.9755 387.473 96.9333C387.313 96.8912 387.146 96.8906 386.986 96.9317C386.826 96.9728 386.679 97.0542 386.559 97.1681C385.733 98.0035 384.686 98.5866 383.541 98.8495C382.395 99.1124 381.199 99.0442 380.091 98.653C378.983 98.2617 378.009 97.5635 377.282 96.6397C376.556 95.7159 376.107 94.6046 375.988 93.4355C375.818 92.2263 373.982 92.7408 374.151 93.942V93.942Z" fill="#2F2E41"/>
<path d="M314.093 229.218L313.894 229.352L310.206 223.911C309.925 223.498 309.566 223.143 309.149 222.869C308.732 222.594 308.265 222.404 307.774 222.31C307.283 222.215 306.779 222.219 306.29 222.32C305.8 222.42 305.336 222.617 304.922 222.897L293.395 230.712C292.981 230.992 292.627 231.351 292.352 231.769C292.078 232.186 291.888 232.653 291.794 233.144C291.699 233.634 291.703 234.139 291.804 234.628C291.904 235.118 292.1 235.582 292.381 235.996L312.616 265.846C312.896 266.26 313.255 266.614 313.673 266.889C314.09 267.164 314.557 267.353 315.048 267.448C315.539 267.542 316.043 267.538 316.532 267.438C317.022 267.337 317.486 267.141 317.9 266.86L329.427 259.045C329.84 258.765 330.195 258.406 330.469 257.989C330.744 257.571 330.934 257.104 331.028 256.613C331.122 256.123 331.119 255.618 331.018 255.129C330.917 254.64 330.721 254.175 330.441 253.761L316.52 233.225L316.718 233.091L314.093 229.218Z" fill="#3F3D56"/>
<path d="M305.794 224.31L304.338 225.297C304.516 225.416 304.662 225.577 304.764 225.765C304.865 225.954 304.919 226.165 304.92 226.379C304.921 226.594 304.869 226.805 304.769 226.994C304.669 227.184 304.524 227.346 304.346 227.466L297.955 231.799C297.777 231.92 297.573 231.994 297.36 232.017C297.147 232.04 296.932 232.01 296.733 231.93C296.534 231.849 296.358 231.722 296.221 231.558C296.083 231.393 295.988 231.198 295.943 230.988L294.583 231.911C294.284 232.113 294.028 232.373 293.829 232.674C293.631 232.976 293.494 233.314 293.426 233.669C293.357 234.023 293.36 234.388 293.433 234.742C293.506 235.095 293.647 235.431 293.85 235.73L313.407 264.58C313.61 264.879 313.869 265.135 314.171 265.333C314.472 265.532 314.81 265.669 315.165 265.737C315.519 265.805 315.884 265.803 316.238 265.73C316.591 265.657 316.927 265.516 317.226 265.313L328.437 257.712C329.04 257.303 329.457 256.671 329.594 255.955C329.732 255.238 329.579 254.497 329.17 253.893L309.613 225.043C309.41 224.744 309.151 224.488 308.849 224.29C308.547 224.091 308.21 223.954 307.855 223.886C307.5 223.817 307.136 223.82 306.782 223.893C306.428 223.966 306.093 224.107 305.794 224.31L305.794 224.31Z" fill="white"/>
</g>
<defs>
<clipPath id="clip0">
<rect width="587" height="337" fill="white"/>
</clipPath>
</defs>
</svg>
