<svg width="550" height="380" viewBox="0 0 550 380" fill="none" xmlns="http://www.w3.org/2000/svg">
<g clip-path="url(#clip0)">
<path opacity="0.1" d="M311.096 51.7351C275.842 51.7823 241.908 41.7807 209.451 30.6699C176.993 19.559 144.785 7.1172 110.187 1.84499C87.9352 -1.54394 62.6323 -1.23243 45.2386 11.0725C28.4958 22.9102 23.6475 42.5028 21.3082 60.6039C19.549 74.221 18.7378 88.5131 25.3265 100.969C29.9013 109.616 37.7303 116.743 43.2484 124.984C62.5097 153.653 50.9265 190.276 32.2075 219.61C23.4305 233.374 13.149 246.566 6.51316 261.118C-0.122666 275.669 -2.84397 292.17 3.92391 306.533C10.6305 320.769 25.7792 331.101 42.0363 338.157C75.0503 352.515 113.488 355.593 150.893 356.777C233.692 359.406 316.652 354.044 399.39 348.683C430.008 346.7 460.763 344.704 490.749 338.959C507.398 335.773 524.541 331.044 536.346 320.679C551.33 307.52 554.396 286.034 543.492 270.591C525.206 244.687 476.992 239.802 463.88 211.775C456.65 196.346 462.885 178.65 472.068 163.778C491.763 131.866 525.664 103.282 526.235 67.5895C526.626 43.0787 508.997 19.1673 482.665 8.51431C455.066 -2.6437 417.434 0.226045 398.098 21.0222C378.214 42.4462 342.224 51.702 311.096 51.7351Z" fill="#386641"/>
<path d="M468.106 304.608C468.106 304.608 462.31 300.78 456.565 303.503C456.565 303.503 458.334 306.911 465.607 306.59L468.106 304.608Z" fill="#386641"/>
<path d="M468.842 304.811C468.842 304.811 470.606 311.532 466.182 316.106C466.182 316.106 463.522 313.335 466.182 306.548L468.842 304.811Z" fill="#386641"/>
<path d="M476.048 298.359C476.048 298.359 475.619 292.643 462.72 294.54C462.72 294.54 462.659 298.227 467.187 299.973C471.714 301.719 473.789 300.247 476.048 298.359Z" fill="#386641"/>
<path d="M476.86 298.321C476.86 298.321 482.312 300.072 477.449 312.179C477.449 312.179 473.851 311.376 473.205 306.557C472.559 301.738 474.473 300.077 476.86 298.321Z" fill="#386641"/>
<path d="M484.142 290.212C484.142 290.212 484.882 280.805 471.7 281.768C471.7 281.768 470.757 290.264 481.817 292.473L484.142 290.212Z" fill="#386641"/>
<path d="M492.853 279.592C492.853 279.592 491.046 268.93 477.869 272.106C477.869 272.106 477.822 281.324 490.702 282.131L492.853 279.592Z" fill="#386641"/>
<path d="M499.22 268.613C499.22 268.613 496.192 258.229 483.137 261.335C483.137 261.335 486.245 270.676 498.352 270.53L499.22 268.613Z" fill="#386641"/>
<path d="M505.266 257.89C505.266 257.89 502.309 247.114 489.702 250.338C489.702 250.338 493.909 260.575 504.431 259.712L505.266 257.89Z" fill="#386641"/>
<path d="M509.162 247.704C509.162 247.704 506.888 234.526 495.135 237.443C495.135 237.443 498.55 249.432 508.299 249.625L509.162 247.704Z" fill="#386641"/>
<path d="M512.816 235.399C512.816 235.399 510.086 222.117 498.196 225.959C498.196 225.959 502.856 238.514 511.972 237.216L512.816 235.399Z" fill="#386641"/>
<path d="M515.062 223.948C515.062 223.948 510.727 210.662 501.535 211.02C501.535 211.02 505.964 225.053 514.293 226.596L515.062 223.948Z" fill="#386641"/>
<path d="M516.514 212.772C516.514 212.772 511.798 196.78 504.318 198.012C504.318 198.012 507.582 210.237 516.25 215.264L516.514 212.772Z" fill="#386641"/>
<path d="M517.335 199.438C517.335 199.438 512.911 186.113 505.544 185.58C505.544 185.58 508.553 198.692 517.189 202.902L517.335 199.438Z" fill="#386641"/>
<path d="M518.227 186.996C518.227 186.996 512.713 173.657 507.851 173.355C507.851 173.355 510.246 186.491 517.755 189.186L518.227 186.996Z" fill="#386641"/>
<path d="M518.835 175.422C518.835 175.422 515.444 160.937 510.572 159.733C510.572 159.733 511.237 171.585 518.344 176.508L518.835 175.422Z" fill="#386641"/>
<path d="M520.674 160.262C520.674 160.262 517.108 148.712 513.161 146.952C513.161 146.952 513.939 160.569 519.764 163.084L520.674 160.262Z" fill="#386641"/>
<path d="M522.197 150.35L522.914 129.988C522.914 129.988 515.533 145.337 521.665 153.923L522.197 150.35Z" fill="#386641"/>
<path d="M527.895 130.096C527.895 130.096 533.21 115.229 534.497 114.398C534.497 114.398 524.075 124.046 525.093 136.454L527.895 130.096Z" fill="#386641"/>
<path d="M484.5 290.141C484.5 290.141 493.848 288.919 493.57 302.139C493.57 302.139 485.123 303.518 482.364 292.581L484.5 290.141Z" fill="#386641"/>
<path d="M493.296 279.233C493.296 279.233 504.096 279.2 503.2 292.732C503.2 292.732 494.131 294.356 491.141 281.792L493.296 279.233Z" fill="#386641"/>
<path d="M499.323 269.487C499.323 269.487 509.129 264.885 515.401 276.765C515.401 276.765 506.346 280.597 498.456 271.408L499.323 269.487Z" fill="#386641"/>
<path d="M505.483 257.989C505.483 257.989 515.524 253.094 521.419 264.696C521.419 264.696 510.959 268.302 504.653 259.825L505.483 257.989Z" fill="#386641"/>
<path d="M509.034 247.992C509.034 247.992 518.698 238.755 526.409 248.096C526.409 248.096 516.538 255.7 508.591 250.05L509.034 247.992Z" fill="#386641"/>
<path d="M512.27 235.083C512.27 235.083 521.99 225.643 529.64 235.517C529.64 235.517 518.731 243.272 511.921 237.065L512.27 235.083Z" fill="#386641"/>
<path d="M514.085 223.571C514.085 223.571 521.575 211.771 530.394 214.405C530.394 214.405 522.622 226.898 514.17 226.341L514.085 223.571Z" fill="#386641"/>
<path d="M516.293 212.696C516.293 212.696 523.839 197.838 530.979 200.424C530.979 200.424 525.536 211.846 516.099 215.202L516.293 212.696Z" fill="#386641"/>
<path d="M516.816 198.663C516.816 198.663 524.574 186.967 531.842 188.398C531.842 188.398 525.499 200.259 516.062 202.048L516.816 198.663Z" fill="#386641"/>
<path d="M517.42 186.736C517.42 186.736 523.433 173.61 528.319 173.52C528.319 173.52 525.433 186.552 517.826 188.964L517.42 186.736Z" fill="#386641"/>
<path d="M518.599 175.139C518.599 175.139 525.282 161.848 530.305 161.819C530.305 161.819 526.886 173.185 518.821 176.305L518.599 175.139Z" fill="#386641"/>
<path d="M519.604 161.093C519.604 161.093 524.603 150.095 528.744 148.849C528.744 148.849 526.244 162.254 520.155 164.009L519.604 161.093Z" fill="#386641"/>
<path d="M522.792 149.949L533.965 132.914C533.965 132.914 531.102 149.717 521.16 153.21L522.792 149.949Z" fill="#386641"/>
<path d="M530.46 131.47C530.46 131.47 543.444 122.502 543.916 121.053C543.916 121.053 537.313 133.613 525.051 135.831L530.46 131.47Z" fill="#386641"/>
<path d="M531.239 127.434C531.239 127.434 546.147 113.09 549.953 113.105C549.953 113.105 537.658 113.666 530.88 126.67L531.239 127.434Z" fill="#386641"/>
<path d="M519.75 163.221L520.292 163.292C523.094 141.349 527.178 128.364 531.79 126.774L531.611 126.254C526.72 127.954 522.608 140.74 519.75 163.221Z" fill="#444053"/>
<path d="M515.627 215.698L516.448 215.764C516.623 213.715 516.755 211.62 516.844 209.529C517.627 191.366 518.839 174.686 520.433 162.183L519.962 161.593C518.363 174.124 516.807 191.305 516.024 209.496C515.934 211.573 515.802 213.659 515.627 215.698Z" fill="#444053"/>
<path d="M452.807 315.077C452.948 315.015 467.394 308.559 482.387 293.162C491.171 284.144 498.47 273.789 504.011 262.482C510.944 248.355 515.17 230.995 516.585 214.131L515.731 214.532C512.548 252.386 495.329 278.252 481.637 292.341C466.79 307.6 452.505 313.991 452.363 314.053L452.807 315.077Z" fill="#444053"/>
<path d="M490.211 40.2283H37.0323C35.9615 40.2283 34.9347 40.654 34.1776 41.4117C33.4205 42.1694 32.9951 43.197 32.9951 44.2686V56.0402H494.249V44.2686C494.249 43.197 493.823 42.1694 493.066 41.4117C492.309 40.654 491.282 40.2283 490.211 40.2283Z" fill="#3F3D56"/>
<path d="M32.9951 56.0402V320.944C32.9951 323.104 33.8528 325.177 35.3794 326.704C36.906 328.232 38.9765 329.09 41.1354 329.09H486.108C488.267 329.09 490.338 328.232 491.864 326.704C493.391 325.177 494.249 323.104 494.249 320.944V56.0402H32.9951Z" fill="white"/>
<path opacity="0.8" d="M40.3008 49.9042C41.3427 49.9042 42.1873 49.0589 42.1873 48.0162C42.1873 46.9735 41.3427 46.1283 40.3008 46.1283C39.2589 46.1283 38.4143 46.9735 38.4143 48.0162C38.4143 49.0589 39.2589 49.9042 40.3008 49.9042Z" fill="#FA5959"/>
<path opacity="0.8" d="M45.4886 49.9042C46.5305 49.9042 47.3751 49.0589 47.3751 48.0162C47.3751 46.9735 46.5305 46.1283 45.4886 46.1283C44.4467 46.1283 43.6021 46.9735 43.6021 48.0162C43.6021 49.0589 44.4467 49.9042 45.4886 49.9042Z" fill="#FED253"/>
<path opacity="0.8" d="M50.6766 49.9042C51.7185 49.9042 52.5631 49.0589 52.5631 48.0162C52.5631 46.9735 51.7185 46.1283 50.6766 46.1283C49.6347 46.1283 48.79 46.9735 48.79 48.0162C48.79 49.0589 49.6347 49.9042 50.6766 49.9042Z" fill="#8CCF4D"/>
<path opacity="0.05" d="M446.572 100.21H75.8711V263.341H446.572V100.21Z" fill="black"/>
<path d="M443.742 101.446H78.7007V260.981H443.742V101.446Z" fill="#3F3D56"/>
<path d="M178.215 142.505C171.032 142.505 164.011 144.637 158.039 148.63C152.067 152.624 147.412 158.3 144.664 164.941C141.915 171.582 141.196 178.889 142.597 185.939C143.998 192.989 147.457 199.465 152.536 204.548C157.615 209.631 164.085 213.092 171.13 214.494C178.174 215.897 185.476 215.177 192.112 212.426C198.748 209.676 204.419 205.017 208.41 199.041C212.4 193.064 214.53 186.037 214.53 178.849C214.53 174.076 213.591 169.35 211.766 164.941C209.941 160.531 207.266 156.525 203.894 153.15C200.521 149.775 196.518 147.098 192.112 145.272C187.706 143.445 182.984 142.505 178.215 142.505ZM184.728 179.722V196.931H171.89V179.722C170.114 178.376 168.804 176.506 168.147 174.376C167.49 172.245 167.518 169.962 168.227 167.848C168.936 165.734 170.291 163.896 172.1 162.595C173.909 161.293 176.081 160.592 178.309 160.592C180.537 160.592 182.709 161.293 184.518 162.595C186.327 163.896 187.682 165.734 188.391 167.848C189.1 169.962 189.128 172.245 188.471 174.376C187.814 176.506 186.504 178.376 184.728 179.722Z" fill="#386641"/>
<path opacity="0.05" d="M178.215 142.505C171.032 142.505 164.011 144.637 158.039 148.63C152.067 152.624 147.412 158.3 144.664 164.941C141.915 171.582 141.196 178.889 142.597 185.939C143.998 192.989 147.457 199.465 152.536 204.548C157.615 209.631 164.085 213.092 171.13 214.494C178.174 215.897 185.476 215.177 192.112 212.426C198.748 209.676 204.419 205.017 208.41 199.041C212.4 193.064 214.53 186.037 214.53 178.849C214.53 174.076 213.591 169.35 211.766 164.941C209.941 160.531 207.266 156.525 203.894 153.15C200.521 149.775 196.518 147.098 192.112 145.272C187.706 143.445 182.984 142.505 178.215 142.505ZM184.728 179.722V196.931H171.89V179.722C170.114 178.376 168.804 176.506 168.147 174.376C167.49 172.245 167.518 169.962 168.227 167.848C168.936 165.734 170.291 163.896 172.1 162.595C173.909 161.293 176.081 160.592 178.309 160.592C180.537 160.592 182.709 161.293 184.518 162.595C186.327 163.896 187.682 165.734 188.391 167.848C189.1 169.962 189.128 172.245 188.471 174.376C187.814 176.506 186.504 178.376 184.728 179.722Z" fill="black"/>
<path d="M178.215 132.121C168.98 132.121 159.953 134.862 152.274 139.996C144.596 145.131 138.611 152.429 135.077 160.967C131.543 169.506 130.619 178.901 132.42 187.965C134.222 197.029 138.669 205.356 145.199 211.891C151.729 218.426 160.048 222.876 169.106 224.679C178.163 226.482 187.551 225.557 196.083 222.02C204.614 218.483 211.906 212.494 217.037 204.81C222.167 197.125 224.906 188.091 224.906 178.849C224.906 166.456 219.987 154.571 211.23 145.808C202.474 137.044 190.598 132.121 178.215 132.121ZM186.586 179.972V202.095H170.079V179.972C167.794 178.242 166.11 175.837 165.264 173.097C164.419 170.357 164.454 167.42 165.366 164.701C166.278 161.982 168.021 159.619 170.347 157.945C172.674 156.27 175.467 155.37 178.332 155.37C181.198 155.37 183.991 156.27 186.318 157.945C188.644 159.619 190.386 161.982 191.298 164.701C192.21 167.42 192.246 170.357 191.401 173.097C190.555 175.837 188.871 178.242 186.586 179.972Z" fill="#386641"/>
<path d="M395.164 172.718H244.243V188.766H395.164V172.718Z" fill="white"/>
<path d="M395.164 201.982H362.622V218.03H395.164V201.982Z" fill="#386641"/>
<path d="M259.099 180.501H256.368L258.797 178.075C258.841 178.03 258.865 177.97 258.865 177.907C258.865 177.845 258.841 177.785 258.797 177.74C258.775 177.718 258.749 177.7 258.72 177.688C258.692 177.676 258.661 177.67 258.63 177.67C258.598 177.67 258.568 177.676 258.539 177.688C258.51 177.7 258.484 177.718 258.462 177.74L256.033 180.171V177.433C256.033 177.37 256.008 177.31 255.964 177.266C255.92 177.222 255.86 177.197 255.797 177.197C255.735 177.198 255.676 177.224 255.632 177.268C255.588 177.312 255.563 177.371 255.562 177.433V180.171L253.137 177.726C253.116 177.704 253.089 177.686 253.061 177.674C253.032 177.662 253.001 177.656 252.97 177.656C252.939 177.656 252.908 177.662 252.879 177.674C252.851 177.686 252.825 177.704 252.803 177.726C252.759 177.771 252.735 177.831 252.735 177.893C252.735 177.956 252.759 178.016 252.803 178.061L255.232 180.487H252.496C252.434 180.488 252.375 180.513 252.331 180.557C252.287 180.601 252.261 180.661 252.26 180.723C252.26 180.785 252.285 180.846 252.329 180.89C252.374 180.934 252.434 180.959 252.496 180.959H255.232L252.803 183.39C252.759 183.435 252.735 183.495 252.735 183.557C252.735 183.62 252.759 183.68 252.803 183.725C252.848 183.767 252.908 183.791 252.97 183.791C253.032 183.791 253.092 183.767 253.137 183.725L255.562 181.294V184.027C255.562 184.089 255.586 184.149 255.631 184.194C255.675 184.238 255.735 184.263 255.797 184.263C255.86 184.263 255.92 184.238 255.964 184.194C256.008 184.149 256.033 184.089 256.033 184.027V181.294L258.462 183.725C258.508 183.767 258.567 183.791 258.63 183.791C258.692 183.791 258.752 183.767 258.797 183.725C258.841 183.68 258.865 183.62 258.865 183.557C258.865 183.495 258.841 183.435 258.797 183.39L256.368 180.959H259.099C259.161 180.959 259.221 180.934 259.266 180.89C259.31 180.846 259.335 180.785 259.335 180.723C259.331 180.663 259.305 180.606 259.261 180.565C259.217 180.524 259.159 180.501 259.099 180.501Z" fill="#386641"/>
<path d="M269.003 180.501H266.272L268.701 178.075C268.745 178.03 268.769 177.97 268.769 177.907C268.769 177.845 268.745 177.785 268.701 177.74C268.679 177.718 268.653 177.7 268.625 177.688C268.596 177.676 268.565 177.67 268.534 177.67C268.503 177.67 268.472 177.676 268.443 177.688C268.414 177.7 268.388 177.718 268.366 177.74L265.938 180.171V177.433C265.938 177.37 265.913 177.31 265.869 177.266C265.824 177.222 265.764 177.197 265.702 177.197C265.64 177.198 265.58 177.224 265.536 177.268C265.492 177.312 265.467 177.371 265.466 177.433V180.171L263.042 177.726C263.02 177.704 262.994 177.686 262.965 177.674C262.936 177.662 262.905 177.656 262.874 177.656C262.843 177.656 262.812 177.662 262.784 177.674C262.755 177.686 262.729 177.704 262.707 177.726C262.663 177.771 262.639 177.831 262.639 177.893C262.639 177.956 262.663 178.016 262.707 178.061L265.136 180.487H262.4C262.338 180.488 262.279 180.513 262.235 180.557C262.191 180.601 262.166 180.661 262.165 180.723C262.165 180.785 262.189 180.846 262.234 180.89C262.278 180.934 262.338 180.959 262.4 180.959H265.136L262.707 183.39C262.663 183.435 262.639 183.495 262.639 183.557C262.639 183.62 262.663 183.68 262.707 183.725C262.752 183.767 262.812 183.791 262.874 183.791C262.936 183.791 262.996 183.767 263.042 183.725L265.466 181.294V184.027C265.466 184.089 265.491 184.149 265.535 184.194C265.579 184.238 265.639 184.263 265.702 184.263C265.764 184.263 265.824 184.238 265.869 184.194C265.913 184.149 265.938 184.089 265.938 184.027V181.294L268.366 183.725C268.412 183.767 268.472 183.791 268.534 183.791C268.596 183.791 268.656 183.767 268.701 183.725C268.745 183.68 268.769 183.62 268.769 183.557C268.769 183.495 268.745 183.435 268.701 183.39L266.272 180.959H269.003C269.066 180.959 269.126 180.934 269.17 180.89C269.214 180.846 269.239 180.785 269.239 180.723C269.235 180.663 269.209 180.606 269.165 180.565C269.121 180.524 269.063 180.501 269.003 180.501Z" fill="#386641"/>
<path d="M278.907 180.501H276.177L278.606 178.075C278.649 178.03 278.673 177.97 278.673 177.907C278.673 177.845 278.649 177.785 278.606 177.74C278.584 177.718 278.558 177.7 278.529 177.688C278.5 177.676 278.469 177.67 278.438 177.67C278.407 177.67 278.376 177.676 278.348 177.688C278.319 177.7 278.293 177.718 278.271 177.74L275.842 180.171V177.433C275.842 177.37 275.817 177.31 275.773 177.266C275.729 177.222 275.669 177.197 275.606 177.197C275.544 177.198 275.485 177.224 275.441 177.268C275.397 177.312 275.371 177.371 275.37 177.433V180.171L272.946 177.726C272.924 177.704 272.898 177.686 272.869 177.674C272.841 177.662 272.81 177.656 272.779 177.656C272.747 177.656 272.717 177.662 272.688 177.674C272.659 177.686 272.633 177.704 272.611 177.726C272.568 177.771 272.543 177.831 272.543 177.893C272.543 177.956 272.568 178.016 272.611 178.061L275.04 180.487H272.305C272.242 180.488 272.183 180.513 272.139 180.557C272.095 180.601 272.07 180.661 272.069 180.723C272.069 180.785 272.094 180.846 272.138 180.89C272.182 180.934 272.242 180.959 272.305 180.959H275.04L272.611 183.39C272.568 183.435 272.543 183.495 272.543 183.557C272.543 183.62 272.568 183.68 272.611 183.725C272.657 183.767 272.716 183.791 272.779 183.791C272.841 183.791 272.901 183.767 272.946 183.725L275.37 181.294V184.027C275.37 184.089 275.395 184.149 275.439 184.194C275.484 184.238 275.544 184.263 275.606 184.263C275.669 184.263 275.729 184.238 275.773 184.194C275.817 184.149 275.842 184.089 275.842 184.027V181.294L278.271 183.725C278.316 183.767 278.376 183.791 278.438 183.791C278.5 183.791 278.56 183.767 278.606 183.725C278.649 183.68 278.673 183.62 278.673 183.557C278.673 183.495 278.649 183.435 278.606 183.39L276.177 180.959H278.907C278.97 180.959 279.03 180.934 279.074 180.89C279.118 180.846 279.143 180.785 279.143 180.723C279.14 180.663 279.113 180.606 279.069 180.565C279.026 180.524 278.968 180.501 278.907 180.501Z" fill="#386641"/>
<path d="M288.812 180.501H286.081L288.51 178.075C288.553 178.03 288.578 177.97 288.578 177.907C288.578 177.845 288.553 177.785 288.51 177.74C288.488 177.718 288.462 177.7 288.433 177.688C288.404 177.676 288.374 177.67 288.342 177.67C288.311 177.67 288.281 177.676 288.252 177.688C288.223 177.7 288.197 177.718 288.175 177.74L285.746 180.171V177.433C285.746 177.37 285.721 177.31 285.677 177.266C285.633 177.222 285.573 177.197 285.51 177.197C285.448 177.198 285.389 177.224 285.345 177.268C285.301 177.312 285.276 177.371 285.275 177.433V180.171L282.85 177.726C282.828 177.704 282.802 177.686 282.774 177.674C282.745 177.662 282.714 177.656 282.683 177.656C282.652 177.656 282.621 177.662 282.592 177.674C282.564 177.686 282.537 177.704 282.516 177.726C282.472 177.771 282.448 177.831 282.448 177.893C282.448 177.956 282.472 178.016 282.516 178.061L284.944 180.487H282.209C282.147 180.488 282.087 180.513 282.044 180.557C282 180.601 281.974 180.661 281.973 180.723C281.973 180.785 281.998 180.846 282.042 180.89C282.086 180.934 282.146 180.959 282.209 180.959H284.944L282.516 183.39C282.472 183.435 282.448 183.495 282.448 183.557C282.448 183.62 282.472 183.68 282.516 183.725C282.561 183.767 282.621 183.791 282.683 183.791C282.745 183.791 282.805 183.767 282.85 183.725L285.275 181.294V184.027C285.275 184.089 285.299 184.149 285.344 184.194C285.388 184.238 285.448 184.263 285.51 184.263C285.573 184.263 285.633 184.238 285.677 184.194C285.721 184.149 285.746 184.089 285.746 184.027V181.294L288.175 183.725C288.22 183.767 288.28 183.791 288.342 183.791C288.405 183.791 288.464 183.767 288.51 183.725C288.553 183.68 288.578 183.62 288.578 183.557C288.578 183.495 288.553 183.435 288.51 183.39L286.081 180.959H288.812C288.874 180.959 288.934 180.934 288.978 180.89C289.023 180.846 289.048 180.785 289.048 180.723C289.044 180.663 289.018 180.606 288.974 180.565C288.93 180.524 288.872 180.501 288.812 180.501Z" fill="#386641"/>
<path d="M298.716 180.501H295.985L298.414 178.075C298.458 178.03 298.482 177.97 298.482 177.907C298.482 177.845 298.458 177.785 298.414 177.74C298.392 177.718 298.366 177.7 298.337 177.688C298.309 177.676 298.278 177.67 298.247 177.67C298.215 177.67 298.185 177.676 298.156 177.688C298.127 177.7 298.101 177.718 298.079 177.74L295.65 180.171V177.433C295.65 177.37 295.625 177.31 295.581 177.266C295.537 177.222 295.477 177.197 295.414 177.197C295.352 177.198 295.293 177.224 295.249 177.268C295.205 177.312 295.18 177.371 295.179 177.433V180.171L292.754 177.726C292.733 177.704 292.706 177.686 292.678 177.674C292.649 177.662 292.618 177.656 292.587 177.656C292.556 177.656 292.525 177.662 292.496 177.674C292.468 177.686 292.441 177.704 292.42 177.726C292.376 177.771 292.352 177.831 292.352 177.893C292.352 177.956 292.376 178.016 292.42 178.061L294.848 180.487H292.113C292.051 180.488 291.992 180.513 291.948 180.557C291.904 180.601 291.878 180.661 291.877 180.723C291.877 180.785 291.902 180.846 291.946 180.89C291.99 180.934 292.05 180.959 292.113 180.959H294.848L292.42 183.39C292.376 183.435 292.352 183.495 292.352 183.557C292.352 183.62 292.376 183.68 292.42 183.725C292.465 183.767 292.525 183.791 292.587 183.791C292.649 183.791 292.709 183.767 292.754 183.725L295.179 181.294V184.027C295.179 184.089 295.203 184.149 295.248 184.194C295.292 184.238 295.352 184.263 295.414 184.263C295.477 184.263 295.537 184.238 295.581 184.194C295.625 184.149 295.65 184.089 295.65 184.027V181.294L298.079 183.725C298.125 183.767 298.184 183.791 298.247 183.791C298.309 183.791 298.369 183.767 298.414 183.725C298.458 183.68 298.482 183.62 298.482 183.557C298.482 183.495 298.458 183.435 298.414 183.39L295.985 180.959H298.716C298.778 180.959 298.838 180.934 298.883 180.89C298.927 180.846 298.952 180.785 298.952 180.723C298.948 180.663 298.922 180.606 298.878 180.565C298.834 180.524 298.776 180.501 298.716 180.501Z" fill="#386641"/>
<path d="M308.62 180.501H305.889L308.318 178.075C308.362 178.03 308.386 177.97 308.386 177.907C308.386 177.845 308.362 177.785 308.318 177.74C308.296 177.718 308.27 177.7 308.242 177.688C308.213 177.676 308.182 177.67 308.151 177.67C308.12 177.67 308.089 177.676 308.06 177.688C308.031 177.7 308.005 177.718 307.983 177.74L305.555 180.171V177.433C305.555 177.37 305.53 177.31 305.485 177.266C305.441 177.222 305.381 177.197 305.319 177.197C305.257 177.198 305.197 177.224 305.153 177.268C305.109 177.312 305.084 177.371 305.083 177.433V180.171L302.659 177.726C302.637 177.704 302.611 177.686 302.582 177.674C302.553 177.662 302.522 177.656 302.491 177.656C302.46 177.656 302.429 177.662 302.401 177.674C302.372 177.686 302.346 177.704 302.324 177.726C302.28 177.771 302.256 177.831 302.256 177.893C302.256 177.956 302.28 178.016 302.324 178.061L304.753 180.487H302.017C301.955 180.488 301.896 180.513 301.852 180.557C301.808 180.601 301.783 180.661 301.781 180.723C301.781 180.785 301.806 180.846 301.851 180.89C301.895 180.934 301.955 180.959 302.017 180.959H304.753L302.324 183.39C302.28 183.435 302.256 183.495 302.256 183.557C302.256 183.62 302.28 183.68 302.324 183.725C302.369 183.767 302.429 183.791 302.491 183.791C302.553 183.791 302.613 183.767 302.659 183.725L305.083 181.294V184.027C305.083 184.089 305.108 184.149 305.152 184.194C305.196 184.238 305.256 184.263 305.319 184.263C305.381 184.263 305.441 184.238 305.485 184.194C305.53 184.149 305.555 184.089 305.555 184.027V181.294L307.983 183.725C308.029 183.767 308.089 183.791 308.151 183.791C308.213 183.791 308.273 183.767 308.318 183.725C308.362 183.68 308.386 183.62 308.386 183.557C308.386 183.495 308.362 183.435 308.318 183.39L305.889 180.959H308.62C308.683 180.959 308.743 180.934 308.787 180.89C308.831 180.846 308.856 180.785 308.856 180.723C308.852 180.663 308.826 180.606 308.782 180.565C308.738 180.524 308.68 180.501 308.62 180.501Z" fill="#386641"/>
<path d="M318.524 180.501H315.793L318.222 178.075C318.266 178.03 318.29 177.97 318.29 177.907C318.29 177.845 318.266 177.785 318.222 177.74C318.2 177.718 318.174 177.7 318.146 177.688C318.117 177.676 318.086 177.67 318.055 177.67C318.024 177.67 317.993 177.676 317.964 177.688C317.935 177.7 317.909 177.718 317.887 177.74L315.459 180.171V177.433C315.459 177.37 315.434 177.31 315.39 177.266C315.345 177.222 315.285 177.197 315.223 177.197C315.161 177.198 315.101 177.224 315.057 177.268C315.013 177.312 314.988 177.371 314.987 177.433V180.171L312.563 177.726C312.541 177.704 312.515 177.686 312.486 177.674C312.457 177.662 312.426 177.656 312.395 177.656C312.364 177.656 312.333 177.662 312.305 177.674C312.276 177.686 312.25 177.704 312.228 177.726C312.184 177.771 312.16 177.831 312.16 177.893C312.16 177.956 312.184 178.016 312.228 178.061L314.657 180.487H311.921C311.859 180.488 311.8 180.513 311.756 180.557C311.712 180.601 311.687 180.661 311.686 180.723C311.686 180.785 311.71 180.846 311.755 180.89C311.799 180.934 311.859 180.959 311.921 180.959H314.657L312.228 183.39C312.184 183.435 312.16 183.495 312.16 183.557C312.16 183.62 312.184 183.68 312.228 183.725C312.273 183.767 312.333 183.791 312.395 183.791C312.457 183.791 312.517 183.767 312.563 183.725L314.987 181.294V184.027C314.987 184.089 315.012 184.149 315.056 184.194C315.1 184.238 315.16 184.263 315.223 184.263C315.285 184.263 315.345 184.238 315.39 184.194C315.434 184.149 315.459 184.089 315.459 184.027V181.294L317.887 183.725C317.933 183.767 317.993 183.791 318.055 183.791C318.117 183.791 318.177 183.767 318.222 183.725C318.266 183.68 318.29 183.62 318.29 183.557C318.29 183.495 318.266 183.435 318.222 183.39L315.793 180.959H318.524C318.587 180.959 318.647 180.934 318.691 180.89C318.735 180.846 318.76 180.785 318.76 180.723C318.756 180.663 318.73 180.606 318.686 180.565C318.642 180.524 318.584 180.501 318.524 180.501Z" fill="#386641"/>
<path d="M328.428 180.501H325.698L328.127 178.075C328.17 178.03 328.194 177.97 328.194 177.907C328.194 177.845 328.17 177.785 328.127 177.74C328.105 177.718 328.079 177.7 328.05 177.688C328.021 177.676 327.99 177.67 327.959 177.67C327.928 177.67 327.897 177.676 327.868 177.688C327.84 177.7 327.814 177.718 327.792 177.74L325.363 180.171V177.433C325.363 177.37 325.338 177.31 325.294 177.266C325.25 177.222 325.19 177.197 325.127 177.197C325.065 177.198 325.006 177.224 324.962 177.268C324.918 177.312 324.892 177.371 324.891 177.433V180.171L322.467 177.726C322.445 177.704 322.419 177.686 322.39 177.674C322.362 177.662 322.331 177.656 322.3 177.656C322.268 177.656 322.238 177.662 322.209 177.674C322.18 177.686 322.154 177.704 322.132 177.726C322.089 177.771 322.064 177.831 322.064 177.893C322.064 177.956 322.089 178.016 322.132 178.061L324.561 180.487H321.826C321.763 180.488 321.704 180.513 321.66 180.557C321.616 180.601 321.591 180.661 321.59 180.723C321.59 180.785 321.615 180.846 321.659 180.89C321.703 180.934 321.763 180.959 321.826 180.959H324.561L322.132 183.39C322.089 183.435 322.064 183.495 322.064 183.557C322.064 183.62 322.089 183.68 322.132 183.725C322.178 183.767 322.237 183.791 322.3 183.791C322.362 183.791 322.422 183.767 322.467 183.725L324.891 181.294V184.027C324.891 184.089 324.916 184.149 324.96 184.194C325.005 184.238 325.065 184.263 325.127 184.263C325.19 184.263 325.25 184.238 325.294 184.194C325.338 184.149 325.363 184.089 325.363 184.027V181.294L327.792 183.725C327.837 183.767 327.897 183.791 327.959 183.791C328.021 183.791 328.081 183.767 328.127 183.725C328.17 183.68 328.194 183.62 328.194 183.557C328.194 183.495 328.17 183.435 328.127 183.39L325.698 180.959H328.428C328.491 180.959 328.551 180.934 328.595 180.89C328.639 180.846 328.664 180.785 328.664 180.723C328.661 180.663 328.634 180.606 328.59 180.565C328.547 180.524 328.489 180.501 328.428 180.501Z" fill="#386641"/>
<path d="M338.333 180.501H335.602L338.031 178.075C338.074 178.03 338.099 177.97 338.099 177.907C338.099 177.845 338.074 177.785 338.031 177.74C338.009 177.718 337.983 177.7 337.954 177.688C337.925 177.676 337.895 177.67 337.863 177.67C337.832 177.67 337.802 177.676 337.773 177.688C337.744 177.7 337.718 177.718 337.696 177.74L335.267 180.171V177.433C335.267 177.37 335.242 177.31 335.198 177.266C335.154 177.222 335.094 177.197 335.031 177.197C334.969 177.198 334.91 177.224 334.866 177.268C334.822 177.312 334.797 177.371 334.796 177.433V180.171L332.371 177.726C332.349 177.704 332.323 177.686 332.295 177.674C332.266 177.662 332.235 177.656 332.204 177.656C332.173 177.656 332.142 177.662 332.113 177.674C332.085 177.686 332.058 177.704 332.036 177.726C331.993 177.771 331.969 177.831 331.969 177.893C331.969 177.956 331.993 178.016 332.036 178.061L334.465 180.487H331.73C331.668 180.488 331.608 180.513 331.565 180.557C331.521 180.601 331.495 180.661 331.494 180.723C331.494 180.785 331.519 180.846 331.563 180.89C331.607 180.934 331.667 180.959 331.73 180.959H334.465L332.036 183.39C331.993 183.435 331.969 183.495 331.969 183.557C331.969 183.62 331.993 183.68 332.036 183.725C332.082 183.767 332.142 183.791 332.204 183.791C332.266 183.791 332.326 183.767 332.371 183.725L334.796 181.294V184.027C334.796 184.089 334.82 184.149 334.865 184.194C334.909 184.238 334.969 184.263 335.031 184.263C335.094 184.263 335.154 184.238 335.198 184.194C335.242 184.149 335.267 184.089 335.267 184.027V181.294L337.696 183.725C337.741 183.767 337.801 183.791 337.863 183.791C337.926 183.791 337.986 183.767 338.031 183.725C338.074 183.68 338.099 183.62 338.099 183.557C338.099 183.495 338.074 183.435 338.031 183.39L335.602 180.959H338.333C338.395 180.959 338.455 180.934 338.5 180.89C338.544 180.846 338.569 180.785 338.569 180.723C338.565 180.663 338.539 180.606 338.495 180.565C338.451 180.524 338.393 180.501 338.333 180.501Z" fill="#386641"/>
<path d="M348.237 180.501H345.506L347.935 178.075C347.979 178.03 348.003 177.97 348.003 177.907C348.003 177.845 347.979 177.785 347.935 177.74C347.913 177.718 347.887 177.7 347.858 177.688C347.83 177.676 347.799 177.67 347.768 177.67C347.737 177.67 347.706 177.676 347.677 177.688C347.648 177.7 347.622 177.718 347.6 177.74L345.171 180.171V177.433C345.171 177.37 345.147 177.31 345.102 177.266C345.058 177.222 344.998 177.197 344.936 177.197C344.873 177.198 344.814 177.224 344.77 177.268C344.726 177.312 344.701 177.371 344.7 177.433V180.171L342.276 177.726C342.254 177.704 342.228 177.686 342.199 177.674C342.17 177.662 342.139 177.656 342.108 177.656C342.077 177.656 342.046 177.662 342.018 177.674C341.989 177.686 341.963 177.704 341.941 177.726C341.897 177.771 341.873 177.831 341.873 177.893C341.873 177.956 341.897 178.016 341.941 178.061L344.37 180.487H341.634C341.572 180.488 341.513 180.513 341.469 180.557C341.425 180.601 341.4 180.661 341.398 180.723C341.398 180.785 341.423 180.846 341.467 180.89C341.512 180.934 341.572 180.959 341.634 180.959H344.37L341.941 183.39C341.897 183.435 341.873 183.495 341.873 183.557C341.873 183.62 341.897 183.68 341.941 183.725C341.986 183.767 342.046 183.791 342.108 183.791C342.17 183.791 342.23 183.767 342.276 183.725L344.7 181.294V184.027C344.7 184.089 344.725 184.149 344.769 184.194C344.813 184.238 344.873 184.263 344.936 184.263C344.998 184.263 345.058 184.238 345.102 184.194C345.147 184.149 345.171 184.089 345.171 184.027V181.294L347.6 183.725C347.646 183.767 347.706 183.791 347.768 183.791C347.83 183.791 347.89 183.767 347.935 183.725C347.979 183.68 348.003 183.62 348.003 183.557C348.003 183.495 347.979 183.435 347.935 183.39L345.506 180.959H348.237C348.3 180.959 348.36 180.934 348.404 180.89C348.448 180.846 348.473 180.785 348.473 180.723C348.469 180.663 348.443 180.606 348.399 180.565C348.355 180.524 348.297 180.501 348.237 180.501Z" fill="#386641"/>
<path d="M358.141 180.501H355.41L357.839 178.075C357.883 178.03 357.907 177.97 357.907 177.907C357.907 177.845 357.883 177.785 357.839 177.74C357.817 177.718 357.791 177.7 357.762 177.688C357.734 177.676 357.703 177.67 357.672 177.67C357.641 177.67 357.61 177.676 357.581 177.688C357.552 177.7 357.526 177.718 357.504 177.74L355.075 180.171V177.433C355.075 177.37 355.051 177.31 355.006 177.266C354.962 177.222 354.902 177.197 354.84 177.197C354.778 177.198 354.718 177.224 354.674 177.268C354.63 177.312 354.605 177.371 354.604 177.433V180.171L352.18 177.726C352.158 177.704 352.132 177.686 352.103 177.674C352.074 177.662 352.043 177.656 352.012 177.656C351.981 177.656 351.95 177.662 351.922 177.674C351.893 177.686 351.867 177.704 351.845 177.726C351.801 177.771 351.777 177.831 351.777 177.893C351.777 177.956 351.801 178.016 351.845 178.061L354.274 180.487H351.538C351.476 180.488 351.417 180.513 351.373 180.557C351.329 180.601 351.304 180.661 351.302 180.723C351.302 180.785 351.327 180.846 351.372 180.89C351.416 180.934 351.476 180.959 351.538 180.959H354.274L351.845 183.39C351.801 183.435 351.777 183.495 351.777 183.557C351.777 183.62 351.801 183.68 351.845 183.725C351.89 183.767 351.95 183.791 352.012 183.791C352.074 183.791 352.134 183.767 352.18 183.725L354.604 181.294V184.027C354.604 184.089 354.629 184.149 354.673 184.194C354.717 184.238 354.777 184.263 354.84 184.263C354.902 184.263 354.962 184.238 355.006 184.194C355.051 184.149 355.075 184.089 355.075 184.027V181.294L357.504 183.725C357.55 183.767 357.61 183.791 357.672 183.791C357.734 183.791 357.794 183.767 357.839 183.725C357.883 183.68 357.907 183.62 357.907 183.557C357.907 183.495 357.883 183.435 357.839 183.39L355.41 180.959H358.141C358.204 180.959 358.264 180.934 358.308 180.89C358.352 180.846 358.377 180.785 358.377 180.723C358.373 180.663 358.347 180.606 358.303 180.565C358.259 180.524 358.201 180.501 358.141 180.501Z" fill="#386641"/>
<path d="M434.069 237.919C434.056 237.349 433.984 236.781 433.857 236.225C433.432 234.63 432.475 232.699 430.9 232.218C429.273 231.719 427.702 231.055 426.212 230.235C425.929 225.176 427.089 219.998 425.825 215.094C425.353 213.3 424.575 211.582 424.367 209.746C424.108 207.462 424.731 205.026 423.82 202.921C423.104 201.259 421.528 200.089 419.835 199.475C418.142 198.862 416.317 198.697 414.52 198.531C412.256 198.347 404.927 197.479 402.371 199.504C402.194 199.641 402.036 199.799 401.899 199.976C401.843 200.053 401.792 200.136 401.748 200.221L401.725 200.259C401.673 200.357 401.631 200.46 401.597 200.566C401.562 200.681 401.535 200.8 401.517 200.92C401.517 200.957 401.517 200.995 401.517 201.033C401.517 201.071 401.517 201.198 401.517 201.283V201.41C401.517 201.495 401.517 201.58 401.517 201.67C401.517 201.76 401.517 201.736 401.517 201.769C401.55 202.194 401.611 202.619 401.611 203.039C401.616 203.248 401.597 203.457 401.555 203.662C401.398 204.219 401.132 204.738 400.772 205.191L400.687 205.314C400.635 205.389 400.583 205.46 400.536 205.536C400.489 205.611 400.451 205.668 400.413 205.734C400.376 205.8 400.338 205.843 400.305 205.904C400.259 205.982 400.218 206.062 400.182 206.145C400.182 206.192 400.13 206.234 400.112 206.282C400.053 206.409 400.005 206.542 399.97 206.678C399.86 207.088 399.85 207.519 399.942 207.934C400.069 208.463 400.288 208.966 400.588 209.42C400.706 209.614 400.833 209.803 400.965 209.991L401.295 210.44C401.234 210.878 401.201 211.319 401.196 211.761C401.197 213.239 401.532 214.698 402.177 216.028C402.823 217.357 403.761 218.522 404.922 219.436C405.109 221.429 405.089 223.437 404.861 225.426C404.818 225.841 404.767 226.261 404.71 226.677C404.653 227.092 404.611 227.366 404.554 227.71C403.864 227.809 403.161 227.756 402.493 227.554C402.185 227.417 401.871 227.296 401.55 227.191C400.178 226.846 398.777 228.215 397.419 227.8C397.419 227.866 397.381 227.927 397.357 227.989C397.074 227.812 396.748 227.716 396.414 227.71C395.608 227.672 394.952 227.087 394.367 226.535L392.57 224.84C392.453 224.737 392.349 224.619 392.259 224.491C392.162 224.308 392.089 224.113 392.042 223.911C391.74 222.934 391.009 222.155 390.302 221.414C390.168 221.245 389.99 221.116 389.788 221.041C389.709 221.029 389.63 221.029 389.552 221.041C389.504 220.975 389.452 220.912 389.396 220.852C389.274 220.712 389.143 220.579 389.005 220.456C388.146 219.663 388.061 218.983 387.316 218.096C386.666 217.249 386.077 216.358 385.552 215.429C385.491 214.933 385.406 214.423 385.302 213.909C385.065 212.731 384.719 211.578 384.27 210.463L383.326 208.372L383.218 208.481C382.534 207.462 381.803 206.905 381.147 207.037C380.048 207.263 379.506 209.397 379.681 212.186L380.058 215.018C380.058 215.089 380.091 215.16 380.11 215.231C380.042 215.566 380.007 215.908 380.006 216.25C380.006 216.647 380.374 216.939 380.567 217.293C380.877 217.773 381.041 218.332 381.039 218.903C381.015 219.106 380.954 219.299 380.945 219.497C380.97 219.941 381.124 220.367 381.388 220.725L383.746 224.689L384.218 225.52L384.246 225.558C384.395 225.848 384.612 226.097 384.878 226.285C384.97 227.278 385.234 228.247 385.656 229.15C385.736 229.329 385.826 229.499 385.92 229.669C386.554 230.712 387.301 231.682 388.146 232.562L389.269 233.823C390.377 235.059 391.486 236.301 392.688 237.443C393.119 237.901 393.639 238.266 394.216 238.514C394.499 238.627 394.807 238.664 395.108 238.62C395.41 238.576 395.694 238.453 395.933 238.264C395.933 238.849 395.933 239.435 395.933 240.02C396.108 240.031 396.277 240.088 396.423 240.186C396.568 240.284 396.685 240.419 396.761 240.577C396.837 240.736 396.869 240.911 396.855 241.086C396.84 241.261 396.779 241.429 396.678 241.573C395.688 244.117 394.688 246.684 393.188 248.964C394.247 249.591 395.228 250.341 396.112 251.197C396.686 251.833 397.196 252.524 397.636 253.259C397.678 253.609 397.711 253.953 397.73 254.298C398.079 259.924 395.905 265.508 393.957 270.87C393.396 272.389 392.782 273.98 392.83 275.561C392.46 275.789 392.107 276.043 391.773 276.321C392.16 277.331 392.009 278.233 391.967 279.314C391.953 279.962 391.82 280.601 391.575 281.202C391.37 281.618 391.143 282.022 390.896 282.415C389.674 284.572 389.406 287.135 389.16 289.598C389.014 291.085 389.59 292.902 388.915 294.233C387.75 296.518 386.717 298.953 386.557 301.493C386.551 302.064 386.479 302.633 386.34 303.187C386.194 303.659 385.934 304.06 385.802 304.523C385.666 305.143 385.635 305.781 385.708 306.411C385.798 308.673 385.462 310.933 384.718 313.071C384.128 314.756 383.477 316.559 383.939 318.291C382.802 319.487 382.099 321.032 381.944 322.676C381.932 323.097 381.882 323.515 381.794 323.927C381.649 324.347 381.46 324.751 381.228 325.13C380.278 326.861 379.834 328.823 379.945 330.794C378.53 332.715 377.822 335.085 377.403 337.44C376.983 339.795 376.799 342.193 376.261 344.52C375.544 347.597 374.247 350.708 373.993 353.861C372.465 354.838 371.804 356.731 371.512 358.519C371.22 360.308 371.172 362.187 370.423 363.839C370.036 364.698 369.479 365.467 369.111 366.345C368.853 367.044 368.664 367.767 368.545 368.502C368.319 369.654 368.121 370.938 368.399 372.042C367.999 372.466 367.532 372.822 367.017 373.095C367.093 372.802 367.154 372.509 367.206 372.212C365.989 373.317 363.782 372.929 362.81 374.256C362.519 374.683 362.405 375.208 362.493 375.718C362.581 376.228 362.864 376.684 363.282 376.989C363.586 377.174 363.915 377.316 364.258 377.409C366.616 378.164 369.041 378.924 371.465 378.523C371.751 378.492 372.029 378.403 372.281 378.263C372.596 378.031 372.855 377.731 373.04 377.385C373.403 376.809 373.766 376.233 374.125 375.658C374.993 375.917 375.877 376.124 376.771 376.276C376.86 377.031 376.926 377.786 376.959 378.542C377.431 378.636 378.063 378.664 378.285 378.225C378.352 378.059 378.379 377.88 378.365 377.701C378.365 377.366 378.412 376.923 378.44 376.469H378.535C379.973 376.528 381.405 376.238 382.708 375.625C382.204 371.443 383.869 367.355 385.312 363.4C386.835 359.237 388.142 354.998 389.457 350.76C390.401 347.777 391.443 344.888 392.367 341.9C393.531 338.124 394.699 334.348 395.872 330.572C396.381 328.911 396.895 327.269 397.48 325.617C398.711 322.274 400.172 319.02 401.852 315.879C402.324 314.987 402.795 314.104 403.182 313.179C403.654 312.051 403.988 310.871 404.366 309.705C405.188 307.313 406.178 304.982 407.328 302.729C407.361 302.668 407.384 302.611 407.417 302.555C407.799 304.117 408.181 305.703 408.436 307.275C408.781 309.202 408.808 311.173 408.516 313.109C408.29 314.425 407.86 315.728 407.912 317.064C407.983 318.909 408.969 320.585 409.455 322.364C409.768 323.696 409.945 325.056 409.983 326.424C410.115 328.548 411.266 330.931 410.454 332.899C407.931 339.135 409.153 346.177 407.714 352.723C406.974 356.084 404.705 359.242 404.884 362.678C405.01 365.116 405.224 367.549 405.526 369.975C405.599 370.74 405.798 371.488 406.115 372.188C406.304 372.557 406.52 372.91 406.762 373.246C406.554 373.326 406.38 373.538 406.229 373.987C405.842 375.167 406.229 376.63 407.276 377.291C407.702 377.519 408.162 377.678 408.639 377.763C409.28 377.945 409.943 378.037 410.61 378.036C410.817 378.025 411.024 378 411.228 377.961C411.957 378.268 412.702 378.535 413.459 378.763C413.459 378.957 413.496 379.15 413.52 379.344C413.521 379.445 413.544 379.545 413.586 379.637C413.628 379.729 413.689 379.811 413.765 379.877C413.883 379.932 414.013 379.955 414.143 379.943H416.704C416.704 379.731 416.704 379.514 416.704 379.301C416.997 379.332 417.293 379.301 417.573 379.21C417.853 379.119 418.111 378.97 418.331 378.773C418.557 378.484 418.718 378.149 418.802 377.791C419.5 375.422 420.194 373.051 420.882 370.678C421.708 368.056 422.051 365.305 421.896 362.56C420.986 353.861 422.986 345.134 422.335 336.411C421.943 331.168 422.212 325.897 423.137 320.722C423.349 319.551 423.608 318.362 423.702 317.196C423.91 314.997 423.655 312.773 423.811 310.588C423.863 309.823 423.967 309.064 424.061 308.304C424.707 303.587 425.046 298.834 425.075 294.073C425.06 292.496 424.963 290.92 424.783 289.353C425.274 289.228 425.721 288.966 426.07 288.598C426.49 288.05 426.381 287.281 426.377 286.582C426.377 284.911 427.079 283.335 427.645 281.759C428.372 279.584 428.967 277.368 429.428 275.122C429.915 273.312 430.181 271.45 430.22 269.576C430.22 269.387 430.211 269.199 430.192 269.01C430.37 268.887 430.518 268.725 430.626 268.538C430.749 268.261 430.826 267.966 430.852 267.665C431.022 266.461 431.197 265.253 431.366 264.045C431.492 263.179 431.616 262.315 431.739 261.453L433.239 250.98C433.366 250.069 433.498 249.162 433.626 248.256L434.017 245.547C434.059 245.226 434.107 244.905 434.14 244.603C435.29 242.677 434.192 240.11 434.069 237.919ZM421.557 277.133C421 275.811 420.481 274.457 420.613 273.031H420.561C420.686 272.593 420.664 272.126 420.5 271.7C420.354 271.356 420.099 271.063 419.944 270.719C419.776 270.298 419.69 269.85 419.689 269.397C419.572 266.526 419.798 263.652 420.363 260.835C420.425 260.505 420.491 260.169 420.552 259.839C420.75 259.725 420.931 259.583 421.09 259.419C421.338 259.136 421.543 258.818 421.698 258.475C422.231 257.404 422.717 256.313 423.165 255.204C423.311 254.845 423.523 254.43 423.886 254.34C423.811 257.101 424.094 259.919 422.971 262.411C422.758 262.813 422.6 263.242 422.5 263.686C422.396 264.389 422.688 265.102 422.585 265.8C422.533 266.164 422.377 266.499 422.316 266.858C422.269 267.034 422.27 267.219 422.318 267.395C422.366 267.57 422.46 267.73 422.589 267.858C422.652 267.902 422.72 267.937 422.792 267.962C422.764 268.151 422.74 268.344 422.722 268.528C422.684 268.916 422.665 269.279 422.641 269.506C422.533 270.66 422.49 271.82 422.514 272.979C422.514 274.23 422.561 275.481 422.542 276.755C422.56 277.121 422.499 277.487 422.363 277.827C422.27 278.002 422.149 278.162 422.005 278.299C421.868 277.874 421.717 277.501 421.557 277.133Z" fill="url(#paint0_linear)"/>
<path d="M384.327 222.367C385.766 222.072 386.256 218.526 385.421 214.448C384.586 210.37 382.743 207.303 381.303 207.598C379.864 207.893 379.374 211.439 380.209 215.517C381.044 219.595 382.888 222.662 384.327 222.367Z" fill="#FBBEBE"/>
<path d="M406.304 374.076C405.917 375.247 406.304 376.71 407.351 377.347C407.775 377.574 408.232 377.733 408.705 377.819C409.345 378 410.006 378.091 410.671 378.088C411.487 378.051 412.27 377.73 413.086 377.616C413.18 377.593 413.28 377.606 413.364 377.654C413.405 377.698 413.436 377.75 413.454 377.808C413.472 377.865 413.477 377.925 413.468 377.985C413.477 378.449 413.512 378.912 413.572 379.372C413.573 379.473 413.595 379.573 413.637 379.665C413.679 379.757 413.741 379.839 413.817 379.906C413.935 379.961 414.065 379.983 414.194 379.972H416.751C416.809 377.724 416.563 375.479 416.02 373.298C415.984 373.131 415.92 372.971 415.831 372.826C415.614 372.588 415.329 372.423 415.015 372.354C414.39 372.093 413.715 371.976 413.039 372.009C412.214 372.118 411.525 372.651 410.822 373.095C410.12 373.538 409.162 373.93 408.309 373.704C407.455 373.477 406.743 372.764 406.304 374.076Z" fill="#3F3D56"/>
<path d="M368.772 372.004C368.053 372.774 367.172 373.374 366.192 373.76L365.758 373.968C365.698 373.991 365.647 374.032 365.612 374.086C365.603 374.123 365.603 374.161 365.612 374.197C365.62 374.234 365.636 374.269 365.659 374.298C366.02 374.857 366.553 375.283 367.178 375.51C367.803 375.738 368.485 375.755 369.121 375.558C369.401 375.488 369.662 375.352 369.88 375.162C370.239 374.735 370.445 374.2 370.465 373.642C370.608 373.067 370.583 372.462 370.394 371.901C369.739 370.423 369.498 371.093 368.772 372.004Z" fill="#FBBEBE"/>
<path d="M378.572 377.819C378.587 377.998 378.559 378.177 378.492 378.343C378.27 378.778 377.652 378.754 377.171 378.66C377.098 377.058 376.905 375.464 376.591 373.892C375.676 373.85 375.016 374.718 374.525 375.497L373.262 377.503C373.079 377.849 372.821 378.149 372.507 378.381C372.254 378.519 371.977 378.608 371.691 378.641C369.276 379.042 366.838 378.282 364.508 377.527C364.165 377.435 363.836 377.295 363.532 377.111C363.116 376.806 362.835 376.351 362.747 375.842C362.659 375.334 362.771 374.811 363.06 374.383C364.036 373.062 366.23 373.439 367.446 372.344C367.319 373.115 367.111 373.869 366.824 374.596C368.451 374.35 369.545 372.859 370.856 371.863C371.186 371.583 371.582 371.394 372.007 371.315C372.325 371.289 372.645 371.322 372.95 371.414C374.462 371.795 375.876 372.492 377.101 373.458C377.596 373.85 378.369 374.402 378.586 375.006C378.817 375.728 378.572 377.05 378.572 377.819Z" fill="#3F3D56"/>
<path d="M411.016 222.089C416.397 222.089 420.759 217.723 420.759 212.337C420.759 206.952 416.397 202.586 411.016 202.586C405.634 202.586 401.272 206.952 401.272 212.337C401.272 217.723 405.634 222.089 411.016 222.089Z" fill="#FBBEBE"/>
<path d="M430.211 269.911C430.172 271.776 429.907 273.628 429.423 275.429C428.962 277.665 428.367 279.872 427.641 282.037C427.079 283.609 426.377 285.185 426.381 286.851C426.381 287.545 426.495 288.315 426.07 288.862C425.692 289.246 425.216 289.519 424.693 289.65C424.432 289.72 424.191 289.849 423.99 290.029C423.788 290.208 423.632 290.433 423.533 290.684C423.09 290.022 422.758 289.292 422.552 288.522C421.706 285.929 420.92 283.322 420.194 280.701C420.127 280.55 420.098 280.386 420.11 280.221C420.121 280.057 420.173 279.897 420.26 279.757C420.379 279.653 420.519 279.574 420.67 279.526C421.153 279.329 421.596 279.044 421.976 278.686C422.155 278.527 422.302 278.337 422.41 278.124C422.547 277.786 422.61 277.422 422.594 277.057C422.594 275.807 422.594 274.561 422.561 273.31C422.541 272.155 422.585 271 422.693 269.85C422.693 269.623 422.736 269.26 422.773 268.873C422.844 268.132 422.986 267.273 423.386 266.985C423.985 266.584 425.778 267.122 426.457 267.216C427.626 267.377 428.815 267.566 429.956 267.787C430.122 268.483 430.208 269.196 430.211 269.911Z" fill="#3F3D56"/>
<path d="M390.868 223.255C390.49 224.01 389.585 224.373 388.887 224.85L386.496 226.492C386.336 226.636 386.149 226.747 385.945 226.816C385.742 226.886 385.526 226.914 385.312 226.898C385.117 226.826 384.939 226.716 384.787 226.574C384.636 226.433 384.514 226.262 384.43 226.072C384.431 226.06 384.431 226.047 384.43 226.035L383.935 225.204L381.576 221.249C381.314 220.894 381.162 220.471 381.138 220.031C381.138 219.828 381.209 219.639 381.227 219.436C381.234 218.866 381.07 218.307 380.756 217.831C380.567 217.477 380.19 217.185 380.199 216.788C380.181 216.267 380.271 215.748 380.463 215.264C380.711 214.815 381.066 214.436 381.496 214.159C381.718 213.999 381.944 213.848 382.18 213.687C382.305 213.602 382.444 213.538 382.59 213.498C382.982 213.418 383.369 213.744 383.765 213.758C385.467 214.9 386.123 217.062 387.462 218.62C388.217 219.507 388.292 220.187 389.146 220.98C389.283 221.102 389.415 221.234 389.542 221.371C389.711 221.555 389.854 221.762 389.967 221.985C390.122 222.391 391.061 222.867 390.868 223.255Z" fill="#3F3D56"/>
<path d="M407.592 222.093C408.294 223.58 408.841 225.213 408.639 226.846C408.597 227.289 408.457 227.716 408.228 228.097C407.549 229.14 406.125 229.329 404.884 229.391C404.623 229.369 404.36 229.399 404.111 229.48C403.861 229.561 403.63 229.691 403.432 229.863C403.266 230.104 403.185 230.393 403.201 230.685C403.217 230.977 403.33 231.256 403.521 231.477C403.92 231.902 404.415 232.226 404.965 232.421C406.927 233.284 409.044 233.997 411.176 233.799C412.166 233.705 413.129 233.417 414.114 233.27C415.189 233.154 416.269 233.094 417.35 233.091C418.632 233.044 419.911 232.916 421.189 232.789L424.575 232.454C424.76 232.456 424.94 232.391 425.08 232.27C425.33 231.977 425.009 231.548 424.698 231.326C422.901 229.995 420.613 229.079 419.59 227.078C419.118 226.134 418.972 225.01 418.623 223.991C418.274 222.971 417.717 222.051 417.501 221.013C417.385 220.102 417.333 219.184 417.345 218.266C417.357 217.34 417.02 216.443 416.402 215.755C415.727 215.127 414.751 214.966 413.836 214.929C411.582 214.829 409.181 215.367 407.582 216.958C407.153 217.388 406.785 217.902 406.342 218.289C405.898 218.676 405.295 218.789 405.587 219.299C405.88 219.809 406.455 220.125 406.766 220.574C407.081 221.057 407.357 221.566 407.592 222.093Z" fill="#FBBEBE"/>
<path d="M426.801 235.824C426.206 239.458 425.239 243.022 423.915 246.458C423.249 248.01 422.682 249.602 422.217 251.225C421.854 252.688 421.924 254.255 421.589 255.723C421.174 257.55 420.759 259.381 420.424 261.222C419.863 264.033 419.638 266.901 419.755 269.765C419.756 270.216 419.842 270.663 420.009 271.082C420.165 271.422 420.415 271.714 420.561 272.064C420.671 272.37 420.715 272.697 420.693 273.022C420.67 273.346 420.58 273.663 420.429 273.952C420.187 274.492 419.859 274.989 419.458 275.424C415.062 276.736 410.36 276.307 405.78 276.585C401.559 276.84 397.291 277.709 393.131 276.987C392.66 275.099 393.447 273.121 394.122 271.28C396.079 265.932 398.244 260.363 397.895 254.76C397.858 254.107 397.784 253.456 397.673 252.811C396.989 248.841 397.734 244.73 398.928 240.884C399.668 238.486 399.635 235.932 399.465 233.435C399.381 232.625 399.37 231.808 399.432 230.995C399.5 230.165 399.809 229.373 400.319 228.716C400.319 228.682 400.361 228.649 400.385 228.616C400.409 228.583 400.592 228.588 400.739 228.616C400.776 228.632 400.816 228.64 400.857 228.64C400.897 228.64 400.937 228.632 400.974 228.616L401.026 228.583C401.046 228.569 401.07 228.561 401.095 228.561C401.119 228.561 401.143 228.569 401.163 228.583C401.272 228.649 401.333 228.876 401.569 228.918C401.917 228.971 402.268 229.004 402.62 229.018C403.044 229.03 403.465 229.09 403.875 229.197H403.932C404.545 229.3 405.174 229.247 405.762 229.041C406.152 228.944 406.529 228.798 406.884 228.607C406.988 228.494 407.639 228.39 407.771 228.31C408.2 228.05 408.106 226.832 408.195 226.332C408.245 225.83 408.364 225.338 408.549 224.869C408.764 224.523 409.06 224.235 409.412 224.03C409.764 223.825 410.161 223.709 410.567 223.693C411.38 223.674 412.191 223.747 412.987 223.911C414.746 224.161 416.548 224.118 418.274 224.524C419.142 224.727 420.09 225.034 420.887 224.637C421.104 224.689 421.137 224.878 421.137 225.109C421.116 225.329 421.072 225.546 421.005 225.756C420.703 227.059 421.726 228.258 422.669 229.202C423.068 229.647 423.538 230.022 424.061 230.311C424.532 230.528 425.004 230.618 425.476 230.854C425.858 231.058 426.182 231.355 426.419 231.717C426.691 232.133 426.874 232.601 426.957 233.091C427.058 234.004 427.005 234.928 426.801 235.824Z" fill="#3F3D56"/>
<path opacity="0.1" d="M426.801 235.824C426.206 239.458 425.239 243.022 423.914 246.458C423.249 248.01 422.682 249.602 422.217 251.225C421.853 252.688 421.924 254.255 421.589 255.723C421.174 257.55 420.759 259.381 420.424 261.222C420.325 261.279 420.222 261.331 420.118 261.378C419.531 261.658 418.909 261.858 418.269 261.972C417.119 262.112 415.955 262.073 414.817 261.859L408.087 260.958C405.398 260.594 402.535 260.155 400.541 258.333C399.432 257.333 398.706 256.011 397.909 254.737C397.872 254.083 397.798 253.432 397.687 252.787C397.003 248.818 397.748 244.707 398.942 240.86C399.682 238.462 399.649 235.909 399.479 233.412C399.395 232.601 399.384 231.784 399.446 230.972C399.515 230.142 399.823 229.35 400.333 228.692C400.471 228.651 400.611 228.62 400.753 228.598C400.848 228.578 400.944 228.566 401.04 228.56H401.177C401.336 228.56 401.494 228.579 401.649 228.616C401.97 228.719 402.285 228.84 402.592 228.98H402.649C403.053 229.113 403.478 229.174 403.903 229.159C404.526 229.159 405.167 229.06 405.79 229.018C406.559 228.897 407.346 229.039 408.025 229.419C408.464 229.771 408.88 230.151 409.27 230.556C409.742 230.927 410.273 231.216 410.841 231.411C414.901 232.961 419.405 232.867 423.396 231.146C423.779 230.928 424.214 230.817 424.655 230.825C424.981 230.889 425.289 231.021 425.56 231.212C425.843 231.378 426.122 231.538 426.409 231.684C426.681 232.1 426.864 232.568 426.947 233.058C427.055 233.981 427.006 234.917 426.801 235.824Z" fill="black"/>
<path d="M430.909 232.699C429.031 232.125 427.226 231.333 425.532 230.339C425.26 230.149 424.952 230.017 424.627 229.952C424.185 229.947 423.749 230.058 423.363 230.273C419.373 231.993 414.871 232.088 410.813 230.537C410.246 230.341 409.715 230.052 409.242 229.683C408.85 229.279 408.434 228.9 407.997 228.546C406.445 227.54 404.3 228.72 402.564 228.074C402.256 227.936 401.941 227.815 401.621 227.71C400.248 227.366 398.852 228.734 397.503 228.319C397.002 229.684 396.63 231.094 396.395 232.529C396.203 234.178 396.101 235.835 396.088 237.495C396.088 238.491 396.041 239.487 396.088 240.482C396.255 240.51 396.413 240.571 396.555 240.663C396.696 240.755 396.817 240.875 396.909 241.016C396.971 241.18 396.996 241.356 396.983 241.532C396.97 241.707 396.919 241.877 396.834 242.031C395.848 244.565 394.848 247.128 393.353 249.398C394.407 250.027 395.385 250.774 396.268 251.626C397.918 253.373 398.73 255.822 400.512 257.437C402.521 259.254 405.384 259.697 408.058 260.056L414.789 260.958C415.928 261.171 417.094 261.211 418.246 261.076C418.884 260.959 419.504 260.757 420.09 260.476C420.472 260.316 420.821 260.086 421.118 259.797C421.367 259.514 421.572 259.196 421.726 258.853C422.259 257.786 422.745 256.696 423.193 255.591C423.349 255.199 423.584 254.741 424.009 254.708C426.509 252.452 428.867 250.139 431.366 247.883C432.371 247.05 433.272 246.099 434.05 245.051C435.29 243.215 434.163 240.615 434.05 238.396C434.036 237.829 433.965 237.264 433.838 236.711C433.432 235.102 432.479 233.176 430.909 232.699Z" fill="#386641"/>
<path opacity="0.1" d="M390.868 223.255C390.49 224.01 389.585 224.373 388.887 224.85L386.496 226.492C386.336 226.636 386.149 226.747 385.945 226.816C385.742 226.886 385.526 226.914 385.312 226.898C385.117 226.826 384.939 226.716 384.787 226.574C384.636 226.433 384.514 226.262 384.43 226.072C384.43 225.964 384.43 225.846 384.43 225.733C384.412 225.35 384.463 224.968 384.581 224.604C384.815 224.071 385.178 223.604 385.637 223.245C386.525 222.404 387.581 221.76 388.736 221.357C388.916 221.287 389.111 221.267 389.302 221.3C389.375 221.32 389.445 221.35 389.509 221.39C389.678 221.574 389.821 221.781 389.934 222.004C390.122 222.391 391.061 222.868 390.868 223.255Z" fill="black"/>
<path d="M396.499 228.229C395.697 228.192 395.041 227.611 394.457 227.059L392.669 225.397C392.549 225.296 392.445 225.179 392.358 225.048C392.261 224.865 392.188 224.67 392.141 224.468C391.762 223.514 391.168 222.661 390.405 221.975C390.272 221.806 390.094 221.679 389.891 221.607C389.699 221.572 389.502 221.591 389.321 221.664C388.166 222.066 387.109 222.71 386.222 223.552C385.763 223.911 385.4 224.378 385.165 224.911C385.047 225.275 384.996 225.657 385.015 226.039C385.026 227.286 385.306 228.516 385.835 229.645C385.915 229.82 386.005 229.995 386.099 230.165C386.729 231.205 387.472 232.173 388.316 233.048L389.438 234.304C390.542 235.541 391.646 236.777 392.844 237.915C393.273 238.373 393.794 238.737 394.372 238.982C394.662 239.1 394.979 239.136 395.289 239.086C395.598 239.036 395.888 238.902 396.126 238.698C396.352 238.437 396.522 238.131 396.626 237.802C397.352 235.914 398.041 233.95 398.083 231.916C398.094 231.101 398.059 230.286 397.98 229.475C397.909 228.616 397.3 228.281 396.499 228.229Z" fill="#386641"/>
<path d="M425.079 294.309C425.052 299.057 424.715 303.798 424.07 308.502C423.976 309.262 423.872 310.022 423.82 310.782C423.665 312.986 423.919 315.2 423.712 317.39C423.603 318.574 423.358 319.75 423.151 320.906C422.229 326.067 421.959 331.324 422.349 336.553C423 345.252 421.005 353.955 421.91 362.631C422.02 364.317 421.926 366.012 421.632 367.676C421.463 368.709 421.219 369.728 420.901 370.725C420.212 373.088 419.521 375.448 418.826 377.805C418.744 378.164 418.583 378.499 418.354 378.787C418.113 378.995 417.831 379.15 417.526 379.24C417.221 379.33 416.901 379.355 416.585 379.311C413.864 379.226 411.303 378.051 408.832 376.904C408.548 376.792 408.285 376.632 408.054 376.432C407.54 375.898 407.582 375.058 407.356 374.355C407.129 373.652 406.516 372.991 406.167 372.269C405.88 371.586 405.707 370.86 405.653 370.121C405.339 367.704 405.125 365.278 405.012 362.843C404.832 359.416 407.096 356.263 407.841 352.931C409.256 346.38 408.058 339.356 410.572 333.14C411.365 331.177 410.214 328.798 410.101 326.683C410.06 325.319 409.883 323.962 409.572 322.633C409.101 320.859 408.106 319.188 408.035 317.347C407.983 316.016 408.412 314.718 408.634 313.406C408.928 311.475 408.901 309.508 408.554 307.586C408.304 306 407.922 304.414 407.54 302.866L407.455 303.041C406.306 305.289 405.317 307.615 404.498 310.003C404.12 311.159 403.79 312.339 403.319 313.463C402.932 314.407 402.455 315.27 401.989 316.158C400.314 319.287 398.856 322.528 397.626 325.857C397.041 327.49 396.527 329.161 396.018 330.799L392.523 342.127C391.58 345.105 390.547 347.984 389.622 350.958C388.316 355.206 387.01 359.416 385.491 363.57C384.076 367.511 382.392 371.594 382.897 375.757C381.597 376.368 380.168 376.658 378.732 376.602C376.302 376.386 373.917 375.807 371.658 374.884C370.757 374.548 369.823 374.171 369.215 373.43C368.168 372.151 368.427 370.277 368.743 368.648C368.862 367.914 369.052 367.194 369.309 366.496C369.668 365.628 370.253 364.858 370.62 363.999C371.361 362.352 371.408 360.488 371.7 358.699C371.993 356.91 372.644 355.022 374.172 354.05C374.431 350.906 375.723 347.805 376.436 344.732C376.973 342.405 377.152 340.012 377.577 337.652C378.001 335.292 378.685 332.932 380.11 331.021C379.997 329.05 380.442 327.087 381.392 325.357C381.622 324.977 381.81 324.573 381.954 324.153C382.042 323.743 382.092 323.326 382.105 322.907C382.261 321.267 382.961 319.727 384.095 318.532C383.623 316.809 384.279 315.011 384.868 313.34C385.611 311.208 385.947 308.955 385.859 306.699C385.786 306.069 385.816 305.431 385.948 304.811C386.08 304.339 386.34 303.938 386.491 303.485C386.625 302.93 386.696 302.361 386.703 301.79C386.887 299.237 387.92 296.829 389.061 294.55C389.74 293.219 389.165 291.411 389.306 289.929C389.552 287.465 389.82 284.916 391.042 282.769C391.268 282.363 391.514 281.976 391.716 281.556C391.962 280.956 392.095 280.316 392.108 279.668C392.15 278.587 392.301 277.69 391.914 276.685C394.438 274.584 397.881 273.994 401.163 273.853C404.446 273.711 407.766 274.008 410.978 273.31C411.921 273.097 412.864 272.805 413.859 272.663C416.119 272.333 418.411 272.847 420.641 273.357C420.486 274.773 421.005 276.132 421.585 277.449C423.85 282.783 425.037 288.513 425.079 294.309Z" fill="#33313F"/>
<path opacity="0.1" d="M413.973 295.39L408.554 307.586C408.304 306 407.922 304.414 407.54 302.866L407.455 303.041V302.786L410.407 296.287L413.973 295.39Z" fill="black"/>
<path opacity="0.1" d="M430.211 269.911C429.898 270.145 429.525 270.285 429.136 270.313C428.538 270.334 427.942 270.252 427.372 270.072L423.127 269.01C422.994 268.977 422.864 268.931 422.74 268.873C422.811 268.132 422.952 267.273 423.353 266.985C423.952 266.584 425.745 267.122 426.424 267.216C427.593 267.377 428.782 267.566 429.923 267.787C430.1 268.482 430.197 269.195 430.211 269.911Z" fill="black"/>
<path d="M433.8 241.828C433.89 242.219 434.017 242.606 434.092 243.003C434.219 243.976 434.186 244.963 433.993 245.925L433.607 248.624L433.22 251.338L431.725 261.784L431.357 264.37L430.838 267.981C430.814 268.281 430.737 268.575 430.612 268.849C430.457 269.106 430.241 269.32 429.984 269.472C429.726 269.625 429.435 269.711 429.135 269.723C428.538 269.742 427.942 269.66 427.372 269.482L423.127 268.415C422.941 268.382 422.764 268.31 422.608 268.203C422.478 268.076 422.385 267.917 422.337 267.742C422.289 267.567 422.288 267.382 422.335 267.207C422.396 266.848 422.551 266.513 422.603 266.154C422.707 265.456 422.415 264.738 422.518 264.044C422.62 263.603 422.779 263.176 422.99 262.775C424.405 259.645 423.584 255.992 424.065 252.594C424.498 249.919 425.627 247.406 427.339 245.306C428.395 243.981 429.608 242.789 430.951 241.757C431.479 241.346 432.319 240.501 432.984 240.341C433.838 240.161 433.658 241.233 433.8 241.828Z" fill="#386641"/>
<path d="M401.677 201.17C401.366 202.161 401.852 203.251 401.63 204.261C401.389 205.375 400.342 206.149 400.045 207.268C399.574 208.972 401.017 210.525 402.073 211.941C405.988 217.199 405.474 224.477 404.134 230.891C403.057 236.038 401.566 241.089 399.677 245.995C399.088 247.52 398.437 249.068 397.277 250.21C399.446 249.587 401.753 248.959 403.927 249.564C406.681 250.328 409.058 253.005 411.85 252.396C413.529 252.023 414.708 250.531 416.217 249.705C419.047 248.181 422.457 249.139 425.612 249.63C426.292 249.79 427.004 249.754 427.664 249.526C428.169 249.254 428.597 248.86 428.909 248.379C430.317 246.571 431.16 244.387 431.333 242.101C431.408 240.963 431.24 239.822 430.841 238.754C430.442 237.685 429.82 236.714 429.017 235.904C428.348 235.272 427.546 234.762 427.032 234.016C426.532 233.145 426.264 232.16 426.254 231.156C425.881 225.964 427.145 220.663 425.843 215.641C425.372 213.852 424.603 212.139 424.396 210.308C424.136 208.028 424.754 205.588 423.848 203.501C423.136 201.845 421.566 200.669 419.873 200.065C418.179 199.461 416.368 199.291 414.571 199.121C411.987 198.904 402.757 197.795 401.677 201.17Z" fill="#33313F"/>
<g opacity="0.1">
<path opacity="0.1" d="M404.134 230.891C403.062 236.016 401.579 241.047 399.701 245.934C400.026 245.287 400.3 244.608 400.559 243.933C402.45 239.027 403.941 233.976 405.016 228.829C406.36 222.41 406.874 215.141 402.96 209.878C402.017 208.623 400.805 207.263 400.847 205.791C400.498 206.236 400.227 206.737 400.045 207.273C399.574 208.977 401.017 210.529 402.073 211.945C405.988 217.199 405.474 224.477 404.134 230.891Z" fill="black"/>
<path opacity="0.1" d="M401.686 203.785C402.065 203.314 402.347 202.774 402.516 202.194C402.589 201.493 402.57 200.785 402.46 200.089C402.097 200.363 401.824 200.739 401.677 201.17C401.399 202.005 401.719 202.911 401.686 203.785Z" fill="black"/>
<path opacity="0.1" d="M429.796 246.302C429.483 246.782 429.055 247.175 428.551 247.444C427.891 247.677 427.178 247.714 426.499 247.548C423.344 247.076 419.896 246.104 417.104 247.628C415.59 248.45 414.416 249.941 412.732 250.319C409.945 250.942 407.568 248.266 404.813 247.487C402.861 246.944 400.805 247.392 398.838 247.959C398.447 248.793 397.919 249.556 397.277 250.215C399.446 249.592 401.753 248.964 403.927 249.568C406.681 250.333 409.058 253.009 411.85 252.4C413.529 252.027 414.708 250.536 416.218 249.71C419.047 248.185 422.457 249.144 425.612 249.634C426.292 249.795 427.004 249.759 427.664 249.531C428.169 249.259 428.597 248.865 428.909 248.384C429.764 247.255 430.424 245.992 430.862 244.645C430.546 245.223 430.19 245.776 429.796 246.302Z" fill="black"/>
</g>
</g>
<defs>
<linearGradient id="paint0_linear" x1="362.494" y1="289.06" x2="434.654" y2="289.06" gradientUnits="userSpaceOnUse">
<stop stop-color="#808080" stop-opacity="0.25"/>
<stop offset="0.54" stop-color="#808080" stop-opacity="0.12"/>
<stop offset="1" stop-color="#808080" stop-opacity="0.1"/>
</linearGradient>
<clipPath id="clip0">
<rect width="550" height="380" fill="white"/>
</clipPath>
</defs>
</svg>
