<svg width="559" height="425" viewBox="0 0 559 425" fill="none" xmlns="http://www.w3.org/2000/svg">
<path d="M83.9179 345.27C79.8988 362.346 65.8154 373.017 65.8154 373.017C65.8154 373.017 58.2482 356.003 62.2673 338.927C66.2865 321.852 80.3699 311.181 80.3699 311.181C80.3699 311.181 87.9371 328.195 83.9179 345.27Z" fill="#3F3D56"/>
<path d="M77.8218 341.658C66.5649 354.066 65.3055 373.007 65.3055 373.007C65.3055 373.007 82.2971 371.832 93.5541 359.424C104.811 347.016 106.07 328.074 106.07 328.074C106.07 328.074 89.0788 329.25 77.8218 341.658Z" fill="#73C082"/>
<path d="M91.9383 368.017H47.9055C43.0756 368.017 39.1603 372.386 39.1603 377.774V387.469C39.1603 392.857 43.0756 397.226 47.9055 397.226H91.9383C96.7681 397.226 100.683 392.857 100.683 387.469V377.774C100.683 372.386 96.7681 368.017 91.9383 368.017Z" fill="#386641"/>
<g opacity="0.7">
<path opacity="0.7" d="M515.298 349.359V338.834H468.13V387.511C468.13 388.859 468.368 390.193 468.83 391.438C469.293 392.683 469.97 393.815 470.824 394.767C471.678 395.72 472.692 396.476 473.808 396.992C474.924 397.508 476.12 397.773 477.328 397.773H506.1C508.54 397.773 510.879 396.692 512.604 394.767C514.329 392.843 515.298 390.233 515.298 387.511V376.723C518.546 376.716 521.66 375.272 523.954 372.707C526.249 370.142 527.538 366.666 527.538 363.041C527.538 359.417 526.249 355.941 523.954 353.376C521.66 350.811 518.546 349.366 515.298 349.359ZM515.298 371.461V354.622C517.3 354.622 519.219 355.509 520.634 357.088C522.05 358.667 522.845 360.808 522.845 363.041C522.845 365.274 522.05 367.416 520.634 368.995C519.219 370.574 517.3 371.461 515.298 371.461Z" fill="url(#paint0_linear)"/>
</g>
<path d="M513.78 351.007C511.566 351.007 509.401 351.739 507.56 353.112C505.718 354.485 504.283 356.436 503.435 358.718C502.588 361.001 502.366 363.513 502.798 365.936C503.23 368.359 504.297 370.585 505.863 372.332C507.429 374.08 509.424 375.269 511.596 375.751C513.768 376.233 516.019 375.986 518.065 375.04C520.111 374.095 521.86 372.494 523.091 370.439C524.321 368.385 524.978 365.97 524.978 363.499C524.978 360.186 523.798 357.008 521.698 354.666C519.598 352.323 516.75 351.007 513.78 351.007ZM513.78 371.187C512.418 371.187 511.085 370.736 509.952 369.891C508.819 369.046 507.936 367.846 507.414 366.441C506.893 365.036 506.756 363.49 507.022 361.999C507.288 360.508 507.944 359.138 508.908 358.063C509.872 356.988 511.099 356.256 512.436 355.959C513.773 355.662 515.158 355.815 516.417 356.397C517.676 356.978 518.753 357.964 519.51 359.228C520.267 360.492 520.671 361.979 520.671 363.499C520.671 365.538 519.945 367.493 518.653 368.935C517.361 370.377 515.608 371.187 513.78 371.187Z" fill="#386641"/>
<path opacity="0.1" d="M513.78 351.007C511.566 351.007 509.401 351.739 507.56 353.112C505.718 354.485 504.283 356.436 503.435 358.718C502.588 361.001 502.366 363.513 502.798 365.936C503.23 368.359 504.297 370.585 505.863 372.332C507.429 374.08 509.424 375.269 511.596 375.751C513.768 376.233 516.019 375.986 518.065 375.04C520.111 374.095 521.86 372.494 523.091 370.439C524.321 368.385 524.978 365.97 524.978 363.499C524.978 360.186 523.798 357.008 521.698 354.666C519.598 352.323 516.75 351.007 513.78 351.007ZM513.78 371.187C512.418 371.187 511.085 370.736 509.952 369.891C508.819 369.046 507.936 367.846 507.414 366.441C506.893 365.036 506.756 363.49 507.022 361.999C507.288 360.508 507.944 359.138 508.908 358.063C509.872 356.988 511.099 356.256 512.436 355.959C513.773 355.662 515.158 355.815 516.417 356.397C517.676 356.978 518.753 357.964 519.51 359.228C520.267 360.492 520.671 361.979 520.671 363.499C520.671 365.538 519.945 367.493 518.653 368.935C517.361 370.377 515.608 371.187 513.78 371.187Z" fill="black"/>
<path d="M470.714 341.397H513.78V388.951C513.78 390.611 513.189 392.203 512.137 393.377C511.085 394.551 509.658 395.21 508.17 395.21H476.325C474.837 395.21 473.41 394.551 472.357 393.377C471.305 392.203 470.714 390.611 470.714 388.951V341.397Z" fill="#386641"/>
<path d="M559 395.21H0V416.351H559V395.21Z" fill="#E0E0E0"/>
<g opacity="0.7">
<path opacity="0.7" d="M367.685 253.758C361.694 229.495 327.728 211.778 302.171 207.85C302.175 207.671 302.183 207.493 302.183 207.314V186.545C302.211 186.534 302.239 186.524 302.266 186.513V185.726C311.336 181.963 319.52 175.948 326.201 168.137C332.881 160.326 337.882 150.922 340.826 140.638C342.405 137.452 343.78 134.144 344.94 130.741C347.668 129.633 349.729 124.613 349.729 118.582C349.739 116.52 349.48 114.466 348.959 112.486C349.294 109.415 349.465 106.324 349.47 103.229C349.481 92.4126 347.453 81.7141 343.518 71.8284C339.582 61.9426 333.828 53.0905 326.628 45.8466C326.841 44.604 326.914 43.3363 326.844 42.0734C326.265 32.1051 316.722 25.3329 307.778 24.8799C310.14 21.8896 311.694 18.2126 312.257 14.2762C312.821 10.3399 312.371 6.30599 310.961 2.64345C305.258 11.9134 293.549 12.8988 283.471 12.9717C287.82 11.0929 289.777 4.37079 287.247 3.05176e-05C276.715 15.7506 256.183 18.6672 243.655 32.4809C240.926 35.5023 238.638 38.9829 236.877 42.7956C228.735 50.0316 222.162 59.2238 217.647 69.6874C213.131 80.151 210.79 91.6164 210.798 103.229C210.804 106.296 210.971 109.359 211.3 112.403C210.763 114.408 210.495 116.49 210.506 118.582C210.506 124.641 212.586 129.676 215.333 130.753C216.497 134.168 217.879 137.487 219.466 140.683C222.399 150.908 227.367 160.26 233.998 168.041C240.629 175.821 248.751 181.829 257.756 185.613V207.314C257.756 207.481 257.764 207.645 257.767 207.812C232.114 211.673 197.877 229.529 191.939 253.986C186.811 275.107 181.337 298.302 178.614 311.92C201.958 330.221 250.942 340.966 281.64 340.966C310.807 340.966 358.479 331.268 381.136 314.604C378.682 299.64 373.036 275.427 367.685 253.758Z" fill="url(#paint1_linear)"/>
</g>
<path d="M281.578 334.942C309.714 334.942 355.702 325.586 377.558 309.511C375.191 295.076 369.744 271.719 364.582 250.815C358.008 224.193 316.517 205.737 291.766 205.737H267.915C243.088 205.737 201.537 224.3 195.046 251.036C190.099 271.41 184.819 293.785 182.192 306.922C204.711 324.576 251.964 334.942 281.578 334.942Z" fill="#386641"/>
<path d="M280.125 180.229C317.065 180.229 347.011 146.819 347.011 105.606C347.011 64.393 317.065 30.9833 280.125 30.9833C243.185 30.9833 213.239 64.393 213.239 105.606C213.239 146.819 243.185 180.229 280.125 180.229Z" fill="#72351C"/>
<path opacity="0.1" d="M258.538 167.76H301.395V206.012C301.395 212.353 299.137 218.434 295.119 222.917C291.1 227.401 285.65 229.919 279.966 229.919H279.966C274.283 229.919 268.833 227.401 264.814 222.917C260.795 218.434 258.538 212.353 258.538 206.012V167.76H258.538Z" fill="black"/>
<path d="M264.685 165.989H295.248C296.878 165.989 298.442 166.712 299.595 167.998C300.747 169.284 301.395 171.029 301.395 172.848V204.241C301.395 210.582 299.137 216.663 295.119 221.146C291.1 225.63 285.65 228.149 279.966 228.149H279.966C274.283 228.149 268.833 225.63 264.814 221.146C260.795 216.663 258.538 210.582 258.538 204.241V172.848C258.538 171.029 259.185 169.284 260.338 167.998C261.491 166.712 263.055 165.989 264.685 165.989Z" fill="#FDA57D"/>
<path opacity="0.1" d="M258.617 185.815C272.429 191.572 287.634 191.619 301.475 185.947V180.073H258.617V185.815Z" fill="black"/>
<path d="M280.125 189.016C314.051 189.016 341.554 158.332 341.554 120.482C341.554 82.6311 314.051 51.9471 280.125 51.9471C246.199 51.9471 218.696 82.6311 218.696 120.482C218.696 158.332 246.199 189.016 280.125 189.016Z" fill="#FDA57D"/>
<path opacity="0.1" d="M236.369 58.1421C236.369 58.1421 262.258 116.771 335.287 82.7144L318.285 52.969L288.146 40.8984L236.369 58.1421Z" fill="black"/>
<path d="M236.369 57.2799C236.369 57.2799 262.258 115.909 335.287 81.8522L318.285 52.1068L288.146 40.0362L236.369 57.2799Z" fill="#72351C"/>
<path d="M236.139 53.319C237.884 47.2899 240.9 41.8161 244.935 37.3573C257.02 24.0318 276.826 21.2183 286.987 6.02423C289.427 10.2406 287.539 16.7251 283.344 18.5375C293.066 18.4672 304.361 17.5166 309.862 8.57425C311.223 12.1074 311.656 15.9987 311.113 19.796C310.569 23.5932 309.071 27.1404 306.792 30.025C315.42 30.4619 324.626 36.9949 325.184 46.6109C325.555 53.0172 321.955 59.0826 317.236 62.7566C312.518 66.4305 306.809 68.1171 301.19 69.4993C284.787 73.5341 225.436 90.4454 236.139 53.319Z" fill="#72351C"/>
<path d="M341.552 121.082H339.924L308.239 152.551C277.714 136.601 255.303 152.551 255.303 152.551L222.072 122.375L218.722 122.845C219.176 140.832 225.953 157.898 237.589 170.359C249.225 182.819 264.788 189.673 280.915 189.442C297.043 189.21 312.441 181.911 323.787 169.121C335.132 156.331 341.513 139.076 341.552 121.082ZM280.032 164.622C268.082 164.622 258.394 161.92 258.394 158.587C258.394 155.254 268.082 152.551 280.032 152.551C291.982 152.551 301.67 155.253 301.67 158.587C301.67 161.92 291.982 164.622 280.032 164.622Z" fill="#72351C"/>
<path d="M218.671 132.37C221.827 132.37 224.386 127.018 224.386 120.416C224.386 113.815 221.827 108.463 218.671 108.463C215.516 108.463 212.957 113.815 212.957 120.416C212.957 127.018 215.516 132.37 218.671 132.37Z" fill="#FDA57D"/>
<path d="M341.546 132.37C344.702 132.37 347.26 127.018 347.26 120.416C347.26 113.815 344.702 108.463 341.546 108.463C338.39 108.463 335.832 113.815 335.832 120.416C335.832 127.018 338.39 132.37 341.546 132.37Z" fill="#FDA57D"/>
<g opacity="0.7">
<path opacity="0.7" d="M390.019 242.484H168.981C164.373 242.484 160.637 246.652 160.637 251.793V385.902C160.637 391.043 164.373 395.21 168.981 395.21H390.019C394.627 395.21 398.363 391.043 398.363 385.902V251.793C398.363 246.652 394.627 242.484 390.019 242.484Z" fill="url(#paint2_linear)"/>
</g>
<path d="M378.614 245.302H180.386C171.857 245.302 164.944 253.015 164.944 262.53V377.982C164.944 387.497 171.857 395.21 180.386 395.21H378.614C387.143 395.21 394.056 387.497 394.056 377.982V262.53C394.056 253.015 387.143 245.302 378.614 245.302Z" fill="#535461"/>
<path d="M279.5 328.905C283.781 328.905 287.252 325.033 287.252 320.256C287.252 315.48 283.781 311.607 279.5 311.607C275.219 311.607 271.748 315.48 271.748 320.256C271.748 325.033 275.219 328.905 279.5 328.905Z" fill="white"/>
<path d="M535.314 416.351H23.6864V425H535.314V416.351Z" fill="#E0E0E0"/>
<path opacity="0.1" d="M535.314 416.351H23.6864V419.234H535.314V416.351Z" fill="black"/>
<path opacity="0.1" d="M506.028 341.397V385.841C506.028 388.326 505.144 390.709 503.569 392.466C501.994 394.223 499.858 395.21 497.631 395.21H501.937C504.164 395.21 506.301 394.223 507.875 392.466C509.45 390.709 510.335 388.326 510.335 385.841V341.397H506.028Z" fill="black"/>
<path d="M479.213 305.576C478.486 305.715 477.667 305.933 477.311 306.653C476.746 307.796 477.77 309.084 478.704 309.869C480.43 311.319 482.249 312.744 483.422 314.769C484.595 316.793 484.964 319.618 483.681 321.558C482.007 324.092 478.012 324.637 477.625 327.755C477.377 329.756 478.928 331.464 480.5 332.469C484.379 334.948 489.38 335.609 492.19 339.489C493.352 336.822 495.952 335.28 498.544 334.622C501.135 333.964 503.828 334.013 506.455 333.567C507.304 333.422 508.259 333.133 508.638 332.275C509.373 330.612 507.279 328.617 508.002 326.947C508.552 325.677 510.167 325.775 511.347 325.266C513.268 324.438 514.06 321.68 513.515 319.464C512.97 317.248 511.43 315.517 509.81 314.097C505.446 310.271 500.199 308.021 494.891 306.403C492.422 305.65 489.525 304.47 486.961 304.356C484.485 304.246 481.663 305.108 479.213 305.576Z" fill="#EEEEEE"/>
<defs>
<linearGradient id="paint0_linear" x1="497.846" y1="397.773" x2="497.846" y2="338.834" gradientUnits="userSpaceOnUse">
<stop stop-color="#808080" stop-opacity="0.25"/>
<stop offset="0.53514" stop-color="#808080" stop-opacity="0.12"/>
<stop offset="1" stop-color="#808080" stop-opacity="0.1"/>
</linearGradient>
<linearGradient id="paint1_linear" x1="121824" y1="221664" x2="121824" y2="40575" gradientUnits="userSpaceOnUse">
<stop stop-color="#808080" stop-opacity="0.25"/>
<stop offset="0.53514" stop-color="#808080" stop-opacity="0.12"/>
<stop offset="1" stop-color="#808080" stop-opacity="0.1"/>
</linearGradient>
<linearGradient id="paint2_linear" x1="115629" y1="94260.7" x2="115629" y2="57927.9" gradientUnits="userSpaceOnUse">
<stop stop-color="#808080" stop-opacity="0.25"/>
<stop offset="0.53514" stop-color="#808080" stop-opacity="0.12"/>
<stop offset="1" stop-color="#808080" stop-opacity="0.1"/>
</linearGradient>
</defs>
</svg>
