<svg width="698" height="492" viewBox="0 0 698 492" fill="none" xmlns="http://www.w3.org/2000/svg">
<g clip-path="url(#clip0)">
<path d="M154.671 49.2842H110.158C105.878 49.288 101.775 50.9902 98.7492 54.0171C95.7232 57.044 94.0215 61.1483 94.0176 65.429V113.702C93.4485 113.668 92.8794 113.617 92.3186 113.549C81.7732 112.439 71.7473 108.405 63.3715 101.9C54.9957 95.3957 48.603 86.68 44.9142 76.7358C41.2254 66.7916 40.3872 56.0143 42.494 45.6191C44.6009 35.2239 49.569 25.6241 56.8383 17.9021C64.1076 10.1801 73.389 4.64298 83.636 1.91506C93.883 -0.812849 104.688 -0.623094 114.833 2.46295C124.978 5.54899 134.059 11.4086 141.053 19.3811C148.047 27.3536 152.675 37.1219 154.416 47.5847C154.509 48.1455 154.594 48.7149 154.671 49.2842Z" fill="#F2F2F2"/>
<path d="M680.161 47.5847H110.158C105.428 47.5899 100.894 49.4716 97.5494 52.8169C94.205 56.1622 92.3238 60.698 92.3187 65.429V366.232C92.3238 370.963 94.205 375.499 97.5494 378.844C100.894 382.19 105.428 384.071 110.158 384.077H680.161C684.891 384.071 689.425 382.19 692.769 378.844C696.114 375.499 697.995 370.963 698 366.232V65.429C697.995 60.698 696.114 56.1622 692.769 52.8169C689.425 49.4716 684.891 47.5899 680.161 47.5847ZM696.301 366.232C696.297 370.513 694.595 374.617 691.569 377.644C688.543 380.671 684.44 382.373 680.161 382.377H110.158C105.878 382.373 101.775 380.671 98.7493 377.644C95.7232 374.617 94.0215 370.513 94.0176 366.232V65.429C94.0215 61.1483 95.7232 57.044 98.7493 54.0171C101.775 50.9902 105.878 49.288 110.158 49.2842H680.161C684.44 49.288 688.543 50.9902 691.569 54.0171C694.595 57.044 696.297 61.1483 696.301 65.429V366.232Z" fill="#3F3D56"/>
<path d="M652.128 96.3332H138.191C137.965 96.3332 137.749 96.2437 137.59 96.0843C137.431 95.925 137.341 95.7088 137.341 95.4835C137.341 95.2581 137.431 95.042 137.59 94.8827C137.749 94.7233 137.965 94.6338 138.191 94.6338H652.128C652.353 94.6338 652.569 94.7233 652.729 94.8827C652.888 95.042 652.977 95.2581 652.977 95.4835C652.977 95.7088 652.888 95.925 652.729 96.0843C652.569 96.2437 652.353 96.3332 652.128 96.3332Z" fill="#3F3D56"/>
<path d="M283.452 347.538C283.227 347.538 283.011 347.449 282.852 347.289C282.692 347.13 282.603 346.914 282.603 346.689V67.1284C282.603 66.9031 282.692 66.6869 282.852 66.5276C283.011 66.3682 283.227 66.2787 283.452 66.2787C283.678 66.2787 283.894 66.3682 284.053 66.5276C284.212 66.6869 284.302 66.9031 284.302 67.1284V346.689C284.302 346.914 284.212 347.13 284.053 347.289C283.894 347.449 283.678 347.538 283.452 347.538Z" fill="#3F3D56"/>
<path d="M411.724 347.538C411.499 347.538 411.283 347.449 411.124 347.289C410.964 347.13 410.875 346.914 410.875 346.689V67.1284C410.875 66.9031 410.964 66.6869 411.124 66.5276C411.283 66.3682 411.499 66.2787 411.724 66.2787C411.95 66.2787 412.166 66.3682 412.325 66.5276C412.484 66.6869 412.574 66.9031 412.574 67.1284V346.689C412.574 346.914 412.484 347.13 412.325 347.289C412.166 347.449 411.95 347.538 411.724 347.538Z" fill="#3F3D56"/>
<path d="M539.996 347.538C539.771 347.538 539.555 347.449 539.396 347.289C539.236 347.13 539.147 346.914 539.147 346.689V67.1284C539.147 66.9031 539.236 66.6869 539.396 66.5276C539.555 66.3682 539.771 66.2787 539.996 66.2787C540.222 66.2787 540.438 66.3682 540.597 66.5276C540.756 66.6869 540.846 66.9031 540.846 67.1284V346.689C540.846 346.914 540.756 347.13 540.597 347.289C540.438 347.449 540.222 347.538 539.996 347.538Z" fill="#3F3D56"/>
<path d="M200.981 184.04H169.941C168.927 184.039 167.956 183.636 167.239 182.919C166.522 182.202 166.119 181.23 166.118 180.216V143.576C166.119 142.563 166.522 141.591 167.239 140.874C167.956 140.157 168.927 139.754 169.941 139.753H200.981C201.994 139.754 202.966 140.157 203.683 140.874C204.399 141.591 204.802 142.563 204.803 143.576V180.216C204.802 181.23 204.399 182.202 203.683 182.919C202.966 183.636 201.994 184.039 200.981 184.04Z" fill="#386641"/>
<path d="M245.154 288.557H214.114C213.1 288.555 212.129 288.152 211.412 287.435C210.695 286.718 210.292 285.747 210.291 284.733V248.093C210.292 247.079 210.695 246.107 211.412 245.39C212.129 244.673 213.1 244.27 214.114 244.269H245.154C246.167 244.27 247.139 244.673 247.856 245.39C248.572 246.107 248.975 247.079 248.977 248.093V284.733C248.975 285.747 248.572 286.718 247.856 287.435C247.139 288.152 246.167 288.555 245.154 288.557Z" fill="#386641"/>
<path d="M345.393 206.133H314.353C313.339 206.132 312.368 205.729 311.651 205.012C310.934 204.295 310.531 203.323 310.53 202.309V165.669C310.531 164.656 310.934 163.684 311.651 162.967C312.368 162.25 313.339 161.847 314.353 161.846H345.393C346.407 161.847 347.378 162.25 348.095 162.967C348.811 163.684 349.215 164.656 349.216 165.669V202.309C349.215 203.323 348.811 204.295 348.095 205.012C347.378 205.729 346.407 206.132 345.393 206.133Z" fill="#386641"/>
<path d="M475.364 166.196H444.324C443.31 166.195 442.339 165.791 441.622 165.075C440.905 164.358 440.502 163.386 440.501 162.372V125.732C440.502 124.718 440.905 123.747 441.622 123.03C442.339 122.313 443.31 121.91 444.324 121.908H475.364C476.377 121.91 477.349 122.313 478.066 123.03C478.782 123.747 479.185 124.718 479.187 125.732V162.372C479.185 163.386 478.782 164.358 478.066 165.075C477.349 165.792 476.377 166.195 475.364 166.196Z" fill="#386641"/>
<path d="M595.141 166.196H564.101C563.088 166.195 562.116 165.791 561.399 165.075C560.683 164.358 560.279 163.386 560.278 162.372V125.732C560.279 124.718 560.683 123.747 561.399 123.03C562.116 122.313 563.088 121.91 564.101 121.908H595.141C596.155 121.91 597.126 122.313 597.843 123.03C598.559 123.747 598.963 124.718 598.964 125.732V162.372C598.963 163.386 598.559 164.358 597.843 165.075C597.126 165.792 596.155 166.195 595.141 166.196Z" fill="#386641"/>
<path d="M650.357 176.393H619.317C618.304 176.391 617.332 175.988 616.615 175.271C615.899 174.555 615.496 173.583 615.495 172.569V135.929C615.496 134.915 615.899 133.943 616.615 133.226C617.332 132.51 618.304 132.106 619.317 132.105H650.357C651.371 132.106 652.343 132.51 653.059 133.226C653.776 133.943 654.179 134.915 654.18 135.929V172.569C654.179 173.583 653.776 174.555 653.059 175.271C652.343 175.988 651.371 176.391 650.357 176.393Z" fill="#E6E6E6"/>
<path d="M625.722 241.822H594.682C593.669 241.82 592.697 241.417 591.98 240.7C591.264 239.983 590.861 239.012 590.86 237.998V201.358C590.861 200.344 591.264 199.372 591.98 198.655C592.697 197.938 593.669 197.535 594.682 197.534H625.722C626.736 197.535 627.707 197.938 628.424 198.655C629.141 199.372 629.544 200.344 629.545 201.358V237.998C629.544 239.012 629.141 239.983 628.424 240.7C627.707 241.417 626.736 241.82 625.722 241.822Z" fill="#E6E6E6"/>
<path d="M520.387 228.226H489.346C488.333 228.225 487.361 227.822 486.645 227.105C485.928 226.388 485.525 225.416 485.524 224.402V187.762C485.525 186.749 485.928 185.777 486.645 185.06C487.361 184.343 488.333 183.94 489.346 183.939H520.387C521.4 183.94 522.372 184.343 523.088 185.06C523.805 185.777 524.208 186.749 524.209 187.762V224.402C524.208 225.416 523.805 226.388 523.088 227.105C522.372 227.822 521.4 228.225 520.387 228.226Z" fill="#FF6584"/>
<path d="M460.073 241.822H429.033C428.02 241.82 427.048 241.417 426.331 240.7C425.615 239.983 425.212 239.012 425.21 237.998V201.358C425.212 200.344 425.615 199.372 426.331 198.655C427.048 197.938 428.02 197.535 429.033 197.534H460.073C461.087 197.535 462.058 197.938 462.775 198.655C463.492 199.372 463.895 200.344 463.896 201.358V237.998C463.895 239.012 463.492 239.983 462.775 240.7C462.058 241.417 461.087 241.82 460.073 241.822Z" fill="#E6E6E6"/>
<path d="M330.102 299.603H299.062C298.049 299.602 297.077 299.199 296.36 298.482C295.644 297.765 295.241 296.793 295.24 295.779V259.139C295.241 258.126 295.644 257.154 296.36 256.437C297.077 255.72 298.049 255.317 299.062 255.316H330.102C331.116 255.317 332.087 255.72 332.804 256.437C333.521 257.154 333.924 258.126 333.925 259.139V295.779C333.924 296.793 333.521 297.765 332.804 298.482C332.087 299.199 331.116 299.602 330.102 299.603Z" fill="#E6E6E6"/>
<path d="M172.948 251.169H141.908C140.894 251.167 139.923 250.764 139.206 250.047C138.489 249.331 138.086 248.359 138.085 247.345V210.705C138.086 209.691 138.489 208.719 139.206 208.002C139.923 207.285 140.894 206.882 141.908 206.881H172.948C173.961 206.882 174.933 207.285 175.65 208.002C176.366 208.719 176.769 209.691 176.771 210.705V247.345C176.769 248.359 176.366 249.331 175.65 250.047C174.933 250.764 173.961 251.167 172.948 251.169Z" fill="#FF6584"/>
<path d="M260.445 184.04H229.405C228.391 184.039 227.419 183.636 226.703 182.919C225.986 182.202 225.583 181.23 225.582 180.216V143.576C225.583 142.563 225.986 141.591 226.703 140.874C227.419 140.157 228.391 139.754 229.405 139.753H260.445C261.458 139.754 262.43 140.157 263.146 140.874C263.863 141.591 264.266 142.563 264.267 143.576V180.216C264.266 181.23 263.863 182.202 263.146 182.919C262.43 183.636 261.458 184.039 260.445 184.04Z" fill="#E6E6E6"/>
<path d="M235.032 82.4235H186.611C185.71 82.4235 184.846 82.0654 184.209 81.428C183.571 80.7906 183.213 79.926 183.213 79.0246C183.213 78.1231 183.571 77.2586 184.209 76.6212C184.846 75.9838 185.71 75.6257 186.611 75.6257H235.032C235.933 75.6257 236.797 75.9838 237.434 76.6212C238.072 77.2586 238.43 78.1231 238.43 79.0246C238.43 79.926 238.072 80.7906 237.434 81.428C236.797 82.0654 235.933 82.4235 235.032 82.4235Z" fill="#CCCCCC"/>
<path d="M371.799 82.4235H323.378C322.477 82.4235 321.613 82.0654 320.975 81.428C320.338 80.7906 319.98 79.926 319.98 79.0246C319.98 78.1231 320.338 77.2586 320.975 76.6212C321.613 75.9838 322.477 75.6257 323.378 75.6257H371.799C372.7 75.6257 373.564 75.9838 374.201 76.6212C374.838 77.2586 375.196 78.1231 375.196 79.0246C375.196 79.926 374.838 80.7906 374.201 81.428C373.564 82.0654 372.7 82.4235 371.799 82.4235Z" fill="#CCCCCC"/>
<path d="M500.07 82.4235H451.65C450.749 82.4235 449.884 82.0654 449.247 81.428C448.61 80.7906 448.252 79.926 448.252 79.0246C448.252 78.1231 448.61 77.2586 449.247 76.6212C449.884 75.9838 450.749 75.6257 451.65 75.6257H500.07C500.972 75.6257 501.836 75.9838 502.473 76.6212C503.11 77.2586 503.468 78.1231 503.468 79.0246C503.468 79.926 503.11 80.7906 502.473 81.428C501.836 82.0654 500.972 82.4235 500.07 82.4235Z" fill="#CCCCCC"/>
<path d="M619.847 82.4235H571.427C570.526 82.4235 569.662 82.0654 569.024 81.428C568.387 80.7906 568.029 79.926 568.029 79.0246C568.029 78.1231 568.387 77.2586 569.024 76.6212C569.662 75.9838 570.526 75.6257 571.427 75.6257H619.847C620.749 75.6257 621.613 75.9838 622.25 76.6212C622.887 77.2586 623.245 78.1231 623.245 79.0246C623.245 79.926 622.887 80.7906 622.25 81.428C621.613 82.0654 620.749 82.4235 619.847 82.4235Z" fill="#CCCCCC"/>
<path d="M126.581 331.301C125.338 331.179 124.137 330.787 123.062 330.15C121.988 329.514 121.065 328.65 120.361 327.618C119.656 326.587 119.186 325.414 118.984 324.181C118.782 322.948 118.852 321.686 119.19 320.484L97.4155 300.208L108.928 297.287L130.34 314.658C132.322 315.361 133.978 316.765 134.993 318.607C136.009 320.449 136.314 322.599 135.851 324.65C135.387 326.702 134.188 328.512 132.479 329.738C130.771 330.963 128.672 331.52 126.581 331.301Z" fill="#FFB8B8"/>
<path d="M156.648 481.16H167.063L172.017 440.979H156.646L156.648 481.16Z" fill="#FFB8B8"/>
<path d="M187.148 490.832L154.417 490.834L154.416 478.184L174.501 478.183C177.855 478.183 181.072 479.516 183.444 481.888C185.815 484.26 187.148 487.478 187.148 490.832L187.148 490.832Z" fill="#2F2E41"/>
<path d="M85.2414 473.639L95.3061 476.319L110.428 438.764L95.5745 434.809L85.2414 473.639Z" fill="#FFB8B8"/>
<path d="M112.228 490.836L80.5979 482.414L83.8508 470.19L103.26 475.358C106.501 476.221 109.267 478.336 110.949 481.239C112.63 484.142 113.09 487.594 112.228 490.836Z" fill="#2F2E41"/>
<path d="M169.863 473.553H153.972C152.968 473.556 151.999 473.184 151.256 472.509C150.513 471.833 150.05 470.905 149.957 469.905L140.31 369.695C140.239 368.96 139.916 368.272 139.394 367.75C138.872 367.227 138.185 366.902 137.451 366.831C136.716 366.759 135.979 366.945 135.366 367.356C134.753 367.768 134.303 368.38 134.091 369.088L106.081 462.727C105.784 463.722 105.115 464.565 104.213 465.079C103.311 465.592 102.246 465.738 101.239 465.485L86.455 461.788C85.939 461.659 85.4537 461.429 85.0268 461.111C84.6 460.794 84.2401 460.395 83.9679 459.938C83.6957 459.481 83.5166 458.975 83.4409 458.448C83.3651 457.922 83.3943 457.385 83.5266 456.87C83.768 455.927 107.661 362.526 107.87 361.566C113.283 321.656 119.76 310.962 123.239 305.217C123.527 304.742 123.792 304.304 124.03 303.891C124.329 303.374 126.165 298.245 127.329 294.914C127.481 294.372 127.743 293.868 128.099 293.432C128.455 292.997 128.897 292.64 129.398 292.384C144.018 284.905 161.124 290.082 166.018 291.847C166.83 292.133 167.527 292.674 168.005 293.39C182.688 315.543 175.482 444.209 173.888 469.777C173.822 470.8 173.369 471.759 172.622 472.46C171.874 473.161 170.888 473.552 169.863 473.553Z" fill="#2F2E41"/>
<path d="M128.853 219.727C140.376 219.727 149.717 210.383 149.717 198.857C149.717 187.33 140.376 177.987 128.853 177.987C117.33 177.987 107.989 187.33 107.989 198.857C107.989 210.383 117.33 219.727 128.853 219.727Z" fill="#FFB8B8"/>
<path d="M126.642 298.966L126.492 298.821C126.211 298.549 98.4123 271.307 102.01 246.117C103.549 235.343 112.263 228.459 127.212 226.207C132.704 225.392 138.306 226.586 142.988 229.571C147.669 232.556 151.117 237.131 152.696 242.455L167.477 293.001L126.642 298.966Z" fill="#CCCCCC"/>
<path d="M112.414 318.342L92.6059 298.653C91.2515 297.299 90.2681 295.62 89.7504 293.775C89.2327 291.931 89.1981 289.985 89.6499 288.124L99.2394 249.105C99.5266 247.936 100.051 246.838 100.779 245.88C101.508 244.921 102.425 244.123 103.475 243.533C104.524 242.944 105.683 242.576 106.881 242.453C108.078 242.33 109.288 242.454 110.435 242.817C112.623 243.522 114.45 245.051 115.529 247.081C116.609 249.11 116.857 251.48 116.22 253.688L106.124 288.014L122.45 305.55L112.414 318.342Z" fill="#CCCCCC"/>
<path d="M218.661 251.147C218.137 252.281 217.371 253.287 216.417 254.093C215.462 254.898 214.343 255.485 213.138 255.812C211.932 256.138 210.67 256.196 209.44 255.982C208.209 255.767 207.041 255.286 206.017 254.571L179.573 268.281L180.742 256.634L204.185 242.122C205.5 240.481 207.371 239.379 209.443 239.025C211.516 238.672 213.646 239.091 215.43 240.203C217.215 241.316 218.529 243.044 219.124 245.061C219.72 247.078 219.555 249.244 218.661 251.147H218.661Z" fill="#FFB8B8"/>
<path d="M203.129 259.816L177.351 270.959C175.635 271.695 173.759 271.977 171.902 271.778C170.046 271.579 168.272 270.905 166.752 269.822L133.971 246.328C132.993 245.627 132.169 244.732 131.55 243.699C130.931 242.667 130.531 241.518 130.374 240.324C130.216 239.131 130.306 237.918 130.636 236.76C130.967 235.602 131.531 234.525 132.295 233.594C133.762 231.825 135.86 230.696 138.145 230.447C140.429 230.199 142.721 230.849 144.534 232.262L172.643 254.39L194.984 245.744L203.129 259.816Z" fill="#CCCCCC"/>
<path d="M132.312 205.544C134.886 202.318 139.695 202.145 143.23 200.017C147.861 197.23 149.776 191.001 148.284 185.804C146.791 180.608 142.39 176.559 137.344 174.622C132.298 172.685 126.683 172.661 121.36 173.597C113.434 174.991 105.631 178.692 100.797 185.127C95.963 191.563 94.7328 200.988 99.1137 207.741C101.127 210.844 104.235 213.406 105.039 217.017C106.095 221.758 102.77 226.331 99.2082 229.632C95.1505 233.393 90.4951 236.543 86.94 240.783C83.385 245.023 81.0144 250.815 82.6366 256.105C83.9958 260.538 87.9509 263.804 92.2879 265.439C96.625 267.074 101.349 267.311 105.983 267.401C110.483 267.489 115.262 267.38 119.053 264.953C123.111 262.355 125.278 257.426 125.438 252.609C125.598 247.792 123.989 243.073 121.832 238.763C120.547 236.194 119.052 233.705 118.198 230.962C117.344 228.22 117.196 225.107 118.563 222.582C120.001 219.927 122.91 218.325 125.873 217.743C126.026 217.713 126.189 217.686 126.36 217.662C127.202 217.552 128.014 217.273 128.746 216.841C129.478 216.409 130.115 215.833 130.617 215.147C131.12 214.462 131.479 213.682 131.672 212.854C131.865 212.026 131.888 211.168 131.74 210.331C131.402 208.449 131.431 206.648 132.312 205.544Z" fill="#2F2E41"/>
<path d="M410.495 482.05H400.08L395.126 441.868L410.497 441.869L410.495 482.05Z" fill="#A0616A"/>
<path d="M392.641 479.073H412.726V491.723H379.995C379.995 490.062 380.322 488.417 380.958 486.882C381.593 485.348 382.525 483.953 383.699 482.778C384.873 481.604 386.267 480.672 387.802 480.036C389.336 479.401 390.981 479.073 392.641 479.073Z" fill="#2F2E41"/>
<path d="M486.061 470.25L476.588 474.578L455.39 440.088L469.372 433.7L486.061 470.25Z" fill="#A0616A"/>
<path d="M468.585 474.962L486.854 466.615L492.108 478.121L462.336 491.724C461.646 490.213 461.26 488.581 461.201 486.921C461.141 485.26 461.41 483.605 461.99 482.048C462.57 480.492 463.451 479.065 464.583 477.849C465.714 476.633 467.074 475.652 468.585 474.962Z" fill="#2F2E41"/>
<path d="M455.732 346.567C456.73 345.816 457.551 344.855 458.137 343.752C458.724 342.649 459.061 341.431 459.126 340.184C459.191 338.936 458.982 337.69 458.513 336.532C458.044 335.374 457.327 334.333 456.412 333.483L468.655 305.697L453.102 308.333L443.861 334.315C442.534 335.946 441.852 338.008 441.943 340.109C442.034 342.21 442.893 344.205 444.356 345.715C445.819 347.225 447.785 348.146 449.882 348.303C451.979 348.46 454.06 347.843 455.732 346.567Z" fill="#A0616A"/>
<path d="M409.831 471.455H399.882C398.917 471.452 397.989 471.085 397.282 470.428C396.575 469.77 396.142 468.871 396.069 467.908L390.643 322.98C390.603 322.425 390.685 321.867 390.882 321.347C391.079 320.826 391.388 320.355 391.787 319.966C392.185 319.577 392.664 319.28 393.189 319.096C393.714 318.911 394.273 318.844 394.827 318.898L452.367 325.01C453.3 325.101 454.166 325.532 454.802 326.22C455.439 326.908 455.8 327.806 455.818 328.743L457.024 392.673C457.03 393.02 457.097 393.363 457.222 393.687L480.825 454.912C481.008 455.385 481.094 455.89 481.08 456.396C481.065 456.903 480.95 457.402 480.741 457.864C480.533 458.326 480.234 458.741 479.863 459.087C479.492 459.432 479.056 459.7 478.58 459.875L468.498 463.591C467.622 463.913 466.659 463.905 465.79 463.566C464.92 463.227 464.204 462.582 463.777 461.752L434.782 405.356C434.624 405.05 434.509 404.723 434.439 404.386L429.486 380.514C429.342 379.821 428.957 379.203 428.398 378.769C427.84 378.336 427.146 378.115 426.44 378.147C425.734 378.179 425.063 378.461 424.546 378.944C424.029 379.426 423.701 380.077 423.621 380.779L413.629 468.066C413.522 468.999 413.076 469.86 412.376 470.485C411.675 471.11 410.77 471.455 409.831 471.455Z" fill="#2F2E41"/>
<path d="M414.785 209.661C426.308 209.661 435.649 200.317 435.649 188.79C435.649 177.264 426.308 167.92 414.785 167.92C403.262 167.92 393.921 177.264 393.921 188.79C393.921 200.317 403.262 209.661 414.785 209.661Z" fill="#A0616A"/>
<path d="M429.093 336.232C414.945 336.076 401.133 331.891 389.276 324.167L389.073 324.027L389.094 323.781L397.075 230.808C397.35 227.653 398.757 224.705 401.037 222.509C403.317 220.312 406.315 219.016 409.476 218.859C419.819 218.384 433.713 218.983 441.15 224.524C452.389 232.897 457.806 245.507 456.012 259.118C452.291 287.345 456.506 325.422 456.999 329.67L457.035 329.977L456.755 330.105C448.09 334.137 438.65 336.228 429.093 336.232Z" fill="#386641"/>
<path d="M456.903 329.828C456.315 329.827 455.733 329.704 455.195 329.467C454.657 329.229 454.174 328.883 453.776 328.45L449.212 323.469C448.719 322.928 448.373 322.269 448.208 321.555C448.043 320.842 448.065 320.098 448.27 319.395L458.677 284.162L442.843 250.901C442.103 249.344 441.922 247.579 442.33 245.905C442.689 244.435 443.485 243.108 444.614 242.1C445.742 241.092 447.15 240.449 448.65 240.257C450.151 240.066 451.675 240.333 453.02 241.025C454.366 241.717 455.47 242.801 456.188 244.134L477.675 279.008C478.548 280.423 479.06 282.031 479.167 283.69C479.273 285.349 478.971 287.009 478.287 288.524L460.779 327.327C460.49 327.968 460.047 328.527 459.488 328.955C458.93 329.382 458.274 329.663 457.579 329.774C457.356 329.81 457.129 329.828 456.903 329.828Z" fill="#386641"/>
<path d="M309.839 262.525C310.841 263.271 311.994 263.788 313.217 264.039C314.44 264.29 315.704 264.271 316.919 263.981C318.133 263.691 319.27 263.138 320.248 262.361C321.226 261.585 322.022 260.603 322.58 259.485L352.684 263.391L345.765 249.21L318.239 247.675C316.299 246.863 314.13 246.79 312.14 247.47C310.151 248.151 308.48 249.538 307.445 251.368C306.409 253.199 306.081 255.346 306.522 257.402C306.964 259.458 308.143 261.281 309.839 262.525V262.525Z" fill="#A0616A"/>
<path d="M376.193 270.27C375.669 270.27 375.145 270.234 374.626 270.162L327.266 263.591C326.492 263.485 325.757 263.188 325.127 262.726C324.496 262.264 323.991 261.653 323.655 260.947C323.547 260.72 323.457 260.485 323.385 260.243H323.385C323.202 259.616 323.151 258.957 323.235 258.309C323.319 257.661 323.536 257.037 323.874 256.477L327.793 249.978C328.214 249.283 328.807 248.708 329.515 248.309C330.222 247.909 331.02 247.698 331.833 247.695H331.839L373.121 247.743L403.952 220.112C405.386 218.83 407.218 218.08 409.14 217.988C410.827 217.91 412.498 218.345 413.933 219.236C415.368 220.128 416.5 221.433 417.178 222.981C417.856 224.528 418.049 226.245 417.733 227.904C417.416 229.564 416.603 231.088 415.403 232.277L384.638 266.502C383.574 267.688 382.272 268.636 380.817 269.285C379.362 269.934 377.786 270.27 376.193 270.27Z" fill="#386641"/>
<path d="M417.157 207.357C419.064 202.943 420.677 197.065 417.02 193.944C414.899 192.134 411.843 192.13 409.064 191.905C401.234 191.27 393.174 187.667 389.347 180.805C385.52 173.942 387.657 163.738 394.877 160.642C399.744 158.555 405.324 159.977 410.418 161.422L425.714 165.761C430.259 167.05 435.03 168.471 438.302 171.88C443.52 177.316 443.13 186.505 438.986 192.798C434.841 199.092 428.6 205.656 421.454 208.045L417.157 207.357Z" fill="#2F2E41"/>
<path d="M628.18 492H1.01147C0.878396 492 0.746557 491.975 0.623502 491.924C0.500446 491.873 0.388603 491.799 0.294369 491.705C0.200134 491.611 0.125365 491.499 0.0743503 491.376C0.0233356 491.253 -0.00292969 491.121 -0.00292969 490.988C-0.00292969 490.855 0.0233356 490.723 0.0743503 490.6C0.125365 490.477 0.200134 490.366 0.294369 490.272C0.388603 490.178 0.500446 490.103 0.623502 490.053C0.746557 490.002 0.878396 489.976 1.01147 489.976H628.18C628.313 489.976 628.445 490.002 628.568 490.053C628.691 490.103 628.803 490.178 628.897 490.272C628.991 490.366 629.066 490.477 629.117 490.6C629.168 490.723 629.194 490.855 629.194 490.988C629.194 491.121 629.168 491.253 629.117 491.376C629.066 491.499 628.991 491.611 628.897 491.705C628.803 491.799 628.691 491.873 628.568 491.924C628.445 491.975 628.313 492 628.18 492Z" fill="#3F3D56"/>
</g>
<defs>
<clipPath id="clip0">
<rect width="698" height="492" fill="white"/>
</clipPath>
</defs>
</svg>
