<svg width="499" height="335" viewBox="0 0 499 335" fill="none" xmlns="http://www.w3.org/2000/svg">
<g clip-path="url(#clip0)">
<path d="M484.286 323.918H13.9355V324.93H484.286V323.918Z" fill="#3F3D56"/>
<path d="M50.9298 140.368L50.5354 141.3L483.745 324.34L484.139 323.408L50.9298 140.368Z" fill="#3F3D56"/>
<path d="M484.286 140.283H13.9355V141.295H484.286V140.283Z" fill="#3F3D56"/>
<path d="M420.492 162.289C420.557 183.696 416.4 204.906 408.257 224.706C400.114 244.506 388.146 262.509 373.037 277.686C371.371 279.36 369.668 280.996 367.929 282.593C365.832 284.526 363.682 286.399 361.478 288.213C361.058 288.562 360.638 288.906 360.213 289.245C351.506 296.296 342.077 302.405 332.083 307.472C331.49 307.771 330.898 308.069 330.301 308.363C329.354 308.828 328.397 309.283 327.44 309.729C292.017 326.198 251.734 328.93 214.409 317.393C149.061 297.127 101.525 235.354 101.525 162.289C101.525 72.7432 172.928 0.154297 261.009 0.154297C349.089 0.154297 420.492 72.7432 420.492 162.289Z" fill="#386641"/>
<path d="M296.518 128.277L296.644 128.272L296.145 127.176C295.584 125.624 294.898 124.12 294.095 122.679L279.445 90.5397C278.978 89.514 278.22 88.6469 277.267 88.045C276.313 87.4431 275.204 87.1324 274.076 87.1512L255.524 87.46C254.324 87.48 253.16 87.8716 252.193 88.5808C251.226 89.29 250.502 90.2818 250.123 91.4192L238.46 126.42C238.076 127.4 237.743 128.4 237.463 129.414L237.067 130.602L237.16 130.599C236.079 135.215 236.08 140.017 237.162 144.633C238.244 149.248 240.378 153.552 243.399 157.207C246.419 160.863 250.243 163.773 254.573 165.709C258.904 167.646 263.623 168.557 268.364 168.371C273.105 168.186 277.738 166.909 281.904 164.64C286.07 162.372 289.655 159.172 292.38 155.292C295.104 151.411 296.896 146.954 297.613 142.268C298.331 137.582 297.956 132.794 296.518 128.277H296.518Z" fill="#3F3D56"/>
<path d="M261.942 95.3197L256.104 127.207L256.763 127.328L262.601 95.4401L261.942 95.3197Z" fill="#386641"/>
<path d="M268.957 95.2023L268.303 95.3445L275.195 127.021L275.849 126.879L268.957 95.2023Z" fill="#386641"/>
<path d="M253.502 71.7651L277.275 71.3694C277.452 71.3664 277.624 71.4341 277.752 71.5575C277.879 71.6808 277.953 71.8499 277.956 72.0273C277.958 72.2048 277.891 72.3762 277.767 72.5037C277.644 72.6313 277.475 72.7046 277.297 72.7076L253.524 73.1033C253.436 73.1048 253.349 73.0889 253.267 73.0566C253.185 73.0244 253.11 72.9763 253.047 72.9152C252.984 72.8541 252.933 72.7812 252.898 72.7005C252.863 72.6199 252.845 72.5332 252.843 72.4453C252.842 72.3575 252.858 72.2702 252.89 72.1884C252.922 72.1067 252.97 72.0321 253.031 71.9689C253.093 71.9058 253.166 71.8553 253.246 71.8203C253.327 71.7853 253.414 71.7665 253.502 71.7651Z" fill="#3F3D56"/>
<path d="M253.753 76.7807L277.526 76.385C277.704 76.382 277.875 76.4497 278.003 76.5731C278.13 76.6965 278.204 76.8655 278.207 77.043C278.21 77.2204 278.142 77.3918 278.019 77.5194C277.895 77.6469 277.726 77.7203 277.548 77.7232L253.775 78.1189C253.598 78.1219 253.426 78.0542 253.298 77.9308C253.171 77.8074 253.097 77.6384 253.094 77.461C253.091 77.2835 253.159 77.1121 253.283 76.9846C253.406 76.857 253.575 76.7837 253.753 76.7807Z" fill="#3F3D56"/>
<path d="M254.004 81.7963L277.777 81.4006C277.954 81.3976 278.126 81.4653 278.254 81.5887C278.381 81.7121 278.455 81.8811 278.458 82.0586C278.461 82.236 278.393 82.4074 278.269 82.535C278.146 82.6626 277.977 82.7359 277.799 82.7388L254.026 83.1346C253.849 83.1375 253.677 83.0699 253.549 82.9465C253.422 82.8231 253.348 82.654 253.345 82.4766C253.342 82.2991 253.41 82.1278 253.534 82.0002C253.657 81.8726 253.826 81.7993 254.004 81.7963Z" fill="#3F3D56"/>
<path d="M265.309 66.7946C260.593 66.8731 256.814 69.5627 256.868 72.802L273.945 72.5177C273.891 69.2784 270.024 66.7161 265.309 66.7946Z" fill="#3F3D56"/>
<path d="M267.936 131.917C268.868 131.98 269.751 132.357 270.44 132.986C270.617 133.132 270.79 133.285 270.964 133.439C271.515 134.014 272.19 134.455 272.937 134.729C274.574 135.175 276.189 133.882 277.552 132.559L278.019 133.039C276.52 134.494 274.724 135.909 272.761 135.375C271.913 135.076 271.147 134.586 270.521 133.941C270.352 133.791 270.184 133.643 270.013 133.501C269.453 133.037 268.372 132.316 267.411 132.69C267.013 132.884 266.658 133.157 266.369 133.493C266.145 133.729 265.903 133.947 265.645 134.144C265.117 134.519 264.491 134.729 263.844 134.748C263.197 134.767 262.559 134.595 262.01 134.253C261.813 134.121 261.623 133.979 261.441 133.826C261.143 133.531 260.772 133.32 260.366 133.215C259.797 133.135 259.28 133.541 258.732 133.97C258.214 134.474 257.551 134.803 256.837 134.911C256.812 134.912 256.788 134.913 256.764 134.913C255.429 134.936 254.582 133.602 254.059 132.588L254.654 132.281C255.366 133.66 256.052 134.288 256.801 134.243C257.375 134.133 257.903 133.855 258.318 133.444C258.952 132.947 259.608 132.433 260.458 132.552C260.988 132.667 261.474 132.928 261.863 133.306C262.025 133.443 262.196 133.571 262.372 133.689C262.808 133.956 263.313 134.09 263.824 134.075C264.335 134.06 264.831 133.896 265.25 133.604C265.48 133.426 265.695 133.231 265.895 133.02C266.247 132.616 266.681 132.291 267.168 132.066C267.413 131.971 267.673 131.92 267.936 131.917Z" fill="#386641"/>
<path d="M266.064 0H265.368V66.7673H266.064V0Z" fill="#3F3D56"/>
<path d="M476.133 115.68C471.889 131.355 457.352 141.063 457.352 141.063C457.352 141.063 449.697 125.357 453.941 109.682C458.185 94.0066 472.721 84.2987 472.721 84.2987C472.721 84.2987 480.376 100.005 476.133 115.68Z" fill="#386641"/>
<path d="M437.525 115.68C441.769 131.355 456.305 141.063 456.305 141.063C456.305 141.063 463.961 125.357 459.717 109.682C455.473 94.0066 440.937 84.2987 440.937 84.2987C440.937 84.2987 433.281 100.005 437.525 115.68Z" fill="#386641"/>
<path d="M443.761 112.311C455.406 123.638 456.829 141.05 456.829 141.05C456.829 141.05 439.37 140.098 427.725 128.771C416.08 117.444 414.657 100.032 414.657 100.032C414.657 100.032 432.116 100.984 443.761 112.311Z" fill="#3F3D56"/>
<path d="M469.896 112.311C458.251 123.638 456.829 141.05 456.829 141.05C456.829 141.05 474.287 140.098 485.932 128.771C497.577 117.444 499 100.032 499 100.032C499 100.032 481.541 100.984 469.896 112.311Z" fill="#3F3D56"/>
<path d="M61.4749 298.809C57.2311 314.484 42.6948 324.192 42.6948 324.192C42.6948 324.192 35.0393 308.486 39.2832 292.811C43.5271 277.136 58.0633 267.428 58.0633 267.428C58.0633 267.428 65.7188 283.134 61.4749 298.809Z" fill="#386641"/>
<path d="M22.8675 298.809C27.1114 314.484 41.6476 324.192 41.6476 324.192C41.6476 324.192 49.3032 308.486 45.0593 292.811C40.8154 277.136 26.2792 267.428 26.2792 267.428C26.2792 267.428 18.6236 283.134 22.8675 298.809Z" fill="#386641"/>
<path d="M29.1036 295.44C40.7488 306.767 42.1712 324.179 42.1712 324.179C42.1712 324.179 24.7129 323.227 13.0676 311.9C1.42238 300.573 0 283.161 0 283.161C0 283.161 17.4583 284.114 29.1036 295.44Z" fill="#3F3D56"/>
<path d="M55.2389 295.44C43.5936 306.767 42.1713 324.179 42.1713 324.179C42.1713 324.179 59.6296 323.227 71.2748 311.9C82.9201 300.573 84.3425 283.161 84.3425 283.161C84.3425 283.161 66.8841 284.114 55.2389 295.44Z" fill="#3F3D56"/>
<path d="M339.392 154.002C344.771 154.002 349.131 149.646 349.131 144.272C349.131 138.898 344.771 134.542 339.392 134.542C334.014 134.542 329.654 138.898 329.654 144.272C329.654 149.646 334.014 154.002 339.392 154.002Z" fill="#2F2E41"/>
<path d="M328.959 140.102C328.959 137.702 329.847 135.387 331.452 133.601C333.057 131.816 335.265 130.686 337.653 130.429C336.293 130.28 334.917 130.42 333.615 130.838C332.313 131.257 331.113 131.945 330.095 132.857C329.076 133.77 328.261 134.887 327.704 136.135C327.146 137.383 326.858 138.735 326.858 140.102C326.858 141.469 327.146 142.82 327.704 144.068C328.261 145.317 329.076 146.433 330.095 147.346C331.113 148.259 332.313 148.947 333.615 149.365C334.917 149.783 336.293 149.923 337.653 149.774C335.265 149.517 333.057 148.388 331.452 146.602C329.847 144.817 328.959 142.502 328.959 140.102Z" fill="#2F2E41"/>
<path d="M329.654 144.272C329.654 144.272 328.142 151.222 337.593 154.002L329.654 144.272Z" fill="#386641"/>
<path d="M343.42 210.365C361.476 210.365 376.113 195.74 376.113 177.699C376.113 159.658 361.476 145.032 343.42 145.032C325.364 145.032 310.727 159.658 310.727 177.699C310.727 195.74 325.364 210.365 343.42 210.365Z" fill="#2F2E41"/>
<path d="M361.478 288.213C361.058 288.562 360.638 288.906 360.213 289.245C351.506 296.296 342.077 302.405 332.083 307.472C331.49 307.771 330.898 308.069 330.301 308.363C329.354 308.828 328.397 309.283 327.44 309.728L310.682 304.149L310.874 300.137V300.122L311.603 284.824L311.851 279.593L361.478 288.213Z" fill="#A0616A"/>
<path d="M330.301 308.363C329.354 308.828 328.397 309.283 327.44 309.729C320.894 312.787 314.142 315.385 307.234 317.504C307.199 317.403 307.178 317.297 307.173 317.19L310.681 300.056L310.874 300.137L330.301 308.363Z" fill="#2F2E41"/>
<path d="M335.259 212.356C347.216 212.356 356.909 202.671 356.909 190.723C356.909 178.776 347.216 169.091 335.259 169.091C323.302 169.091 313.609 178.776 313.609 190.723C313.609 202.671 323.302 212.356 335.259 212.356Z" fill="#A0616A"/>
<path d="M352.813 191.893C352.813 191.893 356.324 209.432 362.761 213.525L327.067 255.621L313.609 242.758L323.556 225.218C323.556 225.218 334.674 218.787 331.163 210.017L352.813 191.893Z" fill="#A0616A"/>
<path d="M395.173 249.984C388.828 259.998 381.406 269.287 373.037 277.686C372.678 269.845 371.898 263.38 370.369 261.467C370.365 261.467 370.362 261.465 370.359 261.462L351.641 255.619C351.641 255.619 355.737 217.031 365.686 215.28C365.686 215.28 367.129 215.574 369.372 216.252C376.602 218.427 392.125 224.558 394.357 237.494C394.992 241.625 395.265 245.805 395.173 249.984Z" fill="#A0616A"/>
<path d="M323.556 225.218C323.556 225.218 306.002 224.634 294.885 238.665C283.767 252.697 256.851 263.221 256.851 263.221L189.559 289.531C189.559 289.531 177.271 267.898 169.665 275.499C162.058 283.1 183.708 302.393 193.655 300.055C203.603 297.716 263.872 279.592 263.872 279.592L311.854 257.959L323.556 225.218Z" fill="#A0616A"/>
<path d="M370.369 261.467L367.928 282.593C365.832 284.525 363.682 286.399 361.478 288.213C361.058 288.562 360.638 288.906 360.212 289.245C343.317 284.07 316.843 284.647 311.603 284.824C311.005 284.839 310.681 284.854 310.681 284.854L310.099 272.577C304.484 270.71 302.641 266.627 302.591 262.135C302.505 253.99 308.342 244.51 308.342 244.51C309.39 243.463 317.223 228.626 318.843 225.55C319.03 225.191 319.137 224.993 319.137 224.993L326.159 223.243C326.159 223.243 326.139 223.299 326.098 223.4C325.47 225.155 320.012 241.035 329.409 241.586C338.654 242.133 358.764 216.191 361.534 212.554C361.742 212.281 361.853 212.134 361.853 212.134L369.463 216.226C369.432 216.237 369.402 216.242 369.371 216.252C364.724 217.542 360.42 228.727 360.42 228.727C348.284 250.095 369.827 261.194 370.359 261.462C370.361 261.465 370.365 261.467 370.369 261.467Z" fill="#D0CDE1"/>
<path d="M336.435 165.331C324.91 165.331 315.568 170.777 315.568 177.494C315.568 180.5 317.446 183.247 320.546 185.369L324.563 182.461L323.47 187.017C323.924 187.227 324.386 187.43 324.869 187.618L330.871 180.622V189.216C332.711 189.511 334.572 189.658 336.435 189.657C347.96 189.657 357.303 184.212 357.303 177.494C357.303 170.777 347.96 165.331 336.435 165.331Z" fill="#2F2E41"/>
<path d="M379.182 169.203C384.56 169.203 388.92 164.847 388.92 159.473C388.92 154.099 384.56 149.743 379.182 149.743C373.804 149.743 369.444 154.099 369.444 159.473C369.444 164.847 373.804 169.203 379.182 169.203Z" fill="#2F2E41"/>
<path d="M368.748 155.303C368.748 152.903 369.636 150.588 371.241 148.802C372.846 147.017 375.055 145.887 377.443 145.63C377.096 145.592 376.748 145.573 376.4 145.572C375.076 145.57 373.765 145.838 372.548 146.36C371.331 146.881 370.233 147.645 369.322 148.604C368.411 149.564 367.705 150.699 367.247 151.941C366.79 153.182 366.59 154.504 366.661 155.825C366.732 157.146 367.072 158.439 367.66 159.624C368.248 160.809 369.072 161.862 370.081 162.719C371.09 163.575 372.263 164.217 373.529 164.605C374.795 164.993 376.127 165.119 377.443 164.976C375.055 164.718 372.846 163.589 371.241 161.803C369.636 160.018 368.748 157.703 368.748 155.303Z" fill="#2F2E41"/>
<path d="M369.444 159.473C369.444 159.473 367.931 166.423 377.382 169.203L369.444 159.473Z" fill="#386641"/>
<path d="M357.787 192.77C358.721 192.77 359.478 191.068 359.478 188.969C359.478 186.871 358.721 185.169 357.787 185.169C356.853 185.169 356.097 186.871 356.097 188.969C356.097 191.068 356.853 192.77 357.787 192.77Z" fill="#A0616A"/>
<path d="M171.22 203.671L145.563 209.883L145.479 209.902L142.69 212.425L141.887 213.151L140.166 212.839L137.12 212.289L139.243 205.13L139.641 191.474L138.181 183.122L146.275 177.553C146.275 177.553 162.065 176.625 171.22 203.671Z" fill="#D0CDE1"/>
<path opacity="0.1" d="M145.563 209.883C145.215 210.624 145.943 210.134 145.545 210.897L141.83 212.09L140.166 212.839L137.12 212.289L139.243 205.13L139.641 191.474L138.181 183.122L146.275 177.553C146.275 177.553 154.962 189.846 145.563 209.883Z" fill="black"/>
<path d="M201.473 184.05C201.473 184.05 167.77 199.694 154.104 202.08C140.437 204.467 141.631 218.122 141.631 218.122L218.192 206.19C218.192 206.19 215.538 193.86 201.473 184.05Z" fill="#D0CDE1"/>
<path d="M136.456 181.398C136.456 181.398 142.295 195.584 135.793 213.217L143.356 216.664L146.275 213.217L146.341 212.885L138.314 212.156C138.314 212.156 144.948 194.391 139.508 182.061C139.508 182.061 138.314 179.409 136.456 181.398Z" fill="#386641"/>
<path d="M247.781 286.533C217.926 279.904 190.128 293.626 190.128 293.626L190.053 293.558L178.982 283.682L135.726 213.151L146.275 213.217C175.599 195.717 216.865 198.103 216.865 198.103C234.645 218.255 247.781 286.533 247.781 286.533Z" fill="#3F3D56"/>
<path opacity="0.1" d="M190.053 293.558L178.982 283.682L135.726 213.151L146.275 213.217C146.275 213.217 188.318 268.7 190.053 293.558Z" fill="black"/>
<path d="M194.911 238.525C203.949 235.756 209.847 228.857 208.085 223.117C206.323 217.377 197.568 214.969 188.53 217.738C179.492 220.508 173.594 227.407 175.356 233.147C177.118 238.887 185.873 241.295 194.911 238.525Z" fill="#D0CDE1"/>
<path d="M14.0717 149.818C19.3845 149.818 23.6913 145.515 23.6913 140.206C23.6913 134.898 19.3845 130.595 14.0717 130.595C8.75889 130.595 4.45203 134.898 4.45203 140.206C4.45203 145.515 8.75889 149.818 14.0717 149.818Z" fill="#3F3D56"/>
<path d="M483.916 334.465C489.228 334.465 493.535 330.162 493.535 324.853C493.535 319.545 489.228 315.241 483.916 315.241C478.603 315.241 474.296 319.545 474.296 324.853C474.296 330.162 478.603 334.465 483.916 334.465Z" fill="#3F3D56"/>
<path d="M56.0943 148.806C60.2886 148.806 63.6888 145.409 63.6888 141.218C63.6888 137.027 60.2886 133.63 56.0943 133.63C51.9 133.63 48.4999 137.027 48.4999 141.218C48.4999 145.409 51.9 148.806 56.0943 148.806Z" fill="#386641"/>
<path d="M483.916 148.806C488.11 148.806 491.51 145.409 491.51 141.218C491.51 137.027 488.11 133.63 483.916 133.63C479.721 133.63 476.321 137.027 476.321 141.218C476.321 145.409 479.721 148.806 483.916 148.806Z" fill="#386641"/>
<path d="M14.0718 331.43C18.2661 331.43 21.6662 328.032 21.6662 323.841C21.6662 319.651 18.2661 316.253 14.0718 316.253C9.87745 316.253 6.47729 319.651 6.47729 323.841C6.47729 328.032 9.87745 331.43 14.0718 331.43Z" fill="#386641"/>
</g>
<defs>
<clipPath id="clip0">
<rect width="499" height="334.465" fill="white"/>
</clipPath>
</defs>
</svg>
