<svg width="393" height="409" viewBox="0 0 393 409" fill="none" xmlns="http://www.w3.org/2000/svg">
<path d="M372.434 381.118C372.434 396.516 289.063 409 186.217 409C83.3712 409 0 396.516 0 381.118C0 370.217 41.7907 360.774 102.696 356.193C127.811 354.298 156.188 353.237 186.217 353.237C198.561 353.237 210.623 353.416 222.289 353.758C307.871 356.277 372.434 367.567 372.434 381.118Z" fill="#3F3D56"/>
<path opacity="0.1" d="M162.189 386.815C201.668 386.815 233.672 382.922 233.672 378.12C233.672 373.319 201.668 369.426 162.189 369.426C122.71 369.426 90.7058 373.319 90.7058 378.12C90.7058 382.922 122.71 386.815 162.189 386.815Z" fill="black"/>
<path d="M161.889 384.416C199.211 384.416 229.467 352.202 229.467 312.463C229.467 272.725 199.211 240.51 161.889 240.51C124.566 240.51 94.3098 272.725 94.3098 312.463C94.3098 352.202 124.566 384.416 161.889 384.416Z" fill="#3F3D56"/>
<path d="M183.214 355.035H141.165V393.41H183.214V355.035Z" fill="#386641"/>
<path d="M238.178 364.33L235.775 377.521L251.393 379.919L261.605 373.923L261.004 364.33H238.178Z" fill="#575A89"/>
<path d="M159.486 116.692C159.486 116.692 158.285 130.483 155.281 131.082C152.278 131.682 161.889 155.666 161.889 155.666H176.306L187.719 152.668L182.313 139.477C182.313 139.477 175.104 129.883 180.511 122.088C185.917 114.293 159.486 116.692 159.486 116.692Z" fill="#A0616A"/>
<path opacity="0.1" d="M159.486 116.692C159.486 116.692 158.285 130.483 155.281 131.082C152.278 131.682 161.889 155.666 161.889 155.666H176.306L187.719 152.668L182.313 139.477C182.313 139.477 175.104 129.883 180.511 122.088C185.917 114.293 159.486 116.692 159.486 116.692Z" fill="black"/>
<path d="M129.451 222.222C129.451 222.222 113.833 252.203 126.447 258.199C139.062 264.195 142.066 263.595 142.066 265.394C142.066 267.193 139.663 266.593 140.864 269.591C142.066 272.589 138.461 284.582 142.066 291.777C145.67 298.972 144.468 304.369 144.468 304.369C144.468 304.369 144.468 304.968 145.67 307.367C146.871 309.765 147.472 311.564 146.871 312.763C146.271 313.962 142.666 321.757 146.271 323.556C149.875 325.355 168.496 326.554 170.299 323.556C172.101 320.558 168.496 318.759 170.299 316.96C172.101 315.161 173.302 314.562 172.101 313.363C170.899 312.163 169.698 297.173 169.698 297.173C169.698 297.173 172.701 279.785 171.5 277.386C170.299 274.988 168.496 272.589 169.698 270.791C170.899 268.992 172.101 269.591 172.701 267.193C173.302 264.794 174.503 259.398 174.503 259.398L181.111 258.798L196.729 261.796C196.729 261.796 214.15 280.984 233.372 286.98C233.372 286.98 238.778 292.376 240.58 292.376C242.383 292.376 242.383 292.376 241.782 293.576C241.181 294.775 239.379 294.775 240.58 295.974C241.782 297.173 243.584 295.374 242.383 297.173C241.181 298.972 239.98 298.972 241.181 300.171C242.383 301.371 240.58 307.966 240.58 308.566C240.58 309.165 235.174 365.528 236.976 366.728C238.778 367.927 264.008 371.525 265.81 366.728C267.612 361.931 264.608 355.935 264.608 355.935C264.608 355.935 273.619 283.982 271.216 279.185C268.813 274.388 260.404 252.802 215.351 239.011C215.351 239.011 202.736 236.613 202.736 234.814C202.736 233.015 201.535 221.623 199.132 221.023C196.729 220.424 182.913 219.824 182.913 219.824L165.493 225.22L141.465 221.023L129.451 222.222Z" fill="#2F2E41"/>
<path d="M150.475 322.956L147.472 333.749C147.472 333.749 145.069 351.138 148.073 355.335C150.432 358.632 154.644 362.669 162.456 363.377C164.645 363.578 166.838 363.026 168.67 361.814C170.503 360.602 171.867 358.802 172.535 356.711C172.625 356.461 172.681 356.2 172.701 355.935C172.701 354.736 170.899 340.345 170.899 340.345L167.896 325.355L167.295 321.158L150.475 322.956Z" fill="#2F2E41"/>
<path d="M238.178 374.523C238.178 374.523 235.174 371.525 234.573 374.523C233.973 377.521 231.57 390.112 235.775 390.712C239.98 391.312 280.227 397.308 284.432 394.909C288.636 392.511 296.446 388.913 291.64 387.114C286.834 385.316 273.018 379.919 273.018 379.919C273.018 379.919 265.209 369.726 264.008 369.126C262.806 368.527 256.199 369.726 253.195 372.124C250.192 374.523 238.178 374.523 238.178 374.523Z" fill="#2F2E41"/>
<path d="M173.903 129.283C184.187 129.283 192.524 120.961 192.524 110.696C192.524 100.43 184.187 92.1078 173.903 92.1078C163.618 92.1078 155.281 100.43 155.281 110.696C155.281 120.961 163.618 129.283 173.903 129.283Z" fill="#A0616A"/>
<path d="M172.101 152.668L164.892 144.873L156.902 129.283C156.902 129.283 151.076 127.485 149.875 130.483C148.673 133.481 127.048 143.074 127.048 143.074C127.048 143.074 132.454 193.441 130.052 198.238C127.649 203.035 123.444 222.222 127.048 224.021C130.652 225.82 147.472 224.021 152.878 226.42C158.284 228.818 173.903 228.818 178.108 225.82C182.312 222.822 183.514 220.424 187.719 222.222C191.299 223.754 199.667 171.399 202.076 155.797C202.279 154.487 202.111 153.146 201.59 151.926C201.069 150.707 200.216 149.657 199.128 148.896C193.738 145.122 184.031 138.619 182.312 139.477C179.91 140.676 172.101 152.668 172.101 152.668Z" fill="#575A89"/>
<path d="M197.931 150.27C199.341 150.622 200.61 151.396 201.567 152.489C202.524 153.582 203.123 154.941 203.283 156.383L208.143 200.037C208.143 200.037 196.129 225.82 190.122 208.432C184.115 191.043 197.931 150.27 197.931 150.27Z" fill="#575A89"/>
<path d="M196.729 204.234L209.945 200.637C209.945 200.637 212.348 217.426 214.75 217.426C217.153 217.426 206.341 227.019 200.934 225.82C195.528 224.621 187.719 220.424 187.118 217.426C186.517 214.428 192.524 201.836 192.524 201.836L196.729 204.234Z" fill="#575A89"/>
<path d="M159.845 118.714C161.111 115.927 160.892 112.676 161.938 109.8C162.499 108.26 163.409 106.87 164.596 105.739C165.784 104.608 167.218 103.766 168.785 103.28C170.353 102.793 172.012 102.675 173.633 102.934C175.254 103.194 176.793 103.824 178.129 104.775C179.476 105.733 180.826 107.08 182.47 106.897C184.24 106.7 185.819 104.729 187.446 105.451C189.25 106.252 188.763 109.479 190.59 110.224C191.552 110.616 192.689 110.012 193.243 109.135C193.729 108.214 193.993 107.192 194.016 106.151C194.268 103.594 194.496 100.887 193.385 98.5694C192.917 97.7837 192.51 96.9639 192.166 96.117C191.972 95.3262 191.894 94.5113 191.935 93.698C191.925 90.6921 191.705 87.5567 190.189 84.9592C188.508 82.0768 185.399 80.2337 182.156 79.4295C178.913 78.6252 175.515 78.7486 172.185 79.0299C166.681 79.4951 160.941 80.4921 156.604 83.9077C156.015 84.3375 155.507 84.8696 155.106 85.4784C154.726 86.2017 154.457 86.9783 154.309 87.7818C153.371 91.593 151.965 95.2739 150.123 98.7409C149.237 100.211 148.513 101.772 147.963 103.397C147.503 105.049 147.534 106.931 148.497 108.35C149.281 109.506 150.534 110.122 151.518 111.067C152.494 112.003 152.95 113.804 154.031 114.513C154.974 115.132 156.104 114.695 157.066 115.351C158.301 116.193 158.39 118.039 159.845 118.714Z" fill="#2F2E41"/>
<path d="M175.104 161.662L176.906 158.064C176.906 158.064 203.337 165.859 208.743 173.055C208.743 173.055 221.959 164.66 229.167 165.859L236.375 167.059L214.15 186.846L185.917 184.447L175.104 161.662Z" fill="#F2F2F2"/>
<path d="M173.903 158.064L149.274 192.242L184.715 209.631C184.715 209.631 188.029 211.429 190.577 209.631L214.15 198.838L236.375 167.059L214.15 178.451C214.15 178.451 211.747 173.654 206.941 176.053L173.903 158.064Z" fill="#386641"/>
<path d="M211.747 218.625L216.553 206.033C216.553 206.033 227.365 192.242 221.358 185.646C215.351 179.051 208.743 204.834 208.743 204.834L211.747 218.625Z" fill="#A0616A"/>
<path d="M156.301 216.615L166.787 208.13C166.787 208.13 183.072 201.615 181.191 192.901C179.31 184.188 160.634 203.182 160.634 203.182L156.301 216.615Z" fill="#A0616A"/>
<path opacity="0.1" d="M130.352 155.966H129.751C129.751 155.966 120.44 144.873 118.638 159.863C116.836 174.854 110.829 224.621 126.447 226.42C142.065 228.219 153.178 218.925 153.178 218.925C153.178 218.925 164.592 201.536 160.387 201.536C158.352 201.536 152.819 200.624 147.772 200.936C142.388 201.27 137.551 202.784 137.861 201.236C138.461 198.238 147.171 160.163 130.352 155.966Z" fill="black"/>
<path d="M129.451 144.274L127.048 143.074C127.048 143.074 117.437 144.873 115.635 159.863C113.833 174.854 107.826 224.621 123.444 226.42C139.062 228.219 160.087 224.021 160.087 224.021C160.087 224.021 164.292 201.236 160.087 201.236C155.882 201.236 134.256 204.234 134.857 201.236C135.458 198.238 146.27 148.471 129.451 144.274Z" fill="#575A89"/>
<path d="M203.037 211.73L209.661 201.596L213.849 218.325L203.037 223.122V211.73Z" fill="#575A89"/>
<path d="M66.9618 67.2241C75.9193 67.2241 83.1807 59.9759 83.1807 51.0347C83.1807 42.0936 75.9193 34.8453 66.9618 34.8453C58.0044 34.8453 50.7429 42.0936 50.7429 51.0347C50.7429 59.9759 58.0044 67.2241 66.9618 67.2241Z" fill="#F2F2F2"/>
<path d="M86.1843 171.556H47.7395V209.931H86.1843V171.556Z" fill="#F2F2F2"/>
<path d="M223.46 0L233.191 16.8232L242.921 33.6463H223.46H204L213.73 16.8232L223.46 0Z" fill="#F2F2F2"/>
<path d="M393 100.871C392.767 108.049 391.016 113.802 387.747 118.13C384.477 122.459 380.592 124.624 376.092 124.624C372.427 124.624 369.215 122.506 366.456 118.269C363.695 114.032 362.315 107.516 362.316 98.7183C362.316 96.7736 362.362 94.9216 362.455 93.1621C362.547 91.403 362.663 89.7361 362.803 88.1615L365.238 65.3117H349.165C346.382 94.2039 344.098 111.393 342.312 116.88C340.525 122.367 337.499 125.11 333.232 125.11C331.305 125.063 329.467 124.294 328.083 122.957C327.28 122.247 326.645 121.368 326.224 120.383C325.803 119.398 325.606 118.332 325.647 117.262C325.647 115.133 327.329 112.158 330.692 108.337C334.055 104.517 335.922 101.033 336.293 97.8849L340.468 65.3117H333.719C331.816 65.323 329.944 65.7873 328.257 66.6659C326.704 67.3777 325.353 68.4636 324.325 69.826L321.333 74.271H318.898C321.17 67.2335 323.965 61.9435 327.283 58.4011C330.598 54.859 334.414 53.088 338.728 53.088H391.887V65.3117H373.935C373.379 70.8679 372.95 76.424 372.648 81.9801C372.346 87.5363 372.195 93.1157 372.196 98.7182C372.196 102.515 373.077 105.594 374.84 107.955C376.602 110.317 378.806 111.498 381.45 111.497C383.073 111.497 384.778 110.838 386.564 109.518C387.412 108.924 388.122 108.154 388.644 107.261C389.166 106.368 389.489 105.373 389.591 104.344C389.73 103.326 389.834 102.527 389.904 101.948C389.973 101.369 390.008 101.011 390.008 100.871L393 100.871Z" fill="#386641"/>
<path opacity="0.1" d="M393 100.871C392.767 108.049 391.016 113.802 387.747 118.13C384.477 122.459 380.592 124.624 376.092 124.624C372.427 124.624 369.215 122.506 366.456 118.269C363.695 114.032 362.315 107.516 362.316 98.7183C362.316 96.7736 362.362 94.9216 362.455 93.1621C362.547 91.403 362.663 89.7361 362.803 88.1615L365.238 65.3117H349.165C346.382 94.2039 344.098 111.393 342.312 116.88C340.525 122.367 337.499 125.11 333.232 125.11C331.305 125.063 329.467 124.294 328.083 122.957C327.28 122.247 326.645 121.368 326.224 120.383C325.803 119.398 325.606 118.332 325.647 117.262C325.647 115.133 327.329 112.158 330.692 108.337C334.055 104.517 335.922 101.033 336.293 97.8849L340.468 65.3117H333.719C331.816 65.323 329.944 65.7873 328.257 66.6659C326.704 67.3777 325.353 68.4636 324.325 69.826L321.333 74.271H318.898C321.17 67.2335 323.965 61.9435 327.283 58.4011C330.598 54.859 334.414 53.088 338.728 53.088H391.887V65.3117H373.935C373.379 70.8679 372.95 76.424 372.648 81.9801C372.346 87.5363 372.195 93.1157 372.196 98.7182C372.196 102.515 373.077 105.594 374.84 107.955C376.602 110.317 378.806 111.498 381.45 111.497C383.073 111.497 384.778 110.838 386.564 109.518C387.412 108.924 388.122 108.154 388.644 107.261C389.166 106.368 389.489 105.373 389.591 104.344C389.73 103.326 389.834 102.527 389.904 101.948C389.973 101.369 390.008 101.011 390.008 100.871L393 100.871Z" fill="black"/>
<path d="M393 98.7014C392.767 105.879 391.016 111.632 387.747 115.96C384.477 120.289 380.592 122.454 376.092 122.454C372.427 122.454 369.215 120.336 366.456 116.099C363.695 111.863 362.315 105.346 362.316 96.5484C362.316 94.6037 362.362 92.7516 362.455 90.9921C362.547 89.233 362.663 87.5662 362.803 85.9916L365.238 63.1417H349.165C346.382 92.0339 344.098 109.223 342.312 114.71C340.525 120.197 337.499 122.94 333.232 122.94C331.305 122.893 329.467 122.124 328.083 120.787C327.28 120.077 326.645 119.198 326.224 118.213C325.803 117.228 325.606 116.162 325.647 115.092C325.647 112.963 327.329 109.988 330.692 106.167C334.055 102.348 335.922 98.8634 336.293 95.715L340.468 63.1418H333.719C331.816 63.1531 329.944 63.6173 328.257 64.496C326.704 65.2078 325.353 66.2937 324.325 67.6561L321.333 72.101H318.898C321.17 65.0636 323.965 59.7736 327.283 56.2312C330.598 52.6891 334.414 50.9181 338.728 50.9181H391.887V63.1417H373.935C373.379 68.698 372.95 74.2541 372.648 79.8103C372.346 85.3665 372.195 90.9458 372.196 96.5483C372.196 100.345 373.077 103.425 374.84 105.786C376.602 108.147 378.806 109.328 381.45 109.328C383.073 109.328 384.778 108.668 386.564 107.348C387.412 106.754 388.122 105.984 388.644 105.091C389.166 104.198 389.489 103.203 389.591 102.174C389.73 101.156 389.834 100.357 389.904 99.7779C389.973 99.1995 390.008 98.8406 390.008 98.7014H393Z" fill="#386641"/>
</svg>
