<svg width="20" height="20" viewBox="0 0 20 20" fill="none" xmlns="http://www.w3.org/2000/svg">
<path fill-rule="evenodd" clip-rule="evenodd" d="M12.9456 5.30667H7.00067C6.05178 5.30667 5.27978 6.07867 5.27978 7.02756V12.9724C5.27978 13.9213 6.05178 14.6936 7.00067 14.6936H12.9456C13.8944 14.6936 14.6667 13.9216 14.6667 12.9724V7.02756C14.6667 6.07867 13.8947 5.30667 12.9456 5.30667ZM9.97311 13.0902C8.26933 13.0902 6.88311 11.704 6.88311 10C6.88311 8.29623 8.26933 6.91 9.97311 6.91C11.6771 6.91 13.0633 8.29623 13.0633 10C13.0633 11.7038 11.6769 13.0902 9.97311 13.0902ZM12.4313 6.81778C12.4313 7.22089 12.7593 7.54889 13.1627 7.54889C13.5658 7.54889 13.8938 7.22089 13.8938 6.81778C13.8938 6.41467 13.5658 6.08667 13.1627 6.08667C12.7593 6.08667 12.4313 6.41467 12.4313 6.81778Z" fill="#9DAFBD"/>
<path d="M9.97311 8.21579C8.98956 8.21579 8.18867 9.01623 8.18867 9.99979C8.18867 10.9838 8.98956 11.7845 9.97311 11.7845C10.9571 11.7845 11.7573 10.9838 11.7573 9.99979C11.7573 9.01646 10.9569 8.21579 9.97311 8.21579Z" fill="#9DAFBD"/>
<path fill-rule="evenodd" clip-rule="evenodd" d="M0 9.97311C0 4.46533 4.46533 0 9.97311 0C15.4809 0 19.9462 4.46533 19.9462 9.97311C19.9462 15.4809 15.4809 19.9462 9.97311 19.9462C4.46533 19.9462 0 15.4809 0 9.97311ZM12.9456 15.9991C14.6147 15.9991 15.9722 14.6416 15.9722 12.9724V7.02756C15.9722 5.35867 14.6147 4.00089 12.9456 4.00089H7.00067C5.33178 4.00089 3.974 5.35867 3.974 7.02756V12.9724C3.974 14.6416 5.33178 15.9991 7.00067 15.9991H12.9456Z" fill="#9DAFBD"/>
</svg>
