<svg width="20" height="20" viewBox="0 0 20 20" fill="none" xmlns="http://www.w3.org/2000/svg">
<path d="M9.92902 19.8581C15.4126 19.8581 19.8579 15.4128 19.8579 9.92922C19.8579 4.44566 15.4126 0.000366211 9.92902 0.000366211C4.44547 0.000366211 0.000175476 4.44566 0.000175476 9.92922C0.000175476 15.4128 4.44547 19.8581 9.92902 19.8581Z" fill="#9DAFBD"/>
<path d="M10.7304 13.296C9.97982 13.2379 9.66442 12.8657 9.07575 12.5083C8.75221 14.2059 8.35681 15.8331 7.18566 16.6832C6.82371 14.1175 7.71628 12.1905 8.13079 10.145C7.42424 8.9556 8.21575 6.56162 9.70601 7.15153C11.5402 7.87684 8.11805 11.574 10.4154 12.0358C12.8138 12.5179 13.7929 7.87419 12.3055 6.36374C10.1565 4.18304 6.05009 6.31419 6.55504 9.43596C6.67805 10.1991 7.46672 10.4308 6.87009 11.4839C5.49469 11.1793 5.08442 10.0945 5.13717 8.64834C5.2223 6.28109 7.26425 4.62357 9.31239 4.39419C11.9027 4.10427 14.3338 5.34534 14.6694 7.7818C15.0469 10.5317 13.5 13.5098 10.7304 13.296Z" fill="white"/>
</svg>
