<svg width="20" height="20" viewBox="0 0 20 20" fill="none" xmlns="http://www.w3.org/2000/svg">
<path d="M9.92885 19.8577C15.4124 19.8577 19.8577 15.4124 19.8577 9.92885C19.8577 4.4453 15.4124 0 9.92885 0C4.4453 0 0 4.4453 0 9.92885C0 15.4124 4.4453 19.8577 9.92885 19.8577Z" fill="#9DAFBD"/>
<path d="M16.5678 7.11292C16.1423 7.30159 15.6846 7.4292 15.2046 7.48619C15.6947 7.19257 16.0708 6.72796 16.2483 6.17345C15.7897 6.44549 15.2816 6.64283 14.7412 6.7492C14.3083 6.28814 13.6915 6 13.0085 6C11.6981 6 10.6352 7.06283 10.6352 8.37327C10.6352 8.55929 10.6563 8.74035 10.697 8.91416C8.7246 8.81522 6.97575 7.87044 5.80513 6.43416C5.60088 6.7846 5.48372 7.19257 5.48372 7.62743C5.48372 8.45062 5.90301 9.17735 6.53947 9.60283C6.15062 9.59062 5.78442 9.48389 5.4646 9.30566C5.46442 9.31575 5.46442 9.32584 5.46442 9.33575C5.46442 10.4857 6.28283 11.4448 7.36832 11.6627C7.16938 11.7172 6.95929 11.746 6.74319 11.746C6.58991 11.746 6.44142 11.7313 6.29664 11.7037C6.59858 12.6464 7.47487 13.3326 8.51363 13.3519C7.70124 13.9885 6.67805 14.3678 5.56584 14.3678C5.37469 14.3678 5.18531 14.3566 5 14.3345C6.04973 15.0081 7.29752 15.4009 8.6377 15.4009C13.003 15.4009 15.3903 11.7846 15.3903 8.64814C15.3903 8.54531 15.388 8.44283 15.3834 8.34124C15.8474 8.00673 16.2497 7.58885 16.5678 7.11292Z" fill="white"/>
</svg>
