<svg width="20" height="20" viewBox="0 0 20 20" fill="none" xmlns="http://www.w3.org/2000/svg">
<path d="M9.92885 19.8577C15.4124 19.8577 19.8577 15.4124 19.8577 9.92885C19.8577 4.4453 15.4124 0 9.92885 0C4.4453 0 0 4.4453 0 9.92885C0 15.4124 4.4453 19.8577 9.92885 19.8577Z" fill="#9DAFBD"/>
<path fill-rule="evenodd" clip-rule="evenodd" d="M9.55381 14.2835H10.3331C10.3331 14.2835 10.5685 14.2577 10.6887 14.1281C10.7993 14.0092 10.7958 13.7858 10.7958 13.7858C10.7958 13.7858 10.7805 12.7402 11.2658 12.5862C11.7442 12.4345 12.3586 13.5968 13.0097 14.0437C13.5021 14.382 13.8763 14.3078 13.8763 14.3078L15.6173 14.2835C15.6173 14.2835 16.5281 14.2274 16.0963 13.5113C16.0609 13.4527 15.8448 12.9816 14.8018 12.0135C13.7101 11.0002 13.8563 11.1641 15.1713 9.41133C15.9722 8.3439 16.2924 7.69222 16.1924 7.4131C16.097 7.14726 15.508 7.21753 15.508 7.21753L13.5476 7.22974C13.5476 7.22974 13.4023 7.20992 13.2945 7.27434C13.1892 7.33753 13.1214 7.48478 13.1214 7.48478C13.1214 7.48478 12.8112 8.3108 12.3973 9.01328C11.5244 10.4956 11.1754 10.5738 11.0327 10.4818C10.7009 10.2673 10.7837 9.62 10.7837 9.16018C10.7837 7.72372 11.0016 7.12478 10.3595 6.96974C10.1464 6.91823 9.98956 6.88425 9.4446 6.87877C8.74513 6.87151 8.1531 6.88089 7.81788 7.04514C7.59487 7.15434 7.42283 7.3977 7.52761 7.41169C7.65717 7.42903 7.95062 7.4908 8.1062 7.70266C8.30708 7.97593 8.3 8.58974 8.3 8.58974C8.3 8.58974 8.4154 10.2807 8.03044 10.4908C7.7662 10.6349 7.40372 10.3407 6.62549 8.99593C6.22673 8.30708 5.92567 7.54567 5.92567 7.54567C5.92567 7.54567 5.86761 7.40337 5.76407 7.32726C5.63841 7.23505 5.46283 7.20567 5.46283 7.20567L3.6 7.21788C3.6 7.21788 3.32036 7.22567 3.2177 7.34726C3.12637 7.4554 3.21044 7.67912 3.21044 7.67912C3.21044 7.67912 4.66885 11.0912 6.32018 12.8106C7.83434 14.3871 9.55381 14.2835 9.55381 14.2835Z" fill="white"/>
</svg>
