<svg width="119" height="100" viewBox="0 0 119 100" fill="none" xmlns="http://www.w3.org/2000/svg">
<path d="M55.8946 100C81.8502 100 102.891 98.9186 102.891 97.5845C102.891 96.2505 81.8502 95.169 55.8946 95.169C29.939 95.169 8.89783 96.2505 8.89783 97.5845C8.89783 98.9186 29.939 100 55.8946 100Z" fill="#F2F2F2"/>
<path d="M83.3521 23.2083H82.8182V8.50811C82.8182 6.25162 81.9264 4.08755 80.3389 2.49197C78.7514 0.896395 76.5983 6.30603e-06 74.3532 3.81471e-06H43.3665C41.1215 -4.56123e-07 38.9683 0.89638 37.3808 2.49195C35.7933 4.08753 34.9015 6.25159 34.9015 8.50808V89.1547C34.9015 91.4112 35.7933 93.5753 37.3808 95.1709C38.9683 96.7665 41.1214 97.6628 43.3665 97.6628H74.3532C76.5983 97.6628 78.7514 96.7665 80.3389 95.1709C81.9264 93.5753 82.8182 91.4113 82.8182 89.1548V33.6722H83.3521L83.3521 23.2083Z" fill="#3F3D56"/>
<path d="M81.0165 8.56747V89.0955C81.0165 90.7807 80.3505 92.3968 79.1649 93.5884C77.9793 94.78 76.3713 95.4495 74.6947 95.4495H43.5593C41.8826 95.4495 40.2747 94.78 39.0891 93.5884C37.9035 92.3968 37.2375 90.7807 37.2374 89.0955V8.56747C37.2375 6.88228 37.9035 5.26613 39.0891 4.07452C40.2747 2.88291 41.8826 2.21346 43.5593 2.21342H47.3364C47.1508 2.67182 47.0801 3.16904 47.1306 3.66134C47.181 4.15364 47.3511 4.62593 47.6258 5.03667C47.9005 5.44741 48.2714 5.78402 48.7058 6.01688C49.1403 6.24973 49.6251 6.37171 50.1175 6.37207H67.8695C68.3618 6.3717 68.8466 6.24973 69.2811 6.01687C69.7156 5.78401 70.0865 5.4474 70.3612 5.03666C70.6358 4.62592 70.8059 4.15363 70.8564 3.66134C70.9068 3.16904 70.8361 2.67182 70.6505 2.21342H74.6947C76.3713 2.21346 77.9793 2.88291 79.1649 4.07452C80.3504 5.26613 81.0165 6.88228 81.0165 8.56747V8.56747Z" fill="white"/>
<path d="M70.9862 43.2908C70.7792 43.3995 70.5687 43.5023 70.3546 43.5994C70.1597 43.688 69.9616 43.7712 69.7605 43.849C69.687 43.8772 69.6123 43.9054 69.5375 43.9336C68.9464 44.149 68.3392 44.3173 67.7218 44.4368C67.416 44.4972 67.1062 44.5446 66.7925 44.579C66.5335 44.6085 66.2718 44.6296 66.0075 44.6421C65.8192 44.6515 65.6309 44.6555 65.4413 44.6555C64.6905 44.6558 63.9414 44.5853 63.2037 44.4448C63.0114 44.4099 62.8231 44.3683 62.6349 44.3227C61.7243 44.1034 60.8427 43.7763 60.0087 43.3485C59.9339 43.3109 59.8591 43.2706 59.7843 43.2317C59.6735 43.1727 59.5654 43.1109 59.4573 43.0465C59.5093 42.9741 59.5654 42.9029 59.6228 42.8332C60.2475 42.055 61.0284 41.4179 61.9146 40.9633C62.8007 40.5088 63.7722 40.247 64.7657 40.1951C65.7592 40.1432 66.7525 40.3023 67.6807 40.6621C68.609 41.0218 69.4514 41.5741 70.153 42.283C70.3966 42.5286 70.6223 42.7914 70.8286 43.0693C70.8833 43.1418 70.9354 43.2156 70.9862 43.2908Z" fill="#386641"/>
<path d="M65.7078 37.3961C68.9456 37.3961 71.5704 34.7579 71.5704 31.5037C71.5704 28.2494 68.9456 25.6113 65.7078 25.6113C62.47 25.6113 59.8453 28.2494 59.8453 31.5037C59.8453 34.7579 62.47 37.3961 65.7078 37.3961Z" fill="#2F2E41"/>
<path d="M67.2671 37.4044C69.3816 36.2426 70.1587 33.5779 69.0028 31.4527C67.8469 29.3274 65.1958 28.5464 63.0813 29.7081C60.9668 30.8699 60.1897 33.5346 61.3455 35.6598C62.5014 37.7851 65.1526 38.5661 67.2671 37.4044Z" fill="#A0616A"/>
<path d="M69.759 30.7978C68.7619 31.4885 67.5785 31.8561 66.3675 31.8512C66.7995 32.1523 67.2912 32.3556 67.8089 32.4472C66.1988 32.7944 64.5348 32.8038 62.921 32.4749C62.5622 32.417 62.2161 32.2975 61.8977 32.1216C61.7391 32.0326 61.6009 31.911 61.492 31.7647C61.3832 31.6184 61.3063 31.4508 61.2661 31.2726C61.1589 30.6569 61.6363 30.0974 62.1324 29.7204C62.8919 29.152 63.7677 28.7603 64.6963 28.5738C65.625 28.3873 66.5833 28.4106 67.5018 28.642C68.1016 28.7978 68.7025 29.0611 69.0921 29.5452C69.4817 30.0294 69.5971 30.7758 69.2259 31.2743L69.759 30.7978Z" fill="#2F2E41"/>
<path d="M65.4413 20.5007C62.8207 20.5003 60.2719 21.3611 58.1833 22.9519C56.0946 24.5427 54.5808 26.7763 53.8724 29.3121C53.164 31.848 53.3 34.5471 54.2596 36.9981C55.2192 39.4491 56.9498 41.5175 59.1876 42.8882L59.265 42.9338C59.3291 42.9727 59.3932 43.0103 59.4573 43.0465C59.5654 43.1109 59.6735 43.1727 59.7843 43.2317C59.8591 43.2706 59.9339 43.3109 60.0087 43.3484C60.8427 43.7763 61.7243 44.1033 62.6349 44.3227C62.8231 44.3683 63.0114 44.4099 63.2037 44.4448C63.9414 44.5853 64.6905 44.6558 65.4413 44.6555C65.6309 44.6555 65.8192 44.6515 66.0075 44.6421C66.2718 44.63 66.5335 44.609 66.7925 44.579C67.1063 44.5441 67.416 44.4967 67.7218 44.4368C68.3392 44.3173 68.9464 44.149 69.5376 43.9335C69.6123 43.9053 69.687 43.8772 69.7605 43.849C69.9621 43.7712 70.1601 43.688 70.3546 43.5994C70.5682 43.5028 70.7788 43.3999 70.9862 43.2907C73.0646 42.1967 74.7825 40.5199 75.9315 38.4638C75.9368 38.4531 75.9435 38.4423 75.9489 38.4316C76.5618 37.3261 76.9967 36.1299 77.2373 34.8876C77.575 33.1387 77.5238 31.3364 77.0874 29.6097C76.651 27.883 75.8402 26.2747 74.7129 24.8998C73.5857 23.525 72.1699 22.4177 70.5671 21.6572C68.9642 20.8966 67.2138 20.5017 65.4413 20.5007H65.4413ZM75.7299 38.2746C75.7192 38.2934 75.7099 38.3122 75.6992 38.3296C74.5732 40.3554 72.8794 42.0036 70.8286 43.0693C70.6243 43.1767 70.4165 43.2773 70.2051 43.3713C70.0302 43.4504 69.8513 43.5256 69.671 43.5954C69.5949 43.6249 69.5175 43.6544 69.4401 43.6812C68.9294 43.8687 68.406 44.0194 67.874 44.1321C67.4793 44.2166 67.0804 44.2798 66.679 44.3213C66.432 44.3482 66.181 44.367 65.9286 44.3764C65.7671 44.3831 65.6042 44.3871 65.4413 44.3871C64.7147 44.388 63.9897 44.3201 63.2758 44.1845C62.8414 44.104 62.4121 43.9982 61.99 43.8678C61.3469 43.6681 60.7221 43.4135 60.1222 43.1069C60.0527 43.0707 59.9833 43.0344 59.9152 42.9969C59.8177 42.9445 59.7189 42.8908 59.6228 42.8331C59.5507 42.7929 59.4786 42.7499 59.4078 42.707C59.3665 42.6828 59.3251 42.6574 59.2837 42.6319C57.3216 41.4208 55.7565 39.6574 54.7825 37.5605C53.8085 35.4635 53.4685 33.1253 53.8046 30.8359C54.1407 28.5465 55.1381 26.4067 56.6732 24.6818C58.2083 22.957 60.2134 21.7231 62.4399 21.1333C64.6663 20.5434 67.016 20.6235 69.1976 21.3636C71.3791 22.1038 73.2965 23.4714 74.7117 25.2968C76.127 27.1222 76.9779 29.3251 77.1589 31.6321C77.3399 33.9391 76.843 36.2488 75.7299 38.2746H75.7299Z" fill="#3F3D56"/>
<path d="M62.739 25.6926C62.6759 25.0259 61.8633 24.6155 61.2279 24.8169C60.5924 25.0183 60.1752 25.6613 60.0491 26.3189C59.9885 26.5958 59.9828 26.8821 60.0324 27.1612C60.082 27.4404 60.1859 27.707 60.3382 27.9457C60.6594 28.4103 61.2497 28.7002 61.8002 28.5823C62.4287 28.4476 62.8641 27.8309 62.9887 27.1973C63.1132 26.5637 62.9895 25.9104 62.866 25.2766L62.739 25.6926Z" fill="#2F2E41"/>
<path d="M71.682 26.645C71.619 25.9783 70.8064 25.5679 70.1709 25.7693C69.5355 25.9707 69.1183 26.6137 68.9922 27.2713C68.9315 27.5482 68.9258 27.8345 68.9754 28.1136C69.025 28.3928 69.129 28.6594 69.2813 28.898C69.6025 29.3627 70.1927 29.6526 70.7433 29.5347C71.3717 29.4 71.8071 28.7833 71.9317 28.1497C72.0563 27.5161 71.9326 26.8628 71.8091 26.229L71.682 26.645Z" fill="#2F2E41"/>
<path d="M44.6715 37.4048C44.5884 37.4048 44.5061 37.3872 44.4301 37.3534C44.3541 37.3196 44.286 37.2702 44.23 37.2083L37.6048 29.944C37.5296 29.8618 37.4383 29.7961 37.3366 29.7511C37.2348 29.7061 37.125 29.6828 37.0138 29.6827H2.00394C1.47265 29.6821 0.963283 29.4697 0.5876 29.0921C0.211917 28.7145 0.00059651 28.2026 0 27.6686V14.9789C0.000596157 14.4449 0.211917 13.933 0.5876 13.5554C0.963283 13.1778 1.47265 12.9654 2.00394 12.9648H47.3619C47.8932 12.9654 48.4025 13.1778 48.7782 13.5554C49.1539 13.933 49.3652 14.4449 49.3658 14.9789V27.6686C49.3652 28.2026 49.1539 28.7145 48.7782 29.0921C48.4025 29.4697 47.8932 29.6821 47.3619 29.6827H46.076C45.8634 29.6829 45.6596 29.7679 45.5093 29.919C45.359 30.0701 45.2745 30.2749 45.2743 30.4885V36.8001C45.2748 36.9219 45.2384 37.041 45.17 37.1416C45.1015 37.2422 45.0042 37.3194 44.8911 37.3631C44.8211 37.3906 44.7466 37.4048 44.6715 37.4048V37.4048Z" fill="white"/>
<path d="M44.6715 37.4048C44.5884 37.4048 44.5061 37.3872 44.4301 37.3534C44.3541 37.3196 44.286 37.2702 44.23 37.2083L37.6048 29.944C37.5296 29.8618 37.4383 29.7961 37.3366 29.7511C37.2348 29.7061 37.125 29.6828 37.0138 29.6827H2.00394C1.47265 29.6821 0.963283 29.4697 0.5876 29.0921C0.211917 28.7145 0.00059651 28.2026 0 27.6686V14.9789C0.000596157 14.4449 0.211917 13.933 0.5876 13.5554C0.963283 13.1778 1.47265 12.9654 2.00394 12.9648H47.3619C47.8932 12.9654 48.4025 13.1778 48.7782 13.5554C49.1539 13.933 49.3652 14.4449 49.3658 14.9789V27.6686C49.3652 28.2026 49.1539 28.7145 48.7782 29.0921C48.4025 29.4697 47.8932 29.6821 47.3619 29.6827H46.076C45.8634 29.6829 45.6596 29.7679 45.5093 29.919C45.359 30.0701 45.2745 30.2749 45.2743 30.4885V36.8001C45.2748 36.9219 45.2384 37.041 45.17 37.1416C45.1015 37.2422 45.0042 37.3194 44.8911 37.3631C44.8211 37.3906 44.7466 37.4048 44.6715 37.4048V37.4048ZM2.00394 13.2332C1.54344 13.2337 1.10195 13.4178 0.776331 13.7451C0.450709 14.0723 0.267547 14.5161 0.267027 14.9789V27.6686C0.267548 28.1314 0.450711 28.5751 0.776333 28.9024C1.10196 29.2297 1.54344 29.4138 2.00394 29.4143H37.0138C37.162 29.4145 37.3085 29.4455 37.444 29.5055C37.5796 29.5654 37.7014 29.653 37.8016 29.7626L44.4268 37.027C44.4723 37.0768 44.5317 37.1117 44.5973 37.1271C44.6629 37.1424 44.7315 37.1375 44.7942 37.113C44.857 37.0885 44.9109 37.0455 44.9489 36.9896C44.9869 36.9338 45.0072 36.8677 45.0072 36.8001V30.4885C45.0075 30.2037 45.1202 29.9307 45.3206 29.7293C45.521 29.5279 45.7926 29.4146 46.076 29.4143H47.3619C47.8224 29.4138 48.2639 29.2297 48.5895 28.9024C48.9151 28.5751 49.0983 28.1314 49.0988 27.6686V14.9789C49.0983 14.5161 48.9151 14.0723 48.5895 13.7451C48.2639 13.4178 47.8224 13.2337 47.3619 13.2332H2.00394Z" fill="#3F3D56"/>
<path d="M4.91545 18.5626C5.8839 18.5626 6.66898 17.7735 6.66898 16.8001C6.66898 15.8268 5.8839 15.0377 4.91545 15.0377C3.94701 15.0377 3.16193 15.8268 3.16193 16.8001C3.16193 17.7735 3.94701 18.5626 4.91545 18.5626Z" fill="#386641"/>
<path d="M45.3161 26.5523H4.04974C3.92683 26.5525 3.8051 26.5283 3.6915 26.4811C3.57791 26.4339 3.47468 26.3647 3.38772 26.2774C3.30076 26.1901 3.23177 26.0864 3.1847 25.9723C3.13763 25.8582 3.1134 25.7359 3.1134 25.6124C3.1134 25.4888 3.13763 25.3665 3.1847 25.2524C3.23177 25.1383 3.30076 25.0346 3.38772 24.9473C3.47468 24.86 3.57791 24.7908 3.6915 24.7436C3.8051 24.6964 3.92683 24.6722 4.04974 24.6724H45.3161C45.5639 24.6727 45.8015 24.7718 45.9767 24.9481C46.1518 25.1243 46.2502 25.3633 46.2502 25.6124C46.2502 25.8615 46.1518 26.1004 45.9767 26.2766C45.8015 26.4529 45.5639 26.552 45.3161 26.5523V26.5523Z" fill="#E6E6E6"/>
<path d="M31.8724 22.5575H4.04974C3.92683 22.5576 3.8051 22.5334 3.6915 22.4862C3.57791 22.4391 3.47468 22.3698 3.38772 22.2825C3.30076 22.1952 3.23177 22.0916 3.1847 21.9775C3.13763 21.8633 3.1134 21.741 3.1134 21.6175C3.1134 21.4939 3.13763 21.3716 3.1847 21.2575C3.23177 21.1434 3.30076 21.0397 3.38772 20.9524C3.47468 20.8651 3.57791 20.7959 3.6915 20.7487C3.8051 20.7016 3.92683 20.6774 4.04974 20.6775H31.8724C32.1204 20.6775 32.3583 20.7765 32.5337 20.9528C32.7091 21.1291 32.8076 21.3682 32.8076 21.6175C32.8076 21.8668 32.7091 22.1059 32.5337 22.2821C32.3583 22.4584 32.1204 22.5575 31.8724 22.5575Z" fill="#E6E6E6"/>
<path d="M74.1089 80.4391C73.9957 80.3954 73.8985 80.3181 73.83 80.2176C73.7616 80.117 73.7252 79.9979 73.7257 79.876V73.5645C73.7255 73.3509 73.6409 73.1461 73.4906 72.995C73.3403 72.8439 73.1366 72.7589 72.924 72.7587H71.6381C71.1068 72.7581 70.5974 72.5457 70.2217 72.1681C69.8461 71.7905 69.6348 71.2785 69.6342 70.7445V58.0549C69.6348 57.5209 69.8461 57.009 70.2217 56.6314C70.5974 56.2538 71.1068 56.0414 71.6381 56.0408H116.996C117.527 56.0414 118.037 56.2538 118.412 56.6314C118.788 57.009 118.999 57.5209 119 58.0549V70.7445C118.999 71.2785 118.788 71.7905 118.412 72.1681C118.037 72.5457 117.527 72.7581 116.996 72.7587H81.9861C81.875 72.7588 81.7651 72.7821 81.6634 72.8271C81.5617 72.8721 81.4704 72.9378 81.3952 73.02L74.77 80.2843C74.714 80.3461 74.6459 80.3955 74.5698 80.4294C74.4938 80.4632 74.4116 80.4807 74.3285 80.4808C74.2533 80.4807 74.1789 80.4666 74.1089 80.4391V80.4391Z" fill="white"/>
<path d="M74.1089 80.4391C73.9957 80.3954 73.8985 80.3181 73.83 80.2176C73.7616 80.117 73.7252 79.9979 73.7257 79.876V73.5645C73.7255 73.3509 73.6409 73.1461 73.4906 72.995C73.3403 72.8439 73.1366 72.7589 72.924 72.7587H71.6381C71.1068 72.7581 70.5974 72.5457 70.2217 72.1681C69.8461 71.7905 69.6348 71.2785 69.6342 70.7445V58.0549C69.6348 57.5209 69.8461 57.009 70.2217 56.6314C70.5974 56.2538 71.1068 56.0414 71.6381 56.0408H116.996C117.527 56.0414 118.037 56.2538 118.412 56.6314C118.788 57.009 118.999 57.5209 119 58.0549V70.7445C118.999 71.2785 118.788 71.7905 118.412 72.1681C118.037 72.5457 117.527 72.7581 116.996 72.7587H81.9861C81.875 72.7588 81.7651 72.7821 81.6634 72.8271C81.5617 72.8721 81.4704 72.9378 81.3952 73.02L74.77 80.2843C74.714 80.3461 74.6459 80.3955 74.5698 80.4294C74.4938 80.4632 74.4116 80.4807 74.3285 80.4808C74.2533 80.4807 74.1789 80.4666 74.1089 80.4391V80.4391ZM71.6381 56.3092C71.1776 56.3097 70.7361 56.4938 70.4105 56.8211C70.0849 57.1483 69.9017 57.5921 69.9012 58.0549V70.7446C69.9017 71.2074 70.0849 71.6511 70.4105 71.9784C70.7361 72.3057 71.1776 72.4898 71.6381 72.4903H72.924C73.2074 72.4906 73.479 72.6039 73.6794 72.8053C73.8797 73.0067 73.9924 73.2797 73.9927 73.5645V79.876C73.9927 79.9437 74.0131 80.0098 74.0511 80.0656C74.0891 80.1215 74.143 80.1645 74.2057 80.189C74.2685 80.2135 74.3371 80.2184 74.4027 80.2031C74.4682 80.1877 74.5277 80.1528 74.5731 80.1029L81.1984 72.8386C81.2986 72.729 81.4203 72.6414 81.5559 72.5815C81.6915 72.5215 81.838 72.4905 81.9862 72.4903H116.996C117.457 72.4898 117.898 72.3057 118.224 71.9784C118.549 71.6511 118.732 71.2074 118.733 70.7445V58.0549C118.732 57.5921 118.549 57.1483 118.224 56.8211C117.898 56.4938 117.457 56.3097 116.996 56.3092H71.6381Z" fill="#3F3D56"/>
<path d="M59.9713 84.3687C58.1112 85.5658 55.9562 86.2186 53.7478 86.2539C51.5393 86.2892 49.3647 85.7057 47.4677 84.5686C47.8014 83.9442 48.2243 83.3723 48.7228 82.8711C49.492 82.0943 50.4281 81.505 51.4592 81.1486C52.4904 80.7922 53.589 80.6781 54.6709 80.8151C55.7527 80.952 56.789 81.3364 57.6999 81.9387C58.6109 82.541 59.3724 83.3452 59.9259 84.2895C59.9405 84.315 59.9566 84.3418 59.9713 84.3687Z" fill="#386641"/>
<path d="M53.1975 77.9515C56.4568 77.9515 59.099 75.2959 59.099 72.0199C59.099 68.744 56.4568 66.0884 53.1975 66.0884C49.9382 66.0884 47.296 68.744 47.296 72.0199C47.296 75.2959 49.9382 77.9515 53.1975 77.9515Z" fill="#2F2E41"/>
<path d="M57.5888 76.2037C58.7524 74.0643 57.9701 71.382 55.8415 70.2125C53.713 69.043 51.0442 69.8292 49.8806 71.9686C48.7171 74.108 49.4993 76.7904 51.6279 77.9599C53.7564 79.1294 56.4252 78.3431 57.5888 76.2037Z" fill="#FFB8B8"/>
<path d="M49.1194 71.3093C50.1231 72.0046 51.3144 72.3747 52.5334 72.3698C52.0986 72.6728 51.6036 72.8775 51.0825 72.9698C52.7032 73.3192 54.3783 73.3287 56.0029 72.9976C56.364 72.9394 56.7124 72.8191 57.0329 72.642C57.1926 72.5524 57.3318 72.4299 57.4413 72.2827C57.5509 72.1354 57.6283 71.9667 57.6687 71.7874C57.7767 71.1675 57.2961 70.6044 56.7967 70.2248C56.0321 69.6526 55.1505 69.2584 54.2157 69.0706C53.2809 68.8829 52.3163 68.9063 51.3916 69.1392C50.7878 69.2961 50.1829 69.5612 49.7907 70.0485C49.3986 70.5359 49.2824 71.2872 49.656 71.7891L49.1194 71.3093Z" fill="#2F2E41"/>
<path d="M53.5586 86.3896C50.6684 86.3887 47.8754 85.3405 45.6919 83.4372C43.5084 81.5339 42.0809 78.9031 41.6712 76.0275C41.2615 73.1519 41.897 70.2242 43.4613 67.7815C45.0256 65.3388 47.4136 63.5448 50.1875 62.7286C52.9613 61.9125 55.9349 62.1289 58.5628 63.3381C61.1907 64.5474 63.2968 66.6684 64.4946 69.3121C65.6925 71.9558 65.9018 74.945 65.0842 77.7313C64.2667 80.5176 62.477 82.9142 60.0435 84.4815C58.1083 85.7287 55.8575 86.391 53.5586 86.3896V86.3896ZM53.5586 62.5032C51.2346 62.503 48.9626 63.1955 47.0301 64.4931C45.0976 65.7907 43.5914 67.6352 42.7019 69.7933C41.8124 71.9513 41.5796 74.3261 42.033 76.6171C42.4863 78.9081 43.6054 81.0126 45.2488 82.6643C46.8922 84.3161 48.986 85.4409 51.2654 85.8966C53.5449 86.3522 55.9076 86.1183 58.0547 85.2242C60.2018 84.3302 62.037 82.8163 63.328 80.874C64.6191 78.9316 65.3081 76.6481 65.3078 74.3122C65.3043 71.1814 64.0653 68.1797 61.8627 65.9659C59.6601 63.752 56.6736 62.5068 53.5586 62.5032V62.5032Z" fill="#3F3D56"/>
<path d="M75.2771 61.5044C76.2455 61.5044 77.0306 60.7153 77.0306 59.7419C77.0306 58.7685 76.2455 57.9795 75.2771 57.9795C74.3086 57.9795 73.5236 58.7685 73.5236 59.7419C73.5236 60.7153 74.3086 61.5044 75.2771 61.5044Z" fill="#386641"/>
<path d="M115.678 69.4942H74.4114C74.2885 69.4943 74.1667 69.4701 74.0531 69.4229C73.9395 69.3758 73.8363 69.3066 73.7493 69.2193C73.6624 69.132 73.5934 69.0283 73.5463 68.9142C73.4993 68.8001 73.475 68.6777 73.475 68.5542C73.475 68.4307 73.4993 68.3083 73.5463 68.1942C73.5934 68.0801 73.6624 67.9764 73.7493 67.8891C73.8363 67.8018 73.9395 67.7326 74.0531 67.6854C74.1667 67.6383 74.2885 67.6141 74.4114 67.6142H115.678C115.926 67.6142 116.164 67.7132 116.339 67.8895C116.514 68.0658 116.613 68.3049 116.613 68.5542C116.613 68.8035 116.514 69.0426 116.339 69.2189C116.164 69.3951 115.926 69.4942 115.678 69.4942Z" fill="#E6E6E6"/>
<path d="M102.234 65.4993H74.4114C74.2885 65.4994 74.1667 65.4752 74.0531 65.4281C73.9395 65.3809 73.8363 65.3117 73.7493 65.2244C73.6624 65.1371 73.5934 65.0334 73.5463 64.9193C73.4993 64.8052 73.475 64.6828 73.475 64.5593C73.475 64.4358 73.4993 64.3134 73.5463 64.1993C73.5934 64.0852 73.6624 63.9815 73.7493 63.8942C73.8363 63.8069 73.9395 63.7377 74.0531 63.6906C74.1667 63.6434 74.2885 63.6192 74.4114 63.6193H102.234C102.482 63.6196 102.719 63.7188 102.895 63.895C103.07 64.0713 103.168 64.3102 103.168 64.5593C103.168 64.8084 103.07 65.0473 102.895 65.2236C102.719 65.3998 102.482 65.499 102.234 65.4993V65.4993Z" fill="#E6E6E6"/>
<path d="M74.0524 81.6405C75.8593 81.6405 77.324 81.4771 77.324 81.2756C77.324 81.074 75.8593 80.9106 74.0524 80.9106C72.2456 80.9106 70.7808 81.074 70.7808 81.2756C70.7808 81.4771 72.2456 81.6405 74.0524 81.6405Z" fill="#F2F2F2"/>
<path d="M44.813 38.6987C46.6199 38.6987 48.0846 38.5353 48.0846 38.3338C48.0846 38.1322 46.6199 37.9688 44.813 37.9688C43.0061 37.9688 41.5414 38.1322 41.5414 38.3338C41.5414 38.5353 43.0061 38.6987 44.813 38.6987Z" fill="#F2F2F2"/>
</svg>
